<?xml version="1.0" encoding="UTF-8"?>
<svg xmlns="http://www.w3.org/2000/svg" xmlns:xlink="http://www.w3.org/1999/xlink" width="484pt" height="299pt" viewBox="0 0 484 299" version="1.1">
<g id="surface15">
<rect x="0" y="0" width="484" height="299" style="fill:rgb(100%,100%,100%);fill-opacity:1;stroke:none;"/>
<path style=" stroke:none;fill-rule:nonzero;fill:rgb(64.313725%,66.27451%,84.705882%);fill-opacity:1;" d="M 230.714844 235.785156 L 227.28125 235.21875 L 223.871094 234.515625 L 220.492188 233.683594 L 217.148438 232.714844 L 213.84375 231.617188 L 210.585938 230.394531 L 211.804688 227.34375 L 213.019531 224.292969 L 214.238281 221.246094 L 215.453125 218.195312 L 216.671875 215.148438 L 217.886719 212.097656 L 219.101562 209.050781 L 220.320312 206 L 221.535156 202.953125 L 222.753906 199.902344 L 223.96875 196.851562 L 225.183594 193.804688 L 226.402344 190.753906 L 227.617188 187.707031 L 228.835938 184.65625 L 230.050781 181.609375 L 231.265625 178.558594 L 232.484375 175.507812 L 233.699219 172.460938 L 234.917969 169.410156 L 236.132812 166.363281 L 237.351562 163.3125 L 238.566406 160.265625 L 239.78125 157.214844 L 241 154.167969 L 242.214844 151.117188 L 243.433594 148.066406 L 242.488281 154.566406 L 242.019531 157.8125 L 241.546875 161.0625 L 241.078125 164.3125 L 240.605469 167.5625 L 240.132812 170.808594 L 239.664062 174.058594 L 239.191406 177.308594 L 238.722656 180.554688 L 238.25 183.804688 L 237.78125 187.054688 L 237.308594 190.300781 L 236.835938 193.550781 L 236.367188 196.800781 L 235.894531 200.046875 L 235.425781 203.296875 L 234.480469 209.796875 L 234.011719 213.042969 L 233.539062 216.292969 L 233.070312 219.542969 L 232.597656 222.789062 L 232.125 226.039062 L 231.65625 229.289062 L 231.183594 232.535156 Z M 230.714844 235.785156 "/>
<path style=" stroke:none;fill-rule:nonzero;fill:rgb(70.588235%,84.705882%,98.431373%);fill-opacity:1;" d="M 216.21875 211.40625 L 213.265625 210.054688 L 210.378906 208.566406 L 207.566406 206.941406 L 204.832031 205.1875 L 202.183594 203.304688 L 204.148438 200.675781 L 206.113281 198.042969 L 210.042969 192.785156 L 212.003906 190.152344 L 215.933594 184.894531 L 217.898438 182.261719 L 219.863281 179.632812 L 221.828125 177 L 223.789062 174.371094 L 225.753906 171.742188 L 227.71875 169.109375 L 231.648438 163.851562 L 233.609375 161.21875 L 235.574219 158.589844 L 237.539062 155.957031 L 241.46875 150.699219 L 243.433594 148.066406 L 242.136719 151.085938 L 239.542969 157.117188 L 238.25 160.132812 L 234.359375 169.179688 L 233.066406 172.199219 L 229.175781 181.246094 L 227.882812 184.261719 L 225.289062 190.292969 L 223.996094 193.3125 L 220.105469 202.359375 L 218.8125 205.375 Z M 216.21875 211.40625 "/>
<path style=" stroke:none;fill-rule:nonzero;fill:rgb(70.980392%,85.098039%,98.823529%);fill-opacity:1;" d="M 212.945312 186.738281 L 210.007812 184.226562 L 207.273438 181.492188 L 204.761719 178.554688 L 207.339844 176.519531 L 212.496094 172.457031 L 215.074219 170.421875 L 222.808594 164.328125 L 225.386719 162.292969 L 230.542969 158.230469 L 233.121094 156.195312 L 240.855469 150.101562 L 243.433594 148.066406 L 241.398438 150.644531 L 235.304688 158.378906 L 233.269531 160.957031 L 229.207031 166.113281 L 227.171875 168.691406 L 221.078125 176.425781 L 219.042969 179.003906 L 214.980469 184.160156 Z M 212.945312 186.738281 "/>
<path style=" stroke:none;fill-rule:nonzero;fill:rgb(69.803922%,82.745098%,97.254902%);fill-opacity:1;" d="M 205.554688 176.351562 L 203.453125 173.292969 L 201.597656 170.078125 L 200 166.726562 L 209.304688 162.730469 L 212.410156 161.398438 L 215.511719 160.0625 L 224.816406 156.066406 L 227.921875 154.730469 L 240.328125 149.402344 L 243.433594 148.066406 L 240.726562 150.089844 L 238.019531 152.109375 L 235.316406 154.128906 L 232.609375 156.148438 L 229.90625 158.167969 L 227.199219 160.191406 L 224.492188 162.210938 L 221.789062 164.230469 L 219.082031 166.25 L 216.378906 168.269531 L 213.671875 170.289062 L 210.964844 172.3125 L 208.261719 174.332031 Z M 205.554688 176.351562 "/>
<path style=" stroke:none;fill-rule:nonzero;fill:rgb(69.019608%,81.176471%,96.078431%);fill-opacity:1;" d="M 183.058594 172.152344 L 181.746094 168.558594 L 180.648438 164.890625 L 179.765625 161.164062 L 179.105469 157.394531 L 182.320312 156.929688 L 185.539062 156.460938 L 188.753906 155.996094 L 191.972656 155.53125 L 195.1875 155.0625 L 198.402344 154.597656 L 201.621094 154.128906 L 208.050781 153.199219 L 211.269531 152.730469 L 214.484375 152.265625 L 217.703125 151.796875 L 224.132812 150.867188 L 227.351562 150.398438 L 233.78125 149.46875 L 237 149 L 240.214844 148.535156 L 243.433594 148.066406 L 240.414062 149.273438 L 234.375 151.679688 L 231.359375 152.886719 L 222.300781 156.496094 L 219.285156 157.703125 L 213.246094 160.109375 L 210.226562 161.316406 L 207.210938 162.519531 L 204.191406 163.722656 L 201.171875 164.929688 L 198.152344 166.132812 L 195.136719 167.335938 L 192.117188 168.539062 L 189.097656 169.746094 Z M 183.058594 172.152344 "/>
<path style=" stroke:none;fill-rule:nonzero;fill:rgb(64.705882%,69.019608%,87.058824%);fill-opacity:1;" d="M 184.75 155.011719 L 184.445312 151.546875 L 184.34375 148.066406 L 184.445312 144.589844 L 184.75 141.121094 L 191.273438 141.894531 L 194.53125 142.28125 L 197.792969 142.664062 L 201.050781 143.050781 L 204.3125 143.4375 L 207.570312 143.824219 L 210.832031 144.210938 L 214.09375 144.59375 L 217.351562 144.980469 L 220.613281 145.367188 L 223.871094 145.753906 L 227.132812 146.136719 L 230.390625 146.523438 L 233.652344 146.910156 L 236.910156 147.296875 L 240.171875 147.683594 L 243.433594 148.066406 L 236.910156 148.839844 L 233.652344 149.226562 L 230.390625 149.609375 L 227.132812 149.996094 L 223.871094 150.382812 L 220.613281 150.769531 L 217.351562 151.15625 L 214.09375 151.539062 L 207.570312 152.3125 L 204.3125 152.699219 L 201.050781 153.082031 L 197.792969 153.46875 L 194.53125 153.855469 L 191.273438 154.242188 L 188.011719 154.628906 Z M 184.75 155.011719 "/>
<path style=" stroke:none;fill-rule:nonzero;fill:rgb(63.137255%,61.176471%,80.392157%);fill-opacity:1;" d="M 169.359375 137.328125 L 169.949219 133.851562 L 170.699219 130.40625 L 171.613281 126.996094 L 172.683594 123.636719 L 173.914062 120.332031 L 176.9375 121.539062 L 179.957031 122.746094 L 182.980469 123.949219 L 189.027344 126.363281 L 192.046875 127.566406 L 201.117188 131.1875 L 204.140625 132.390625 L 207.160156 133.597656 L 210.183594 134.804688 L 213.207031 136.007812 L 216.230469 137.214844 L 219.25 138.421875 L 222.273438 139.625 L 231.34375 143.246094 L 234.363281 144.449219 L 240.410156 146.863281 L 243.433594 148.066406 L 240.210938 147.601562 L 236.992188 147.132812 L 233.769531 146.667969 L 230.550781 146.199219 L 227.328125 145.734375 L 224.109375 145.265625 L 220.886719 144.800781 L 217.667969 144.332031 L 214.445312 143.867188 L 208.007812 142.929688 L 204.785156 142.464844 L 201.566406 141.996094 L 198.34375 141.53125 L 195.125 141.0625 L 191.902344 140.597656 L 188.683594 140.128906 L 185.460938 139.664062 L 182.242188 139.195312 L 179.019531 138.730469 L 175.800781 138.261719 L 172.578125 137.792969 Z M 169.359375 137.328125 "/>
<path style=" stroke:none;fill-rule:nonzero;fill:rgb(63.529412%,63.921569%,83.137255%);fill-opacity:1;" d="M 185.519531 123.1875 L 187.085938 119.820312 L 188.847656 116.554688 L 190.796875 113.394531 L 192.929688 110.355469 L 195.585938 112.339844 L 198.246094 114.324219 L 200.902344 116.308594 L 203.5625 118.296875 L 206.21875 120.28125 L 208.878906 122.265625 L 211.535156 124.25 L 214.195312 126.234375 L 216.851562 128.21875 L 219.511719 130.203125 L 222.167969 132.1875 L 224.824219 134.175781 L 227.484375 136.160156 L 230.140625 138.144531 L 232.800781 140.128906 L 235.457031 142.113281 L 238.117188 144.097656 L 240.773438 146.082031 L 243.433594 148.066406 L 240.382812 146.757812 L 234.289062 144.140625 L 231.242188 142.828125 L 228.191406 141.519531 L 222.097656 138.902344 L 219.046875 137.59375 L 216 136.28125 L 209.90625 133.664062 L 206.855469 132.355469 L 203.808594 131.042969 L 197.714844 128.425781 L 194.664062 127.117188 L 191.617188 125.804688 L 188.570312 124.496094 Z M 185.519531 123.1875 "/>
<path style=" stroke:none;fill-rule:nonzero;fill:rgb(62.745098%,59.215686%,78.431373%);fill-opacity:1;" d="M 207.855469 120.019531 L 210.164062 117.316406 L 212.679688 114.800781 L 215.386719 112.492188 L 217.390625 115.03125 L 219.390625 117.574219 L 221.394531 120.113281 L 223.398438 122.65625 L 225.402344 125.195312 L 229.410156 130.28125 L 231.414062 132.820312 L 233.414062 135.363281 L 235.417969 137.902344 L 237.421875 140.445312 L 239.425781 142.984375 L 241.429688 145.527344 L 243.433594 148.066406 L 240.890625 146.066406 L 238.351562 144.0625 L 233.265625 140.054688 L 230.726562 138.050781 L 228.183594 136.046875 L 225.644531 134.042969 L 223.101562 132.042969 L 220.5625 130.039062 L 218.019531 128.035156 L 215.480469 126.03125 L 212.9375 124.027344 L 210.398438 122.023438 Z M 207.855469 120.019531 "/>
<path style=" stroke:none;fill-rule:nonzero;fill:rgb(66.27451%,74.509804%,91.372549%);fill-opacity:1;" d="M 215.148438 110.191406 L 218.207031 108.089844 L 221.421875 106.234375 L 224.773438 104.636719 L 230.101562 117.042969 L 231.4375 120.148438 L 235.433594 129.453125 L 236.769531 132.554688 L 238.101562 135.660156 L 242.097656 144.964844 L 243.433594 148.066406 L 241.410156 145.363281 L 239.390625 142.65625 L 237.371094 139.953125 L 233.332031 134.539062 L 231.308594 131.835938 L 229.289062 129.128906 L 227.269531 126.425781 L 223.230469 121.011719 L 221.210938 118.308594 L 219.1875 115.601562 L 217.167969 112.898438 Z M 215.148438 110.191406 "/>
<path style=" stroke:none;fill-rule:nonzero;fill:rgb(63.137255%,60.392157%,79.607843%);fill-opacity:1;" d="M 225.914062 104.160156 L 229.414062 102.921875 L 233 101.960938 L 236.648438 101.285156 L 237.132812 104.625 L 237.617188 107.96875 L 238.101562 111.308594 L 238.585938 114.652344 L 239.070312 117.992188 L 239.554688 121.335938 L 240.039062 124.675781 L 240.523438 128.019531 L 241.007812 131.359375 L 241.492188 134.703125 L 241.980469 138.042969 L 242.464844 141.382812 L 242.949219 144.726562 L 243.433594 148.066406 L 242.179688 144.933594 L 239.679688 138.660156 L 238.425781 135.523438 L 235.925781 129.25 L 234.671875 126.113281 L 233.421875 122.976562 L 232.171875 119.84375 L 230.921875 116.707031 L 229.667969 113.570312 L 227.167969 107.296875 Z M 225.914062 104.160156 "/>
<path style=" stroke:none;fill-rule:nonzero;fill:rgb(63.921569%,65.490196%,84.313725%);fill-opacity:1;" d="M 238.339844 105.035156 L 241.730469 104.769531 L 245.132812 104.769531 L 248.523438 105.035156 L 248.132812 108.347656 L 247.351562 114.964844 L 246.957031 118.277344 L 246.566406 121.585938 L 246.175781 124.898438 L 245.78125 128.207031 L 245.390625 131.515625 L 245 134.828125 L 244.609375 138.136719 L 244.214844 141.449219 L 243.433594 148.066406 L 243.039062 144.757812 L 242.648438 141.449219 L 242.257812 138.136719 L 241.863281 134.828125 L 241.472656 131.515625 L 240.691406 124.898438 L 240.296875 121.585938 L 239.90625 118.277344 L 239.515625 114.964844 L 239.121094 111.65625 L 238.730469 108.347656 Z M 238.339844 105.035156 "/>
<path style=" stroke:none;fill-rule:nonzero;fill:rgb(65.098039%,70.196078%,87.843137%);fill-opacity:1;" d="M 247.953125 116.878906 L 251.589844 117.628906 L 255.109375 118.796875 L 253.8125 122.050781 L 252.515625 125.300781 L 251.21875 128.554688 L 249.917969 131.804688 L 247.324219 138.3125 L 246.027344 141.5625 L 244.730469 144.816406 L 243.433594 148.066406 L 243.933594 144.601562 L 244.941406 137.671875 L 245.441406 134.207031 L 245.945312 130.742188 L 246.445312 127.277344 L 246.949219 123.808594 L 247.453125 120.34375 Z M 247.953125 116.878906 "/>
<path style=" stroke:none;fill-rule:nonzero;fill:rgb(63.137255%,62.745098%,81.960784%);fill-opacity:1;" d="M 266.757812 93.777344 L 269.914062 95.242188 L 272.976562 96.894531 L 275.9375 98.722656 L 278.789062 100.722656 L 276.824219 103.351562 L 274.859375 105.984375 L 270.929688 111.242188 L 268.964844 113.875 L 267.003906 116.503906 L 265.039062 119.132812 L 263.074219 121.765625 L 259.144531 127.023438 L 257.179688 129.65625 L 255.21875 132.285156 L 253.253906 134.917969 L 249.324219 140.175781 L 247.359375 142.808594 L 245.394531 145.4375 L 243.433594 148.066406 L 244.726562 145.050781 L 248.617188 136.003906 L 249.910156 132.988281 L 251.207031 129.972656 L 252.503906 126.953125 L 253.800781 123.9375 L 255.09375 120.921875 L 257.6875 114.890625 L 258.980469 111.875 L 260.277344 108.859375 L 261.574219 105.839844 L 262.871094 102.824219 L 264.164062 99.808594 Z M 266.757812 93.777344 "/>
<path style=" stroke:none;fill-rule:nonzero;fill:rgb(62.745098%,57.647059%,77.254902%);fill-opacity:1;" d="M 280.015625 101.664062 L 282.683594 103.898438 L 285.214844 106.285156 L 287.601562 108.816406 L 289.835938 111.484375 L 287.257812 113.519531 L 279.523438 119.613281 L 276.945312 121.648438 L 271.789062 125.710938 L 269.210938 127.746094 L 261.476562 133.839844 L 258.898438 135.875 L 256.320312 137.90625 L 253.746094 139.9375 L 251.167969 141.972656 L 243.433594 148.066406 L 249.527344 140.332031 L 251.5625 137.753906 L 253.59375 135.179688 L 255.625 132.601562 L 257.660156 130.023438 L 263.753906 122.289062 L 265.789062 119.710938 L 269.851562 114.554688 L 271.886719 111.976562 L 277.980469 104.242188 Z M 280.015625 101.664062 "/>
<path style=" stroke:none;fill-rule:nonzero;fill:rgb(61.568627%,50.588235%,70.196078%);fill-opacity:1;" d="M 303.402344 103.285156 L 305.445312 106.160156 L 307.351562 109.128906 L 309.117188 112.183594 L 310.734375 115.316406 L 312.203125 118.523438 L 309.210938 119.808594 L 306.222656 121.089844 L 303.230469 122.375 L 300.242188 123.660156 L 297.25 124.945312 L 294.261719 126.230469 L 291.269531 127.515625 L 288.28125 128.800781 L 285.292969 130.082031 L 282.300781 131.367188 L 279.3125 132.652344 L 276.320312 133.9375 L 273.332031 135.222656 L 270.339844 136.507812 L 267.351562 137.792969 L 264.363281 139.074219 L 261.371094 140.359375 L 258.382812 141.644531 L 255.390625 142.929688 L 252.402344 144.214844 L 249.410156 145.5 L 246.421875 146.785156 L 243.433594 148.066406 L 246.039062 146.121094 L 248.648438 144.171875 L 251.253906 142.226562 L 253.863281 140.28125 L 256.46875 138.332031 L 259.078125 136.386719 L 261.683594 134.4375 L 264.292969 132.492188 L 266.898438 130.542969 L 269.507812 128.597656 L 272.113281 126.648438 L 274.722656 124.703125 L 277.328125 122.753906 L 279.9375 120.808594 L 282.542969 118.863281 L 285.152344 116.914062 L 287.757812 114.96875 L 290.367188 113.019531 L 292.972656 111.074219 L 295.582031 109.125 L 298.1875 107.179688 L 300.796875 105.230469 Z M 303.402344 103.285156 "/>
<path style=" stroke:none;fill-rule:nonzero;fill:rgb(64.313725%,66.27451%,84.705882%);fill-opacity:1;" d="M 331.246094 113.035156 L 332.554688 116.507812 L 333.722656 120.03125 L 334.753906 123.597656 L 335.644531 127.203125 L 336.394531 130.839844 L 336.996094 134.5 L 330.542969 135.4375 L 327.320312 135.90625 L 324.09375 136.371094 L 314.414062 137.777344 L 311.1875 138.242188 L 301.507812 139.648438 L 298.28125 140.113281 L 285.375 141.988281 L 282.148438 142.453125 L 272.46875 143.859375 L 269.242188 144.324219 L 259.5625 145.730469 L 256.335938 146.195312 L 253.109375 146.664062 L 249.886719 147.132812 L 246.660156 147.601562 L 243.433594 148.066406 L 252.515625 144.445312 L 255.542969 143.234375 L 258.574219 142.027344 L 264.628906 139.613281 L 267.65625 138.402344 L 273.710938 135.988281 L 276.742188 134.777344 L 285.824219 131.15625 L 288.851562 129.945312 L 291.882812 128.738281 L 297.9375 126.324219 L 300.964844 125.113281 L 307.019531 122.699219 L 310.050781 121.492188 L 313.078125 120.28125 L 319.132812 117.867188 L 322.160156 116.65625 L 325.1875 115.449219 L 328.21875 114.242188 Z M 331.246094 113.035156 "/>
<path style=" stroke:none;fill-rule:nonzero;fill:rgb(62.745098%,57.647059%,76.862745%);fill-opacity:1;" d="M 313.847656 139.734375 L 314.164062 143.058594 L 314.320312 146.398438 L 314.320312 149.738281 L 314.164062 153.074219 L 313.847656 156.402344 L 310.648438 156.023438 L 307.445312 155.644531 L 301.046875 154.886719 L 297.84375 154.507812 L 294.644531 154.128906 L 291.441406 153.75 L 285.042969 152.992188 L 281.839844 152.613281 L 275.441406 151.855469 L 272.238281 151.476562 L 269.039062 151.097656 L 265.835938 150.71875 L 259.4375 149.960938 L 256.234375 149.582031 L 253.035156 149.203125 L 249.832031 148.824219 L 243.433594 148.066406 L 249.832031 147.308594 L 253.035156 146.929688 L 256.234375 146.550781 L 259.4375 146.171875 L 262.636719 145.792969 L 265.835938 145.417969 L 269.039062 145.039062 L 272.238281 144.660156 L 275.441406 144.28125 L 281.839844 143.523438 L 285.042969 143.144531 L 291.441406 142.386719 L 294.644531 142.007812 L 297.84375 141.628906 L 301.046875 141.25 L 307.445312 140.492188 L 310.648438 140.113281 Z M 313.847656 139.734375 "/>
<path style=" stroke:none;fill-rule:nonzero;fill:rgb(65.490196%,71.764706%,89.411765%);fill-opacity:1;" d="M 319.453125 159.089844 L 318.851562 162.660156 L 318.078125 166.195312 L 317.144531 169.691406 L 316.042969 173.140625 L 314.78125 176.53125 L 311.808594 175.347656 L 308.835938 174.160156 L 305.863281 172.976562 L 299.917969 170.601562 L 296.945312 169.417969 L 293.96875 168.230469 L 290.996094 167.042969 L 288.023438 165.859375 L 285.050781 164.671875 L 282.078125 163.488281 L 276.132812 161.113281 L 273.160156 159.929688 L 267.214844 157.554688 L 264.242188 156.371094 L 261.269531 155.183594 L 258.296875 154 L 252.351562 151.625 L 249.378906 150.441406 L 243.433594 148.066406 L 246.601562 148.527344 L 249.765625 148.988281 L 252.933594 149.445312 L 256.101562 149.90625 L 259.269531 150.363281 L 262.4375 150.824219 L 265.605469 151.28125 L 271.941406 152.203125 L 275.109375 152.660156 L 278.277344 153.121094 L 281.441406 153.578125 L 284.609375 154.039062 L 287.777344 154.496094 L 294.113281 155.417969 L 297.28125 155.875 L 300.449219 156.335938 L 303.617188 156.792969 L 306.785156 157.253906 L 309.953125 157.710938 L 313.117188 158.171875 L 316.285156 158.632812 Z M 319.453125 159.089844 "/>
<path style=" stroke:none;fill-rule:nonzero;fill:rgb(66.666667%,75.686275%,92.156863%);fill-opacity:1;" d="M 295.914062 170.617188 L 294.496094 173.667969 L 292.898438 176.628906 L 291.132812 179.492188 L 289.199219 182.246094 L 283.816406 178.222656 L 281.125 176.214844 L 278.429688 174.203125 L 275.738281 172.191406 L 273.046875 170.183594 L 267.664062 166.160156 L 264.96875 164.152344 L 259.585938 160.128906 L 256.894531 158.121094 L 254.199219 156.109375 L 251.507812 154.097656 L 248.816406 152.089844 L 243.433594 148.066406 L 246.519531 149.394531 L 249.605469 150.71875 L 252.695312 152.046875 L 255.78125 153.375 L 258.867188 154.699219 L 261.953125 156.027344 L 265.042969 157.351562 L 268.128906 158.679688 L 271.214844 160.003906 L 274.304688 161.332031 L 277.390625 162.65625 L 280.476562 163.984375 L 283.566406 165.308594 L 289.738281 167.964844 L 292.828125 169.289062 Z M 295.914062 170.617188 "/>
<path style=" stroke:none;fill-rule:nonzero;fill:rgb(65.490196%,71.764706%,89.411765%);fill-opacity:1;" d="M 288.289062 183.429688 L 286.128906 186.011719 L 283.824219 188.457031 L 281.375 190.765625 L 278.796875 192.925781 L 276.714844 190.285156 L 274.632812 187.648438 L 272.554688 185.007812 L 270.472656 182.371094 L 268.394531 179.730469 L 266.3125 177.09375 L 264.234375 174.453125 L 262.152344 171.816406 L 260.074219 169.175781 L 257.992188 166.539062 L 255.914062 163.898438 L 253.832031 161.261719 L 251.753906 158.621094 L 249.671875 155.984375 L 247.59375 153.34375 L 245.511719 150.707031 L 243.433594 148.066406 L 246.070312 150.148438 L 248.710938 152.226562 L 251.347656 154.308594 L 253.988281 156.386719 L 256.625 158.46875 L 259.265625 160.550781 L 261.902344 162.628906 L 264.542969 164.710938 L 267.179688 166.789062 L 269.820312 168.871094 L 272.457031 170.949219 L 275.097656 173.03125 L 277.734375 175.109375 L 280.375 177.191406 L 283.011719 179.269531 L 285.652344 181.351562 Z M 288.289062 183.429688 "/>
<path style=" stroke:none;fill-rule:nonzero;fill:rgb(67.058824%,76.470588%,92.941176%);fill-opacity:1;" d="M 282.324219 200.148438 L 279.1875 202.347656 L 275.929688 204.359375 L 272.5625 206.175781 L 269.089844 207.789062 L 267.808594 204.800781 L 266.523438 201.816406 L 265.242188 198.832031 L 263.957031 195.84375 L 262.675781 192.859375 L 261.394531 189.871094 L 260.109375 186.886719 L 258.828125 183.898438 L 257.542969 180.914062 L 256.261719 177.929688 L 254.976562 174.941406 L 253.695312 171.957031 L 252.414062 168.96875 L 251.128906 165.984375 L 249.847656 162.996094 L 248.5625 160.011719 L 247.28125 157.027344 L 245.996094 154.039062 L 244.714844 151.054688 L 243.433594 148.066406 L 245.375 150.671875 L 247.320312 153.277344 L 249.265625 155.878906 L 253.15625 161.089844 L 255.097656 163.691406 L 257.042969 166.296875 L 258.988281 168.898438 L 262.878906 174.109375 L 264.820312 176.710938 L 268.710938 181.921875 L 270.65625 184.523438 L 272.601562 187.128906 L 274.542969 189.730469 L 278.433594 194.941406 L 280.378906 197.542969 Z M 282.324219 200.148438 "/>
<path style=" stroke:none;fill-rule:nonzero;fill:rgb(65.098039%,70.196078%,88.235294%);fill-opacity:1;" d="M 274.085938 224.90625 L 271.046875 226.046875 L 267.964844 227.074219 L 264.84375 227.976562 L 261.691406 228.753906 L 258.507812 229.410156 L 255.300781 229.9375 L 254.828125 226.664062 L 254.351562 223.386719 L 253.878906 220.113281 L 253.402344 216.839844 L 252.929688 213.5625 L 252.453125 210.289062 L 251.980469 207.015625 L 251.503906 203.738281 L 251.027344 200.464844 L 250.554688 197.191406 L 250.078125 193.914062 L 249.605469 190.640625 L 249.128906 187.367188 L 248.65625 184.089844 L 248.179688 180.816406 L 247.707031 177.542969 L 247.230469 174.265625 L 246.757812 170.992188 L 246.28125 167.714844 L 245.804688 164.441406 L 245.332031 161.167969 L 244.855469 157.890625 L 244.382812 154.617188 L 243.90625 151.34375 L 243.433594 148.066406 L 244.660156 151.140625 L 245.882812 154.214844 L 248.335938 160.363281 L 249.5625 163.433594 L 254.46875 175.730469 L 255.695312 178.800781 L 256.921875 181.875 L 258.144531 184.949219 L 260.597656 191.097656 L 261.824219 194.167969 L 267.957031 209.539062 L 269.183594 212.609375 L 270.410156 215.683594 L 271.632812 218.757812 Z M 274.085938 224.90625 "/>
</g>
</svg>
