<?xml version="1.0" encoding="UTF-8"?>
<svg xmlns="http://www.w3.org/2000/svg" xmlns:xlink="http://www.w3.org/1999/xlink" width="484pt" height="299pt" viewBox="0 0 484 299" version="1.1">
<g id="surface31">
<rect x="0" y="0" width="484" height="299" style="fill:rgb(100%,100%,100%);fill-opacity:1;stroke:none;"/>
<path style=" stroke:none;fill-rule:nonzero;fill:rgb(65.490196%,71.764706%,89.411765%);fill-opacity:1;" d="M 229.867188 241.632812 L 226.203125 241.027344 L 222.566406 240.28125 L 218.960938 239.390625 L 215.394531 238.359375 L 211.871094 237.1875 L 208.398438 235.882812 L 209.605469 232.851562 L 210.8125 229.824219 L 212.023438 226.796875 L 214.4375 220.742188 L 215.648438 217.714844 L 216.855469 214.683594 L 219.269531 208.628906 L 220.480469 205.601562 L 221.6875 202.574219 L 222.894531 199.542969 L 224.101562 196.515625 L 225.3125 193.488281 L 228.933594 184.40625 L 230.144531 181.375 L 232.558594 175.320312 L 233.769531 172.292969 L 234.976562 169.265625 L 236.183594 166.234375 L 237.390625 163.207031 L 238.601562 160.179688 L 242.222656 151.097656 L 243.433594 148.066406 L 242.027344 157.746094 L 241.5625 160.972656 L 240.15625 170.652344 L 239.691406 173.878906 L 238.285156 183.558594 L 237.820312 186.785156 L 235.945312 199.691406 L 235.480469 202.917969 L 234.074219 212.597656 L 233.609375 215.820312 L 232.203125 225.5 L 231.738281 228.726562 L 230.332031 238.40625 Z M 229.867188 241.632812 "/>
<path style=" stroke:none;fill-rule:nonzero;fill:rgb(65.490196%,71.372549%,89.019608%);fill-opacity:1;" d="M 213.996094 216.582031 L 210.800781 215.121094 L 207.679688 213.507812 L 204.636719 211.75 L 201.679688 209.851562 L 198.816406 207.816406 L 200.753906 205.21875 L 202.695312 202.621094 L 204.632812 200.023438 L 208.515625 194.828125 L 210.453125 192.230469 L 214.335938 187.035156 L 216.273438 184.4375 L 218.214844 181.839844 L 220.152344 179.242188 L 224.035156 174.046875 L 225.972656 171.449219 L 227.914062 168.851562 L 229.851562 166.253906 L 233.734375 161.058594 L 235.671875 158.460938 L 237.613281 155.859375 L 239.550781 153.261719 L 243.433594 148.066406 L 240.871094 154.027344 L 239.59375 157.003906 L 238.3125 159.984375 L 237.03125 162.960938 L 235.753906 165.941406 L 234.472656 168.921875 L 233.195312 171.898438 L 231.914062 174.878906 L 230.632812 177.855469 L 229.355469 180.835938 L 228.074219 183.8125 L 226.792969 186.792969 L 225.515625 189.773438 L 224.234375 192.75 L 222.953125 195.730469 L 221.675781 198.707031 L 220.394531 201.6875 L 219.117188 204.667969 L 217.835938 207.644531 L 216.554688 210.625 L 215.277344 213.601562 Z M 213.996094 216.582031 "/>
<path style=" stroke:none;fill-rule:nonzero;fill:rgb(67.058824%,76.078431%,92.54902%);fill-opacity:1;" d="M 212.105469 187.804688 L 209.085938 185.226562 L 206.273438 182.414062 L 203.695312 179.394531 L 206.34375 177.304688 L 208.992188 175.21875 L 211.640625 173.128906 L 214.292969 171.039062 L 216.941406 168.953125 L 219.589844 166.863281 L 222.238281 164.777344 L 227.535156 160.597656 L 230.1875 158.511719 L 235.484375 154.332031 L 238.132812 152.246094 L 240.78125 150.15625 L 243.433594 148.066406 L 241.34375 150.71875 L 239.253906 153.367188 L 237.167969 156.015625 L 232.988281 161.3125 L 230.902344 163.964844 L 226.722656 169.261719 L 224.636719 171.910156 L 222.546875 174.558594 L 220.460938 177.207031 L 218.371094 179.859375 L 216.28125 182.507812 L 214.195312 185.15625 Z M 212.105469 187.804688 "/>
<path style=" stroke:none;fill-rule:nonzero;fill:rgb(65.098039%,69.803922%,87.45098%);fill-opacity:1;" d="M 174.082031 199.855469 L 172.101562 197.09375 L 170.230469 194.253906 L 168.472656 191.34375 L 166.832031 188.367188 L 165.308594 185.332031 L 163.90625 182.234375 L 187.46875 172.109375 L 190.414062 170.847656 L 222.8125 156.925781 L 225.761719 155.660156 L 243.433594 148.066406 L 240.863281 149.984375 L 238.296875 151.902344 L 233.15625 155.738281 L 230.589844 157.65625 L 228.019531 159.578125 L 225.453125 161.496094 L 222.882812 163.414062 L 220.316406 165.332031 L 215.175781 169.167969 L 212.609375 171.085938 L 210.039062 173.003906 L 207.472656 174.921875 L 204.902344 176.839844 L 202.335938 178.757812 L 199.765625 180.675781 L 197.199219 182.59375 L 192.058594 186.429688 L 189.492188 188.347656 L 186.921875 190.265625 L 184.355469 192.183594 L 181.785156 194.101562 L 179.21875 196.019531 L 176.648438 197.9375 Z M 174.082031 199.855469 "/>
<path style=" stroke:none;fill-rule:nonzero;fill:rgb(63.529412%,64.313725%,83.137255%);fill-opacity:1;" d="M 157.472656 182.363281 L 156.195312 178.960938 L 155.046875 175.511719 L 154.039062 172.019531 L 153.167969 168.492188 L 152.433594 164.933594 L 151.84375 161.347656 L 155.113281 160.875 L 158.386719 160.398438 L 161.65625 159.925781 L 164.925781 159.449219 L 168.199219 158.976562 L 171.46875 158.503906 L 174.742188 158.027344 L 178.011719 157.554688 L 181.28125 157.078125 L 184.554688 156.605469 L 187.824219 156.128906 L 191.09375 155.65625 L 194.367188 155.183594 L 197.636719 154.707031 L 200.910156 154.234375 L 204.179688 153.757812 L 207.449219 153.285156 L 210.722656 152.8125 L 213.992188 152.335938 L 217.265625 151.863281 L 220.535156 151.386719 L 223.804688 150.914062 L 227.078125 150.4375 L 233.617188 149.492188 L 236.890625 149.015625 L 240.160156 148.542969 L 243.433594 148.066406 L 240.363281 149.292969 L 237.292969 150.515625 L 231.152344 152.96875 L 228.082031 154.191406 L 225.011719 155.417969 L 221.941406 156.640625 L 218.871094 157.867188 L 215.800781 159.089844 L 212.734375 160.316406 L 209.664062 161.539062 L 206.59375 162.765625 L 203.523438 163.988281 L 197.382812 166.441406 L 194.3125 167.664062 L 191.242188 168.890625 L 188.171875 170.113281 L 185.101562 171.339844 L 182.035156 172.5625 L 178.964844 173.789062 L 175.894531 175.011719 L 172.824219 176.238281 L 169.753906 177.460938 L 163.613281 179.914062 L 160.542969 181.136719 Z M 157.472656 182.363281 "/>
<path style=" stroke:none;fill-rule:nonzero;fill:rgb(62.352941%,56.470588%,75.686275%);fill-opacity:1;" d="M 176.652344 155.972656 L 176.300781 152.027344 L 176.1875 148.066406 L 176.300781 144.109375 L 176.652344 140.164062 L 179.832031 140.539062 L 183.011719 140.917969 L 189.371094 141.667969 L 192.550781 142.046875 L 195.730469 142.421875 L 198.914062 142.796875 L 202.09375 143.175781 L 208.453125 143.925781 L 211.632812 144.304688 L 214.8125 144.679688 L 217.992188 145.058594 L 224.351562 145.808594 L 227.53125 146.1875 L 233.890625 146.9375 L 237.070312 147.316406 L 240.253906 147.691406 L 243.433594 148.066406 L 240.253906 148.445312 L 237.070312 148.820312 L 233.890625 149.195312 L 230.710938 149.574219 L 224.351562 150.324219 L 221.171875 150.703125 L 217.992188 151.078125 L 214.8125 151.457031 L 208.453125 152.207031 L 205.273438 152.585938 L 198.914062 153.335938 L 195.730469 153.714844 L 189.371094 154.464844 L 186.191406 154.84375 L 179.832031 155.59375 Z M 176.652344 155.972656 "/>
<path style=" stroke:none;fill-rule:nonzero;fill:rgb(61.568627%,50.588235%,70.196078%);fill-opacity:1;" d="M 180.175781 138.894531 L 180.828125 135.1875 L 181.691406 131.523438 L 182.773438 127.917969 L 184.066406 124.382812 L 190.316406 126.875 L 193.4375 128.121094 L 196.5625 129.371094 L 218.4375 138.09375 L 221.558594 139.34375 L 243.433594 148.066406 L 240.101562 147.585938 L 236.773438 147.101562 L 233.445312 146.621094 L 230.113281 146.136719 L 226.785156 145.652344 L 223.457031 145.171875 L 220.128906 144.6875 L 216.796875 144.207031 L 213.46875 143.722656 L 210.140625 143.242188 L 206.808594 142.757812 L 203.480469 142.273438 L 200.152344 141.792969 L 196.824219 141.308594 L 193.492188 140.828125 L 190.164062 140.34375 L 186.835938 139.863281 L 183.503906 139.378906 Z M 180.175781 138.894531 "/>
<path style=" stroke:none;fill-rule:nonzero;fill:rgb(62.745098%,58.823529%,78.431373%);fill-opacity:1;" d="M 178.589844 120.207031 L 179.972656 117.183594 L 181.496094 114.230469 L 183.160156 111.351562 L 184.957031 108.550781 L 186.882812 105.839844 L 189.453125 107.761719 L 194.59375 111.597656 L 197.164062 113.519531 L 199.734375 115.4375 L 202.304688 117.359375 L 207.445312 121.195312 L 210.015625 123.117188 L 215.15625 126.953125 L 217.726562 128.875 L 222.867188 132.710938 L 225.4375 134.632812 L 228.011719 136.550781 L 230.582031 138.472656 L 235.722656 142.308594 L 238.292969 144.230469 L 243.433594 148.066406 L 240.484375 146.800781 L 237.539062 145.535156 L 231.640625 143.003906 L 228.695312 141.734375 L 225.746094 140.46875 L 222.800781 139.203125 L 219.851562 137.9375 L 216.90625 136.671875 L 213.957031 135.40625 L 211.011719 134.136719 L 208.0625 132.871094 L 205.117188 131.605469 L 199.21875 129.074219 L 196.273438 127.808594 L 193.324219 126.539062 L 190.378906 125.273438 L 187.429688 124.007812 L 184.484375 122.742188 L 181.535156 121.476562 Z M 178.589844 120.207031 "/>
<path style=" stroke:none;fill-rule:nonzero;fill:rgb(63.529412%,64.313725%,83.137255%);fill-opacity:1;" d="M 188.007812 104.375 L 190.128906 101.8125 L 192.367188 99.351562 L 194.71875 97 L 197.175781 94.765625 L 199.738281 92.644531 L 201.726562 95.164062 L 203.710938 97.683594 L 205.699219 100.203125 L 209.667969 105.242188 L 211.65625 107.757812 L 213.640625 110.277344 L 215.628906 112.796875 L 217.613281 115.316406 L 219.601562 117.835938 L 223.570312 122.875 L 225.558594 125.394531 L 227.542969 127.914062 L 229.53125 130.433594 L 231.515625 132.953125 L 233.503906 135.472656 L 237.472656 140.511719 L 239.460938 143.03125 L 241.445312 145.546875 L 243.433594 148.066406 L 238.394531 144.097656 L 235.875 142.109375 L 233.355469 140.125 L 230.835938 138.136719 L 228.316406 136.152344 L 225.796875 134.164062 L 220.757812 130.195312 L 218.238281 128.207031 L 215.71875 126.222656 L 213.199219 124.234375 L 210.683594 122.25 L 208.164062 120.261719 L 203.125 116.292969 L 200.605469 114.304688 L 198.085938 112.320312 L 195.566406 110.332031 L 193.046875 108.347656 L 190.527344 106.359375 Z M 188.007812 104.375 "/>
<path style=" stroke:none;fill-rule:nonzero;fill:rgb(62.352941%,54.117647%,73.72549%);fill-opacity:1;" d="M 217.140625 112.859375 L 219.984375 110.902344 L 222.972656 109.179688 L 226.085938 107.695312 L 227.421875 110.800781 L 228.753906 113.90625 L 230.089844 117.011719 L 231.421875 120.117188 L 234.09375 126.328125 L 235.425781 129.433594 L 236.761719 132.539062 L 238.09375 135.644531 L 239.429688 138.75 L 240.761719 141.855469 L 243.433594 148.066406 L 239.386719 142.652344 L 237.363281 139.941406 L 235.34375 137.234375 L 233.320312 134.527344 L 231.296875 131.816406 L 229.273438 129.109375 L 227.253906 126.402344 L 225.230469 123.691406 L 223.207031 120.984375 L 221.183594 118.273438 L 219.164062 115.566406 Z M 217.140625 112.859375 "/>
<path style=" stroke:none;fill-rule:nonzero;fill:rgb(62.352941%,54.901961%,74.509804%);fill-opacity:1;" d="M 226.902344 106.636719 L 230.203125 105.464844 L 233.585938 104.558594 L 237.03125 103.921875 L 238.015625 110.710938 L 238.507812 114.109375 L 239 117.503906 L 239.492188 120.902344 L 240.476562 127.691406 L 240.96875 131.089844 L 241.953125 137.878906 L 242.449219 141.277344 L 243.433594 148.066406 L 242.160156 144.878906 L 240.890625 141.695312 L 239.617188 138.507812 L 238.347656 135.320312 L 237.074219 132.132812 L 235.804688 128.945312 L 233.257812 122.570312 L 231.988281 119.382812 L 230.714844 116.195312 L 229.445312 113.007812 L 228.171875 109.820312 Z M 226.902344 106.636719 "/>
<path style=" stroke:none;fill-rule:nonzero;fill:rgb(61.568627%,51.372549%,70.980392%);fill-opacity:1;" d="M 238.894531 109.71875 L 243.433594 109.453125 L 247.972656 109.71875 L 246.835938 119.304688 L 246.457031 122.503906 L 246.078125 125.699219 L 245.703125 128.894531 L 243.808594 144.871094 L 243.433594 148.066406 L 241.539062 132.089844 L 241.164062 128.894531 L 240.40625 122.503906 L 240.027344 119.304688 L 239.269531 112.914062 Z M 238.894531 109.71875 "/>
<path style=" stroke:none;fill-rule:nonzero;fill:rgb(64.313725%,66.27451%,84.705882%);fill-opacity:1;" d="M 248.398438 113.804688 L 252.394531 114.625 L 256.261719 115.910156 L 254.980469 119.125 L 253.695312 122.34375 L 252.414062 125.558594 L 251.128906 128.773438 L 249.847656 131.988281 L 248.5625 135.203125 L 247.28125 138.421875 L 245.996094 141.636719 L 243.433594 148.066406 L 245.417969 134.363281 L 245.917969 130.9375 L 246.414062 127.511719 L 246.910156 124.082031 Z M 248.398438 113.804688 "/>
<path style=" stroke:none;fill-rule:nonzero;fill:rgb(64.705882%,67.843137%,86.27451%);fill-opacity:1;" d="M 256.046875 118.703125 L 259.410156 120.390625 L 262.554688 122.460938 L 260.429688 125.304688 L 258.304688 128.152344 L 256.179688 130.996094 L 254.054688 133.84375 L 249.804688 139.53125 L 247.679688 142.378906 L 245.558594 145.222656 L 243.433594 148.066406 L 244.832031 144.804688 L 247.636719 138.28125 L 249.039062 135.015625 L 251.84375 128.492188 L 253.242188 125.230469 L 254.644531 121.96875 Z M 256.046875 118.703125 "/>
<path style=" stroke:none;fill-rule:nonzero;fill:rgb(65.098039%,70.588235%,88.235294%);fill-opacity:1;" d="M 266.515625 118.789062 L 269.796875 121.703125 L 272.710938 124.984375 L 270.050781 127.082031 L 267.390625 129.183594 L 264.726562 131.28125 L 262.066406 133.378906 L 259.402344 135.476562 L 256.742188 137.574219 L 254.078125 139.675781 L 251.417969 141.773438 L 248.753906 143.871094 L 243.433594 148.066406 L 247.628906 142.746094 L 249.726562 140.082031 L 251.824219 137.421875 L 253.925781 134.757812 L 256.023438 132.097656 L 258.121094 129.433594 L 260.21875 126.773438 L 262.316406 124.109375 L 264.417969 121.449219 Z M 266.515625 118.789062 "/>
<path style=" stroke:none;fill-rule:nonzero;fill:rgb(65.490196%,71.764706%,89.411765%);fill-opacity:1;" d="M 269.039062 128.945312 L 271.109375 132.089844 L 272.796875 135.453125 L 269.53125 136.855469 L 266.269531 138.257812 L 263.007812 139.65625 L 256.484375 142.460938 L 253.21875 143.863281 L 246.695312 146.667969 L 243.433594 148.066406 L 246.277344 145.941406 L 249.121094 143.820312 L 251.96875 141.695312 L 257.65625 137.445312 L 260.503906 135.320312 L 263.347656 133.195312 L 266.195312 131.070312 Z M 269.039062 128.945312 "/>
<path style=" stroke:none;fill-rule:nonzero;fill:rgb(65.882353%,73.72549%,90.980392%);fill-opacity:1;" d="M 279.917969 133.511719 L 281.375 137.902344 L 282.308594 142.429688 L 279.066406 142.902344 L 272.589844 143.839844 L 269.347656 144.308594 L 266.109375 144.78125 L 262.871094 145.25 L 259.628906 145.71875 L 256.390625 146.1875 L 253.152344 146.660156 L 249.910156 147.128906 L 243.433594 148.066406 L 246.472656 146.855469 L 249.511719 145.640625 L 252.554688 144.429688 L 255.59375 143.214844 L 258.632812 142.003906 L 261.675781 140.789062 L 264.714844 139.578125 L 267.757812 138.363281 L 270.796875 137.152344 L 273.835938 135.9375 L 276.878906 134.722656 Z M 279.917969 133.511719 "/>
<path style=" stroke:none;fill-rule:nonzero;fill:rgb(64.705882%,69.019608%,87.058824%);fill-opacity:1;" d="M 273.847656 144.46875 L 274.058594 148.066406 L 273.847656 151.667969 L 270.46875 151.269531 L 267.089844 150.867188 L 263.707031 150.46875 L 260.328125 150.066406 L 253.570312 149.269531 L 250.191406 148.867188 L 246.8125 148.46875 L 243.433594 148.066406 L 250.191406 147.269531 L 253.570312 146.867188 L 256.949219 146.46875 L 260.328125 146.066406 L 263.707031 145.667969 L 267.089844 145.269531 L 270.46875 144.867188 Z M 273.847656 144.46875 "/>
<path style=" stroke:none;fill-rule:nonzero;fill:rgb(68.235294%,79.215686%,94.509804%);fill-opacity:1;" d="M 285.601562 154.183594 L 284.992188 157.472656 L 284.125 160.703125 L 283.011719 163.859375 L 279.964844 162.644531 L 276.921875 161.429688 L 273.875 160.214844 L 267.789062 157.785156 L 264.742188 156.570312 L 258.65625 154.140625 L 255.609375 152.925781 L 252.566406 151.710938 L 249.519531 150.496094 L 243.433594 148.066406 L 246.675781 148.539062 L 249.917969 149.007812 L 253.164062 149.480469 L 256.40625 149.949219 L 259.652344 150.417969 L 262.894531 150.890625 L 266.140625 151.359375 L 269.382812 151.832031 L 272.628906 152.300781 L 275.871094 152.769531 L 279.113281 153.242188 L 282.359375 153.710938 Z M 285.601562 154.183594 "/>
<path style=" stroke:none;fill-rule:nonzero;fill:rgb(70.588235%,84.705882%,98.431373%);fill-opacity:1;" d="M 264.230469 157.003906 L 261.570312 161.613281 L 258.980469 159.675781 L 256.386719 157.742188 L 253.796875 155.808594 L 251.207031 153.871094 L 248.613281 151.9375 L 246.023438 150.003906 L 243.433594 148.066406 L 246.402344 149.34375 L 252.347656 151.898438 L 255.316406 153.175781 L 258.289062 154.449219 L 261.261719 155.726562 Z M 264.230469 157.003906 "/>
<path style=" stroke:none;fill-rule:nonzero;fill:rgb(70.980392%,85.098039%,98.823529%);fill-opacity:1;" d="M 262.253906 162.90625 L 258.269531 166.890625 L 256.152344 164.203125 L 254.03125 161.511719 L 251.910156 158.824219 L 249.792969 156.136719 L 247.671875 153.445312 L 245.550781 150.757812 L 243.433594 148.066406 L 248.808594 152.308594 L 251.5 154.425781 L 254.1875 156.546875 L 256.878906 158.667969 L 259.566406 160.785156 Z M 262.253906 162.90625 "/>
<path style=" stroke:none;fill-rule:nonzero;fill:rgb(67.45098%,76.862745%,93.333333%);fill-opacity:1;" d="M 260.164062 170.472656 L 257.414062 172.285156 L 254.46875 173.761719 L 253.089844 170.550781 L 251.710938 167.335938 L 248.953125 160.914062 L 247.570312 157.703125 L 244.8125 151.28125 L 243.433594 148.066406 L 247.613281 153.667969 L 249.707031 156.46875 L 251.796875 159.269531 L 253.890625 162.070312 L 258.070312 167.671875 Z M 260.164062 170.472656 "/>
<path style=" stroke:none;fill-rule:nonzero;fill:rgb(70.588235%,84.313725%,98.039216%);fill-opacity:1;" d="M 259.222656 187.644531 L 256.066406 188.761719 L 252.835938 189.628906 L 249.546875 190.238281 L 249.078125 186.996094 L 248.605469 183.75 L 248.136719 180.507812 L 247.664062 177.261719 L 247.195312 174.019531 L 246.722656 170.773438 L 245.785156 164.289062 L 245.3125 161.042969 L 244.84375 157.800781 L 244.371094 154.554688 L 243.902344 151.3125 L 243.433594 148.066406 L 244.648438 151.113281 L 245.863281 154.15625 L 247.074219 157.203125 L 249.503906 163.289062 L 250.71875 166.335938 L 253.148438 172.421875 L 254.363281 175.46875 L 255.578125 178.511719 L 256.792969 181.558594 Z M 259.222656 187.644531 "/>
</g>
</svg>
