<?xml version="1.0" encoding="UTF-8"?>
<svg xmlns="http://www.w3.org/2000/svg" xmlns:xlink="http://www.w3.org/1999/xlink" width="484pt" height="299pt" viewBox="0 0 484 299" version="1.1">
<g id="surface167">
<rect x="0" y="0" width="484" height="299" style="fill:rgb(100%,100%,100%);fill-opacity:1;stroke:none;"/>
<path style=" stroke:none;fill-rule:nonzero;fill:rgb(64.313725%,67.058824%,85.490196%);fill-opacity:1;" d="M 236.535156 195.644531 L 232.824219 194.957031 L 229.175781 193.980469 L 225.617188 192.71875 L 236.304688 165.929688 L 237.496094 162.953125 L 238.683594 159.976562 L 239.871094 156.996094 L 243.433594 148.066406 L 242.050781 157.582031 L 241.59375 160.753906 L 240.671875 167.097656 L 240.214844 170.269531 L 238.832031 179.785156 L 238.375 182.957031 L 236.992188 192.472656 Z M 236.535156 195.644531 "/>
<path style=" stroke:none;fill-rule:nonzero;fill:rgb(64.705882%,69.411765%,87.45098%);fill-opacity:1;" d="M 220.027344 202.542969 L 216.859375 201.070312 L 213.785156 199.414062 L 210.816406 197.582031 L 207.957031 195.574219 L 209.929688 192.933594 L 211.898438 190.296875 L 213.871094 187.65625 L 215.839844 185.015625 L 217.8125 182.378906 L 219.78125 179.738281 L 221.753906 177.101562 L 223.722656 174.460938 L 225.695312 171.820312 L 227.664062 169.183594 L 229.636719 166.542969 L 231.605469 163.902344 L 233.578125 161.265625 L 235.550781 158.625 L 237.519531 155.984375 L 239.492188 153.347656 L 241.460938 150.707031 L 243.433594 148.066406 L 239.53125 157.148438 L 238.230469 160.171875 L 235.628906 166.226562 L 234.332031 169.253906 L 233.03125 172.277344 L 227.828125 184.386719 L 226.527344 187.410156 L 225.230469 190.4375 L 222.628906 196.492188 L 221.328125 199.515625 Z M 220.027344 202.542969 "/>
<path style=" stroke:none;fill-rule:nonzero;fill:rgb(65.490196%,71.372549%,89.019608%);fill-opacity:1;" d="M 207.71875 193.371094 L 205.113281 191.191406 L 202.640625 188.859375 L 200.308594 186.386719 L 198.128906 183.78125 L 200.644531 181.796875 L 203.164062 179.8125 L 208.195312 175.84375 L 210.714844 173.863281 L 218.261719 167.910156 L 220.78125 165.925781 L 225.8125 161.957031 L 228.332031 159.972656 L 233.363281 156.003906 L 235.882812 154.019531 L 240.914062 150.050781 L 243.433594 148.066406 L 241.449219 150.585938 L 237.480469 155.617188 L 235.496094 158.136719 L 231.527344 163.167969 L 229.542969 165.6875 L 225.574219 170.71875 L 223.589844 173.238281 L 217.636719 180.785156 L 215.65625 183.304688 L 211.6875 188.335938 L 209.703125 190.855469 Z M 207.71875 193.371094 "/>
<path style=" stroke:none;fill-rule:nonzero;fill:rgb(67.058824%,76.862745%,92.941176%);fill-opacity:1;" d="M 188.222656 189.296875 L 186.339844 186.648438 L 184.585938 183.917969 L 182.964844 181.105469 L 181.472656 178.21875 L 180.121094 175.269531 L 186.152344 172.675781 L 189.167969 171.382812 L 192.183594 170.085938 L 195.195312 168.792969 L 201.226562 166.199219 L 204.242188 164.90625 L 207.253906 163.609375 L 210.269531 162.316406 L 213.285156 161.019531 L 216.300781 159.726562 L 219.3125 158.429688 L 222.328125 157.132812 L 225.34375 155.839844 L 228.359375 154.542969 L 231.375 153.25 L 234.386719 151.953125 L 237.402344 150.660156 L 243.433594 148.066406 L 238.175781 151.996094 L 235.546875 153.957031 L 232.914062 155.921875 L 230.285156 157.882812 L 227.65625 159.847656 L 225.027344 161.808594 L 219.769531 165.738281 L 217.140625 167.699219 L 214.511719 169.664062 L 211.882812 171.625 L 206.625 175.554688 L 203.996094 177.515625 L 201.367188 179.480469 L 198.738281 181.441406 L 196.109375 183.40625 L 193.480469 185.367188 Z M 188.222656 189.296875 "/>
<path style=" stroke:none;fill-rule:nonzero;fill:rgb(64.705882%,69.411765%,87.45098%);fill-opacity:1;" d="M 176.457031 174.789062 L 175.273438 171.605469 L 174.238281 168.367188 L 173.359375 165.085938 L 172.636719 161.765625 L 172.070312 158.414062 L 175.3125 157.945312 L 178.554688 157.472656 L 181.800781 157.003906 L 185.042969 156.535156 L 188.289062 156.0625 L 191.53125 155.59375 L 194.773438 155.121094 L 198.019531 154.652344 L 201.261719 154.183594 L 204.507812 153.710938 L 207.75 153.242188 L 210.996094 152.769531 L 217.480469 151.832031 L 220.726562 151.359375 L 223.96875 150.890625 L 227.214844 150.417969 L 233.699219 149.480469 L 236.945312 149.007812 L 240.1875 148.539062 L 243.433594 148.066406 L 240.386719 149.28125 L 234.300781 151.710938 L 231.253906 152.925781 L 228.210938 154.140625 L 225.164062 155.355469 L 219.078125 157.785156 L 216.03125 159 L 209.945312 161.429688 L 206.898438 162.644531 L 203.855469 163.859375 L 200.8125 165.070312 L 197.765625 166.285156 L 191.679688 168.714844 L 188.632812 169.929688 L 185.589844 171.144531 L 182.542969 172.359375 Z M 176.457031 174.789062 "/>
<path style=" stroke:none;fill-rule:nonzero;fill:rgb(65.490196%,72.54902%,90.196078%);fill-opacity:1;" d="M 205.238281 152.589844 L 204.972656 148.066406 L 205.238281 143.546875 L 208.421875 143.925781 L 214.789062 144.675781 L 217.972656 145.054688 L 221.152344 145.429688 L 224.335938 145.808594 L 227.519531 146.183594 L 230.703125 146.5625 L 233.882812 146.9375 L 237.066406 147.316406 L 243.433594 148.066406 L 240.25 148.445312 L 237.066406 148.820312 L 233.882812 149.199219 L 230.703125 149.574219 L 227.519531 149.953125 L 221.152344 150.703125 L 217.972656 151.082031 L 214.789062 151.457031 L 211.605469 151.835938 L 208.421875 152.210938 Z M 205.238281 152.589844 "/>
<path style=" stroke:none;fill-rule:nonzero;fill:rgb(67.843137%,78.039216%,93.72549%);fill-opacity:1;" d="M 192.683594 140.710938 L 193.417969 136.75 L 194.460938 132.863281 L 195.804688 129.066406 L 231.523438 143.316406 L 234.503906 144.503906 L 243.433594 148.066406 L 240.261719 147.609375 L 230.746094 146.226562 L 227.574219 145.769531 L 221.230469 144.847656 L 218.058594 144.390625 L 208.542969 143.007812 L 205.371094 142.550781 L 195.855469 141.167969 Z M 192.683594 140.710938 "/>
<path style=" stroke:none;fill-rule:nonzero;fill:rgb(64.313725%,66.666667%,85.098039%);fill-opacity:1;" d="M 156.566406 110.746094 L 158.097656 107.367188 L 159.761719 104.046875 L 161.554688 100.796875 L 163.472656 97.617188 L 165.515625 94.519531 L 167.679688 91.5 L 170.289062 93.449219 L 172.902344 95.402344 L 178.128906 99.300781 L 180.738281 101.253906 L 185.964844 105.152344 L 188.574219 107.105469 L 191.1875 109.054688 L 193.800781 111.007812 L 196.414062 112.957031 L 199.023438 114.90625 L 201.636719 116.859375 L 206.863281 120.757812 L 209.472656 122.710938 L 214.699219 126.609375 L 217.308594 128.5625 L 219.921875 130.511719 L 222.535156 132.464844 L 225.148438 134.414062 L 227.757812 136.363281 L 230.371094 138.316406 L 232.984375 140.265625 L 235.59375 142.214844 L 238.207031 144.167969 L 243.433594 148.066406 L 240.4375 146.78125 L 237.441406 145.492188 L 231.449219 142.921875 L 228.457031 141.632812 L 225.460938 140.347656 L 222.464844 139.058594 L 219.46875 137.773438 L 216.472656 136.484375 L 213.476562 135.199219 L 210.484375 133.910156 L 204.492188 131.339844 L 201.496094 130.050781 L 198.5 128.765625 L 195.507812 127.476562 L 192.511719 126.191406 L 189.515625 124.902344 L 186.519531 123.617188 L 183.523438 122.328125 L 180.527344 121.042969 L 177.535156 119.753906 L 171.542969 117.183594 L 168.546875 115.894531 L 165.550781 114.609375 L 162.558594 113.320312 L 159.5625 112.035156 Z M 156.566406 110.746094 "/>
<path style=" stroke:none;fill-rule:nonzero;fill:rgb(67.843137%,77.647059%,93.72549%);fill-opacity:1;" d="M 188.0625 104.417969 L 190.179688 101.855469 L 192.414062 99.398438 L 194.765625 97.050781 L 197.222656 94.816406 L 199.78125 92.695312 L 201.765625 95.214844 L 205.734375 100.246094 L 207.71875 102.765625 L 211.6875 107.796875 L 213.671875 110.316406 L 215.65625 112.832031 L 217.636719 115.347656 L 219.621094 117.867188 L 223.589844 122.898438 L 225.574219 125.417969 L 231.527344 132.964844 L 233.511719 135.484375 L 237.480469 140.515625 L 239.464844 143.035156 L 243.433594 148.066406 L 240.914062 146.082031 L 238.398438 144.101562 L 235.882812 142.117188 L 233.363281 140.132812 L 228.332031 136.164062 L 225.8125 134.179688 L 220.78125 130.210938 L 218.261719 128.226562 L 210.714844 122.273438 L 208.195312 120.289062 L 203.164062 116.320312 L 200.644531 114.335938 L 198.128906 112.355469 L 195.613281 110.371094 L 193.09375 108.386719 Z M 188.0625 104.417969 "/>
<path style=" stroke:none;fill-rule:nonzero;fill:rgb(69.411765%,81.568627%,96.470588%);fill-opacity:1;" d="M 197.410156 86.4375 L 200.363281 84.339844 L 203.414062 82.378906 L 206.554688 80.566406 L 209.773438 78.90625 L 213.070312 77.398438 L 214.335938 80.339844 L 215.601562 83.285156 L 216.863281 86.230469 L 220.660156 95.066406 L 221.925781 98.007812 L 224.457031 103.898438 L 225.71875 106.84375 L 228.25 112.734375 L 229.515625 115.675781 L 234.578125 127.457031 L 235.839844 130.398438 L 242.167969 145.125 L 243.433594 148.066406 L 239.597656 142.933594 L 237.679688 140.363281 L 235.761719 137.796875 L 233.84375 135.226562 L 230.007812 130.09375 L 228.089844 127.523438 L 226.175781 124.957031 L 224.257812 122.386719 L 220.421875 117.253906 L 218.503906 114.683594 L 214.667969 109.550781 L 212.75 106.980469 L 210.832031 104.414062 L 208.917969 101.84375 L 205.082031 96.710938 L 203.164062 94.140625 L 201.246094 91.574219 L 199.328125 89.003906 Z M 197.410156 86.4375 "/>
<path style=" stroke:none;fill-rule:nonzero;fill:rgb(68.627451%,80%,95.294118%);fill-opacity:1;" d="M 221.460938 93 L 224.742188 91.800781 L 228.085938 90.796875 L 231.484375 89.992188 L 234.925781 89.390625 L 235.398438 92.652344 L 235.871094 95.910156 L 236.34375 99.171875 L 236.816406 102.429688 L 237.289062 105.691406 L 237.761719 108.949219 L 238.234375 112.210938 L 238.707031 115.46875 L 239.179688 118.730469 L 239.652344 121.988281 L 240.125 125.25 L 240.597656 128.507812 L 241.070312 131.769531 L 241.542969 135.027344 L 242.015625 138.289062 L 242.488281 141.546875 L 242.960938 144.808594 L 243.433594 148.066406 L 242.210938 145.007812 L 240.992188 141.949219 L 239.769531 138.890625 L 238.550781 135.832031 L 237.328125 132.769531 L 236.109375 129.710938 L 234.886719 126.652344 L 233.667969 123.59375 L 232.445312 120.53125 L 231.226562 117.472656 L 230.003906 114.414062 L 227.566406 108.296875 L 226.34375 105.234375 L 225.125 102.175781 L 223.902344 99.117188 L 222.683594 96.058594 Z M 221.460938 93 "/>
<path style=" stroke:none;fill-rule:nonzero;fill:rgb(67.45098%,77.647059%,93.72549%);fill-opacity:1;" d="M 234.769531 74.867188 L 238.226562 74.539062 L 241.695312 74.375 L 245.167969 74.375 L 248.636719 74.539062 L 252.097656 74.867188 L 251.71875 78.050781 L 251.34375 81.230469 L 250.964844 84.414062 L 250.589844 87.597656 L 250.210938 90.78125 L 249.835938 93.960938 L 249.460938 97.144531 L 249.082031 100.328125 L 248.707031 103.511719 L 248.328125 106.691406 L 247.953125 109.875 L 247.574219 113.058594 L 246.824219 119.425781 L 246.445312 122.605469 L 246.070312 125.789062 L 245.691406 128.972656 L 245.316406 132.15625 L 244.9375 135.335938 L 244.5625 138.519531 L 244.183594 141.703125 L 243.808594 144.886719 L 243.433594 148.066406 L 243.054688 144.886719 L 242.679688 141.703125 L 242.300781 138.519531 L 241.925781 135.335938 L 241.546875 132.15625 L 240.796875 125.789062 L 240.417969 122.605469 L 240.042969 119.425781 L 239.664062 116.242188 L 239.289062 113.058594 L 238.910156 109.875 L 238.535156 106.691406 L 238.160156 103.511719 L 237.78125 100.328125 L 237.40625 97.144531 L 237.027344 93.960938 L 236.652344 90.78125 L 236.273438 87.597656 L 235.523438 81.230469 L 235.144531 78.050781 Z M 234.769531 74.867188 "/>
<path style=" stroke:none;fill-rule:nonzero;fill:rgb(65.098039%,70.196078%,87.843137%);fill-opacity:1;" d="M 252.398438 86.21875 L 256.023438 86.855469 L 259.605469 87.703125 L 263.132812 88.757812 L 266.589844 90.023438 L 255.621094 117.515625 L 254.402344 120.574219 L 243.433594 148.066406 L 243.902344 144.8125 L 244.375 141.558594 L 244.847656 138.300781 L 245.792969 131.792969 L 246.265625 128.535156 L 246.734375 125.28125 L 247.207031 122.027344 L 247.679688 118.769531 L 248.625 112.261719 L 249.097656 109.003906 L 249.566406 105.75 L 250.039062 102.496094 L 250.511719 99.238281 L 251.929688 89.476562 Z M 252.398438 86.21875 "/>
<path style=" stroke:none;fill-rule:nonzero;fill:rgb(70.588235%,83.921569%,98.039216%);fill-opacity:1;" d="M 264.9375 98.007812 L 267.847656 99.363281 L 270.671875 100.882812 L 273.402344 102.570312 L 276.03125 104.414062 L 274.113281 106.980469 L 272.195312 109.550781 L 268.359375 114.683594 L 266.441406 117.253906 L 264.523438 119.820312 L 262.609375 122.386719 L 260.691406 124.957031 L 258.773438 127.523438 L 256.855469 130.09375 L 253.019531 135.226562 L 251.101562 137.796875 L 249.183594 140.363281 L 247.265625 142.933594 L 245.351562 145.5 L 243.433594 148.066406 L 244.695312 145.125 L 251.023438 130.398438 L 252.289062 127.457031 L 253.554688 124.511719 L 254.816406 121.566406 L 257.347656 115.675781 L 258.613281 112.734375 L 263.675781 100.953125 Z M 264.9375 98.007812 "/>
<path style=" stroke:none;fill-rule:nonzero;fill:rgb(69.411765%,81.568627%,96.470588%);fill-opacity:1;" d="M 278.152344 104.023438 L 280.6875 106.144531 L 283.089844 108.410156 L 285.355469 110.8125 L 287.476562 113.347656 L 284.886719 115.386719 L 282.296875 117.429688 L 279.703125 119.472656 L 271.933594 125.601562 L 269.339844 127.644531 L 266.75 129.6875 L 264.160156 131.726562 L 261.566406 133.769531 L 253.796875 139.898438 L 251.203125 141.941406 L 246.023438 146.027344 L 243.433594 148.066406 L 245.472656 145.476562 L 249.558594 140.296875 L 251.601562 137.703125 L 257.730469 129.933594 L 259.773438 127.339844 L 261.8125 124.75 L 263.855469 122.160156 L 265.898438 119.566406 L 272.027344 111.796875 L 274.070312 109.203125 L 276.113281 106.613281 Z M 278.152344 104.023438 "/>
<path style=" stroke:none;fill-rule:nonzero;fill:rgb(67.843137%,78.431373%,94.117647%);fill-opacity:1;" d="M 281.949219 119.304688 L 284.089844 122.414062 L 285.976562 125.683594 L 287.601562 129.089844 L 278.765625 132.886719 L 275.824219 134.152344 L 269.933594 136.683594 L 266.988281 137.945312 L 264.042969 139.210938 L 261.101562 140.476562 L 246.375 146.804688 L 243.433594 148.066406 L 246 146.148438 L 248.566406 144.234375 L 251.136719 142.316406 L 253.703125 140.398438 L 256.273438 138.480469 L 261.40625 134.644531 L 263.976562 132.726562 L 266.542969 130.808594 L 269.113281 128.890625 L 271.679688 126.976562 L 274.246094 125.058594 L 276.816406 123.140625 Z M 281.949219 119.304688 "/>
<path style=" stroke:none;fill-rule:nonzero;fill:rgb(68.627451%,79.607843%,94.901961%);fill-opacity:1;" d="M 283.617188 132.035156 L 284.75 135.238281 L 285.632812 138.519531 L 286.25 141.859375 L 282.957031 142.335938 L 279.664062 142.816406 L 276.371094 143.292969 L 273.074219 143.769531 L 269.78125 144.246094 L 266.488281 144.726562 L 259.902344 145.679688 L 256.605469 146.15625 L 253.3125 146.636719 L 243.433594 148.066406 L 246.523438 146.835938 L 249.613281 145.601562 L 252.707031 144.367188 L 255.796875 143.136719 L 258.886719 141.902344 L 261.980469 140.667969 L 265.070312 139.433594 L 268.160156 138.203125 L 271.253906 136.96875 L 277.433594 134.5 L 280.527344 133.269531 Z M 283.617188 132.035156 "/>
<path style=" stroke:none;fill-rule:nonzero;fill:rgb(64.313725%,66.666667%,85.098039%);fill-opacity:1;" d="M 308.675781 140.34375 L 309.019531 144.199219 L 309.132812 148.066406 L 309.019531 151.9375 L 308.675781 155.789062 L 305.414062 155.402344 L 302.152344 155.019531 L 292.367188 153.859375 L 289.101562 153.472656 L 285.839844 153.085938 L 282.578125 152.703125 L 266.269531 150.769531 L 263.003906 150.382812 L 259.742188 150 L 243.433594 148.066406 L 246.695312 147.683594 L 263.003906 145.75 L 266.269531 145.363281 L 269.53125 144.980469 L 285.839844 143.046875 L 289.101562 142.664062 L 292.367188 142.277344 Z M 308.675781 140.34375 "/>
<path style=" stroke:none;fill-rule:nonzero;fill:rgb(67.843137%,78.039216%,94.117647%);fill-opacity:1;" d="M 330.652344 160.714844 L 330.089844 164.128906 L 329.394531 167.519531 L 328.5625 170.878906 L 327.601562 174.203125 L 326.511719 177.488281 L 325.292969 180.726562 L 322.261719 179.515625 L 319.226562 178.308594 L 313.164062 175.886719 L 310.132812 174.679688 L 304.070312 172.257812 L 301.039062 171.050781 L 298.003906 169.839844 L 294.972656 168.628906 L 291.941406 167.421875 L 288.910156 166.210938 L 285.878906 165.003906 L 282.847656 163.792969 L 279.8125 162.582031 L 276.78125 161.375 L 270.71875 158.953125 L 267.6875 157.746094 L 261.625 155.324219 L 258.589844 154.117188 L 252.527344 151.695312 L 249.496094 150.488281 L 243.433594 148.066406 L 272.507812 152.285156 L 275.738281 152.75 L 308.042969 157.4375 L 311.273438 157.902344 L 324.195312 159.777344 L 327.421875 160.246094 Z M 330.652344 160.714844 "/>
<path style=" stroke:none;fill-rule:nonzero;fill:rgb(69.411765%,81.960784%,96.470588%);fill-opacity:1;" d="M 287.601562 167.042969 L 285.976562 170.453125 L 284.089844 173.71875 L 281.949219 176.832031 L 276.816406 172.996094 L 274.246094 171.078125 L 269.113281 167.242188 L 266.542969 165.324219 L 263.976562 163.410156 L 261.40625 161.492188 L 256.273438 157.65625 L 253.703125 155.738281 L 251.136719 153.820312 L 248.566406 151.902344 L 243.433594 148.066406 L 246.375 149.332031 L 261.101562 155.660156 L 264.042969 156.921875 L 275.824219 161.984375 L 278.765625 163.25 L 284.65625 165.78125 Z M 287.601562 167.042969 "/>
<path style=" stroke:none;fill-rule:nonzero;fill:rgb(70.980392%,85.098039%,98.823529%);fill-opacity:1;" d="M 289.992188 184.773438 L 287.753906 187.453125 L 285.355469 189.992188 L 282.816406 192.386719 L 280.136719 194.628906 L 274.019531 186.871094 L 271.980469 184.28125 L 265.863281 176.523438 L 263.824219 173.933594 L 255.667969 163.589844 L 253.628906 161 L 245.472656 150.65625 L 243.433594 148.066406 L 248.605469 152.144531 L 251.191406 154.1875 L 253.777344 156.226562 L 256.367188 158.265625 L 264.125 164.382812 L 266.714844 166.421875 L 277.058594 174.578125 L 279.648438 176.617188 Z M 289.992188 184.773438 "/>
<path style=" stroke:none;fill-rule:nonzero;fill:rgb(69.019608%,81.176471%,96.078431%);fill-opacity:1;" d="M 279.867188 196.859375 L 276.929688 198.917969 L 273.878906 200.800781 L 270.722656 202.503906 L 267.46875 204.015625 L 264.9375 198.125 L 263.675781 195.183594 L 257.347656 180.457031 L 256.082031 177.515625 L 254.816406 174.570312 L 253.554688 171.625 L 249.757812 162.789062 L 248.492188 159.847656 L 244.695312 151.011719 L 243.433594 148.066406 L 245.351562 150.636719 L 247.265625 153.203125 L 249.183594 155.773438 L 253.019531 160.90625 L 254.9375 163.476562 L 258.773438 168.609375 L 260.691406 171.179688 L 262.609375 173.746094 L 264.523438 176.316406 L 268.359375 181.449219 L 270.277344 184.019531 L 272.195312 186.585938 L 274.113281 189.15625 L 277.949219 194.289062 Z M 279.867188 196.859375 "/>
<path style=" stroke:none;fill-rule:nonzero;fill:rgb(63.137255%,61.960784%,81.176471%);fill-opacity:1;" d="M 257.683594 183.789062 L 253.386719 185.214844 L 248.949219 186.128906 L 248.492188 182.957031 L 247.109375 173.441406 L 246.652344 170.269531 L 245.730469 163.925781 L 245.273438 160.753906 L 243.890625 151.238281 L 243.433594 148.066406 L 246.996094 156.996094 L 248.183594 159.976562 Z M 257.683594 183.789062 "/>
</g>
</svg>
