<?xml version="1.0" encoding="UTF-8"?>
<svg xmlns="http://www.w3.org/2000/svg" xmlns:xlink="http://www.w3.org/1999/xlink" width="484pt" height="299pt" viewBox="0 0 484 299" version="1.1">
<g id="surface67">
<rect x="0" y="0" width="484" height="299" style="fill:rgb(100%,100%,100%);fill-opacity:1;stroke:none;"/>
<path style=" stroke:none;fill-rule:nonzero;fill:rgb(68.627451%,79.607843%,94.901961%);fill-opacity:1;" d="M 238.179688 184.285156 L 233.960938 183.417969 L 229.871094 182.058594 L 231.101562 178.96875 L 233.570312 172.789062 L 234.800781 169.699219 L 237.269531 163.519531 L 238.5 160.429688 L 239.734375 157.339844 L 240.964844 154.25 L 242.199219 151.15625 L 243.433594 148.066406 L 242.953125 151.359375 L 241.046875 164.53125 L 240.566406 167.824219 L 239.136719 177.703125 L 238.65625 180.996094 Z M 238.179688 184.285156 "/>
<path style=" stroke:none;fill-rule:nonzero;fill:rgb(65.882353%,72.941176%,90.588235%);fill-opacity:1;" d="M 230.429688 178.332031 L 226.964844 176.59375 L 223.722656 174.460938 L 227.667969 169.179688 L 229.636719 166.542969 L 231.609375 163.902344 L 233.578125 161.265625 L 235.550781 158.625 L 237.519531 155.984375 L 239.492188 153.347656 L 241.460938 150.707031 L 243.433594 148.066406 L 239.53125 157.148438 L 238.230469 160.171875 L 236.929688 163.199219 L 235.632812 166.226562 L 234.332031 169.253906 L 233.03125 172.277344 Z M 230.429688 178.332031 "/>
<path style=" stroke:none;fill-rule:nonzero;fill:rgb(65.490196%,71.764706%,89.019608%);fill-opacity:1;" d="M 226.4375 169.625 L 224.023438 167.476562 L 221.875 165.0625 L 232.65625 156.5625 L 235.347656 154.441406 L 243.433594 148.066406 L 237.058594 156.152344 L 234.9375 158.84375 Z M 226.4375 169.625 "/>
<path style=" stroke:none;fill-rule:nonzero;fill:rgb(69.411765%,81.176471%,96.078431%);fill-opacity:1;" d="M 213.128906 170.695312 L 210.679688 166.976562 L 208.6875 162.996094 L 211.84375 161.640625 L 215.003906 160.28125 L 218.160156 158.925781 L 221.320312 157.566406 L 224.480469 156.210938 L 227.636719 154.851562 L 233.957031 152.140625 L 237.113281 150.78125 L 240.273438 149.425781 L 243.433594 148.066406 L 240.675781 150.125 L 237.921875 152.183594 L 235.167969 154.238281 L 232.414062 156.296875 L 229.660156 158.351562 L 226.902344 160.410156 L 224.148438 162.46875 L 221.394531 164.523438 L 218.640625 166.582031 L 215.886719 168.636719 Z M 213.128906 170.695312 "/>
<path style=" stroke:none;fill-rule:nonzero;fill:rgb(67.058824%,76.470588%,92.941176%);fill-opacity:1;" d="M 192.445312 168.410156 L 191.335938 165.375 L 190.40625 162.277344 L 189.660156 159.128906 L 189.105469 155.945312 L 192.300781 155.480469 L 195.496094 155.019531 L 201.886719 154.089844 L 205.082031 153.628906 L 208.277344 153.164062 L 211.472656 152.703125 L 214.671875 152.238281 L 217.867188 151.773438 L 221.0625 151.3125 L 227.453125 150.382812 L 230.648438 149.921875 L 233.84375 149.457031 L 237.039062 148.996094 L 240.238281 148.53125 L 243.433594 148.066406 L 240.433594 149.265625 L 234.433594 151.65625 L 231.433594 152.855469 L 228.433594 154.050781 L 225.4375 155.246094 L 222.4375 156.445312 L 216.4375 158.835938 L 213.4375 160.035156 L 210.441406 161.230469 L 207.441406 162.425781 L 204.441406 163.625 L 198.441406 166.015625 L 195.441406 167.214844 Z M 192.445312 168.410156 "/>
<path style=" stroke:none;fill-rule:nonzero;fill:rgb(63.137255%,61.176471%,80.392157%);fill-opacity:1;" d="M 199.214844 153.300781 L 198.9375 149.816406 L 198.9375 146.320312 L 199.214844 142.835938 L 202.613281 143.238281 L 216.222656 144.847656 L 219.621094 145.25 L 229.828125 146.457031 L 233.226562 146.859375 L 243.433594 148.066406 L 236.628906 148.871094 L 233.226562 149.277344 L 229.828125 149.679688 L 219.621094 150.886719 L 216.222656 151.289062 L 202.613281 152.898438 Z M 199.214844 153.300781 "/>
<path style=" stroke:none;fill-rule:nonzero;fill:rgb(65.490196%,71.764706%,89.411765%);fill-opacity:1;" d="M 190.914062 140.453125 L 191.675781 136.355469 L 192.753906 132.332031 L 194.144531 128.402344 L 197.222656 129.632812 L 200.304688 130.863281 L 203.386719 132.089844 L 206.464844 133.320312 L 209.546875 134.546875 L 212.625 135.777344 L 215.707031 137.007812 L 218.789062 138.234375 L 221.867188 139.464844 L 224.949219 140.695312 L 228.03125 141.921875 L 231.109375 143.152344 L 234.191406 144.378906 L 237.269531 145.609375 L 240.351562 146.839844 L 243.433594 148.066406 L 240.148438 147.59375 L 230.304688 146.164062 L 227.019531 145.6875 L 223.738281 145.210938 L 220.457031 144.738281 L 217.171875 144.261719 L 207.328125 142.832031 L 204.042969 142.355469 L 200.761719 141.882812 L 197.480469 141.40625 L 194.195312 140.929688 Z M 190.914062 140.453125 "/>
<path style=" stroke:none;fill-rule:nonzero;fill:rgb(62.745098%,59.215686%,78.431373%);fill-opacity:1;" d="M 186.269531 123.507812 L 187.8125 120.1875 L 189.550781 116.960938 L 191.476562 113.84375 L 193.582031 110.84375 L 196.203125 112.800781 L 198.828125 114.761719 L 201.453125 116.71875 L 204.078125 118.679688 L 206.699219 120.636719 L 211.949219 124.558594 L 214.570312 126.515625 L 217.195312 128.476562 L 219.820312 130.433594 L 222.441406 132.394531 L 225.066406 134.351562 L 227.691406 136.3125 L 230.3125 138.273438 L 232.9375 140.230469 L 235.5625 142.191406 L 238.183594 144.148438 L 240.808594 146.109375 L 243.433594 148.066406 L 240.421875 146.773438 L 237.414062 145.484375 L 228.390625 141.605469 L 225.378906 140.3125 L 213.347656 135.140625 L 210.335938 133.847656 L 207.328125 132.558594 L 198.304688 128.679688 L 195.292969 127.386719 Z M 186.269531 123.507812 "/>
<path style=" stroke:none;fill-rule:nonzero;fill:rgb(63.137255%,61.568627%,80.784314%);fill-opacity:1;" d="M 197.445312 111.816406 L 199.660156 109.171875 L 202.027344 106.664062 L 204.535156 104.296875 L 207.179688 102.082031 L 209.195312 104.636719 L 211.207031 107.191406 L 213.222656 109.746094 L 215.234375 112.300781 L 219.265625 117.410156 L 221.277344 119.964844 L 223.292969 122.519531 L 225.304688 125.074219 L 229.335938 130.183594 L 231.347656 132.738281 L 233.363281 135.292969 L 235.375 137.847656 L 237.390625 140.402344 L 239.402344 142.957031 L 243.433594 148.066406 L 240.878906 146.054688 L 238.324219 144.039062 L 235.769531 142.027344 L 230.660156 137.996094 L 228.105469 135.984375 L 225.550781 133.96875 L 222.996094 131.957031 L 220.441406 129.941406 L 217.886719 127.929688 L 215.328125 125.914062 L 212.773438 123.898438 L 210.21875 121.886719 L 207.664062 119.871094 L 205.109375 117.859375 L 200 113.828125 Z M 197.445312 111.816406 "/>
<path style=" stroke:none;fill-rule:nonzero;fill:rgb(61.960784%,52.54902%,72.156863%);fill-opacity:1;" d="M 206.570312 98.707031 L 209.542969 96.621094 L 212.628906 94.714844 L 215.824219 92.996094 L 219.113281 91.464844 L 220.394531 94.445312 L 221.671875 97.421875 L 224.234375 103.382812 L 225.511719 106.359375 L 228.074219 112.320312 L 229.351562 115.296875 L 231.914062 121.257812 L 233.191406 124.234375 L 234.472656 127.214844 L 235.753906 130.191406 L 237.03125 133.171875 L 238.3125 136.152344 L 239.59375 139.128906 L 240.871094 142.109375 L 242.152344 145.089844 L 243.433594 148.066406 L 239.550781 142.871094 L 237.613281 140.273438 L 233.730469 135.078125 L 231.792969 132.480469 L 227.910156 127.285156 L 225.972656 124.6875 L 224.03125 122.085938 L 222.09375 119.488281 L 218.210938 114.292969 L 216.273438 111.695312 L 212.390625 106.5 L 210.453125 103.902344 Z M 206.570312 98.707031 "/>
<path style=" stroke:none;fill-rule:nonzero;fill:rgb(61.960784%,54.117647%,73.333333%);fill-opacity:1;" d="M 223.316406 97.644531 L 227.332031 96.222656 L 231.453125 95.121094 L 235.640625 94.34375 L 236.128906 97.699219 L 236.617188 101.058594 L 237.101562 104.417969 L 237.589844 107.773438 L 238.078125 111.132812 L 238.5625 114.488281 L 239.539062 121.207031 L 240.023438 124.5625 L 240.511719 127.921875 L 240.996094 131.277344 L 241.972656 137.996094 L 242.457031 141.351562 L 242.945312 144.710938 L 243.433594 148.066406 L 242.175781 144.917969 L 238.402344 135.460938 L 237.144531 132.3125 L 235.886719 129.160156 L 234.632812 126.007812 L 233.375 122.855469 L 232.117188 119.707031 L 228.34375 110.25 L 227.085938 107.101562 L 225.832031 103.949219 Z M 223.316406 97.644531 "/>
<path style=" stroke:none;fill-rule:nonzero;fill:rgb(63.137255%,61.568627%,80.784314%);fill-opacity:1;" d="M 236.121094 86.28125 L 239.769531 85.960938 L 243.433594 85.851562 L 247.09375 85.960938 L 250.746094 86.28125 L 250.359375 89.535156 L 249.976562 92.785156 L 249.589844 96.039062 L 249.207031 99.289062 L 248.820312 102.542969 L 248.4375 105.792969 L 248.050781 109.046875 L 247.664062 112.296875 L 247.28125 115.550781 L 246.894531 118.800781 L 246.511719 122.054688 L 246.125 125.304688 L 245.742188 128.558594 L 245.355469 131.808594 L 244.972656 135.0625 L 244.585938 138.3125 L 244.203125 141.5625 L 243.816406 144.816406 L 243.433594 148.066406 L 243.046875 144.816406 L 242.664062 141.5625 L 242.277344 138.3125 L 241.894531 135.0625 L 241.507812 131.808594 L 241.121094 128.558594 L 240.738281 125.304688 L 240.351562 122.054688 L 239.96875 118.800781 L 239.582031 115.550781 L 239.199219 112.296875 L 238.8125 109.046875 L 238.429688 105.792969 L 238.042969 102.542969 L 237.660156 99.289062 L 237.273438 96.039062 L 236.890625 92.785156 L 236.503906 89.535156 Z M 236.121094 86.28125 "/>
<path style=" stroke:none;fill-rule:nonzero;fill:rgb(64.313725%,66.27451%,85.098039%);fill-opacity:1;" d="M 249.910156 103.398438 L 253.394531 104.042969 L 256.816406 104.960938 L 260.15625 106.144531 L 258.964844 109.136719 L 256.574219 115.128906 L 255.378906 118.121094 L 252.988281 124.113281 L 251.796875 127.105469 L 250.601562 130.101562 L 249.40625 133.09375 L 247.015625 139.085938 L 245.820312 142.078125 L 244.625 145.074219 L 243.433594 148.066406 L 243.894531 144.878906 L 244.355469 141.6875 L 244.820312 138.496094 L 245.28125 135.304688 L 245.746094 132.113281 L 246.207031 128.921875 L 246.671875 125.734375 L 247.132812 122.542969 L 247.597656 119.351562 L 248.519531 112.96875 L 248.984375 109.777344 L 249.445312 106.589844 Z M 249.910156 103.398438 "/>
<path style=" stroke:none;fill-rule:nonzero;fill:rgb(63.529412%,64.313725%,83.137255%);fill-opacity:1;" d="M 256.433594 117.804688 L 259.902344 119.542969 L 263.140625 121.675781 L 261.167969 124.316406 L 259.199219 126.953125 L 257.226562 129.59375 L 255.257812 132.234375 L 253.285156 134.871094 L 251.316406 137.511719 L 249.34375 140.148438 L 247.375 142.789062 L 245.402344 145.429688 L 243.433594 148.066406 L 244.730469 145.042969 L 248.632812 135.960938 L 249.933594 132.9375 L 252.535156 126.882812 L 253.832031 123.859375 Z M 256.433594 117.804688 "/>
<path style=" stroke:none;fill-rule:nonzero;fill:rgb(62.745098%,58.039216%,77.647059%);fill-opacity:1;" d="M 278.171875 104 L 280.707031 106.121094 L 283.113281 108.386719 L 285.378906 110.792969 L 287.5 113.328125 L 284.910156 115.371094 L 279.722656 119.457031 L 277.132812 121.5 L 274.539062 123.542969 L 271.949219 125.589844 L 266.761719 129.675781 L 264.171875 131.71875 L 258.984375 135.804688 L 256.394531 137.851562 L 253.800781 139.894531 L 251.210938 141.9375 L 246.023438 146.023438 L 243.433594 148.066406 L 245.476562 145.476562 L 249.5625 140.289062 L 251.605469 137.699219 L 253.648438 135.105469 L 255.695312 132.515625 L 259.78125 127.328125 L 261.824219 124.738281 L 265.910156 119.550781 L 267.957031 116.960938 L 270 114.367188 L 272.042969 111.777344 L 276.128906 106.589844 Z M 278.171875 104 "/>
<path style=" stroke:none;fill-rule:nonzero;fill:rgb(62.745098%,56.862745%,76.470588%);fill-opacity:1;" d="M 299.636719 106.097656 L 301.550781 108.792969 L 303.335938 111.574219 L 304.988281 114.4375 L 306.503906 117.375 L 307.882812 120.378906 L 304.8125 121.695312 L 301.742188 123.015625 L 298.675781 124.335938 L 295.605469 125.652344 L 292.535156 126.972656 L 289.46875 128.289062 L 286.398438 129.609375 L 283.328125 130.925781 L 280.261719 132.246094 L 277.191406 133.5625 L 274.121094 134.882812 L 271.054688 136.199219 L 264.914062 138.839844 L 261.847656 140.15625 L 258.777344 141.476562 L 255.707031 142.792969 L 252.640625 144.113281 L 249.570312 145.429688 L 246.5 146.75 L 243.433594 148.066406 L 246.109375 146.070312 L 251.460938 142.070312 L 254.136719 140.074219 L 256.8125 138.074219 L 259.492188 136.078125 L 264.84375 132.078125 L 267.519531 130.082031 L 272.871094 126.082031 L 275.550781 124.085938 L 278.226562 122.085938 L 280.902344 120.089844 L 286.253906 116.089844 L 288.929688 114.09375 L 291.605469 112.09375 L 294.285156 110.09375 L 296.960938 108.097656 Z M 299.636719 106.097656 "/>
<path style=" stroke:none;fill-rule:nonzero;fill:rgb(61.960784%,52.54902%,72.156863%);fill-opacity:1;" d="M 305.75 123.203125 L 307.105469 126.917969 L 308.242188 130.703125 L 309.152344 134.546875 L 309.832031 138.441406 L 303.191406 139.402344 L 299.875 139.882812 L 296.554688 140.367188 L 286.59375 141.808594 L 283.273438 142.292969 L 269.992188 144.214844 L 266.671875 144.699219 L 256.710938 146.140625 L 253.390625 146.625 L 250.074219 147.105469 L 243.433594 148.066406 L 246.546875 146.824219 L 252.78125 144.339844 L 255.894531 143.09375 L 262.128906 140.609375 L 265.242188 139.367188 L 268.359375 138.121094 L 271.476562 136.878906 L 274.589844 135.636719 L 277.707031 134.394531 L 280.824219 133.148438 L 283.941406 131.90625 L 287.054688 130.664062 L 290.171875 129.421875 L 293.289062 128.175781 L 296.402344 126.933594 L 302.636719 124.449219 Z M 305.75 123.203125 "/>
<path style=" stroke:none;fill-rule:nonzero;fill:rgb(62.745098%,60%,79.215686%);fill-opacity:1;" d="M 323.390625 138.605469 L 323.746094 142.382812 L 323.925781 146.171875 L 323.925781 149.964844 L 323.746094 153.753906 L 323.390625 157.53125 L 313.792969 156.394531 L 310.597656 156.015625 L 307.398438 155.640625 L 297.800781 154.503906 L 294.605469 154.125 L 285.007812 152.988281 L 281.8125 152.609375 L 275.414062 151.851562 L 272.214844 151.476562 L 269.019531 151.097656 L 259.421875 149.960938 L 256.226562 149.582031 L 246.628906 148.445312 L 243.433594 148.066406 L 246.628906 147.6875 L 249.828125 147.3125 L 256.226562 146.554688 L 259.421875 146.175781 L 269.019531 145.039062 L 272.214844 144.660156 L 281.8125 143.523438 L 285.007812 143.148438 L 294.605469 142.011719 L 297.800781 141.632812 L 310.597656 140.117188 L 313.792969 139.738281 L 316.992188 139.363281 Z M 323.390625 138.605469 "/>
<path style=" stroke:none;fill-rule:nonzero;fill:rgb(61.568627%,50.588235%,70.196078%);fill-opacity:1;" d="M 336.996094 161.632812 L 336.394531 165.296875 L 335.644531 168.933594 L 334.753906 172.539062 L 333.722656 176.105469 L 332.554688 179.628906 L 331.246094 183.101562 L 328.21875 181.894531 L 325.1875 180.6875 L 322.160156 179.476562 L 316.105469 177.0625 L 313.078125 175.851562 L 310.050781 174.644531 L 307.019531 173.4375 L 303.992188 172.230469 L 300.964844 171.019531 L 291.882812 167.398438 L 288.851562 166.1875 L 279.769531 162.566406 L 276.742188 161.355469 L 273.710938 160.148438 L 270.683594 158.941406 L 267.65625 157.730469 L 258.574219 154.109375 L 255.542969 152.898438 L 246.460938 149.277344 L 243.433594 148.066406 L 249.886719 149.003906 L 253.109375 149.472656 L 256.335938 149.9375 L 266.015625 151.34375 L 269.242188 151.808594 L 278.921875 153.214844 L 282.148438 153.679688 L 295.054688 155.554688 L 298.28125 156.019531 L 307.960938 157.425781 L 311.1875 157.890625 L 320.867188 159.296875 L 324.09375 159.761719 L 327.320312 160.230469 L 330.542969 160.699219 L 333.769531 161.167969 Z M 336.996094 161.632812 "/>
<path style=" stroke:none;fill-rule:nonzero;fill:rgb(63.137255%,61.960784%,81.176471%);fill-opacity:1;" d="M 306.199219 175.035156 L 304.859375 177.960938 L 303.382812 180.824219 L 301.773438 183.609375 L 300.035156 186.320312 L 298.171875 188.941406 L 295.5625 186.996094 L 290.351562 183.105469 L 287.742188 181.15625 L 282.53125 177.265625 L 279.925781 175.316406 L 277.316406 173.371094 L 272.105469 169.480469 L 269.496094 167.53125 L 264.285156 163.640625 L 261.679688 161.691406 L 259.070312 159.746094 L 253.859375 155.855469 L 251.25 153.90625 L 246.039062 150.015625 L 243.433594 148.066406 L 252.398438 151.921875 L 255.386719 153.203125 L 258.375 154.488281 L 261.367188 155.773438 L 264.355469 157.058594 L 267.34375 158.339844 L 276.308594 162.195312 L 279.300781 163.476562 L 288.265625 167.332031 L 291.253906 168.613281 L 294.246094 169.898438 L 297.234375 171.183594 L 300.222656 172.464844 Z M 306.199219 175.035156 "/>
<path style=" stroke:none;fill-rule:nonzero;fill:rgb(65.098039%,70.588235%,88.627451%);fill-opacity:1;" d="M 288.9375 183.941406 L 286.746094 186.558594 L 284.40625 189.042969 L 281.921875 191.382812 L 279.304688 193.574219 L 275.320312 188.519531 L 273.328125 185.988281 L 271.335938 183.460938 L 269.339844 180.933594 L 265.355469 175.878906 L 263.363281 173.347656 L 261.371094 170.820312 L 259.375 168.292969 L 255.390625 163.238281 L 253.398438 160.707031 L 251.402344 158.179688 L 245.425781 150.597656 L 243.433594 148.066406 L 245.960938 150.0625 L 253.542969 156.039062 L 256.074219 158.03125 L 258.601562 160.027344 L 266.183594 166.003906 L 268.714844 167.996094 L 271.242188 169.992188 L 278.824219 175.96875 L 281.355469 177.964844 Z M 288.9375 183.941406 "/>
<path style=" stroke:none;fill-rule:nonzero;fill:rgb(66.666667%,74.901961%,91.764706%);fill-opacity:1;" d="M 267.882812 180.8125 L 265.238281 182.628906 L 262.460938 184.234375 L 259.5625 185.617188 L 251.5 166.84375 L 250.152344 163.714844 L 248.808594 160.585938 L 247.464844 157.453125 L 243.433594 148.066406 L 245.46875 150.796875 L 247.507812 153.527344 L 249.546875 156.253906 L 251.582031 158.984375 L 253.621094 161.710938 L 255.65625 164.441406 L 257.695312 167.167969 L 259.734375 169.898438 L 261.769531 172.625 L 265.847656 178.085938 Z M 267.882812 180.8125 "/>
<path style=" stroke:none;fill-rule:nonzero;fill:rgb(68.627451%,80%,95.294118%);fill-opacity:1;" d="M 261.289062 192.824219 L 257.722656 194.085938 L 254.066406 195.066406 L 250.347656 195.757812 L 247.121094 173.5 L 246.660156 170.324219 L 243.433594 148.066406 L 244.621094 151.050781 L 248.195312 160.003906 L 249.382812 162.988281 L 250.574219 165.96875 L 252.957031 171.9375 L 254.144531 174.921875 L 257.71875 183.875 L 258.90625 186.855469 Z M 261.289062 192.824219 "/>
</g>
</svg>
