<?xml version="1.0" encoding="UTF-8"?>
<svg xmlns="http://www.w3.org/2000/svg" xmlns:xlink="http://www.w3.org/1999/xlink" width="484pt" height="299pt" viewBox="0 0 484 299" version="1.1">
<g id="surface151">
<rect x="0" y="0" width="484" height="299" style="fill:rgb(100%,100%,100%);fill-opacity:1;stroke:none;"/>
<path style=" stroke:none;fill-rule:nonzero;fill:rgb(69.411765%,81.568627%,96.470588%);fill-opacity:1;" d="M 235.425781 203.285156 L 232.1875 202.71875 L 228.992188 201.964844 L 225.84375 201.019531 L 222.757812 199.890625 L 225.1875 193.796875 L 226.40625 190.746094 L 227.621094 187.699219 L 228.835938 184.648438 L 230.054688 181.601562 L 231.269531 178.550781 L 232.484375 175.503906 L 233.703125 172.457031 L 234.917969 169.40625 L 236.136719 166.359375 L 237.351562 163.308594 L 238.566406 160.261719 L 239.785156 157.214844 L 241 154.164062 L 242.214844 151.117188 L 243.433594 148.066406 L 242.960938 151.316406 L 242.488281 154.5625 L 242.019531 157.8125 L 241.546875 161.0625 L 241.078125 164.308594 L 240.605469 167.558594 L 240.136719 170.804688 L 239.664062 174.054688 L 239.195312 177.300781 L 238.722656 180.550781 L 238.25 183.796875 L 237.78125 187.046875 L 237.308594 190.292969 L 236.839844 193.542969 L 236.367188 196.789062 L 235.898438 200.039062 Z M 235.425781 203.285156 "/>
<path style=" stroke:none;fill-rule:nonzero;fill:rgb(66.666667%,75.686275%,92.54902%);fill-opacity:1;" d="M 222.628906 196.484375 L 218.894531 194.703125 L 215.3125 192.636719 L 211.902344 190.292969 L 213.871094 187.652344 L 215.84375 185.011719 L 217.8125 182.375 L 219.785156 179.734375 L 221.753906 177.097656 L 223.726562 174.457031 L 225.695312 171.820312 L 227.667969 169.179688 L 229.636719 166.539062 L 231.609375 163.902344 L 233.578125 161.261719 L 235.550781 158.625 L 237.519531 155.984375 L 239.492188 153.347656 L 241.460938 150.707031 L 243.433594 148.066406 L 240.832031 154.121094 L 239.53125 157.144531 L 236.929688 163.199219 L 235.632812 166.222656 L 233.03125 172.277344 L 231.730469 175.300781 L 230.429688 178.328125 L 229.132812 181.355469 L 227.832031 184.378906 L 223.929688 193.460938 Z M 222.628906 196.484375 "/>
<path style=" stroke:none;fill-rule:nonzero;fill:rgb(69.019608%,80.392157%,95.686275%);fill-opacity:1;" d="M 219.445312 178.496094 L 216.035156 175.464844 L 213.003906 172.054688 L 215.539062 170.058594 L 223.144531 164.058594 L 225.683594 162.0625 L 233.289062 156.0625 L 235.824219 154.066406 L 240.894531 150.066406 L 243.433594 148.066406 L 241.433594 150.605469 L 237.433594 155.675781 L 235.4375 158.210938 L 229.4375 165.816406 L 227.441406 168.355469 L 221.441406 175.960938 Z M 219.445312 178.496094 "/>
<path style=" stroke:none;fill-rule:nonzero;fill:rgb(65.098039%,70.196078%,87.843137%);fill-opacity:1;" d="M 201.207031 179.597656 L 198.863281 176.1875 L 196.796875 172.605469 L 195.015625 168.871094 L 198.039062 167.570312 L 207.121094 163.667969 L 210.144531 162.367188 L 213.171875 161.070312 L 216.199219 159.769531 L 219.222656 158.46875 L 225.277344 155.867188 L 228.300781 154.570312 L 234.355469 151.96875 L 237.378906 150.667969 L 243.433594 148.066406 L 240.792969 150.039062 L 238.152344 152.007812 L 235.515625 153.980469 L 232.875 155.949219 L 230.238281 157.921875 L 227.597656 159.890625 L 224.960938 161.863281 L 222.320312 163.832031 L 219.679688 165.804688 L 217.042969 167.773438 L 214.402344 169.746094 L 211.765625 171.714844 L 209.125 173.6875 L 206.488281 175.65625 L 203.847656 177.628906 Z M 201.207031 179.597656 "/>
<path style=" stroke:none;fill-rule:nonzero;fill:rgb(63.921569%,65.490196%,83.921569%);fill-opacity:1;" d="M 155.617188 183.101562 L 154.3125 179.628906 L 153.140625 176.105469 L 152.109375 172.539062 L 151.21875 168.933594 L 150.472656 165.296875 L 149.867188 161.632812 L 153.09375 161.167969 L 162.773438 159.761719 L 166 159.296875 L 175.679688 157.890625 L 178.902344 157.425781 L 188.582031 156.019531 L 191.808594 155.554688 L 204.714844 153.679688 L 207.941406 153.214844 L 217.621094 151.808594 L 220.847656 151.34375 L 230.527344 149.9375 L 233.753906 149.472656 L 243.433594 148.066406 L 240.402344 149.277344 L 231.320312 152.898438 L 228.292969 154.109375 L 225.265625 155.316406 L 222.234375 156.523438 L 219.207031 157.730469 L 216.179688 158.941406 L 210.125 161.355469 L 207.09375 162.566406 L 198.011719 166.1875 L 194.984375 167.398438 L 191.957031 168.605469 L 188.925781 169.8125 L 185.898438 171.019531 L 182.871094 172.230469 L 176.816406 174.644531 L 173.785156 175.851562 L 170.757812 177.0625 L 164.703125 179.476562 L 161.675781 180.6875 L 158.648438 181.894531 Z M 155.617188 183.101562 "/>
<path style=" stroke:none;fill-rule:nonzero;fill:rgb(64.313725%,66.666667%,85.098039%);fill-opacity:1;" d="M 177.25 155.902344 L 176.902344 151.992188 L 176.785156 148.066406 L 176.902344 144.144531 L 177.25 140.234375 L 180.558594 140.625 L 183.867188 141.019531 L 193.792969 142.191406 L 197.101562 142.585938 L 200.414062 142.976562 L 207.03125 143.757812 L 210.339844 144.152344 L 216.957031 144.933594 L 220.269531 145.328125 L 230.195312 146.5 L 233.503906 146.894531 L 240.121094 147.675781 L 243.433594 148.066406 L 240.121094 148.460938 L 230.195312 149.632812 L 226.886719 150.027344 L 220.269531 150.808594 L 216.957031 151.203125 L 207.03125 152.375 L 203.722656 152.769531 L 200.414062 153.160156 L 197.101562 153.550781 L 193.792969 153.941406 L 190.484375 154.335938 L 180.558594 155.507812 Z M 177.25 155.902344 "/>
<path style=" stroke:none;fill-rule:nonzero;fill:rgb(63.921569%,65.882353%,84.705882%);fill-opacity:1;" d="M 175.941406 138.28125 L 176.476562 135.113281 L 177.164062 131.972656 L 177.996094 128.871094 L 178.972656 125.808594 L 180.089844 122.796875 L 183.109375 124 L 195.171875 128.8125 L 198.1875 130.019531 L 201.203125 131.222656 L 204.222656 132.425781 L 219.300781 138.441406 L 222.320312 139.644531 L 240.414062 146.863281 L 243.433594 148.066406 L 233.789062 146.671875 L 230.578125 146.203125 L 224.148438 145.273438 L 220.933594 144.804688 L 217.722656 144.339844 L 214.507812 143.875 L 211.292969 143.40625 L 208.082031 142.941406 L 201.652344 142.011719 L 198.4375 141.542969 L 195.226562 141.078125 L 192.011719 140.613281 L 188.796875 140.144531 L 185.582031 139.679688 L 182.371094 139.214844 L 179.15625 138.75 Z M 175.941406 138.28125 "/>
<path style=" stroke:none;fill-rule:nonzero;fill:rgb(62.745098%,60%,79.607843%);fill-opacity:1;" d="M 169.382812 116.253906 L 170.964844 112.800781 L 172.703125 109.425781 L 174.605469 106.136719 L 176.65625 102.941406 L 178.855469 99.847656 L 181.4375 101.773438 L 184.019531 103.703125 L 186.605469 105.632812 L 191.769531 109.492188 L 194.355469 111.417969 L 202.101562 117.207031 L 204.6875 119.132812 L 212.433594 124.921875 L 215.019531 126.851562 L 217.601562 128.777344 L 222.765625 132.636719 L 225.351562 134.566406 L 227.933594 136.496094 L 230.515625 138.421875 L 233.101562 140.351562 L 240.847656 146.140625 L 243.433594 148.066406 L 240.46875 146.796875 L 231.585938 142.976562 L 228.621094 141.703125 L 225.660156 140.433594 L 222.699219 139.160156 L 219.734375 137.886719 L 216.773438 136.613281 L 213.8125 135.34375 L 210.851562 134.070312 L 207.886719 132.796875 L 201.964844 130.25 L 199.003906 128.980469 L 196.039062 127.707031 L 190.117188 125.160156 L 187.152344 123.890625 L 178.269531 120.070312 L 175.304688 118.796875 L 172.34375 117.527344 Z M 169.382812 116.253906 "/>
<path style=" stroke:none;fill-rule:nonzero;fill:rgb(61.568627%,50.588235%,70.196078%);fill-opacity:1;" d="M 189.875 105.847656 L 191.925781 103.371094 L 194.085938 100.996094 L 196.359375 98.722656 L 198.738281 96.5625 L 201.210938 94.511719 L 205.234375 99.613281 L 207.242188 102.164062 L 211.265625 107.265625 L 213.273438 109.8125 L 219.308594 117.464844 L 221.316406 120.015625 L 225.339844 125.117188 L 227.347656 127.664062 L 231.371094 132.765625 L 233.378906 135.316406 L 237.402344 140.417969 L 239.410156 142.96875 L 241.421875 145.519531 L 243.433594 148.066406 L 240.882812 146.058594 L 235.78125 142.035156 L 233.230469 140.027344 L 228.128906 136.003906 L 225.582031 133.996094 L 220.480469 129.972656 L 217.929688 127.964844 L 212.828125 123.941406 L 210.277344 121.933594 L 207.730469 119.921875 L 205.179688 117.910156 L 202.628906 115.902344 L 197.527344 111.878906 L 194.976562 109.871094 Z M 189.875 105.847656 "/>
<path style=" stroke:none;fill-rule:nonzero;fill:rgb(61.960784%,54.117647%,73.333333%);fill-opacity:1;" d="M 217.464844 113.296875 L 220.273438 111.367188 L 223.226562 109.660156 L 226.300781 108.195312 L 227.617188 111.261719 L 228.9375 114.328125 L 230.253906 117.394531 L 231.574219 120.464844 L 234.207031 126.597656 L 235.527344 129.664062 L 236.84375 132.730469 L 238.160156 135.800781 L 239.480469 138.867188 L 242.113281 145 L 243.433594 148.066406 L 241.433594 145.394531 L 237.441406 140.042969 L 235.441406 137.367188 L 233.445312 134.695312 L 231.449219 132.019531 L 229.449219 129.34375 L 227.453125 126.667969 L 225.457031 123.996094 L 223.457031 121.320312 L 219.464844 115.96875 Z M 217.464844 113.296875 "/>
<path style=" stroke:none;fill-rule:nonzero;fill:rgb(64.705882%,69.019608%,87.058824%);fill-opacity:1;" d="M 220.460938 90.484375 L 223.890625 89.234375 L 227.386719 88.183594 L 230.941406 87.34375 L 234.535156 86.714844 L 235.003906 89.941406 L 235.941406 96.402344 L 236.410156 99.628906 L 236.878906 102.859375 L 237.34375 106.089844 L 237.8125 109.316406 L 238.75 115.777344 L 239.21875 119.003906 L 240.15625 125.464844 L 240.621094 128.691406 L 241.558594 135.152344 L 242.027344 138.378906 L 242.964844 144.839844 L 243.433594 148.066406 L 242.222656 145.039062 L 241.015625 142.007812 L 238.59375 135.945312 L 237.386719 132.914062 L 236.175781 129.882812 L 234.96875 126.851562 L 233.757812 123.824219 L 232.550781 120.792969 L 231.339844 117.761719 L 230.132812 114.730469 L 228.921875 111.699219 L 227.714844 108.667969 L 226.503906 105.636719 L 225.296875 102.609375 L 224.085938 99.578125 L 222.878906 96.546875 L 221.667969 93.515625 Z M 220.460938 90.484375 "/>
<path style=" stroke:none;fill-rule:nonzero;fill:rgb(64.313725%,66.27451%,84.705882%);fill-opacity:1;" d="M 236.144531 86.5 L 239.78125 86.179688 L 243.433594 86.070312 L 247.082031 86.179688 L 250.71875 86.5 L 250.335938 89.742188 L 249.953125 92.980469 L 249.570312 96.222656 L 249.183594 99.460938 L 248.417969 105.945312 L 248.035156 109.183594 L 247.652344 112.425781 L 247.265625 115.664062 L 246.882812 118.90625 L 246.5 122.144531 L 246.117188 125.386719 L 245.734375 128.625 L 245.351562 131.867188 L 244.964844 135.105469 L 244.582031 138.347656 L 244.199219 141.585938 L 243.816406 144.828125 L 243.433594 148.066406 L 243.046875 144.828125 L 242.664062 141.585938 L 242.28125 138.347656 L 241.898438 135.105469 L 241.515625 131.867188 L 241.132812 128.625 L 240.746094 125.386719 L 240.363281 122.144531 L 239.980469 118.90625 L 239.597656 115.664062 L 239.214844 112.425781 L 238.828125 109.183594 L 238.445312 105.945312 L 237.679688 99.460938 L 237.296875 96.222656 L 236.914062 92.980469 L 236.527344 89.742188 Z M 236.144531 86.5 "/>
<path style=" stroke:none;fill-rule:nonzero;fill:rgb(65.882353%,73.72549%,90.980392%);fill-opacity:1;" d="M 251.660156 91.316406 L 254.988281 91.898438 L 258.273438 92.675781 L 261.507812 93.644531 L 264.683594 94.804688 L 255.933594 116.734375 L 254.683594 119.871094 L 243.433594 148.066406 L 243.917969 144.730469 L 244.398438 141.390625 L 244.882812 138.050781 L 245.367188 134.714844 L 245.851562 131.375 L 246.335938 128.039062 L 247.304688 121.359375 L 247.789062 118.023438 L 248.757812 111.34375 L 249.242188 108.007812 L 249.726562 104.667969 L 250.207031 101.332031 L 251.175781 94.652344 Z M 251.660156 91.316406 "/>
<path style=" stroke:none;fill-rule:nonzero;fill:rgb(67.843137%,77.647059%,93.72549%);fill-opacity:1;" d="M 261.175781 106.769531 L 264.359375 108.289062 L 267.417969 110.054688 L 270.324219 112.054688 L 268.402344 114.625 L 266.484375 117.199219 L 264.5625 119.769531 L 262.640625 122.34375 L 260.71875 124.914062 L 258.800781 127.488281 L 256.878906 130.0625 L 254.957031 132.632812 L 253.035156 135.207031 L 251.117188 137.777344 L 249.195312 140.351562 L 247.273438 142.921875 L 245.351562 145.496094 L 243.433594 148.066406 L 245.964844 142.167969 L 247.234375 139.21875 L 248.5 136.269531 L 249.769531 133.320312 L 251.035156 130.371094 L 252.304688 127.417969 L 253.570312 124.46875 L 254.839844 121.519531 L 257.371094 115.621094 L 258.640625 112.671875 L 259.90625 109.71875 Z M 261.175781 106.769531 "/>
<path style=" stroke:none;fill-rule:nonzero;fill:rgb(64.705882%,69.019608%,87.058824%);fill-opacity:1;" d="M 284.691406 95.730469 L 287.703125 98.25 L 290.558594 100.941406 L 293.25 103.796875 L 295.769531 106.808594 L 285.300781 115.058594 L 282.6875 117.121094 L 280.070312 119.1875 L 261.75 133.625 L 259.132812 135.691406 L 248.664062 143.941406 L 246.050781 146.003906 L 243.433594 148.066406 L 245.496094 145.449219 L 247.558594 142.835938 L 255.808594 132.367188 L 257.875 129.75 L 272.3125 111.429688 L 274.378906 108.8125 L 276.441406 106.199219 Z M 284.691406 95.730469 "/>
<path style=" stroke:none;fill-rule:nonzero;fill:rgb(63.137255%,61.960784%,81.176471%);fill-opacity:1;" d="M 279.445312 121.175781 L 281.445312 124.082031 L 283.210938 127.140625 L 284.730469 130.324219 L 281.78125 131.59375 L 278.828125 132.859375 L 275.878906 134.128906 L 269.980469 136.660156 L 267.03125 137.929688 L 264.082031 139.195312 L 261.128906 140.464844 L 258.179688 141.730469 L 255.230469 143 L 252.28125 144.265625 L 249.332031 145.535156 L 243.433594 148.066406 L 246.003906 146.148438 L 248.578125 144.226562 L 251.148438 142.304688 L 253.722656 140.382812 L 256.292969 138.464844 L 258.867188 136.542969 L 261.4375 134.621094 L 264.011719 132.699219 L 266.585938 130.78125 L 269.15625 128.859375 L 271.730469 126.9375 L 274.300781 125.015625 L 276.875 123.097656 Z M 279.445312 121.175781 "/>
<path style=" stroke:none;fill-rule:nonzero;fill:rgb(63.921569%,65.098039%,83.529412%);fill-opacity:1;" d="M 299.574219 125.667969 L 300.796875 129.011719 L 301.820312 132.421875 L 302.636719 135.886719 L 303.253906 139.394531 L 299.929688 139.875 L 296.605469 140.359375 L 293.28125 140.839844 L 289.960938 141.320312 L 286.636719 141.804688 L 279.988281 142.765625 L 276.664062 143.25 L 273.34375 143.730469 L 270.019531 144.214844 L 263.371094 145.175781 L 260.050781 145.660156 L 253.402344 146.621094 L 250.078125 147.105469 L 246.753906 147.585938 L 243.433594 148.066406 L 246.550781 146.824219 L 249.671875 145.578125 L 252.789062 144.335938 L 255.910156 143.089844 L 259.027344 141.847656 L 262.144531 140.601562 L 265.265625 139.355469 L 268.382812 138.113281 L 271.503906 136.867188 L 274.621094 135.625 L 277.742188 134.378906 L 280.859375 133.136719 L 283.980469 131.890625 L 287.097656 130.648438 L 290.21875 129.402344 L 293.335938 128.15625 L 296.457031 126.914062 Z M 299.574219 125.667969 "/>
<path style=" stroke:none;fill-rule:nonzero;fill:rgb(68.235294%,78.823529%,94.509804%);fill-opacity:1;" d="M 298.84375 141.507812 L 299.132812 144.78125 L 299.230469 148.066406 L 299.132812 151.351562 L 298.84375 154.625 L 295.582031 154.242188 L 292.324219 153.855469 L 289.0625 153.46875 L 285.804688 153.082031 L 282.542969 152.695312 L 279.285156 152.3125 L 276.027344 151.925781 L 272.765625 151.539062 L 269.507812 151.152344 L 266.246094 150.769531 L 259.730469 149.996094 L 256.46875 149.609375 L 253.210938 149.226562 L 249.949219 148.839844 L 243.433594 148.066406 L 246.691406 147.683594 L 249.949219 147.296875 L 253.210938 146.910156 L 256.46875 146.523438 L 259.730469 146.140625 L 266.246094 145.367188 L 269.507812 144.980469 L 272.765625 144.597656 L 276.027344 144.210938 L 282.542969 143.4375 L 285.804688 143.054688 L 289.0625 142.667969 L 292.324219 142.28125 L 295.582031 141.894531 Z M 298.84375 141.507812 "/>
<path style=" stroke:none;fill-rule:nonzero;fill:rgb(62.352941%,56.862745%,76.078431%);fill-opacity:1;" d="M 304.785156 156.964844 L 304.15625 160.558594 L 303.316406 164.113281 L 302.265625 167.609375 L 301.015625 171.039062 L 297.984375 169.832031 L 294.953125 168.621094 L 291.921875 167.414062 L 288.890625 166.203125 L 285.863281 164.996094 L 282.832031 163.785156 L 279.800781 162.578125 L 276.769531 161.367188 L 273.738281 160.160156 L 270.707031 158.949219 L 267.675781 157.742188 L 264.648438 156.53125 L 261.617188 155.324219 L 258.585938 154.113281 L 255.554688 152.90625 L 249.492188 150.484375 L 246.460938 149.277344 L 243.433594 148.066406 L 246.660156 148.535156 L 253.121094 149.472656 L 256.347656 149.941406 L 262.808594 150.878906 L 266.035156 151.34375 L 272.496094 152.28125 L 275.722656 152.75 L 282.183594 153.6875 L 285.410156 154.15625 L 288.640625 154.621094 L 291.871094 155.089844 L 295.097656 155.558594 L 301.558594 156.496094 Z M 304.785156 156.964844 "/>
<path style=" stroke:none;fill-rule:nonzero;fill:rgb(69.411765%,81.568627%,96.470588%);fill-opacity:1;" d="M 276.183594 162.140625 L 274.304688 165.890625 L 271.996094 169.398438 L 269.398438 167.457031 L 266.800781 165.519531 L 264.207031 163.578125 L 259.011719 159.703125 L 256.414062 157.761719 L 253.820312 155.824219 L 251.222656 153.886719 L 248.625 151.945312 L 246.027344 150.007812 L 243.433594 148.066406 L 246.410156 149.347656 L 249.386719 150.625 L 252.363281 151.90625 L 255.34375 153.183594 L 258.320312 154.464844 L 261.296875 155.742188 L 264.273438 157.023438 L 267.253906 158.300781 L 270.230469 159.582031 L 273.207031 160.859375 Z M 276.183594 162.140625 "/>
<path style=" stroke:none;fill-rule:nonzero;fill:rgb(65.490196%,72.54902%,89.803922%);fill-opacity:1;" d="M 265.339844 165.339844 L 263.160156 167.792969 L 260.703125 169.976562 L 258.542969 167.238281 L 256.386719 164.5 L 252.066406 159.023438 L 249.910156 156.285156 L 247.75 153.546875 L 245.589844 150.804688 L 243.433594 148.066406 L 248.910156 152.386719 L 251.648438 154.542969 L 259.863281 161.023438 L 262.601562 163.179688 Z M 265.339844 165.339844 "/>
<path style=" stroke:none;fill-rule:nonzero;fill:rgb(69.411765%,81.568627%,96.470588%);fill-opacity:1;" d="M 258.269531 167.9375 L 253.222656 170.851562 L 250.425781 164.34375 L 249.027344 161.085938 L 244.832031 151.324219 L 243.433594 148.066406 L 245.550781 150.90625 L 247.671875 153.746094 L 249.792969 156.582031 L 251.910156 159.421875 L 254.03125 162.261719 L 256.148438 165.097656 Z M 258.269531 167.9375 "/>
<path style=" stroke:none;fill-rule:nonzero;fill:rgb(68.235294%,78.823529%,94.509804%);fill-opacity:1;" d="M 258.363281 185.496094 L 253.863281 186.992188 L 249.214844 187.949219 L 248.734375 184.625 L 248.25 181.300781 L 247.769531 177.976562 L 247.285156 174.65625 L 246.324219 168.007812 L 245.839844 164.683594 L 245.359375 161.363281 L 244.878906 158.039062 L 244.394531 154.714844 L 243.433594 148.066406 L 244.675781 151.1875 L 245.921875 154.304688 L 247.164062 157.425781 L 248.410156 160.542969 L 249.652344 163.664062 L 250.898438 166.78125 L 252.144531 169.902344 L 253.386719 173.019531 L 254.632812 176.140625 L 255.875 179.257812 L 257.121094 182.378906 Z M 258.363281 185.496094 "/>
</g>
</svg>
