<?xml version="1.0" encoding="UTF-8"?>
<svg xmlns="http://www.w3.org/2000/svg" xmlns:xlink="http://www.w3.org/1999/xlink" width="484pt" height="299pt" viewBox="0 0 484 299" version="1.1">
<g id="surface175">
<rect x="0" y="0" width="484" height="299" style="fill:rgb(100%,100%,100%);fill-opacity:1;stroke:none;"/>
<path style=" stroke:none;fill-rule:nonzero;fill:rgb(66.27451%,74.901961%,91.764706%);fill-opacity:1;" d="M 242.515625 154.390625 L 241.066406 154 L 243.433594 148.066406 Z M 242.515625 154.390625 "/>
<path style=" stroke:none;fill-rule:nonzero;fill:rgb(69.411765%,81.960784%,96.470588%);fill-opacity:1;" d="M 239.398438 157.457031 L 237.316406 156.257812 L 243.433594 148.066406 L 242.085938 151.199219 Z M 239.398438 157.457031 "/>
<path style=" stroke:none;fill-rule:nonzero;fill:rgb(69.411765%,81.568627%,96.470588%);fill-opacity:1;" d="M 241.851562 150.074219 L 241.425781 149.648438 L 243.433594 148.066406 Z M 241.851562 150.074219 "/>
<path style=" stroke:none;fill-rule:nonzero;fill:rgb(70.980392%,85.098039%,98.823529%);fill-opacity:1;" d="M 238.3125 151.890625 L 237.5625 150.589844 L 243.433594 148.066406 Z M 238.3125 151.890625 "/>
<path style=" stroke:none;fill-rule:nonzero;fill:rgb(61.568627%,50.588235%,70.196078%);fill-opacity:1;" d="M 241.058594 149.015625 L 240.902344 148.433594 L 243.433594 148.066406 Z M 241.058594 149.015625 "/>
<path style=" stroke:none;fill-rule:nonzero;fill:rgb(63.921569%,65.098039%,83.921569%);fill-opacity:1;" d="M 232.011719 149.417969 L 232.011719 146.714844 L 235.820312 147.167969 L 239.625 147.617188 L 243.433594 148.066406 L 239.625 148.519531 L 235.820312 148.96875 Z M 232.011719 149.417969 "/>
<path style=" stroke:none;fill-rule:nonzero;fill:rgb(68.627451%,80%,95.294118%);fill-opacity:1;" d="M 232.050781 146.417969 L 232.753906 143.808594 L 236.3125 145.226562 L 239.871094 146.648438 L 243.433594 148.066406 L 239.640625 147.519531 L 235.847656 146.96875 Z M 232.050781 146.417969 "/>
<path style=" stroke:none;fill-rule:nonzero;fill:rgb(64.313725%,67.45098%,85.882353%);fill-opacity:1;" d="M 210.5625 133.945312 L 212.453125 130.179688 L 214.769531 126.664062 L 225.191406 134.445312 L 227.796875 136.394531 L 238.21875 144.175781 L 240.828125 146.121094 L 243.433594 148.066406 L 240.445312 146.785156 L 234.46875 144.214844 L 231.480469 142.933594 L 228.492188 141.648438 L 225.503906 140.367188 L 219.527344 137.796875 L 216.539062 136.515625 Z M 210.5625 133.945312 "/>
<path style=" stroke:none;fill-rule:nonzero;fill:rgb(65.882353%,72.941176%,90.196078%);fill-opacity:1;" d="M 215.339844 125.921875 L 218.136719 122.773438 L 221.285156 119.972656 L 223.296875 122.527344 L 225.3125 125.082031 L 227.324219 127.636719 L 229.339844 130.191406 L 231.351562 132.746094 L 233.367188 135.296875 L 237.390625 140.40625 L 239.40625 142.960938 L 241.417969 145.515625 L 243.433594 148.066406 L 238.324219 144.042969 L 235.769531 142.027344 L 233.214844 140.015625 L 230.664062 138 L 228.109375 135.988281 L 225.554688 133.972656 L 220.445312 129.949219 L 217.894531 127.933594 Z M 215.339844 125.921875 "/>
<path style=" stroke:none;fill-rule:nonzero;fill:rgb(70.196078%,83.137255%,97.254902%);fill-opacity:1;" d="M 218.96875 115.308594 L 221.617188 113.492188 L 224.394531 111.886719 L 227.292969 110.503906 L 228.636719 113.632812 L 229.984375 116.765625 L 232.671875 123.023438 L 234.019531 126.15625 L 235.363281 129.285156 L 236.707031 132.417969 L 238.050781 135.546875 L 239.398438 138.675781 L 240.742188 141.808594 L 242.085938 144.9375 L 243.433594 148.066406 L 241.394531 145.339844 L 233.238281 134.417969 L 231.203125 131.6875 L 229.164062 128.957031 L 227.125 126.230469 Z M 218.96875 115.308594 "/>
<path style=" stroke:none;fill-rule:nonzero;fill:rgb(69.019608%,80.392157%,95.686275%);fill-opacity:1;" d="M 225.914062 104.160156 L 229.414062 102.921875 L 233 101.960938 L 236.648438 101.285156 L 237.132812 104.625 L 237.617188 107.96875 L 238.101562 111.308594 L 238.585938 114.652344 L 239.070312 117.992188 L 239.554688 121.335938 L 240.039062 124.675781 L 240.523438 128.019531 L 241.007812 131.359375 L 241.492188 134.703125 L 241.980469 138.042969 L 242.464844 141.382812 L 242.949219 144.726562 L 243.433594 148.066406 L 242.179688 144.933594 L 239.679688 138.660156 L 238.425781 135.523438 L 235.925781 129.25 L 234.671875 126.113281 L 233.421875 122.976562 L 232.171875 119.84375 L 230.921875 116.707031 L 229.667969 113.570312 L 227.167969 107.296875 Z M 225.914062 104.160156 "/>
<path style=" stroke:none;fill-rule:nonzero;fill:rgb(67.45098%,77.647059%,93.72549%);fill-opacity:1;" d="M 238.328125 104.929688 L 241.726562 104.664062 L 245.136719 104.664062 L 248.539062 104.929688 L 248.144531 108.25 L 247.753906 111.566406 L 247.359375 114.886719 L 246.96875 118.203125 L 246.574219 121.519531 L 246.179688 124.839844 L 245.789062 128.15625 L 245.394531 131.476562 L 245.003906 134.792969 L 244.609375 138.113281 L 244.21875 141.429688 L 243.824219 144.75 L 243.433594 148.066406 L 243.039062 144.75 L 242.648438 141.429688 L 242.253906 138.113281 L 241.859375 134.792969 L 241.46875 131.476562 L 241.074219 128.15625 L 240.683594 124.839844 L 240.289062 121.519531 L 239.898438 118.203125 L 239.503906 114.886719 L 239.113281 111.566406 L 238.71875 108.25 Z M 238.328125 104.929688 "/>
<path style=" stroke:none;fill-rule:nonzero;fill:rgb(69.019608%,80.392157%,95.686275%);fill-opacity:1;" d="M 248.015625 116.457031 L 251.699219 117.214844 L 255.269531 118.402344 L 253.953125 121.699219 L 252.636719 124.992188 L 251.324219 128.289062 L 248.691406 134.882812 L 247.378906 138.179688 L 244.746094 144.773438 L 243.433594 148.066406 L 244.449219 141.042969 L 244.960938 137.53125 L 245.976562 130.507812 L 246.488281 126.996094 L 246.996094 123.480469 L 247.507812 119.96875 Z M 248.015625 116.457031 "/>
<path style=" stroke:none;fill-rule:nonzero;fill:rgb(65.098039%,70.980392%,88.627451%);fill-opacity:1;" d="M 261.589844 105.808594 L 264.847656 107.363281 L 267.976562 109.167969 L 270.953125 111.214844 L 268.984375 113.847656 L 263.089844 121.746094 L 261.125 124.375 L 259.15625 127.007812 L 253.261719 134.90625 L 251.292969 137.539062 L 247.363281 142.804688 L 245.398438 145.433594 L 243.433594 148.066406 L 244.730469 145.050781 L 248.621094 135.992188 L 249.917969 132.976562 L 253.808594 123.917969 L 255.105469 120.902344 L 258.996094 111.84375 L 260.292969 108.828125 Z M 261.589844 105.808594 "/>
<path style=" stroke:none;fill-rule:nonzero;fill:rgb(64.313725%,67.058824%,85.490196%);fill-opacity:1;" d="M 276.652344 105.925781 L 279.855469 108.664062 L 282.835938 111.644531 L 285.574219 114.847656 L 282.9375 116.921875 L 280.304688 119 L 277.671875 121.074219 L 275.039062 123.152344 L 272.402344 125.230469 L 269.769531 127.304688 L 267.136719 129.382812 L 264.503906 131.457031 L 261.867188 133.535156 L 259.234375 135.609375 L 256.601562 137.6875 L 253.96875 139.761719 L 251.332031 141.839844 L 248.699219 143.914062 L 246.066406 145.992188 L 243.433594 148.066406 L 245.507812 145.433594 L 247.585938 142.800781 L 249.660156 140.167969 L 251.738281 137.53125 L 253.8125 134.898438 L 255.890625 132.265625 L 257.964844 129.632812 L 260.042969 126.996094 L 262.117188 124.363281 L 264.195312 121.730469 L 266.269531 119.097656 L 268.347656 116.460938 L 270.425781 113.828125 L 272.5 111.195312 L 274.578125 108.5625 Z M 276.652344 105.925781 "/>
<path style=" stroke:none;fill-rule:nonzero;fill:rgb(64.313725%,66.27451%,84.705882%);fill-opacity:1;" d="M 289.5 113.667969 L 291.445312 116.441406 L 293.222656 119.320312 L 294.828125 122.300781 L 296.257812 125.371094 L 293.148438 126.707031 L 290.042969 128.042969 L 286.933594 129.378906 L 283.828125 130.710938 L 280.71875 132.046875 L 277.613281 133.382812 L 274.503906 134.71875 L 271.398438 136.054688 L 268.289062 137.386719 L 265.183594 138.722656 L 262.074219 140.058594 L 258.96875 141.394531 L 255.859375 142.726562 L 249.648438 145.398438 L 246.539062 146.734375 L 243.433594 148.066406 L 246.140625 146.042969 L 251.5625 141.996094 L 254.269531 139.972656 L 262.402344 133.902344 L 265.109375 131.878906 L 270.53125 127.832031 L 273.238281 125.808594 L 281.371094 119.738281 L 284.078125 117.714844 Z M 289.5 113.667969 "/>
<path style=" stroke:none;fill-rule:nonzero;fill:rgb(64.705882%,68.627451%,86.666667%);fill-opacity:1;" d="M 302.765625 124.394531 L 304.054688 127.929688 L 305.136719 131.535156 L 306.003906 135.195312 L 306.652344 138.902344 L 303.324219 139.382812 L 299.996094 139.867188 L 296.671875 140.347656 L 293.34375 140.832031 L 290.015625 141.3125 L 286.6875 141.796875 L 283.359375 142.277344 L 280.03125 142.761719 L 276.707031 143.242188 L 273.378906 143.726562 L 270.050781 144.207031 L 266.722656 144.691406 L 263.394531 145.171875 L 260.070312 145.65625 L 256.742188 146.136719 L 253.414062 146.621094 L 250.085938 147.101562 L 246.757812 147.585938 L 243.433594 148.066406 L 246.554688 146.820312 L 249.679688 145.574219 L 252.800781 144.332031 L 255.921875 143.085938 L 259.046875 141.839844 L 262.167969 140.59375 L 265.292969 139.347656 L 268.414062 138.101562 L 271.539062 136.855469 L 277.78125 134.363281 L 280.90625 133.117188 L 284.027344 131.871094 L 287.152344 130.625 L 290.273438 129.378906 L 293.398438 128.132812 L 296.519531 126.886719 L 299.644531 125.640625 Z M 302.765625 124.394531 "/>
<path style=" stroke:none;fill-rule:nonzero;fill:rgb(65.882353%,73.72549%,90.980392%);fill-opacity:1;" d="M 324.632812 138.457031 L 324.949219 141.652344 L 325.136719 144.859375 L 325.199219 148.066406 L 325.136719 151.277344 L 324.949219 154.484375 L 324.632812 157.679688 L 321.386719 157.292969 L 318.136719 156.910156 L 314.890625 156.523438 L 311.640625 156.140625 L 308.394531 155.757812 L 305.144531 155.371094 L 301.898438 154.988281 L 298.648438 154.601562 L 295.402344 154.21875 L 292.152344 153.835938 L 288.90625 153.449219 L 285.65625 153.066406 L 282.410156 152.679688 L 279.160156 152.296875 L 275.914062 151.914062 L 272.664062 151.527344 L 269.417969 151.144531 L 266.167969 150.757812 L 262.921875 150.375 L 259.671875 149.988281 L 256.425781 149.605469 L 253.175781 149.222656 L 249.929688 148.835938 L 246.679688 148.453125 L 243.433594 148.066406 L 246.679688 147.683594 L 249.929688 147.300781 L 253.175781 146.914062 L 256.425781 146.53125 L 259.671875 146.144531 L 262.921875 145.761719 L 266.167969 145.375 L 269.417969 144.992188 L 272.664062 144.609375 L 275.914062 144.222656 L 279.160156 143.839844 L 282.410156 143.453125 L 285.65625 143.070312 L 288.90625 142.6875 L 292.152344 142.300781 L 295.402344 141.917969 L 298.648438 141.53125 L 301.898438 141.148438 L 305.144531 140.765625 L 308.394531 140.378906 L 311.640625 139.996094 L 314.890625 139.609375 L 318.136719 139.226562 L 321.386719 138.839844 Z M 324.632812 138.457031 "/>
<path style=" stroke:none;fill-rule:nonzero;fill:rgb(64.705882%,69.019608%,87.058824%);fill-opacity:1;" d="M 336.996094 161.632812 L 336.394531 165.296875 L 335.644531 168.933594 L 334.753906 172.539062 L 333.722656 176.105469 L 332.554688 179.628906 L 331.246094 183.101562 L 328.21875 181.894531 L 325.1875 180.6875 L 322.160156 179.476562 L 316.105469 177.0625 L 313.078125 175.851562 L 310.050781 174.644531 L 307.019531 173.4375 L 303.992188 172.230469 L 300.964844 171.019531 L 291.882812 167.398438 L 288.851562 166.1875 L 279.769531 162.566406 L 276.742188 161.355469 L 273.710938 160.148438 L 270.683594 158.941406 L 267.65625 157.730469 L 258.574219 154.109375 L 255.542969 152.898438 L 246.460938 149.277344 L 243.433594 148.066406 L 249.886719 149.003906 L 253.109375 149.472656 L 256.335938 149.9375 L 266.015625 151.34375 L 269.242188 151.808594 L 278.921875 153.214844 L 282.148438 153.679688 L 295.054688 155.554688 L 298.28125 156.019531 L 307.960938 157.425781 L 311.1875 157.890625 L 320.867188 159.296875 L 324.09375 159.761719 L 327.320312 160.230469 L 330.542969 160.699219 L 333.769531 161.167969 Z M 336.996094 161.632812 "/>
<path style=" stroke:none;fill-rule:nonzero;fill:rgb(65.490196%,71.764706%,89.411765%);fill-opacity:1;" d="M 322.082031 181.859375 L 320.695312 184.917969 L 319.1875 187.925781 L 317.5625 190.867188 L 315.828125 193.746094 L 313.976562 196.550781 L 312.019531 199.285156 L 309.382812 197.316406 L 306.742188 195.34375 L 301.46875 191.40625 L 298.828125 189.433594 L 293.554688 185.496094 L 290.914062 183.527344 L 288.277344 181.554688 L 283.003906 177.617188 L 280.363281 175.644531 L 275.089844 171.707031 L 272.449219 169.738281 L 269.8125 167.765625 L 267.175781 165.796875 L 264.535156 163.828125 L 261.898438 161.855469 L 259.261719 159.886719 L 256.621094 157.917969 L 253.984375 155.949219 L 251.347656 153.976562 L 248.707031 152.007812 L 246.070312 150.039062 L 243.433594 148.066406 L 249.480469 150.667969 L 252.507812 151.964844 L 255.53125 153.265625 L 258.558594 154.566406 L 261.582031 155.867188 L 264.605469 157.164062 L 267.632812 158.464844 L 270.65625 159.765625 L 273.683594 161.0625 L 279.730469 163.664062 L 282.757812 164.964844 L 285.78125 166.261719 L 288.804688 167.5625 L 291.832031 168.863281 L 294.855469 170.160156 L 297.882812 171.460938 L 300.90625 172.761719 L 303.929688 174.058594 L 306.957031 175.359375 L 309.980469 176.660156 L 313.007812 177.960938 L 316.03125 179.257812 L 319.054688 180.558594 Z M 322.082031 181.859375 "/>
<path style=" stroke:none;fill-rule:nonzero;fill:rgb(64.313725%,66.666667%,85.098039%);fill-opacity:1;" d="M 298.617188 191.570312 L 296.503906 194.121094 L 294.277344 196.570312 L 291.933594 198.914062 L 289.488281 201.140625 L 286.933594 203.25 L 284.863281 200.625 L 282.792969 197.996094 L 280.71875 195.367188 L 278.648438 192.742188 L 276.578125 190.113281 L 274.503906 187.484375 L 272.433594 184.855469 L 270.363281 182.230469 L 268.292969 179.601562 L 266.21875 176.972656 L 264.148438 174.347656 L 262.078125 171.71875 L 260.003906 169.089844 L 257.933594 166.460938 L 255.863281 163.835938 L 253.789062 161.207031 L 251.71875 158.578125 L 249.648438 155.953125 L 247.574219 153.324219 L 243.433594 148.066406 L 246.058594 150.140625 L 251.316406 154.28125 L 253.941406 156.355469 L 259.199219 160.496094 L 261.828125 162.570312 L 264.453125 164.640625 L 267.082031 166.710938 L 269.710938 168.785156 L 272.335938 170.855469 L 274.964844 172.925781 L 277.59375 175 L 280.222656 177.070312 L 282.847656 179.140625 L 285.476562 181.214844 L 288.105469 183.285156 L 290.730469 185.355469 L 293.359375 187.429688 Z M 298.617188 191.570312 "/>
<path style=" stroke:none;fill-rule:nonzero;fill:rgb(65.882353%,73.333333%,90.588235%);fill-opacity:1;" d="M 279.359375 196.183594 L 276.464844 198.214844 L 273.457031 200.070312 L 270.34375 201.75 L 267.136719 203.238281 L 265.820312 200.175781 L 264.503906 197.109375 L 263.183594 194.042969 L 261.867188 190.980469 L 259.234375 184.847656 L 257.917969 181.785156 L 255.285156 175.652344 L 253.96875 172.589844 L 252.648438 169.523438 L 251.332031 166.457031 L 250.015625 163.394531 L 247.382812 157.261719 L 246.066406 154.199219 L 243.433594 148.066406 L 245.429688 150.742188 L 249.421875 156.085938 L 251.417969 158.761719 L 255.410156 164.105469 L 257.402344 166.777344 L 259.398438 169.453125 L 263.390625 174.796875 L 265.386719 177.472656 L 271.375 185.488281 L 273.371094 188.164062 L 277.363281 193.507812 Z M 279.359375 196.183594 "/>
<path style=" stroke:none;fill-rule:nonzero;fill:rgb(64.705882%,67.843137%,85.882353%);fill-opacity:1;" d="M 266.15625 205.027344 L 262.765625 206.265625 L 259.304688 207.304688 L 255.789062 208.136719 L 252.230469 208.757812 L 251.769531 205.566406 L 251.304688 202.371094 L 250.84375 199.175781 L 250.378906 195.980469 L 249.917969 192.789062 L 248.988281 186.398438 L 248.527344 183.203125 L 248.0625 180.011719 L 247.601562 176.816406 L 247.136719 173.621094 L 246.675781 170.429688 L 245.746094 164.039062 L 245.285156 160.84375 L 244.820312 157.652344 L 244.359375 154.457031 L 243.894531 151.261719 L 243.433594 148.066406 L 244.628906 151.066406 L 245.824219 154.0625 L 247.019531 157.0625 L 248.214844 160.058594 L 249.414062 163.058594 L 250.609375 166.054688 L 251.804688 169.054688 L 253 172.050781 L 254.195312 175.050781 L 255.390625 178.046875 L 256.589844 181.042969 L 257.785156 184.042969 L 258.980469 187.039062 L 260.175781 190.039062 L 261.371094 193.035156 L 262.570312 196.035156 L 263.765625 199.03125 L 264.960938 202.03125 Z M 266.15625 205.027344 "/>
</g>
</svg>
