<?xml version="1.0" encoding="UTF-8"?>
<svg xmlns="http://www.w3.org/2000/svg" xmlns:xlink="http://www.w3.org/1999/xlink" width="484pt" height="299pt" viewBox="0 0 484 299" version="1.1">
<g id="surface55">
<rect x="0" y="0" width="484" height="299" style="fill:rgb(100%,100%,100%);fill-opacity:1;stroke:none;"/>
<path style=" stroke:none;fill-rule:nonzero;fill:rgb(70.980392%,85.098039%,98.823529%);fill-opacity:1;" d="M 242.707031 148.355469 L 242.660156 148.179688 L 243.433594 148.066406 Z M 242.707031 148.355469 "/>
<path style=" stroke:none;fill-rule:nonzero;fill:rgb(69.803922%,82.352941%,96.862745%);fill-opacity:1;" d="M 228.6875 149.8125 L 228.6875 146.324219 L 232.375 146.757812 L 236.0625 147.195312 L 239.746094 147.632812 L 243.433594 148.066406 L 239.746094 148.503906 L 236.0625 148.941406 L 232.375 149.375 Z M 228.6875 149.8125 "/>
<path style=" stroke:none;fill-rule:nonzero;fill:rgb(68.235294%,78.823529%,94.509804%);fill-opacity:1;" d="M 179.25 138.761719 L 179.910156 135 L 180.789062 131.28125 L 181.886719 127.625 L 183.195312 124.035156 L 189.21875 126.441406 L 192.230469 127.640625 L 195.242188 128.84375 L 198.253906 130.042969 L 204.277344 132.449219 L 207.289062 133.648438 L 210.300781 134.851562 L 213.3125 136.050781 L 216.324219 137.253906 L 219.339844 138.457031 L 222.351562 139.65625 L 225.363281 140.859375 L 228.375 142.058594 L 234.398438 144.464844 L 237.410156 145.664062 L 240.421875 146.867188 L 243.433594 148.066406 L 240.222656 147.601562 L 237.015625 147.136719 L 233.804688 146.671875 L 230.597656 146.207031 L 224.175781 145.277344 L 220.96875 144.8125 L 217.757812 144.34375 L 214.550781 143.878906 L 211.339844 143.414062 L 208.132812 142.949219 L 204.921875 142.484375 L 201.714844 142.019531 L 198.503906 141.554688 L 195.296875 141.089844 L 192.085938 140.625 L 188.878906 140.15625 L 185.667969 139.691406 L 182.460938 139.226562 Z M 179.25 138.761719 "/>
<path style=" stroke:none;fill-rule:nonzero;fill:rgb(65.882353%,73.72549%,90.980392%);fill-opacity:1;" d="M 175.949219 119.074219 L 177.390625 115.929688 L 178.976562 112.851562 L 180.707031 109.855469 L 182.578125 106.945312 L 184.582031 104.121094 L 187.257812 106.121094 L 189.933594 108.117188 L 192.605469 110.113281 L 195.28125 112.113281 L 197.957031 114.109375 L 200.632812 116.109375 L 203.308594 118.105469 L 205.980469 120.101562 L 208.65625 122.101562 L 214.007812 126.09375 L 216.683594 128.09375 L 219.355469 130.089844 L 222.03125 132.085938 L 224.707031 134.085938 L 227.382812 136.082031 L 230.058594 138.082031 L 232.730469 140.078125 L 235.40625 142.074219 L 238.082031 144.074219 L 243.433594 148.066406 L 240.363281 146.75 L 237.296875 145.433594 L 234.230469 144.113281 L 231.164062 142.796875 L 228.09375 141.480469 L 225.027344 140.160156 L 221.960938 138.84375 L 218.894531 137.523438 L 215.824219 136.207031 L 212.757812 134.890625 L 209.691406 133.570312 L 206.625 132.253906 L 203.554688 130.9375 L 200.488281 129.617188 L 197.421875 128.300781 L 194.355469 126.980469 L 191.285156 125.664062 L 188.21875 124.347656 L 185.152344 123.027344 L 182.085938 121.710938 L 179.015625 120.394531 Z M 175.949219 119.074219 "/>
<path style=" stroke:none;fill-rule:nonzero;fill:rgb(65.098039%,70.588235%,88.235294%);fill-opacity:1;" d="M 190.660156 106.46875 L 193.203125 103.433594 L 195.917969 100.554688 L 198.796875 97.839844 L 201.832031 95.296875 L 203.8125 97.808594 L 205.792969 100.324219 L 209.753906 105.347656 L 211.734375 107.863281 L 213.71875 110.375 L 217.679688 115.398438 L 219.660156 117.914062 L 223.621094 122.9375 L 225.601562 125.453125 L 227.585938 127.964844 L 229.566406 130.476562 L 231.546875 132.992188 L 237.488281 140.527344 L 239.46875 143.042969 L 241.449219 145.554688 L 243.433594 148.066406 L 240.917969 146.085938 L 235.894531 142.125 L 233.378906 140.144531 L 228.355469 136.183594 L 225.84375 134.199219 L 223.328125 132.21875 L 218.304688 128.257812 L 215.789062 126.277344 L 210.765625 122.316406 L 208.25 120.332031 L 200.714844 114.390625 L 198.199219 112.410156 L 193.175781 108.449219 Z M 190.660156 106.46875 "/>
<path style=" stroke:none;fill-rule:nonzero;fill:rgb(63.529412%,64.313725%,83.137255%);fill-opacity:1;" d="M 205.5625 97.355469 L 208.617188 95.214844 L 211.789062 93.257812 L 215.070312 91.488281 L 218.449219 89.917969 L 219.765625 92.976562 L 221.078125 96.039062 L 222.394531 99.097656 L 223.707031 102.160156 L 225.023438 105.21875 L 226.339844 108.28125 L 227.652344 111.339844 L 228.96875 114.402344 L 230.28125 117.460938 L 231.597656 120.523438 L 232.914062 123.582031 L 234.226562 126.644531 L 235.542969 129.703125 L 236.859375 132.765625 L 238.171875 135.824219 L 239.488281 138.886719 L 240.800781 141.945312 L 242.117188 145.007812 L 243.433594 148.066406 L 241.4375 145.398438 L 237.453125 140.0625 L 235.460938 137.390625 L 233.46875 134.722656 L 231.472656 132.054688 L 229.480469 129.386719 L 227.488281 126.714844 L 225.496094 124.046875 L 223.5 121.378906 L 221.507812 118.707031 L 215.53125 110.703125 L 213.535156 108.03125 L 207.558594 100.027344 Z M 205.5625 97.355469 "/>
<path style=" stroke:none;fill-rule:nonzero;fill:rgb(61.568627%,50.588235%,70.196078%);fill-opacity:1;" d="M 214.1875 74.769531 L 217.675781 73.472656 L 221.214844 72.34375 L 224.808594 71.378906 L 228.441406 70.585938 L 232.109375 69.96875 L 232.578125 73.222656 L 234.46875 86.238281 L 234.9375 89.492188 L 236.828125 102.507812 L 237.296875 105.761719 L 237.769531 109.019531 L 239.1875 118.78125 L 239.65625 122.035156 L 241.074219 131.796875 L 241.542969 135.050781 L 243.433594 148.066406 L 242.214844 145.015625 L 234.902344 126.6875 L 233.683594 123.636719 L 228.808594 111.417969 L 227.59375 108.363281 L 226.375 105.308594 L 225.15625 102.257812 L 217.84375 83.929688 L 216.625 80.878906 Z M 214.1875 74.769531 "/>
<path style=" stroke:none;fill-rule:nonzero;fill:rgb(62.745098%,58.039216%,77.254902%);fill-opacity:1;" d="M 232.59375 56.507812 L 236.199219 56.152344 L 239.8125 55.9375 L 243.433594 55.867188 L 247.050781 55.9375 L 250.667969 56.152344 L 254.269531 56.507812 L 252.722656 69.585938 L 252.332031 72.855469 L 251.945312 76.128906 L 249.238281 99.015625 L 248.851562 102.289062 L 247.691406 112.097656 L 247.300781 115.367188 L 246.140625 125.175781 L 245.753906 128.449219 L 243.433594 148.066406 L 243.046875 144.796875 L 242.65625 141.527344 L 241.109375 128.449219 L 240.722656 125.175781 L 238.402344 105.558594 L 238.011719 102.289062 L 237.625 99.015625 L 234.917969 76.128906 L 234.53125 72.855469 L 233.371094 63.046875 L 232.980469 59.777344 Z M 232.59375 56.507812 "/>
<path style=" stroke:none;fill-rule:nonzero;fill:rgb(61.960784%,52.156863%,71.764706%);fill-opacity:1;" d="M 257 54.503906 L 260.660156 55.105469 L 264.296875 55.855469 L 267.902344 56.746094 L 271.46875 57.777344 L 274.992188 58.945312 L 278.464844 60.253906 L 277.257812 63.28125 L 276.050781 66.3125 L 274.84375 69.339844 L 273.632812 72.367188 L 271.21875 78.421875 L 270.007812 81.449219 L 268.800781 84.480469 L 266.386719 90.535156 L 265.175781 93.5625 L 262.761719 99.617188 L 261.554688 102.648438 L 260.34375 105.675781 L 256.722656 114.757812 L 255.511719 117.789062 L 253.097656 123.84375 L 251.886719 126.871094 L 249.472656 132.925781 L 248.265625 135.957031 L 247.054688 138.984375 L 243.433594 148.066406 L 243.898438 144.839844 L 244.367188 141.613281 L 244.835938 138.390625 L 245.304688 135.164062 L 245.769531 131.9375 L 247.175781 122.257812 L 247.640625 119.03125 L 249.046875 109.351562 L 249.511719 106.125 L 251.386719 93.21875 L 251.851562 89.992188 L 253.257812 80.3125 L 253.722656 77.085938 L 255.128906 67.40625 L 255.59375 64.179688 L 256.0625 60.957031 Z M 257 54.503906 "/>
<path style=" stroke:none;fill-rule:nonzero;fill:rgb(62.745098%,58.039216%,77.647059%);fill-opacity:1;" d="M 265.332031 97.097656 L 268.292969 98.472656 L 271.171875 100.023438 L 273.949219 101.742188 L 276.625 103.617188 L 274.671875 106.230469 L 272.71875 108.847656 L 270.765625 111.460938 L 268.816406 114.078125 L 264.910156 119.304688 L 262.957031 121.921875 L 259.050781 127.148438 L 257.101562 129.765625 L 255.148438 132.378906 L 253.195312 134.996094 L 249.289062 140.222656 L 247.335938 142.839844 L 245.382812 145.453125 L 243.433594 148.066406 L 244.71875 145.070312 L 246.007812 142.070312 L 247.296875 139.074219 L 248.585938 136.074219 L 249.871094 133.078125 L 252.449219 127.078125 L 253.738281 124.082031 L 255.027344 121.082031 L 256.3125 118.085938 L 257.601562 115.085938 L 258.890625 112.089844 L 260.179688 109.089844 L 261.464844 106.089844 L 262.753906 103.09375 L 264.042969 100.09375 Z M 265.332031 97.097656 "/>
<path style=" stroke:none;fill-rule:nonzero;fill:rgb(64.313725%,67.058824%,85.490196%);fill-opacity:1;" d="M 280.195312 101.433594 L 282.878906 103.679688 L 285.421875 106.078125 L 287.820312 108.621094 L 290.066406 111.304688 L 284.886719 115.390625 L 282.292969 117.429688 L 274.523438 123.558594 L 271.929688 125.601562 L 266.75 129.6875 L 264.160156 131.726562 L 261.566406 133.769531 L 253.796875 139.898438 L 251.203125 141.941406 L 246.023438 146.027344 L 243.433594 148.066406 L 245.472656 145.476562 L 249.558594 140.296875 L 251.601562 137.703125 L 257.730469 129.933594 L 259.773438 127.339844 L 261.8125 124.75 L 265.898438 119.570312 L 267.941406 116.976562 L 274.070312 109.207031 L 276.109375 106.613281 Z M 280.195312 101.433594 "/>
<path style=" stroke:none;fill-rule:nonzero;fill:rgb(65.490196%,72.54902%,89.803922%);fill-opacity:1;" d="M 311.046875 97.578125 L 312.976562 100.269531 L 314.800781 103.039062 L 316.511719 105.875 L 318.113281 108.777344 L 319.597656 111.738281 L 320.964844 114.757812 L 317.984375 116.039062 L 315 117.320312 L 309.039062 119.882812 L 306.054688 121.164062 L 303.074219 122.445312 L 300.089844 123.726562 L 294.128906 126.289062 L 291.144531 127.570312 L 288.164062 128.851562 L 285.179688 130.132812 L 282.199219 131.414062 L 279.214844 132.695312 L 273.253906 135.257812 L 270.269531 136.539062 L 267.289062 137.816406 L 264.304688 139.097656 L 258.34375 141.660156 L 255.359375 142.941406 L 252.378906 144.222656 L 249.394531 145.503906 L 243.433594 148.066406 L 246.03125 146.125 L 253.835938 140.300781 L 256.433594 138.359375 L 259.035156 136.417969 L 261.636719 134.472656 L 264.238281 132.53125 L 266.835938 130.589844 L 274.640625 124.765625 L 277.238281 122.824219 L 279.839844 120.878906 L 285.042969 116.996094 L 287.640625 115.054688 L 295.445312 109.230469 L 298.042969 107.289062 L 300.644531 105.34375 L 305.847656 101.460938 L 308.445312 99.519531 Z M 311.046875 97.578125 "/>
<path style=" stroke:none;fill-rule:nonzero;fill:rgb(66.666667%,75.686275%,92.54902%);fill-opacity:1;" d="M 311.652344 120.851562 L 312.855469 124.09375 L 313.910156 127.390625 L 314.804688 130.734375 L 315.542969 134.117188 L 316.121094 137.527344 L 309.511719 138.488281 L 306.207031 138.964844 L 299.597656 139.925781 L 296.296875 140.402344 L 292.992188 140.882812 L 289.6875 141.359375 L 283.078125 142.320312 L 279.777344 142.796875 L 273.167969 143.757812 L 269.863281 144.234375 L 266.558594 144.714844 L 263.257812 145.195312 L 259.953125 145.671875 L 256.648438 146.152344 L 253.34375 146.628906 L 246.734375 147.589844 L 243.433594 148.066406 L 246.53125 146.832031 L 252.734375 144.355469 L 255.835938 143.121094 L 262.039062 140.644531 L 265.136719 139.40625 L 268.238281 138.171875 L 274.441406 135.695312 L 277.542969 134.460938 L 280.640625 133.222656 L 283.742188 131.984375 L 286.84375 130.75 L 296.148438 127.035156 L 299.246094 125.800781 L 305.449219 123.324219 L 308.550781 122.089844 Z M 311.652344 120.851562 "/>
<path style=" stroke:none;fill-rule:nonzero;fill:rgb(69.019608%,80.392157%,95.686275%);fill-opacity:1;" d="M 284.558594 143.199219 L 284.8125 146.441406 L 284.8125 149.695312 L 284.558594 152.933594 L 281.128906 152.53125 L 274.277344 151.71875 L 270.847656 151.3125 L 263.996094 150.5 L 260.566406 150.097656 L 253.714844 149.285156 L 250.285156 148.878906 L 243.433594 148.066406 L 246.859375 147.664062 L 250.285156 147.257812 L 253.714844 146.851562 L 260.566406 146.039062 L 263.996094 145.632812 L 267.421875 145.230469 L 270.847656 144.824219 L 274.277344 144.417969 L 281.128906 143.605469 Z M 284.558594 143.199219 "/>
<path style=" stroke:none;fill-rule:nonzero;fill:rgb(70.588235%,83.921569%,98.039216%);fill-opacity:1;" d="M 247.296875 148.628906 L 247.0625 149.515625 L 243.433594 148.066406 Z M 247.296875 148.628906 "/>
<path style=" stroke:none;fill-rule:nonzero;fill:rgb(70.980392%,85.098039%,98.823529%);fill-opacity:1;" d="M 244.148438 148.375 L 244.058594 148.535156 L 243.433594 148.066406 Z M 244.148438 148.375 "/>
</g>
</svg>
