<?xml version="1.0" encoding="UTF-8"?>
<svg xmlns="http://www.w3.org/2000/svg" xmlns:xlink="http://www.w3.org/1999/xlink" width="484pt" height="299pt" viewBox="0 0 484 299" version="1.1">
<g id="surface75">
<rect x="0" y="0" width="484" height="299" style="fill:rgb(100%,100%,100%);fill-opacity:1;stroke:none;"/>
<path style=" stroke:none;fill-rule:nonzero;fill:rgb(70.588235%,84.705882%,98.431373%);fill-opacity:1;" d="M 239.070312 178.140625 L 235.566406 177.421875 L 232.171875 176.292969 L 234.671875 170.019531 L 235.925781 166.886719 L 238.425781 160.613281 L 239.679688 157.476562 L 242.179688 151.203125 L 243.433594 148.066406 L 242.949219 151.410156 L 242.464844 154.75 L 241.980469 158.09375 L 241.492188 161.433594 L 241.007812 164.777344 L 240.523438 168.117188 L 240.039062 171.460938 Z M 239.070312 178.140625 "/>
<path style=" stroke:none;fill-rule:nonzero;fill:rgb(67.45098%,77.254902%,93.333333%);fill-opacity:1;" d="M 234.992188 167.714844 L 230.636719 165.203125 L 239.167969 153.78125 L 241.300781 150.921875 L 243.433594 148.066406 L 242.023438 151.34375 L 239.210938 157.890625 L 237.804688 161.167969 Z M 234.992188 167.714844 "/>
<path style=" stroke:none;fill-rule:nonzero;fill:rgb(70.588235%,84.313725%,98.431373%);fill-opacity:1;" d="M 228.101562 167.511719 L 223.988281 163.398438 L 226.765625 161.207031 L 229.542969 159.019531 L 235.097656 154.636719 L 237.875 152.449219 L 240.652344 150.257812 L 243.433594 148.066406 L 241.242188 150.847656 L 239.050781 153.625 L 236.863281 156.402344 L 232.480469 161.957031 L 230.292969 164.734375 Z M 228.101562 167.511719 "/>
<path style=" stroke:none;fill-rule:nonzero;fill:rgb(67.843137%,78.039216%,94.117647%);fill-opacity:1;" d="M 222.238281 163.894531 L 219.128906 158.507812 L 225.207031 155.898438 L 228.242188 154.59375 L 234.320312 151.984375 L 237.355469 150.679688 L 240.394531 149.371094 L 243.433594 148.066406 L 240.78125 150.046875 L 238.132812 152.023438 L 235.484375 154.003906 L 230.1875 157.957031 L 227.539062 159.9375 L 224.886719 161.914062 Z M 222.238281 163.894531 "/>
<path style=" stroke:none;fill-rule:nonzero;fill:rgb(64.705882%,69.019608%,87.058824%);fill-opacity:1;" d="M 198.480469 166 L 197.210938 162.417969 L 196.226562 158.75 L 195.535156 155.011719 L 198.730469 154.550781 L 201.921875 154.085938 L 205.113281 153.625 L 208.308594 153.160156 L 211.5 152.699219 L 214.695312 152.234375 L 217.886719 151.773438 L 221.082031 151.308594 L 224.273438 150.847656 L 227.464844 150.382812 L 230.660156 149.917969 L 233.851562 149.457031 L 237.046875 148.992188 L 240.238281 148.53125 L 243.433594 148.066406 L 240.433594 149.261719 L 237.4375 150.460938 L 225.453125 155.242188 L 222.453125 156.4375 L 210.46875 161.21875 L 207.46875 162.414062 Z M 198.480469 166 "/>
<path style=" stroke:none;fill-rule:nonzero;fill:rgb(63.529412%,63.529412%,82.352941%);fill-opacity:1;" d="M 163.515625 157.527344 L 163.15625 153.75 L 162.980469 149.964844 L 162.980469 146.171875 L 163.15625 142.382812 L 163.515625 138.609375 L 166.710938 138.988281 L 169.910156 139.367188 L 173.105469 139.742188 L 176.300781 140.121094 L 179.5 140.5 L 185.890625 141.257812 L 189.089844 141.636719 L 195.480469 142.394531 L 198.679688 142.769531 L 205.070312 143.527344 L 208.269531 143.90625 L 214.660156 144.664062 L 217.859375 145.042969 L 221.054688 145.417969 L 224.253906 145.796875 L 230.644531 146.554688 L 233.84375 146.933594 L 240.234375 147.691406 L 243.433594 148.066406 L 240.234375 148.445312 L 233.84375 149.203125 L 230.644531 149.582031 L 224.253906 150.339844 L 221.054688 150.714844 L 217.859375 151.09375 L 214.660156 151.472656 L 208.269531 152.230469 L 205.070312 152.609375 L 201.875 152.988281 L 198.679688 153.363281 L 195.480469 153.742188 L 189.089844 154.5 L 185.890625 154.878906 L 179.5 155.636719 L 176.300781 156.011719 L 169.910156 156.769531 L 166.710938 157.148438 Z M 163.515625 157.527344 "/>
<path style=" stroke:none;fill-rule:nonzero;fill:rgb(63.137255%,60.392157%,79.607843%);fill-opacity:1;" d="M 149.867188 134.5 L 150.472656 130.839844 L 151.21875 127.203125 L 152.109375 123.597656 L 153.140625 120.03125 L 154.3125 116.507812 L 155.617188 113.035156 L 158.648438 114.242188 L 164.703125 116.65625 L 167.730469 117.867188 L 173.785156 120.28125 L 176.816406 121.492188 L 185.898438 125.113281 L 188.925781 126.324219 L 191.957031 127.53125 L 198.011719 129.945312 L 201.039062 131.15625 L 207.09375 133.570312 L 210.125 134.777344 L 213.152344 135.988281 L 219.207031 138.402344 L 222.234375 139.613281 L 225.265625 140.820312 L 231.320312 143.234375 L 234.347656 144.445312 L 240.402344 146.859375 L 243.433594 148.066406 L 240.207031 147.601562 L 230.527344 146.195312 L 227.300781 145.730469 L 217.621094 144.324219 L 214.394531 143.859375 L 204.714844 142.453125 L 201.488281 141.988281 L 188.582031 140.113281 L 185.355469 139.648438 L 178.902344 138.710938 L 175.679688 138.242188 L 172.453125 137.777344 L 162.773438 136.371094 L 159.546875 135.90625 Z M 149.867188 134.5 "/>
<path style=" stroke:none;fill-rule:nonzero;fill:rgb(62.352941%,54.509804%,74.117647%);fill-opacity:1;" d="M 178.28125 120.078125 L 179.671875 117.039062 L 181.207031 114.070312 L 182.875 111.175781 L 184.679688 108.367188 L 186.617188 105.640625 L 191.78125 109.5 L 194.363281 111.425781 L 196.945312 113.355469 L 199.53125 115.285156 L 202.113281 117.210938 L 207.277344 121.070312 L 209.859375 122.996094 L 217.605469 128.785156 L 220.191406 130.710938 L 225.355469 134.570312 L 227.9375 136.496094 L 233.101562 140.355469 L 235.683594 142.28125 L 238.265625 144.210938 L 240.851562 146.140625 L 243.433594 148.066406 L 240.472656 146.796875 L 237.507812 145.523438 L 234.546875 144.25 L 231.585938 142.980469 L 222.703125 139.160156 L 219.742188 137.890625 L 213.820312 135.34375 L 210.855469 134.074219 L 201.972656 130.253906 L 199.011719 128.984375 L 193.089844 126.4375 L 190.128906 125.167969 L 184.207031 122.621094 L 181.242188 121.351562 Z M 178.28125 120.078125 "/>
<path style=" stroke:none;fill-rule:nonzero;fill:rgb(63.137255%,63.137255%,82.352941%);fill-opacity:1;" d="M 197.027344 111.484375 L 199.261719 108.816406 L 201.648438 106.285156 L 204.179688 103.898438 L 206.851562 101.664062 L 212.945312 109.398438 L 214.980469 111.976562 L 219.042969 117.132812 L 221.078125 119.710938 L 227.171875 127.445312 L 229.207031 130.023438 L 233.269531 135.179688 L 235.304688 137.753906 L 241.398438 145.488281 L 243.433594 148.066406 L 235.699219 141.972656 L 233.121094 139.9375 L 227.964844 135.875 L 225.386719 133.839844 L 217.652344 127.746094 L 215.074219 125.710938 L 209.917969 121.648438 L 207.339844 119.613281 L 199.605469 113.519531 Z M 197.027344 111.484375 "/>
<path style=" stroke:none;fill-rule:nonzero;fill:rgb(65.490196%,71.372549%,89.019608%);fill-opacity:1;" d="M 211.78125 105.683594 L 215.203125 103.328125 L 218.800781 101.253906 L 222.550781 99.464844 L 223.855469 102.5 L 226.464844 108.578125 L 227.769531 111.613281 L 229.074219 114.652344 L 230.382812 117.691406 L 231.6875 120.726562 L 234.296875 126.804688 L 235.601562 129.839844 L 238.210938 135.917969 L 239.515625 138.953125 L 240.820312 141.992188 L 242.128906 145.03125 L 243.433594 148.066406 L 241.453125 145.417969 L 239.476562 142.769531 L 237.496094 140.121094 L 235.519531 137.472656 L 233.542969 134.820312 L 231.5625 132.171875 L 229.585938 129.523438 L 227.605469 126.875 L 225.628906 124.226562 L 223.648438 121.578125 L 221.671875 118.925781 L 219.695312 116.277344 L 217.714844 113.628906 L 215.738281 110.980469 L 213.757812 108.332031 Z M 211.78125 105.683594 "/>
<path style=" stroke:none;fill-rule:nonzero;fill:rgb(68.235294%,78.823529%,94.509804%);fill-opacity:1;" d="M 223.621094 98.410156 L 227.578125 97.011719 L 231.632812 95.921875 L 235.761719 95.160156 L 236.238281 98.464844 L 236.71875 101.773438 L 237.199219 105.078125 L 237.679688 108.386719 L 238.15625 111.691406 L 238.636719 115 L 239.117188 118.304688 L 239.597656 121.613281 L 240.074219 124.921875 L 240.554688 128.226562 L 241.035156 131.535156 L 241.515625 134.839844 L 241.992188 138.148438 L 242.472656 141.453125 L 242.953125 144.761719 L 243.433594 148.066406 L 242.195312 144.964844 L 240.957031 141.859375 L 239.71875 138.757812 L 238.480469 135.652344 L 237.242188 132.550781 L 236.003906 129.445312 L 234.765625 126.34375 L 233.527344 123.238281 L 232.289062 120.136719 L 231.050781 117.03125 L 229.8125 113.929688 L 228.574219 110.824219 L 227.335938 107.722656 L 226.097656 104.617188 L 224.859375 101.515625 Z M 223.621094 98.410156 "/>
<path style=" stroke:none;fill-rule:nonzero;fill:rgb(64.705882%,68.627451%,86.666667%);fill-opacity:1;" d="M 235.757812 83.238281 L 239.589844 82.902344 L 243.433594 82.789062 L 247.273438 82.902344 L 251.105469 83.238281 L 250.722656 86.480469 L 250.335938 89.722656 L 249.570312 96.207031 L 249.1875 99.445312 L 248.804688 102.6875 L 248.417969 105.929688 L 247.652344 112.414062 L 247.269531 115.652344 L 246.886719 118.894531 L 246.5 122.136719 L 245.734375 128.621094 L 245.351562 131.859375 L 244.964844 135.101562 L 243.816406 144.828125 L 243.433594 148.066406 L 243.046875 144.828125 L 241.515625 131.859375 L 241.128906 128.621094 L 239.980469 118.894531 L 239.59375 115.652344 L 239.210938 112.414062 L 238.0625 102.6875 L 237.675781 99.445312 L 237.292969 96.207031 L 236.144531 86.480469 Z M 235.757812 83.238281 "/>
<path style=" stroke:none;fill-rule:nonzero;fill:rgb(64.313725%,67.058824%,85.490196%);fill-opacity:1;" d="M 251.023438 95.714844 L 255.105469 96.472656 L 259.117188 97.546875 L 263.035156 98.933594 L 261.808594 102.003906 L 260.585938 105.074219 L 259.359375 108.148438 L 258.132812 111.21875 L 256.910156 114.289062 L 254.457031 120.429688 L 253.234375 123.5 L 252.007812 126.570312 L 250.78125 129.644531 L 249.558594 132.714844 L 248.332031 135.785156 L 247.109375 138.855469 L 244.65625 144.996094 L 243.433594 148.066406 L 243.90625 144.796875 L 244.382812 141.523438 L 244.855469 138.25 L 245.328125 134.980469 L 245.804688 131.707031 L 246.277344 128.4375 L 246.753906 125.164062 L 247.226562 121.890625 L 247.703125 118.621094 L 248.175781 115.347656 L 248.652344 112.074219 L 249.125 108.804688 L 249.597656 105.53125 L 250.074219 102.257812 L 250.546875 98.988281 Z M 251.023438 95.714844 "/>
<path style=" stroke:none;fill-rule:nonzero;fill:rgb(62.745098%,58.039216%,77.647059%);fill-opacity:1;" d="M 264.980469 97.914062 L 267.894531 99.269531 L 270.726562 100.792969 L 273.460938 102.480469 L 276.09375 104.328125 L 272.25 109.476562 L 270.328125 112.046875 L 268.410156 114.621094 L 266.488281 117.195312 L 264.566406 119.765625 L 262.644531 122.339844 L 260.722656 124.910156 L 258.800781 127.484375 L 256.882812 130.058594 L 254.960938 132.628906 L 251.117188 137.777344 L 249.195312 140.347656 L 245.351562 145.496094 L 243.433594 148.066406 L 244.699219 145.117188 L 245.96875 142.167969 L 247.234375 139.21875 L 248.503906 136.265625 L 249.769531 133.316406 L 251.039062 130.367188 L 252.304688 127.414062 L 253.574219 124.464844 L 254.839844 121.515625 L 256.109375 118.566406 L 257.375 115.613281 L 258.644531 112.664062 L 261.175781 106.765625 L 262.445312 103.8125 L 263.710938 100.863281 Z M 264.980469 97.914062 "/>
<path style=" stroke:none;fill-rule:nonzero;fill:rgb(62.352941%,55.294118%,74.509804%);fill-opacity:1;" d="M 276.878906 105.640625 L 280.105469 108.394531 L 283.105469 111.394531 L 285.859375 114.621094 L 277.902344 120.890625 L 275.253906 122.984375 L 261.992188 133.433594 L 259.34375 135.523438 L 256.691406 137.617188 L 246.082031 145.976562 L 243.433594 148.066406 L 245.523438 145.417969 L 253.882812 134.808594 L 255.976562 132.15625 L 258.066406 129.507812 L 268.515625 116.246094 L 270.609375 113.597656 Z M 276.878906 105.640625 "/>
<path style=" stroke:none;fill-rule:nonzero;fill:rgb(61.568627%,50.588235%,70.196078%);fill-opacity:1;" d="M 299.796875 105.980469 L 301.714844 108.679688 L 303.507812 111.46875 L 305.164062 114.339844 L 306.683594 117.285156 L 308.066406 120.300781 L 304.988281 121.621094 L 301.910156 122.945312 L 298.832031 124.265625 L 295.753906 125.589844 L 292.675781 126.910156 L 289.597656 128.234375 L 286.519531 129.554688 L 283.441406 130.878906 L 280.363281 132.199219 L 277.289062 133.523438 L 274.210938 134.84375 L 271.132812 136.167969 L 268.054688 137.488281 L 264.976562 138.8125 L 261.898438 140.132812 L 258.820312 141.457031 L 255.742188 142.777344 L 252.664062 144.101562 L 249.585938 145.421875 L 246.511719 146.746094 L 243.433594 148.066406 L 264.902344 132.035156 L 267.589844 130.03125 L 270.273438 128.023438 L 289.058594 113.996094 L 291.746094 111.992188 Z M 299.796875 105.980469 "/>
<path style=" stroke:none;fill-rule:nonzero;fill:rgb(63.137255%,61.568627%,80.784314%);fill-opacity:1;" d="M 318.179688 118.246094 L 319.5 121.800781 L 320.652344 125.414062 L 321.632812 129.078125 L 322.441406 132.78125 L 323.074219 136.519531 L 319.886719 136.980469 L 316.703125 137.445312 L 313.515625 137.90625 L 310.332031 138.367188 L 307.144531 138.828125 L 303.960938 139.292969 L 300.773438 139.753906 L 297.589844 140.214844 L 294.402344 140.675781 L 291.21875 141.140625 L 288.03125 141.601562 L 284.847656 142.0625 L 281.660156 142.523438 L 278.476562 142.988281 L 272.101562 143.910156 L 268.917969 144.371094 L 265.730469 144.835938 L 262.546875 145.296875 L 259.359375 145.757812 L 256.175781 146.21875 L 252.988281 146.683594 L 249.804688 147.144531 L 246.617188 147.605469 L 243.433594 148.066406 L 249.410156 145.683594 L 252.402344 144.488281 L 255.390625 143.296875 L 258.382812 142.105469 L 261.371094 140.910156 L 264.359375 139.71875 L 267.351562 138.523438 L 270.339844 137.332031 L 273.332031 136.140625 L 276.320312 134.945312 L 279.308594 133.753906 L 282.300781 132.5625 L 285.289062 131.367188 L 288.28125 130.175781 L 291.269531 128.984375 L 294.257812 127.789062 L 297.25 126.597656 L 300.238281 125.402344 L 303.230469 124.210938 L 306.21875 123.019531 L 309.207031 121.824219 L 312.199219 120.632812 L 315.1875 119.441406 Z M 318.179688 118.246094 "/>
<path style=" stroke:none;fill-rule:nonzero;fill:rgb(63.529412%,63.921569%,83.137255%);fill-opacity:1;" d="M 305.464844 140.726562 L 305.789062 144.390625 L 305.898438 148.066406 L 305.789062 151.746094 L 305.464844 155.410156 L 302.199219 155.023438 L 298.9375 154.636719 L 282.609375 152.703125 L 279.347656 152.320312 L 266.285156 150.773438 L 263.023438 150.386719 L 246.695312 148.453125 L 243.433594 148.066406 L 246.695312 147.679688 L 249.960938 147.296875 L 263.023438 145.75 L 266.285156 145.363281 L 279.347656 143.816406 L 282.609375 143.429688 L 292.40625 142.269531 L 295.671875 141.886719 L 298.9375 141.5 L 302.199219 141.113281 Z M 305.464844 140.726562 "/>
<path style=" stroke:none;fill-rule:nonzero;fill:rgb(65.098039%,70.980392%,88.627451%);fill-opacity:1;" d="M 293 155.253906 L 292.28125 159.121094 L 291.265625 162.921875 L 289.953125 166.628906 L 280.648438 162.914062 L 277.546875 161.679688 L 268.242188 157.964844 L 265.140625 156.730469 L 255.835938 153.015625 L 252.734375 151.78125 L 249.636719 150.542969 L 243.433594 148.066406 L 250.042969 149.027344 L 253.34375 149.503906 L 259.953125 150.464844 L 263.257812 150.941406 L 269.867188 151.902344 L 273.171875 152.378906 L 279.78125 153.339844 L 283.085938 153.816406 L 289.695312 154.777344 Z M 293 155.253906 "/>
<path style=" stroke:none;fill-rule:nonzero;fill:rgb(66.666667%,75.294118%,92.156863%);fill-opacity:1;" d="M 266.183594 157.84375 L 263.273438 162.882812 L 260.4375 160.765625 L 257.605469 158.648438 L 254.769531 156.535156 L 251.933594 154.417969 L 249.101562 152.300781 L 246.265625 150.183594 L 243.433594 148.066406 L 246.683594 149.464844 L 249.933594 150.859375 L 253.183594 152.257812 L 256.433594 153.652344 L 259.683594 155.050781 L 262.933594 156.445312 Z M 266.183594 157.84375 "/>
<path style=" stroke:none;fill-rule:nonzero;fill:rgb(67.058824%,76.078431%,92.54902%);fill-opacity:1;" d="M 263.761719 164.09375 L 259.457031 168.398438 L 257.457031 165.855469 L 255.453125 163.316406 L 253.449219 160.773438 L 251.445312 158.234375 L 247.4375 153.148438 L 245.433594 150.609375 L 243.433594 148.066406 L 245.972656 150.070312 L 248.515625 152.074219 L 251.054688 154.078125 L 253.597656 156.082031 L 256.136719 158.085938 L 258.679688 160.085938 L 261.21875 162.089844 Z M 263.761719 164.09375 "/>
<path style=" stroke:none;fill-rule:nonzero;fill:rgb(70.196078%,83.529412%,97.647059%);fill-opacity:1;" d="M 253.535156 161.59375 L 250.097656 163.578125 L 248.761719 160.476562 L 244.765625 151.171875 L 243.433594 148.066406 L 247.472656 153.480469 L 249.492188 156.183594 L 251.511719 158.890625 Z M 253.535156 161.59375 "/>
<path style=" stroke:none;fill-rule:nonzero;fill:rgb(70.980392%,85.098039%,98.823529%);fill-opacity:1;" d="M 250.3125 165.316406 L 246.097656 166.445312 L 245.5625 162.769531 L 244.5 155.417969 L 243.964844 151.742188 L 243.433594 148.066406 L 244.808594 151.519531 L 246.183594 154.96875 L 247.5625 158.417969 Z M 250.3125 165.316406 "/>
</g>
</svg>
