<?xml version="1.0" encoding="UTF-8"?>
<svg xmlns="http://www.w3.org/2000/svg" xmlns:xlink="http://www.w3.org/1999/xlink" width="484pt" height="299pt" viewBox="0 0 484 299" version="1.1">
<g id="surface183">
<rect x="0" y="0" width="484" height="299" style="fill:rgb(100%,100%,100%);fill-opacity:1;stroke:none;"/>
<path style=" stroke:none;fill-rule:nonzero;fill:rgb(65.490196%,72.54902%,90.196078%);fill-opacity:1;" d="M 232.410156 224.089844 L 228.839844 223.484375 L 225.304688 222.714844 L 221.808594 221.777344 L 218.359375 220.679688 L 214.96875 219.417969 L 216.152344 216.441406 L 217.339844 213.46875 L 218.523438 210.496094 L 220.898438 204.550781 L 222.082031 201.578125 L 224.457031 195.632812 L 225.640625 192.660156 L 226.828125 189.6875 L 228.011719 186.714844 L 230.386719 180.769531 L 231.570312 177.796875 L 233.945312 171.851562 L 235.128906 168.878906 L 236.316406 165.90625 L 237.5 162.933594 L 239.875 156.988281 L 241.058594 154.011719 L 243.433594 148.066406 L 242.511719 154.402344 L 242.054688 157.570312 L 241.59375 160.738281 L 241.136719 163.90625 L 240.675781 167.074219 L 240.21875 170.242188 L 239.757812 173.410156 L 239.296875 176.574219 L 238.839844 179.742188 L 238.378906 182.910156 L 237.921875 186.078125 L 237.460938 189.246094 L 237.003906 192.414062 L 236.082031 198.75 L 235.625 201.917969 L 235.164062 205.085938 L 234.707031 208.253906 L 234.246094 211.417969 L 233.789062 214.585938 L 232.867188 220.921875 Z M 232.410156 224.089844 "/>
<path style=" stroke:none;fill-rule:nonzero;fill:rgb(66.666667%,75.294118%,92.156863%);fill-opacity:1;" d="M 206.113281 234.933594 L 202.730469 233.402344 L 199.410156 231.738281 L 196.160156 229.945312 L 192.980469 228.027344 L 189.882812 225.984375 L 186.863281 223.820312 L 188.816406 221.210938 L 192.714844 215.984375 L 194.667969 213.371094 L 196.617188 210.761719 L 198.566406 208.148438 L 200.519531 205.535156 L 202.46875 202.925781 L 204.417969 200.3125 L 206.371094 197.699219 L 208.320312 195.085938 L 210.273438 192.476562 L 214.171875 187.25 L 216.125 184.636719 L 218.074219 182.027344 L 220.023438 179.414062 L 221.976562 176.800781 L 223.925781 174.191406 L 225.875 171.578125 L 227.828125 168.964844 L 229.777344 166.351562 L 231.726562 163.742188 L 233.679688 161.128906 L 235.628906 158.515625 L 237.582031 155.90625 L 241.480469 150.679688 L 243.433594 148.066406 L 242.144531 151.0625 L 240.859375 154.058594 L 239.570312 157.054688 L 238.285156 160.050781 L 236.996094 163.042969 L 235.710938 166.039062 L 234.421875 169.035156 L 231.851562 175.027344 L 230.5625 178.023438 L 229.277344 181.015625 L 227.988281 184.011719 L 226.703125 187.007812 L 225.414062 190.003906 L 224.128906 193 L 222.839844 195.992188 L 220.269531 201.984375 L 218.980469 204.980469 L 217.695312 207.976562 L 216.40625 210.972656 L 215.121094 213.964844 L 213.832031 216.960938 L 212.546875 219.957031 L 211.257812 222.953125 L 209.972656 225.949219 L 208.683594 228.941406 Z M 206.113281 234.933594 "/>
<path style=" stroke:none;fill-rule:nonzero;fill:rgb(68.235294%,79.215686%,94.901961%);fill-opacity:1;" d="M 195.875 208.394531 L 193.085938 206.085938 L 190.410156 203.648438 L 187.851562 201.089844 L 185.414062 198.414062 L 183.105469 195.625 L 185.621094 193.644531 L 188.132812 191.660156 L 190.648438 189.679688 L 193.160156 187.699219 L 195.675781 185.71875 L 198.1875 183.734375 L 200.703125 181.753906 L 203.214844 179.773438 L 205.730469 177.789062 L 210.753906 173.828125 L 213.269531 171.847656 L 215.78125 169.863281 L 218.296875 167.882812 L 220.808594 165.902344 L 223.324219 163.921875 L 225.835938 161.9375 L 228.351562 159.957031 L 230.863281 157.976562 L 233.378906 155.992188 L 235.890625 154.011719 L 238.40625 152.03125 L 240.917969 150.050781 L 243.433594 148.066406 L 241.449219 150.582031 L 239.46875 153.09375 L 237.488281 155.609375 L 235.507812 158.121094 L 233.523438 160.636719 L 231.542969 163.148438 L 229.5625 165.664062 L 227.578125 168.175781 L 225.597656 170.691406 L 223.617188 173.203125 L 221.636719 175.71875 L 219.652344 178.230469 L 217.671875 180.746094 L 213.710938 185.769531 L 211.726562 188.285156 L 209.746094 190.796875 L 207.765625 193.3125 L 205.78125 195.824219 L 203.800781 198.339844 L 201.820312 200.851562 L 199.839844 203.367188 L 197.855469 205.878906 Z M 195.875 208.394531 "/>
<path style=" stroke:none;fill-rule:nonzero;fill:rgb(65.882353%,72.941176%,90.588235%);fill-opacity:1;" d="M 200.820312 179.886719 L 198.457031 176.445312 L 196.367188 172.828125 L 194.570312 169.0625 L 197.625 167.75 L 200.675781 166.4375 L 212.894531 161.1875 L 215.945312 159.875 L 219 158.5625 L 222.054688 157.253906 L 228.164062 154.628906 L 231.214844 153.316406 L 243.433594 148.066406 L 240.769531 150.054688 L 238.105469 152.046875 L 232.777344 156.023438 L 230.117188 158.011719 L 222.125 163.976562 L 219.464844 165.964844 L 216.800781 167.953125 L 214.136719 169.945312 L 208.808594 173.921875 L 206.148438 175.910156 Z M 200.820312 179.886719 "/>
<path style=" stroke:none;fill-rule:nonzero;fill:rgb(67.058824%,76.078431%,92.54902%);fill-opacity:1;" d="M 188.546875 169.964844 L 187.355469 166.695312 L 186.355469 163.363281 L 185.554688 159.976562 L 184.953125 156.546875 L 188.203125 156.074219 L 191.453125 155.605469 L 194.699219 155.132812 L 197.949219 154.664062 L 201.199219 154.191406 L 204.445312 153.71875 L 207.695312 153.25 L 210.945312 152.777344 L 214.191406 152.308594 L 217.441406 151.835938 L 220.691406 151.367188 L 223.9375 150.894531 L 227.1875 150.421875 L 230.4375 149.953125 L 233.6875 149.480469 L 236.933594 149.011719 L 243.433594 148.066406 L 240.382812 149.285156 L 237.332031 150.5 L 234.285156 151.71875 L 231.234375 152.933594 L 228.1875 154.148438 L 225.136719 155.367188 L 222.089844 156.582031 L 219.039062 157.800781 L 215.992188 159.015625 L 212.941406 160.234375 L 209.890625 161.449219 L 206.84375 162.664062 L 203.792969 163.882812 L 200.746094 165.097656 L 197.695312 166.316406 L 194.648438 167.53125 L 191.597656 168.746094 Z M 188.546875 169.964844 "/>
<path style=" stroke:none;fill-rule:nonzero;fill:rgb(67.058824%,76.078431%,92.54902%);fill-opacity:1;" d="M 155.410156 158.484375 L 155.070312 155.023438 L 154.867188 151.546875 L 154.796875 148.066406 L 154.867188 144.589844 L 155.070312 141.113281 L 155.410156 137.648438 L 158.671875 138.035156 L 161.929688 138.421875 L 165.191406 138.808594 L 168.453125 139.191406 L 171.710938 139.578125 L 174.972656 139.964844 L 178.230469 140.351562 L 181.492188 140.738281 L 184.75 141.121094 L 191.273438 141.894531 L 194.53125 142.28125 L 197.792969 142.664062 L 201.050781 143.050781 L 204.3125 143.4375 L 207.570312 143.824219 L 210.832031 144.210938 L 214.09375 144.59375 L 217.351562 144.980469 L 220.613281 145.367188 L 223.871094 145.753906 L 227.132812 146.136719 L 230.390625 146.523438 L 233.652344 146.910156 L 236.910156 147.296875 L 240.171875 147.683594 L 243.433594 148.066406 L 236.910156 148.839844 L 233.652344 149.226562 L 230.390625 149.609375 L 227.132812 149.996094 L 223.871094 150.382812 L 220.613281 150.769531 L 217.351562 151.15625 L 214.09375 151.539062 L 207.570312 152.3125 L 204.3125 152.699219 L 201.050781 153.082031 L 197.792969 153.46875 L 194.53125 153.855469 L 191.273438 154.242188 L 188.011719 154.628906 L 184.75 155.011719 L 181.492188 155.398438 L 178.230469 155.785156 L 174.972656 156.171875 L 171.710938 156.554688 L 168.453125 156.941406 L 161.929688 157.714844 L 158.671875 158.101562 Z M 155.410156 158.484375 "/>
<path style=" stroke:none;fill-rule:nonzero;fill:rgb(63.137255%,60.784314%,80%);fill-opacity:1;" d="M 167.410156 137.046875 L 168.015625 133.476562 L 168.785156 129.941406 L 169.722656 126.445312 L 170.820312 122.996094 L 172.082031 119.601562 L 175.058594 120.789062 L 178.03125 121.976562 L 181.003906 123.160156 L 183.976562 124.347656 L 186.949219 125.53125 L 192.894531 127.90625 L 195.867188 129.089844 L 201.8125 131.464844 L 204.785156 132.648438 L 207.757812 133.835938 L 210.730469 135.019531 L 216.675781 137.394531 L 219.648438 138.578125 L 225.59375 140.953125 L 228.566406 142.136719 L 231.539062 143.324219 L 234.511719 144.507812 L 237.488281 145.695312 L 240.460938 146.882812 L 243.433594 148.066406 L 240.265625 147.609375 L 237.097656 147.148438 L 233.929688 146.691406 L 227.59375 145.769531 L 224.425781 145.3125 L 221.257812 144.851562 L 218.089844 144.394531 L 214.925781 143.933594 L 211.757812 143.476562 L 205.421875 142.554688 L 202.253906 142.097656 L 199.085938 141.636719 L 195.917969 141.179688 L 192.75 140.71875 L 189.582031 140.261719 L 183.246094 139.339844 L 180.082031 138.882812 L 176.914062 138.421875 L 173.746094 137.964844 L 170.578125 137.503906 Z M 167.410156 137.046875 "/>
<path style=" stroke:none;fill-rule:nonzero;fill:rgb(64.705882%,68.627451%,87.058824%);fill-opacity:1;" d="M 172.851562 117.746094 L 174.359375 114.453125 L 176.019531 111.238281 L 177.828125 108.101562 L 179.785156 105.058594 L 181.882812 102.105469 L 184.445312 104.019531 L 187.011719 105.9375 L 189.574219 107.851562 L 192.140625 109.765625 L 194.707031 111.683594 L 197.269531 113.597656 L 199.835938 115.511719 L 202.398438 117.425781 L 204.964844 119.34375 L 207.527344 121.257812 L 210.09375 123.171875 L 212.65625 125.085938 L 215.222656 127.003906 L 217.785156 128.917969 L 220.351562 130.832031 L 222.914062 132.746094 L 225.480469 134.664062 L 228.042969 136.578125 L 230.609375 138.492188 L 233.171875 140.40625 L 235.738281 142.324219 L 238.304688 144.238281 L 240.867188 146.152344 L 243.433594 148.066406 L 240.492188 146.804688 L 237.550781 145.539062 L 231.667969 143.015625 L 228.726562 141.75 L 225.789062 140.488281 L 222.847656 139.222656 L 219.90625 137.960938 L 216.964844 136.695312 L 214.023438 135.433594 L 211.082031 134.167969 L 208.144531 132.90625 L 205.203125 131.644531 L 202.261719 130.378906 L 199.320312 129.117188 L 196.378906 127.851562 L 193.4375 126.589844 L 190.5 125.324219 L 187.558594 124.0625 L 184.617188 122.796875 L 178.734375 120.273438 L 175.792969 119.007812 Z M 172.851562 117.746094 "/>
<path style=" stroke:none;fill-rule:nonzero;fill:rgb(63.529412%,64.705882%,83.529412%);fill-opacity:1;" d="M 215.589844 126.117188 L 218.363281 123 L 221.484375 120.226562 L 223.476562 122.757812 L 233.457031 135.414062 L 235.449219 137.941406 L 243.433594 148.066406 L 240.902344 146.074219 L 228.246094 136.09375 L 225.714844 134.101562 Z M 215.589844 126.117188 "/>
<path style=" stroke:none;fill-rule:nonzero;fill:rgb(61.960784%,52.54902%,71.764706%);fill-opacity:1;" d="M 218.683594 114.925781 L 221.359375 113.085938 L 224.171875 111.460938 L 227.105469 110.0625 L 229.824219 116.398438 L 231.1875 119.566406 L 232.546875 122.730469 L 233.90625 125.898438 L 235.269531 129.066406 L 236.628906 132.234375 L 237.988281 135.398438 L 239.351562 138.566406 L 242.070312 144.902344 L 243.433594 148.066406 Z M 218.683594 114.925781 "/>
<path style=" stroke:none;fill-rule:nonzero;fill:rgb(62.352941%,54.509804%,74.117647%);fill-opacity:1;" d="M 230.292969 115.136719 L 234.257812 113.820312 L 238.34375 112.980469 L 238.808594 116.171875 L 239.269531 119.359375 L 239.730469 122.550781 L 240.195312 125.738281 L 240.65625 128.929688 L 241.121094 132.121094 L 241.582031 135.308594 L 242.042969 138.5 L 242.507812 141.6875 L 242.96875 144.878906 L 243.433594 148.066406 L 241.042969 142.082031 L 239.847656 139.085938 L 238.65625 136.09375 L 237.460938 133.101562 L 236.265625 130.105469 L 235.070312 127.113281 L 233.878906 124.117188 L 231.488281 118.132812 Z M 230.292969 115.136719 "/>
<path style=" stroke:none;fill-rule:nonzero;fill:rgb(61.568627%,50.588235%,70.196078%);fill-opacity:1;" d="M 240.652344 124.597656 L 246.210938 124.597656 L 245.8125 127.949219 L 245.417969 131.300781 L 245.019531 134.65625 L 244.621094 138.007812 L 244.226562 141.363281 L 243.828125 144.714844 L 243.433594 148.066406 L 242.636719 141.363281 L 242.242188 138.007812 L 241.84375 134.65625 L 241.449219 131.300781 Z M 240.652344 124.597656 "/>
<path style=" stroke:none;fill-rule:nonzero;fill:rgb(70.980392%,85.098039%,98.823529%);fill-opacity:1;" d="M 245.128906 136.371094 L 247.8125 137.089844 L 244.890625 144.410156 L 243.433594 148.066406 L 243.996094 144.167969 Z M 245.128906 136.371094 "/>
<path style=" stroke:none;fill-rule:nonzero;fill:rgb(65.098039%,69.803922%,87.843137%);fill-opacity:1;" d="M 259.761719 110.0625 L 262.691406 111.460938 L 265.503906 113.085938 L 268.179688 114.925781 L 251.679688 137.019531 L 249.621094 139.78125 L 243.433594 148.066406 L 244.792969 144.902344 L 246.152344 141.734375 L 247.515625 138.566406 L 248.875 135.398438 L 250.234375 132.234375 L 251.597656 129.066406 L 254.316406 122.730469 L 255.679688 119.566406 L 258.398438 113.230469 Z M 259.761719 110.0625 "/>
<path style=" stroke:none;fill-rule:nonzero;fill:rgb(63.137255%,62.745098%,81.960784%);fill-opacity:1;" d="M 265.382812 120.226562 L 268.5 123 L 271.273438 126.117188 L 261.148438 134.101562 L 258.617188 136.09375 L 256.085938 138.089844 L 253.558594 140.085938 L 245.964844 146.074219 L 243.433594 148.066406 L 245.425781 145.535156 L 251.414062 137.941406 L 253.410156 135.414062 L 255.40625 132.882812 L 257.398438 130.351562 Z M 265.382812 120.226562 "/>
<path style=" stroke:none;fill-rule:nonzero;fill:rgb(64.705882%,68.235294%,86.27451%);fill-opacity:1;" d="M 290.777344 112.710938 L 292.777344 115.5625 L 294.605469 118.523438 L 296.257812 121.585938 L 297.722656 124.742188 L 291.691406 127.335938 L 288.675781 128.628906 L 285.660156 129.925781 L 282.640625 131.222656 L 279.625 132.519531 L 276.609375 133.8125 L 270.578125 136.40625 L 267.5625 137.699219 L 264.546875 138.996094 L 261.527344 140.292969 L 258.511719 141.589844 L 255.496094 142.882812 L 246.449219 146.773438 L 243.433594 148.066406 L 246.0625 146.105469 L 248.691406 144.140625 L 251.324219 142.175781 L 256.582031 138.246094 L 259.214844 136.28125 L 261.84375 134.320312 L 264.476562 132.355469 L 269.734375 128.425781 L 272.367188 126.460938 L 274.996094 124.496094 L 277.625 122.535156 L 280.257812 120.570312 L 285.515625 116.640625 L 288.148438 114.675781 Z M 290.777344 112.710938 "/>
<path style=" stroke:none;fill-rule:nonzero;fill:rgb(69.019608%,80.784314%,95.686275%);fill-opacity:1;" d="M 292.828125 128.359375 L 294.222656 132.296875 L 295.300781 136.332031 L 296.0625 140.4375 L 276.328125 143.296875 L 273.035156 143.773438 L 269.746094 144.253906 L 243.433594 148.066406 L 249.605469 145.605469 L 252.695312 144.371094 L 258.867188 141.910156 L 261.957031 140.679688 L 265.042969 139.445312 L 268.128906 138.214844 L 271.21875 136.984375 L 274.304688 135.75 L 280.476562 133.289062 L 283.566406 132.054688 L 289.738281 129.59375 Z M 292.828125 128.359375 "/>
<path style=" stroke:none;fill-rule:nonzero;fill:rgb(64.705882%,69.019608%,87.058824%);fill-opacity:1;" d="M 313.847656 139.734375 L 314.164062 143.058594 L 314.320312 146.398438 L 314.320312 149.738281 L 314.164062 153.074219 L 313.847656 156.402344 L 310.648438 156.023438 L 307.445312 155.644531 L 301.046875 154.886719 L 297.84375 154.507812 L 294.644531 154.128906 L 291.441406 153.75 L 285.042969 152.992188 L 281.839844 152.613281 L 275.441406 151.855469 L 272.238281 151.476562 L 269.039062 151.097656 L 265.835938 150.71875 L 259.4375 149.960938 L 256.234375 149.582031 L 253.035156 149.203125 L 249.832031 148.824219 L 243.433594 148.066406 L 249.832031 147.308594 L 253.035156 146.929688 L 256.234375 146.550781 L 259.4375 146.171875 L 262.636719 145.792969 L 265.835938 145.417969 L 269.039062 145.039062 L 272.238281 144.660156 L 275.441406 144.28125 L 281.839844 143.523438 L 285.042969 143.144531 L 291.441406 142.386719 L 294.644531 142.007812 L 297.84375 141.628906 L 301.046875 141.25 L 307.445312 140.492188 L 310.648438 140.113281 Z M 313.847656 139.734375 "/>
<path style=" stroke:none;fill-rule:nonzero;fill:rgb(66.27451%,74.509804%,91.764706%);fill-opacity:1;" d="M 307.757812 157.394531 L 307.097656 161.164062 L 306.214844 164.890625 L 305.117188 168.558594 L 303.804688 172.152344 L 297.765625 169.746094 L 294.746094 168.539062 L 291.730469 167.335938 L 285.691406 164.929688 L 282.671875 163.722656 L 279.65625 162.519531 L 276.636719 161.316406 L 273.617188 160.109375 L 270.597656 158.90625 L 267.582031 157.703125 L 264.5625 156.496094 L 258.523438 154.089844 L 255.507812 152.886719 L 252.488281 151.679688 L 246.449219 149.273438 L 243.433594 148.066406 L 246.648438 148.535156 L 249.863281 149 L 253.082031 149.46875 L 256.296875 149.933594 L 259.515625 150.398438 L 262.730469 150.867188 L 265.945312 151.332031 L 269.164062 151.796875 L 272.378906 152.265625 L 275.59375 152.730469 L 278.8125 153.199219 L 282.027344 153.664062 L 285.246094 154.128906 L 288.460938 154.597656 L 291.675781 155.0625 L 294.894531 155.53125 L 301.324219 156.460938 L 304.542969 156.929688 Z M 307.757812 157.394531 "/>
<path style=" stroke:none;fill-rule:nonzero;fill:rgb(64.313725%,67.058824%,85.490196%);fill-opacity:1;" d="M 319.441406 180.722656 L 318.097656 183.683594 L 316.644531 186.585938 L 315.074219 189.429688 L 313.394531 192.210938 L 311.609375 194.925781 L 309.714844 197.566406 L 307.066406 195.585938 L 299.109375 189.644531 L 296.460938 187.664062 L 293.808594 185.6875 L 288.503906 181.726562 L 285.855469 179.746094 L 277.898438 173.804688 L 275.25 171.828125 L 267.292969 165.886719 L 264.644531 163.90625 L 259.339844 159.945312 L 256.6875 157.96875 L 254.039062 155.988281 L 246.082031 150.046875 L 243.433594 148.066406 L 246.472656 149.375 L 249.511719 150.679688 L 252.554688 151.988281 L 258.632812 154.597656 L 261.675781 155.90625 L 264.714844 157.210938 L 267.753906 158.519531 L 270.796875 159.824219 L 273.835938 161.128906 L 276.875 162.4375 L 279.914062 163.742188 L 282.957031 165.046875 L 285.996094 166.355469 L 289.035156 167.660156 L 292.078125 168.96875 L 298.15625 171.578125 L 301.199219 172.886719 L 304.238281 174.191406 L 307.277344 175.5 L 310.320312 176.804688 L 313.359375 178.109375 L 316.398438 179.417969 Z M 319.441406 180.722656 "/>
<path style=" stroke:none;fill-rule:nonzero;fill:rgb(65.882353%,73.333333%,90.588235%);fill-opacity:1;" d="M 280.554688 177.332031 L 278.144531 180.15625 L 275.519531 182.78125 L 272.699219 185.191406 L 270.609375 182.539062 L 268.515625 179.886719 L 266.425781 177.234375 L 264.335938 174.585938 L 255.976562 163.976562 L 253.882812 161.328125 L 243.433594 148.066406 L 246.082031 150.160156 L 259.34375 160.609375 L 261.992188 162.699219 L 264.644531 164.792969 L 275.253906 173.152344 L 277.902344 175.242188 Z M 280.554688 177.332031 "/>
<path style=" stroke:none;fill-rule:nonzero;fill:rgb(68.627451%,80%,95.294118%);fill-opacity:1;" d="M 289.394531 209.617188 L 286.441406 211.714844 L 283.398438 213.671875 L 280.261719 215.480469 L 277.046875 217.140625 L 273.753906 218.648438 L 272.492188 215.707031 L 271.226562 212.765625 L 268.703125 206.882812 L 267.4375 203.941406 L 266.175781 201 L 264.910156 198.0625 L 263.648438 195.121094 L 262.382812 192.179688 L 261.121094 189.238281 L 259.855469 186.296875 L 258.59375 183.355469 L 257.332031 180.417969 L 256.066406 177.476562 L 254.804688 174.535156 L 253.539062 171.59375 L 252.277344 168.652344 L 251.011719 165.710938 L 249.75 162.773438 L 248.484375 159.832031 L 245.960938 153.949219 L 244.695312 151.007812 L 243.433594 148.066406 L 245.347656 150.632812 L 247.261719 153.195312 L 249.175781 155.761719 L 251.09375 158.328125 L 253.007812 160.890625 L 254.921875 163.457031 L 256.835938 166.019531 L 258.753906 168.585938 L 260.667969 171.148438 L 262.582031 173.714844 L 264.496094 176.277344 L 266.414062 178.84375 L 268.328125 181.40625 L 270.242188 183.972656 L 272.15625 186.535156 L 274.074219 189.101562 L 275.988281 191.664062 L 277.902344 194.230469 L 279.816406 196.792969 L 281.734375 199.359375 L 283.648438 201.925781 L 285.5625 204.488281 L 287.480469 207.054688 Z M 289.394531 209.617188 "/>
<path style=" stroke:none;fill-rule:nonzero;fill:rgb(65.882353%,72.941176%,90.196078%);fill-opacity:1;" d="M 260.949219 191.972656 L 257.449219 193.214844 L 253.863281 194.175781 L 250.214844 194.851562 L 249.730469 191.507812 L 249.246094 188.167969 L 248.761719 184.824219 L 248.277344 181.484375 L 247.792969 178.140625 L 246.824219 171.460938 L 246.339844 168.117188 L 245.855469 164.777344 L 245.371094 161.433594 L 244.886719 158.09375 L 244.402344 154.75 L 243.917969 151.410156 L 243.433594 148.066406 L 245.933594 154.339844 L 247.1875 157.476562 L 250.9375 166.886719 L 252.191406 170.019531 L 254.691406 176.292969 L 255.945312 179.429688 L 258.445312 185.703125 L 259.699219 188.839844 Z M 260.949219 191.972656 "/>
</g>
</svg>
