<?xml version="1.0" encoding="UTF-8"?>
<svg xmlns="http://www.w3.org/2000/svg" xmlns:xlink="http://www.w3.org/1999/xlink" width="484pt" height="299pt" viewBox="0 0 484 299" version="1.1">
<g id="surface83">
<rect x="0" y="0" width="484" height="299" style="fill:rgb(100%,100%,100%);fill-opacity:1;stroke:none;"/>
<path style=" stroke:none;fill-rule:nonzero;fill:rgb(69.411765%,81.176471%,96.078431%);fill-opacity:1;" d="M 238.378906 182.925781 L 234.316406 182.089844 L 230.378906 180.78125 L 232.753906 174.835938 L 233.941406 171.859375 L 235.125 168.886719 L 236.3125 165.914062 L 237.5 162.9375 L 238.6875 159.964844 L 239.871094 156.988281 L 242.246094 151.042969 L 243.433594 148.066406 L 242.972656 151.238281 L 242.511719 154.40625 L 242.054688 157.574219 L 241.59375 160.742188 L 241.136719 163.914062 L 240.214844 170.25 L 239.757812 173.417969 L 239.296875 176.585938 L 238.835938 179.757812 Z M 238.378906 182.925781 "/>
<path style=" stroke:none;fill-rule:nonzero;fill:rgb(69.803922%,82.352941%,96.862745%);fill-opacity:1;" d="M 232.210938 174.183594 L 229.21875 172.683594 L 226.425781 170.84375 L 232.800781 162.300781 L 234.929688 159.457031 L 241.304688 150.914062 L 243.433594 148.066406 L 240.628906 154.597656 L 239.222656 157.863281 L 237.820312 161.125 L 235.015625 167.65625 L 233.613281 170.917969 Z M 232.210938 174.183594 "/>
<path style=" stroke:none;fill-rule:nonzero;fill:rgb(70.980392%,85.098039%,98.823529%);fill-opacity:1;" d="M 220.097656 177.667969 L 216.777344 174.722656 L 213.832031 171.402344 L 216.519531 169.28125 L 238.050781 152.3125 L 240.742188 150.1875 L 243.433594 148.066406 L 241.3125 150.757812 L 239.1875 153.449219 L 222.21875 174.980469 Z M 220.097656 177.667969 "/>
<path style=" stroke:none;fill-rule:nonzero;fill:rgb(68.235294%,78.823529%,94.509804%);fill-opacity:1;" d="M 205.804688 176.167969 L 203.714844 173.128906 L 201.871094 169.933594 L 200.28125 166.605469 L 215.691406 159.984375 L 218.777344 158.660156 L 243.433594 148.066406 L 240.746094 150.074219 L 238.054688 152.082031 L 232.679688 156.097656 L 229.992188 158.101562 L 216.554688 168.140625 L 213.867188 170.144531 Z M 205.804688 176.167969 "/>
<path style=" stroke:none;fill-rule:nonzero;fill:rgb(61.960784%,53.333333%,72.941176%);fill-opacity:1;" d="M 169.394531 177.605469 L 168.085938 174.085938 L 166.941406 170.507812 L 165.96875 166.878906 L 165.167969 163.210938 L 164.542969 159.507812 L 167.832031 159.03125 L 171.117188 158.554688 L 174.40625 158.078125 L 177.691406 157.601562 L 180.980469 157.125 L 187.550781 156.171875 L 190.839844 155.695312 L 194.125 155.21875 L 197.414062 154.738281 L 200.699219 154.261719 L 203.988281 153.785156 L 207.273438 153.308594 L 210.5625 152.832031 L 213.847656 152.355469 L 217.136719 151.878906 L 220.421875 151.402344 L 223.710938 150.925781 L 226.996094 150.449219 L 230.285156 149.972656 L 233.570312 149.496094 L 236.859375 149.019531 L 240.144531 148.542969 L 243.433594 148.066406 L 240.347656 149.296875 L 237.261719 150.53125 L 234.175781 151.761719 L 231.09375 152.992188 L 221.835938 156.683594 L 218.753906 157.914062 L 209.496094 161.605469 L 206.414062 162.835938 L 200.242188 165.296875 L 197.15625 166.53125 L 194.074219 167.761719 L 184.816406 171.453125 L 181.734375 172.683594 L 172.476562 176.375 Z M 169.394531 177.605469 "/>
<path style=" stroke:none;fill-rule:nonzero;fill:rgb(64.313725%,66.27451%,84.705882%);fill-opacity:1;" d="M 149.542969 159.179688 L 149.179688 155.484375 L 148.960938 151.78125 L 148.886719 148.066406 L 148.960938 144.355469 L 149.179688 140.648438 L 149.542969 136.957031 L 159.257812 138.105469 L 162.492188 138.488281 L 175.445312 140.019531 L 178.679688 140.402344 L 181.917969 140.789062 L 191.632812 141.9375 L 194.867188 142.320312 L 211.058594 144.234375 L 214.292969 144.621094 L 227.246094 146.152344 L 230.480469 146.535156 L 243.433594 148.066406 L 240.195312 148.449219 L 236.957031 148.835938 L 230.480469 149.601562 L 227.246094 149.984375 L 214.292969 151.515625 L 211.058594 151.898438 L 207.820312 152.28125 L 204.582031 152.667969 L 194.867188 153.816406 L 191.632812 154.199219 L 178.679688 155.730469 L 175.445312 156.113281 L 172.207031 156.496094 L 168.96875 156.882812 L 162.492188 157.648438 L 159.257812 158.03125 Z M 149.542969 159.179688 "/>
<path style=" stroke:none;fill-rule:nonzero;fill:rgb(62.745098%,58.039216%,77.254902%);fill-opacity:1;" d="M 165.15625 136.71875 L 165.777344 133.042969 L 166.570312 129.402344 L 167.535156 125.800781 L 168.667969 122.25 L 169.96875 118.757812 L 173.027344 119.980469 L 176.089844 121.199219 L 179.152344 122.421875 L 182.210938 123.644531 L 185.273438 124.863281 L 188.332031 126.085938 L 191.394531 127.308594 L 194.457031 128.527344 L 197.515625 129.75 L 200.578125 130.96875 L 203.640625 132.191406 L 206.699219 133.414062 L 209.761719 134.632812 L 212.820312 135.855469 L 215.882812 137.078125 L 218.945312 138.296875 L 222.003906 139.519531 L 225.066406 140.742188 L 228.128906 141.960938 L 231.1875 143.183594 L 234.25 144.402344 L 237.308594 145.625 L 240.371094 146.847656 L 243.433594 148.066406 L 201.03125 141.921875 L 197.769531 141.445312 L 181.460938 139.082031 L 178.203125 138.609375 Z M 165.15625 136.71875 "/>
<path style=" stroke:none;fill-rule:nonzero;fill:rgb(62.745098%,57.254902%,76.862745%);fill-opacity:1;" d="M 179.277344 120.503906 L 180.644531 117.511719 L 182.15625 114.589844 L 183.800781 111.738281 L 185.578125 108.972656 L 187.484375 106.289062 L 190.148438 108.277344 L 192.8125 110.269531 L 200.804688 116.234375 L 203.46875 118.226562 L 208.796875 122.203125 L 211.460938 124.195312 L 216.789062 128.171875 L 219.453125 130.164062 L 224.78125 134.140625 L 227.445312 136.132812 L 235.4375 142.097656 L 238.105469 144.089844 L 243.433594 148.066406 L 240.378906 146.753906 L 237.320312 145.441406 L 206.773438 132.316406 L 203.714844 131.003906 Z M 179.277344 120.503906 "/>
<path style=" stroke:none;fill-rule:nonzero;fill:rgb(62.745098%,58.823529%,78.039216%);fill-opacity:1;" d="M 195.875 110.578125 L 198.164062 107.84375 L 200.613281 105.246094 L 203.207031 102.800781 L 205.941406 100.511719 L 208.023438 103.152344 L 210.105469 105.796875 L 212.191406 108.4375 L 214.273438 111.078125 L 216.355469 113.722656 L 220.519531 119.003906 L 222.605469 121.648438 L 226.769531 126.929688 L 228.851562 129.574219 L 230.933594 132.214844 L 233.019531 134.859375 L 237.183594 140.140625 L 239.265625 142.785156 L 241.347656 145.425781 L 243.433594 148.066406 L 240.789062 145.984375 L 235.507812 141.820312 L 232.863281 139.738281 L 230.222656 137.652344 L 227.578125 135.570312 L 222.296875 131.40625 L 219.652344 129.324219 L 217.011719 127.238281 L 214.371094 125.15625 L 211.726562 123.074219 L 206.445312 118.910156 L 203.800781 116.824219 L 201.160156 114.742188 L 198.515625 112.660156 Z M 195.875 110.578125 "/>
<path style=" stroke:none;fill-rule:nonzero;fill:rgb(62.745098%,58.039216%,77.254902%);fill-opacity:1;" d="M 213.855469 108.457031 L 217.054688 106.257812 L 220.414062 104.320312 L 223.917969 102.648438 L 229.121094 114.757812 L 230.421875 117.789062 L 235.625 129.898438 L 236.925781 132.929688 L 238.226562 135.957031 L 239.53125 138.984375 L 243.433594 148.066406 L 235.542969 137.503906 L 233.574219 134.863281 L 225.683594 124.300781 L 223.714844 121.660156 L 215.824219 111.097656 Z M 213.855469 108.457031 "/>
<path style=" stroke:none;fill-rule:nonzero;fill:rgb(62.745098%,60%,79.607843%);fill-opacity:1;" d="M 226.945312 106.742188 L 230.238281 105.578125 L 233.613281 104.671875 L 237.046875 104.035156 L 237.539062 107.425781 L 238.03125 110.8125 L 238.519531 114.199219 L 239.996094 124.359375 L 240.484375 127.746094 L 241.46875 134.519531 L 241.957031 137.90625 L 243.433594 148.066406 L 242.164062 144.890625 L 240.894531 141.710938 L 239.628906 138.53125 L 238.359375 135.351562 L 237.089844 132.175781 L 235.824219 128.996094 L 233.285156 122.636719 L 232.019531 119.460938 L 229.480469 113.101562 L 228.214844 109.921875 Z M 226.945312 106.742188 "/>
<path style=" stroke:none;fill-rule:nonzero;fill:rgb(67.843137%,77.647059%,93.72549%);fill-opacity:1;" d="M 238.855469 109.40625 L 243.433594 109.136719 L 248.007812 109.40625 L 247.625 112.628906 L 247.246094 115.851562 L 246.863281 119.074219 L 246.484375 122.292969 L 245.71875 128.738281 L 245.339844 131.960938 L 244.957031 135.179688 L 244.574219 138.402344 L 244.195312 141.625 L 243.8125 144.847656 L 243.433594 148.066406 L 243.050781 144.847656 L 242.667969 141.625 L 242.289062 138.402344 L 241.90625 135.179688 L 241.527344 131.960938 L 240.761719 125.515625 L 240.382812 122.292969 L 240 119.074219 L 239.617188 115.851562 L 239.238281 112.628906 Z M 238.855469 109.40625 "/>
<path style=" stroke:none;fill-rule:nonzero;fill:rgb(67.058824%,76.470588%,92.941176%);fill-opacity:1;" d="M 248.664062 111.988281 L 252.867188 112.851562 L 256.941406 114.207031 L 255.714844 117.285156 L 254.484375 120.363281 L 253.257812 123.441406 L 252.027344 126.519531 L 249.574219 132.675781 L 248.34375 135.753906 L 247.117188 138.832031 L 245.886719 141.910156 L 243.433594 148.066406 L 243.90625 144.789062 L 244.859375 138.226562 L 245.335938 134.949219 L 245.808594 131.667969 L 246.761719 125.105469 L 247.238281 121.828125 L 247.710938 118.546875 L 248.1875 115.265625 Z M 248.664062 111.988281 "/>
<path style=" stroke:none;fill-rule:nonzero;fill:rgb(64.705882%,68.627451%,86.666667%);fill-opacity:1;" d="M 258.3125 113.433594 L 262.277344 115.425781 L 265.984375 117.867188 L 263.933594 120.609375 L 261.886719 123.355469 L 247.53125 142.578125 L 245.484375 145.320312 L 243.433594 148.066406 L 247.488281 138.621094 L 248.84375 135.472656 L 251.546875 129.175781 L 252.902344 126.027344 L 256.957031 116.582031 Z M 258.3125 113.433594 "/>
<path style=" stroke:none;fill-rule:nonzero;fill:rgb(62.745098%,58.039216%,77.647059%);fill-opacity:1;" d="M 274.035156 109.246094 L 276.988281 111.765625 L 279.734375 114.511719 L 282.253906 117.464844 L 279.664062 119.503906 L 277.078125 121.542969 L 274.488281 123.585938 L 271.902344 125.625 L 269.3125 127.664062 L 266.726562 129.703125 L 264.136719 131.746094 L 261.550781 133.785156 L 258.960938 135.824219 L 256.371094 137.867188 L 253.785156 139.90625 L 251.195312 141.945312 L 248.609375 143.988281 L 246.019531 146.027344 L 243.433594 148.066406 L 245.472656 145.480469 L 247.511719 142.890625 L 249.554688 140.304688 L 251.59375 137.714844 L 253.632812 135.128906 L 255.675781 132.539062 L 257.714844 129.949219 L 259.753906 127.363281 L 261.796875 124.773438 L 263.835938 122.1875 L 265.875 119.597656 L 267.914062 117.011719 L 269.957031 114.421875 L 271.996094 111.835938 Z M 274.035156 109.246094 "/>
<path style=" stroke:none;fill-rule:nonzero;fill:rgb(62.745098%,58.039216%,77.254902%);fill-opacity:1;" d="M 285.023438 117.011719 L 287.332031 120.371094 L 289.367188 123.898438 L 291.125 127.578125 L 288.144531 128.859375 L 285.160156 130.140625 L 282.179688 131.421875 L 279.199219 132.699219 L 264.296875 139.105469 L 261.316406 140.382812 L 246.414062 146.789062 L 243.433594 148.066406 L 246.03125 146.125 L 248.632812 144.1875 L 253.828125 140.304688 L 256.429688 138.363281 L 259.027344 136.421875 L 261.628906 134.480469 L 264.226562 132.539062 L 266.828125 130.597656 L 269.425781 128.65625 L 272.027344 126.714844 L 274.625 124.773438 L 277.222656 122.835938 L 279.824219 120.894531 L 282.421875 118.953125 Z M 285.023438 117.011719 "/>
<path style=" stroke:none;fill-rule:nonzero;fill:rgb(62.745098%,59.215686%,78.431373%);fill-opacity:1;" d="M 312.878906 120.359375 L 314.105469 123.664062 L 315.179688 127.019531 L 316.089844 130.421875 L 316.839844 133.863281 L 317.429688 137.339844 L 314.210938 137.804688 L 310.992188 138.273438 L 307.777344 138.738281 L 304.558594 139.203125 L 301.34375 139.671875 L 298.125 140.136719 L 294.90625 140.605469 L 291.691406 141.070312 L 288.472656 141.539062 L 285.257812 142.003906 L 282.039062 142.46875 L 278.820312 142.9375 L 275.605469 143.402344 L 272.386719 143.871094 L 269.171875 144.335938 L 265.953125 144.800781 L 262.734375 145.269531 L 259.519531 145.734375 L 256.300781 146.203125 L 253.082031 146.667969 L 249.867188 147.136719 L 246.648438 147.601562 L 243.433594 148.066406 L 249.472656 145.660156 L 252.492188 144.453125 L 255.511719 143.25 L 258.53125 142.042969 L 261.546875 140.839844 L 264.566406 139.636719 L 267.585938 138.429688 L 273.625 136.023438 L 276.644531 134.816406 L 279.664062 133.613281 L 282.683594 132.40625 L 288.722656 130 L 291.742188 128.792969 L 294.761719 127.589844 L 297.78125 126.382812 L 303.820312 123.976562 L 306.839844 122.769531 L 309.859375 121.566406 Z M 312.878906 120.359375 "/>
<path style=" stroke:none;fill-rule:nonzero;fill:rgb(62.352941%,54.509804%,74.117647%);fill-opacity:1;" d="M 329.34375 137.898438 L 329.675781 141.28125 L 329.875 144.671875 L 329.941406 148.066406 L 329.875 151.464844 L 329.675781 154.855469 L 329.34375 158.234375 L 326.160156 157.859375 L 322.980469 157.484375 L 319.796875 157.105469 L 316.617188 156.730469 L 313.433594 156.351562 L 310.25 155.976562 L 307.070312 155.601562 L 303.886719 155.222656 L 300.707031 154.847656 L 297.523438 154.46875 L 294.34375 154.09375 L 291.160156 153.71875 L 287.980469 153.339844 L 284.796875 152.964844 L 281.613281 152.585938 L 278.433594 152.210938 L 275.25 151.832031 L 272.070312 151.457031 L 268.886719 151.082031 L 265.707031 150.703125 L 262.523438 150.328125 L 259.339844 149.949219 L 256.160156 149.574219 L 252.976562 149.199219 L 249.796875 148.820312 L 246.613281 148.445312 L 243.433594 148.066406 L 246.613281 147.691406 L 249.796875 147.316406 L 252.976562 146.9375 L 256.160156 146.5625 L 259.339844 146.183594 L 265.707031 145.433594 L 268.886719 145.054688 L 272.070312 144.679688 L 275.25 144.300781 L 278.433594 143.925781 L 281.613281 143.546875 L 287.980469 142.796875 L 291.160156 142.417969 L 294.34375 142.042969 L 297.523438 141.664062 L 300.707031 141.289062 L 303.886719 140.914062 L 307.070312 140.535156 L 310.25 140.160156 L 313.433594 139.78125 L 316.617188 139.40625 L 319.796875 139.03125 L 322.980469 138.652344 L 326.160156 138.277344 Z M 329.34375 137.898438 "/>
<path style=" stroke:none;fill-rule:nonzero;fill:rgb(61.568627%,50.588235%,70.196078%);fill-opacity:1;" d="M 323.542969 159.683594 L 322.90625 163.445312 L 322.09375 167.171875 L 321.109375 170.855469 L 319.949219 174.488281 L 318.617188 178.0625 L 315.609375 176.863281 L 312.605469 175.664062 L 303.582031 172.066406 L 300.574219 170.863281 L 285.535156 164.867188 L 282.527344 163.664062 L 279.523438 162.464844 L 264.484375 156.46875 L 261.476562 155.265625 L 249.445312 150.46875 L 246.441406 149.269531 L 243.433594 148.066406 L 249.839844 148.996094 L 253.046875 149.460938 L 259.453125 150.390625 L 262.660156 150.855469 L 269.066406 151.785156 L 272.273438 152.25 L 278.679688 153.179688 L 281.886719 153.644531 L 288.292969 154.574219 L 291.5 155.039062 L 294.703125 155.5 L 297.90625 155.964844 L 301.113281 156.429688 L 307.519531 157.359375 L 310.726562 157.824219 L 313.929688 158.289062 L 317.136719 158.753906 Z M 323.542969 159.683594 "/>
<path style=" stroke:none;fill-rule:nonzero;fill:rgb(64.313725%,66.666667%,85.098039%);fill-opacity:1;" d="M 288.851562 167.582031 L 287.179688 171.085938 L 285.242188 174.445312 L 283.042969 177.644531 L 280.402344 175.675781 L 269.839844 167.785156 L 267.199219 165.816406 L 256.636719 157.925781 L 253.996094 155.957031 L 243.433594 148.066406 L 252.515625 151.96875 L 255.542969 153.273438 L 258.570312 154.574219 L 261.601562 155.875 L 273.710938 161.078125 L 276.742188 162.378906 Z M 288.851562 167.582031 "/>
<path style=" stroke:none;fill-rule:nonzero;fill:rgb(67.843137%,78.039216%,94.117647%);fill-opacity:1;" d="M 278.855469 175.996094 L 276.558594 178.6875 L 274.050781 181.191406 L 271.359375 183.492188 L 269.363281 180.960938 L 267.371094 178.433594 L 263.378906 173.371094 L 261.386719 170.839844 L 259.390625 168.3125 L 257.394531 165.78125 L 255.402344 163.25 L 251.410156 158.1875 L 249.417969 155.660156 L 245.425781 150.597656 L 243.433594 148.066406 L 245.960938 150.0625 L 248.492188 152.058594 L 251.023438 154.050781 L 253.554688 156.046875 L 256.082031 158.042969 L 258.613281 160.035156 L 263.675781 164.027344 L 266.207031 166.019531 L 268.734375 168.015625 L 271.265625 170.011719 L 273.796875 172.003906 L 276.328125 174 Z M 278.855469 175.996094 "/>
<path style=" stroke:none;fill-rule:nonzero;fill:rgb(67.45098%,76.862745%,93.333333%);fill-opacity:1;" d="M 269.683594 183.222656 L 266.84375 185.171875 L 263.859375 186.894531 L 260.75 188.378906 L 256.753906 179.074219 L 255.421875 175.976562 L 250.09375 163.570312 L 248.761719 160.472656 L 243.433594 148.066406 L 245.453125 150.773438 L 247.46875 153.476562 L 251.507812 158.882812 L 253.527344 161.589844 L 259.585938 169.699219 L 261.605469 172.40625 L 267.664062 180.515625 Z M 269.683594 183.222656 "/>
<path style=" stroke:none;fill-rule:nonzero;fill:rgb(68.235294%,78.431373%,94.117647%);fill-opacity:1;" d="M 258.773438 186.523438 L 255.710938 187.605469 L 252.570312 188.449219 L 249.371094 189.042969 L 248.878906 185.625 L 247.886719 178.796875 L 247.394531 175.382812 L 245.90625 165.140625 L 245.414062 161.726562 L 244.421875 154.898438 L 243.925781 151.480469 L 243.433594 148.066406 L 244.710938 151.273438 L 247.265625 157.679688 L 248.546875 160.886719 L 249.824219 164.089844 L 251.101562 167.296875 L 252.382812 170.5 L 253.660156 173.703125 L 254.9375 176.910156 L 256.21875 180.113281 L 257.496094 183.316406 Z M 258.773438 186.523438 "/>
</g>
</svg>
