<?xml version="1.0" encoding="UTF-8"?>
<svg xmlns="http://www.w3.org/2000/svg" xmlns:xlink="http://www.w3.org/1999/xlink" width="484pt" height="299pt" viewBox="0 0 484 299" version="1.1">
<g id="surface143">
<rect x="0" y="0" width="484" height="299" style="fill:rgb(100%,100%,100%);fill-opacity:1;stroke:none;"/>
<path style=" stroke:none;fill-rule:nonzero;fill:rgb(64.705882%,68.235294%,86.27451%);fill-opacity:1;" d="M 234.890625 206.980469 L 231.4375 206.375 L 228.023438 205.566406 L 224.667969 204.558594 L 221.375 203.359375 L 222.597656 200.285156 L 225.050781 194.144531 L 226.277344 191.070312 L 227.5 188 L 228.726562 184.929688 L 229.953125 181.855469 L 231.175781 178.785156 L 232.402344 175.710938 L 234.855469 169.570312 L 236.078125 166.496094 L 238.53125 160.355469 L 239.753906 157.28125 L 242.207031 151.140625 L 243.433594 148.066406 L 242.957031 151.339844 L 242.484375 154.613281 L 242.007812 157.886719 L 241.535156 161.160156 L 241.058594 164.433594 L 240.585938 167.707031 L 240.109375 170.976562 L 239.636719 174.25 L 239.160156 177.523438 L 238.6875 180.796875 L 238.210938 184.070312 L 237.738281 187.34375 L 237.261719 190.613281 L 236.789062 193.886719 L 236.3125 197.160156 L 235.839844 200.433594 L 235.363281 203.707031 Z M 234.890625 206.980469 "/>
<path style=" stroke:none;fill-rule:nonzero;fill:rgb(66.666667%,75.294118%,92.156863%);fill-opacity:1;" d="M 224.082031 193.109375 L 220.605469 191.453125 L 217.273438 189.527344 L 214.101562 187.347656 L 216.054688 184.730469 L 218.011719 182.109375 L 219.96875 179.492188 L 221.921875 176.871094 L 223.878906 174.253906 L 225.832031 171.636719 L 227.789062 169.015625 L 229.742188 166.398438 L 231.699219 163.78125 L 233.65625 161.160156 L 235.609375 158.542969 L 237.566406 155.921875 L 239.519531 153.304688 L 241.476562 150.6875 L 243.433594 148.066406 L 242.140625 151.070312 L 239.5625 157.078125 L 238.273438 160.078125 L 236.980469 163.082031 L 235.691406 166.085938 L 234.402344 169.085938 L 233.113281 172.089844 L 231.820312 175.09375 L 230.53125 178.09375 L 229.242188 181.097656 L 227.949219 184.101562 L 226.660156 187.105469 L 225.371094 190.105469 Z M 224.082031 193.109375 "/>
<path style=" stroke:none;fill-rule:nonzero;fill:rgb(70.980392%,85.098039%,98.823529%);fill-opacity:1;" d="M 206.578125 194.816406 L 203.890625 192.566406 L 201.339844 190.160156 L 198.933594 187.609375 L 196.683594 184.921875 L 201.878906 180.828125 L 204.476562 178.777344 L 207.074219 176.730469 L 209.667969 174.683594 L 220.058594 166.496094 L 222.65625 164.445312 L 225.253906 162.398438 L 227.847656 160.351562 L 240.835938 150.117188 L 243.433594 148.066406 L 241.382812 150.664062 L 231.148438 163.652344 L 229.101562 166.246094 L 227.054688 168.84375 L 225.003906 171.441406 L 216.816406 181.832031 L 214.769531 184.425781 L 212.722656 187.023438 L 210.671875 189.621094 Z M 206.578125 194.816406 "/>
<path style=" stroke:none;fill-rule:nonzero;fill:rgb(68.235294%,78.823529%,94.509804%);fill-opacity:1;" d="M 201.347656 179.496094 L 199.011719 176.09375 L 196.949219 172.523438 L 195.171875 168.800781 L 198.1875 167.503906 L 201.207031 166.210938 L 207.238281 163.617188 L 210.253906 162.324219 L 219.300781 158.433594 L 222.320312 157.140625 L 231.367188 153.25 L 234.382812 151.957031 L 240.414062 149.363281 L 243.433594 148.066406 L 240.800781 150.03125 L 235.542969 153.960938 L 232.910156 155.925781 L 230.28125 157.890625 L 227.648438 159.851562 L 222.390625 163.78125 L 219.757812 165.746094 L 217.128906 167.710938 L 214.5 169.671875 L 211.867188 171.636719 L 209.238281 173.601562 L 206.605469 175.566406 Z M 201.347656 179.496094 "/>
<path style=" stroke:none;fill-rule:nonzero;fill:rgb(67.45098%,77.254902%,93.333333%);fill-opacity:1;" d="M 168.628906 177.910156 L 167.304688 174.355469 L 166.152344 170.738281 L 165.167969 167.074219 L 164.359375 163.367188 L 163.726562 159.625 L 166.917969 159.164062 L 170.105469 158.699219 L 173.292969 158.238281 L 176.480469 157.773438 L 182.855469 156.851562 L 186.046875 156.386719 L 192.421875 155.464844 L 195.609375 155 L 201.984375 154.078125 L 205.175781 153.613281 L 211.550781 152.691406 L 214.738281 152.226562 L 221.113281 151.304688 L 224.304688 150.839844 L 230.679688 149.917969 L 233.867188 149.453125 L 240.242188 148.53125 L 243.433594 148.066406 L 237.449219 150.457031 L 234.457031 151.648438 L 231.464844 152.84375 L 228.472656 154.035156 L 222.488281 156.425781 L 219.496094 157.617188 L 216.503906 158.8125 L 213.511719 160.003906 L 207.527344 162.394531 L 204.535156 163.585938 L 201.542969 164.78125 L 198.550781 165.972656 L 192.566406 168.363281 L 189.574219 169.554688 L 186.582031 170.75 L 183.589844 171.941406 L 177.605469 174.332031 L 174.613281 175.523438 L 171.621094 176.71875 Z M 168.628906 177.910156 "/>
<path style=" stroke:none;fill-rule:nonzero;fill:rgb(65.490196%,72.54902%,90.196078%);fill-opacity:1;" d="M 201.703125 153.007812 L 201.445312 149.71875 L 201.445312 146.417969 L 201.703125 143.128906 L 204.914062 143.507812 L 208.125 143.890625 L 211.332031 144.269531 L 217.753906 145.027344 L 220.964844 145.410156 L 224.171875 145.789062 L 230.59375 146.546875 L 233.800781 146.929688 L 243.433594 148.066406 L 240.222656 148.449219 L 233.800781 149.207031 L 230.59375 149.585938 L 227.382812 149.96875 L 224.171875 150.347656 L 220.964844 150.726562 L 217.753906 151.105469 L 214.542969 151.488281 L 211.332031 151.867188 L 208.125 152.246094 L 204.914062 152.625 Z M 201.703125 153.007812 "/>
<path style=" stroke:none;fill-rule:nonzero;fill:rgb(63.137255%,62.745098%,81.568627%);fill-opacity:1;" d="M 205.3125 142.539062 L 206.226562 138.097656 L 207.65625 133.792969 L 210.636719 134.984375 L 213.617188 136.171875 L 216.601562 137.363281 L 219.582031 138.550781 L 222.5625 139.742188 L 225.542969 140.929688 L 228.527344 142.121094 L 231.507812 143.308594 L 234.488281 144.5 L 237.46875 145.6875 L 240.449219 146.878906 L 243.433594 148.066406 L 240.253906 147.605469 L 237.078125 147.148438 L 227.550781 145.765625 L 224.371094 145.304688 L 211.667969 143.460938 L 208.488281 143 Z M 205.3125 142.539062 "/>
<path style=" stroke:none;fill-rule:nonzero;fill:rgb(62.745098%,58.823529%,78.039216%);fill-opacity:1;" d="M 208.042969 132.863281 L 210.074219 128.808594 L 212.570312 125.023438 L 215.140625 126.941406 L 217.714844 128.863281 L 220.285156 130.785156 L 222.855469 132.703125 L 225.429688 134.625 L 228 136.542969 L 230.574219 138.464844 L 233.144531 140.386719 L 235.714844 142.304688 L 238.289062 144.226562 L 240.859375 146.148438 L 243.433594 148.066406 L 237.535156 145.535156 L 234.585938 144.265625 L 228.6875 141.734375 L 225.738281 140.464844 L 222.789062 139.199219 L 219.839844 137.929688 L 213.941406 135.398438 L 210.992188 134.128906 Z M 208.042969 132.863281 "/>
<path style=" stroke:none;fill-rule:nonzero;fill:rgb(67.058824%,76.078431%,92.54902%);fill-opacity:1;" d="M 218.683594 128.558594 L 221.148438 125.785156 L 223.921875 123.320312 L 232.59375 134.320312 L 234.761719 137.066406 L 243.433594 148.066406 L 235.183594 141.5625 L 232.433594 139.398438 Z M 218.683594 128.558594 "/>
<path style=" stroke:none;fill-rule:nonzero;fill:rgb(62.745098%,60%,79.215686%);fill-opacity:1;" d="M 230.863281 131.234375 L 235.136719 128.765625 L 236.519531 131.980469 L 239.285156 138.417969 L 240.667969 141.632812 L 242.050781 144.851562 L 243.433594 148.066406 L 241.335938 145.261719 L 237.148438 139.652344 L 235.050781 136.84375 Z M 230.863281 131.234375 "/>
<path style=" stroke:none;fill-rule:nonzero;fill:rgb(61.960784%,52.941176%,72.54902%);fill-opacity:1;" d="M 231.753906 118.796875 L 235.277344 117.628906 L 238.910156 116.878906 L 239.414062 120.34375 L 239.914062 123.808594 L 240.417969 127.277344 L 240.917969 130.742188 L 241.925781 137.671875 L 242.425781 141.136719 L 243.433594 148.066406 L 242.132812 144.816406 L 240.835938 141.5625 L 239.539062 138.3125 L 236.945312 131.804688 L 235.648438 128.554688 L 234.347656 125.300781 L 233.050781 122.050781 Z M 231.753906 118.796875 "/>
<path style=" stroke:none;fill-rule:nonzero;fill:rgb(69.019608%,80.784314%,95.686275%);fill-opacity:1;" d="M 240.140625 120.25 L 243.433594 120.054688 L 246.726562 120.25 L 246.3125 123.726562 L 245.902344 127.203125 L 245.488281 130.679688 L 245.078125 134.160156 L 244.667969 137.636719 L 244.253906 141.113281 L 243.433594 148.066406 L 243.019531 144.589844 L 242.199219 137.636719 L 241.785156 134.160156 L 241.375 130.679688 L 240.960938 127.203125 Z M 240.140625 120.25 "/>
<path style=" stroke:none;fill-rule:nonzero;fill:rgb(70.980392%,84.705882%,98.823529%);fill-opacity:1;" d="M 246.445312 127.277344 L 251.21875 128.554688 L 249.917969 131.804688 L 247.324219 138.3125 L 246.027344 141.5625 L 244.730469 144.816406 L 243.433594 148.066406 L 243.933594 144.601562 L 244.941406 137.671875 L 245.441406 134.207031 L 245.945312 130.742188 Z M 246.445312 127.277344 "/>
<path style=" stroke:none;fill-rule:nonzero;fill:rgb(61.568627%,51.764706%,71.372549%);fill-opacity:1;" d="M 261.402344 106.242188 L 264.628906 107.78125 L 267.722656 109.570312 L 270.667969 111.59375 L 249.269531 140.253906 L 247.324219 142.855469 L 243.433594 148.066406 L 244.714844 145.082031 L 246 142.09375 L 247.28125 139.105469 L 249.851562 133.128906 L 251.132812 130.144531 L 252.417969 127.15625 L 253.699219 124.167969 L 254.984375 121.179688 L 256.265625 118.191406 L 257.550781 115.207031 L 258.835938 112.21875 L 260.117188 109.230469 Z M 261.402344 106.242188 "/>
<path style=" stroke:none;fill-rule:nonzero;fill:rgb(62.745098%,60.392157%,79.607843%);fill-opacity:1;" d="M 258.605469 128.820312 L 262.679688 132.894531 L 257.179688 137.230469 L 254.433594 139.398438 L 251.683594 141.5625 L 243.433594 148.066406 L 249.9375 139.816406 L 252.101562 137.066406 L 254.269531 134.320312 Z M 258.605469 128.820312 "/>
<path style=" stroke:none;fill-rule:nonzero;fill:rgb(61.568627%,50.588235%,70.196078%);fill-opacity:1;" d="M 285.515625 116.640625 L 287.851562 120.039062 L 289.914062 123.613281 L 291.691406 127.335938 L 288.675781 128.628906 L 285.660156 129.925781 L 282.640625 131.222656 L 279.625 132.519531 L 276.609375 133.8125 L 270.578125 136.40625 L 267.5625 137.699219 L 264.546875 138.996094 L 261.527344 140.292969 L 258.511719 141.589844 L 255.496094 142.882812 L 246.449219 146.773438 L 243.433594 148.066406 L 246.0625 146.105469 L 248.691406 144.140625 L 251.324219 142.175781 L 256.582031 138.246094 L 259.214844 136.28125 L 261.84375 134.320312 L 264.476562 132.355469 L 269.734375 128.425781 L 272.367188 126.460938 L 274.996094 124.496094 L 277.625 122.535156 L 280.257812 120.570312 Z M 285.515625 116.640625 "/>
<path style=" stroke:none;fill-rule:nonzero;fill:rgb(64.313725%,66.666667%,85.098039%);fill-opacity:1;" d="M 305.226562 123.414062 L 306.570312 127.09375 L 307.695312 130.847656 L 308.597656 134.660156 L 309.273438 138.519531 L 305.984375 139 L 292.8125 140.90625 L 289.523438 141.386719 L 276.351562 143.292969 L 273.0625 143.773438 L 263.183594 145.203125 L 259.894531 145.679688 L 256.601562 146.160156 L 246.722656 147.589844 L 243.433594 148.066406 L 246.523438 146.835938 L 249.613281 145.601562 L 252.703125 144.371094 L 255.792969 143.136719 L 258.878906 141.90625 L 265.058594 139.4375 L 268.148438 138.207031 L 271.238281 136.972656 L 274.328125 135.742188 L 277.417969 134.507812 L 280.507812 133.277344 L 286.6875 130.808594 L 289.777344 129.578125 L 292.867188 128.34375 L 295.957031 127.113281 L 299.046875 125.878906 L 302.136719 124.648438 Z M 305.226562 123.414062 "/>
<path style=" stroke:none;fill-rule:nonzero;fill:rgb(64.313725%,66.27451%,84.705882%);fill-opacity:1;" d="M 309.5 140.246094 L 309.847656 144.152344 L 309.964844 148.066406 L 309.847656 151.984375 L 309.5 155.886719 L 306.199219 155.496094 L 299.589844 154.714844 L 296.289062 154.324219 L 289.679688 153.542969 L 286.378906 153.152344 L 283.074219 152.761719 L 279.769531 152.367188 L 276.46875 151.976562 L 266.554688 150.804688 L 263.253906 150.414062 L 256.644531 149.632812 L 253.34375 149.242188 L 250.039062 148.851562 L 246.734375 148.457031 L 243.433594 148.066406 L 246.734375 147.675781 L 253.34375 146.894531 L 256.644531 146.503906 L 263.253906 145.722656 L 266.554688 145.332031 L 273.164062 144.550781 L 276.46875 144.15625 L 279.769531 143.765625 L 286.378906 142.984375 L 289.679688 142.59375 L 296.289062 141.8125 L 299.589844 141.421875 L 306.199219 140.640625 Z M 309.5 140.246094 "/>
<path style=" stroke:none;fill-rule:nonzero;fill:rgb(67.843137%,78.039216%,94.117647%);fill-opacity:1;" d="M 309.273438 157.613281 L 308.597656 161.472656 L 307.695312 165.289062 L 306.570312 169.039062 L 305.226562 172.722656 L 302.136719 171.488281 L 299.046875 170.257812 L 292.867188 167.789062 L 289.777344 166.558594 L 286.6875 165.324219 L 283.597656 164.09375 L 280.507812 162.859375 L 277.417969 161.628906 L 271.238281 159.160156 L 268.148438 157.929688 L 265.058594 156.695312 L 261.96875 155.464844 L 258.878906 154.230469 L 255.792969 153 L 252.703125 151.765625 L 249.613281 150.535156 L 243.433594 148.066406 L 246.722656 148.546875 L 259.894531 150.453125 L 263.183594 150.933594 L 273.0625 152.363281 L 276.351562 152.839844 L 279.644531 153.320312 L 289.523438 154.75 L 292.8125 155.226562 L 296.105469 155.707031 L 305.984375 157.136719 Z M 309.273438 157.613281 "/>
<path style=" stroke:none;fill-rule:nonzero;fill:rgb(67.45098%,76.862745%,92.941176%);fill-opacity:1;" d="M 304.558594 174.332031 L 302.90625 177.882812 L 301.050781 181.332031 L 298.992188 184.667969 L 296.742188 187.875 L 294.074219 185.882812 L 291.410156 183.894531 L 288.742188 181.902344 L 286.078125 179.914062 L 283.414062 177.921875 L 280.746094 175.933594 L 278.082031 173.941406 L 275.417969 171.953125 L 272.75 169.960938 L 270.085938 167.972656 L 267.421875 165.980469 L 264.753906 163.992188 L 262.089844 162 L 259.425781 160.011719 L 256.757812 158.019531 L 254.09375 156.027344 L 251.429688 154.039062 L 248.761719 152.046875 L 246.097656 150.058594 L 243.433594 148.066406 L 246.488281 149.382812 L 249.546875 150.695312 L 255.65625 153.320312 L 258.714844 154.632812 L 261.769531 155.945312 L 264.828125 157.261719 L 267.882812 158.574219 L 270.941406 159.886719 L 277.050781 162.511719 L 280.109375 163.824219 L 283.164062 165.136719 L 286.222656 166.453125 L 289.277344 167.765625 L 292.335938 169.078125 L 295.390625 170.390625 L 298.449219 171.703125 L 301.503906 173.015625 Z M 304.558594 174.332031 "/>
<path style=" stroke:none;fill-rule:nonzero;fill:rgb(70.196078%,82.745098%,97.254902%);fill-opacity:1;" d="M 303.929688 195.761719 L 301.617188 198.558594 L 299.171875 201.242188 L 296.605469 203.808594 L 293.921875 206.25 L 291.125 208.566406 L 289.136719 206.042969 L 287.148438 203.523438 L 285.164062 201.003906 L 283.175781 198.484375 L 281.1875 195.960938 L 279.203125 193.441406 L 277.214844 190.921875 L 275.226562 188.398438 L 273.238281 185.878906 L 271.253906 183.359375 L 269.265625 180.835938 L 267.277344 178.316406 L 265.292969 175.796875 L 263.304688 173.273438 L 259.328125 168.234375 L 257.34375 165.714844 L 255.355469 163.191406 L 253.367188 160.671875 L 251.382812 158.152344 L 249.394531 155.628906 L 245.417969 150.589844 L 243.433594 148.066406 L 248.472656 152.042969 L 250.996094 154.03125 L 253.515625 156.015625 L 258.554688 159.992188 L 261.078125 161.976562 L 266.117188 165.953125 L 268.640625 167.941406 L 271.160156 169.925781 L 273.679688 171.914062 L 276.203125 173.902344 L 278.722656 175.886719 L 281.242188 177.875 L 283.765625 179.863281 L 286.285156 181.851562 L 288.804688 183.835938 L 291.324219 185.824219 L 293.847656 187.8125 L 296.367188 189.796875 L 298.886719 191.785156 L 301.410156 193.773438 Z M 303.929688 195.761719 "/>
<path style=" stroke:none;fill-rule:nonzero;fill:rgb(65.882353%,73.333333%,90.588235%);fill-opacity:1;" d="M 276.953125 192.957031 L 274.253906 194.855469 L 271.445312 196.585938 L 268.539062 198.152344 L 265.546875 199.542969 L 260.34375 187.433594 L 259.042969 184.402344 L 252.539062 169.265625 L 251.238281 166.234375 L 244.734375 151.097656 L 243.433594 148.066406 L 245.402344 150.707031 L 253.292969 161.269531 L 255.261719 163.910156 L 263.152344 174.472656 L 265.121094 177.113281 L 273.011719 187.675781 L 274.980469 190.316406 Z M 276.953125 192.957031 "/>
<path style=" stroke:none;fill-rule:nonzero;fill:rgb(65.882353%,74.117647%,91.372549%);fill-opacity:1;" d="M 278.464844 235.882812 L 274.992188 237.1875 L 271.46875 238.359375 L 267.902344 239.390625 L 264.296875 240.28125 L 260.660156 241.027344 L 257 241.632812 L 255.59375 231.953125 L 255.128906 228.726562 L 253.722656 219.046875 L 253.257812 215.820312 L 252.789062 212.597656 L 251.851562 206.144531 L 251.386719 202.917969 L 249.511719 190.011719 L 249.046875 186.785156 L 247.640625 177.105469 L 247.175781 173.878906 L 245.769531 164.199219 L 245.304688 160.972656 L 243.898438 151.292969 L 243.433594 148.066406 L 244.640625 151.097656 L 247.054688 157.152344 L 248.265625 160.179688 L 250.679688 166.234375 L 251.886719 169.265625 L 253.097656 172.292969 L 255.511719 178.347656 L 256.722656 181.375 L 257.929688 184.40625 L 260.34375 190.460938 L 261.554688 193.488281 L 263.96875 199.542969 L 265.175781 202.574219 L 266.386719 205.601562 L 270.007812 214.683594 L 271.21875 217.714844 L 273.632812 223.769531 L 274.84375 226.796875 L 277.257812 232.851562 Z M 278.464844 235.882812 "/>
</g>
</svg>
