<?xml version="1.0" encoding="UTF-8"?>
<svg xmlns="http://www.w3.org/2000/svg" xmlns:xlink="http://www.w3.org/1999/xlink" width="484pt" height="299pt" viewBox="0 0 484 299" version="1.1">
<g id="surface123">
<rect x="0" y="0" width="484" height="299" style="fill:rgb(100%,100%,100%);fill-opacity:1;stroke:none;"/>
<path style=" stroke:none;fill-rule:nonzero;fill:rgb(65.882353%,72.941176%,90.196078%);fill-opacity:1;" d="M 243.160156 149.9375 L 242.730469 149.824219 L 243.433594 148.066406 Z M 243.160156 149.9375 "/>
<path style=" stroke:none;fill-rule:nonzero;fill:rgb(63.921569%,65.098039%,83.921569%);fill-opacity:1;" d="M 240.445312 155.015625 L 238.90625 154.128906 L 241.167969 151.097656 L 243.433594 148.066406 L 241.9375 151.542969 Z M 240.445312 155.015625 "/>
<path style=" stroke:none;fill-rule:nonzero;fill:rgb(65.490196%,71.372549%,89.019608%);fill-opacity:1;" d="M 237.96875 154.996094 L 236.503906 153.53125 L 239.96875 150.800781 L 243.433594 148.066406 L 240.699219 151.53125 Z M 237.96875 154.996094 "/>
<path style=" stroke:none;fill-rule:nonzero;fill:rgb(69.411765%,81.176471%,96.078431%);fill-opacity:1;" d="M 231.3125 157.117188 L 229.535156 154.039062 L 233.007812 152.546875 L 236.484375 151.054688 L 239.957031 149.5625 L 243.433594 148.066406 L 240.402344 150.332031 L 234.339844 154.855469 Z M 231.3125 157.117188 "/>
<path style=" stroke:none;fill-rule:nonzero;fill:rgb(66.27451%,74.117647%,91.372549%);fill-opacity:1;" d="M 218.257812 158.109375 L 216.609375 151.957031 L 219.960938 151.472656 L 223.316406 150.984375 L 226.667969 150.5 L 230.019531 150.011719 L 233.375 149.527344 L 236.726562 149.039062 L 240.078125 148.554688 L 243.433594 148.066406 L 240.285156 149.324219 L 237.140625 150.578125 L 233.992188 151.835938 L 230.84375 153.089844 L 227.699219 154.34375 L 224.550781 155.601562 L 221.40625 156.855469 Z M 218.257812 158.109375 "/>
<path style=" stroke:none;fill-rule:nonzero;fill:rgb(65.490196%,72.156863%,89.803922%);fill-opacity:1;" d="M 149.542969 159.179688 L 149.179688 155.484375 L 148.960938 151.78125 L 148.886719 148.066406 L 148.960938 144.355469 L 149.179688 140.648438 L 149.542969 136.957031 L 159.257812 138.105469 L 162.492188 138.488281 L 175.445312 140.019531 L 178.679688 140.402344 L 181.917969 140.789062 L 191.632812 141.9375 L 194.867188 142.320312 L 211.058594 144.234375 L 214.292969 144.621094 L 227.246094 146.152344 L 230.480469 146.535156 L 243.433594 148.066406 L 240.195312 148.449219 L 236.957031 148.835938 L 230.480469 149.601562 L 227.246094 149.984375 L 214.292969 151.515625 L 211.058594 151.898438 L 207.820312 152.28125 L 204.582031 152.667969 L 194.867188 153.816406 L 191.632812 154.199219 L 178.679688 155.730469 L 175.445312 156.113281 L 172.207031 156.496094 L 168.96875 156.882812 L 162.492188 157.648438 L 159.257812 158.03125 Z M 149.542969 159.179688 "/>
<path style=" stroke:none;fill-rule:nonzero;fill:rgb(65.098039%,69.803922%,87.843137%);fill-opacity:1;" d="M 157.351562 135.585938 L 157.90625 132.21875 L 158.597656 128.871094 L 159.414062 125.554688 L 160.363281 122.273438 L 161.441406 119.03125 L 162.644531 115.835938 L 165.636719 117.03125 L 168.628906 118.222656 L 174.613281 120.613281 L 177.605469 121.804688 L 180.597656 123 L 183.589844 124.191406 L 189.574219 126.582031 L 192.566406 127.773438 L 195.558594 128.96875 L 198.550781 130.160156 L 204.535156 132.550781 L 207.527344 133.742188 L 210.519531 134.9375 L 213.511719 136.128906 L 219.496094 138.519531 L 222.488281 139.710938 L 225.480469 140.90625 L 228.472656 142.097656 L 234.457031 144.488281 L 237.449219 145.679688 L 240.441406 146.875 L 243.433594 148.066406 L 240.242188 147.605469 L 237.054688 147.144531 L 233.867188 146.679688 L 227.492188 145.757812 L 224.304688 145.292969 L 221.113281 144.832031 L 217.925781 144.371094 L 214.738281 143.90625 L 208.363281 142.984375 L 205.175781 142.519531 L 201.984375 142.058594 L 198.796875 141.597656 L 195.609375 141.132812 L 189.234375 140.210938 L 186.046875 139.746094 L 182.855469 139.285156 L 179.667969 138.824219 L 176.480469 138.359375 L 170.105469 137.4375 L 166.917969 136.972656 L 163.726562 136.511719 L 160.539062 136.050781 Z M 157.351562 135.585938 "/>
<path style=" stroke:none;fill-rule:nonzero;fill:rgb(65.490196%,72.54902%,89.803922%);fill-opacity:1;" d="M 191.890625 125.925781 L 193.285156 122.929688 L 194.851562 120.019531 L 196.585938 117.207031 L 198.484375 114.503906 L 201.128906 116.480469 L 206.417969 120.425781 L 209.0625 122.402344 L 211.703125 124.375 L 214.347656 126.351562 L 216.992188 128.324219 L 219.636719 130.300781 L 224.925781 134.246094 L 227.570312 136.222656 L 230.210938 138.195312 L 232.855469 140.171875 L 235.5 142.144531 L 238.144531 144.121094 L 243.433594 148.066406 L 240.398438 146.765625 L 237.367188 145.460938 L 231.304688 142.859375 L 228.273438 141.554688 L 225.242188 140.253906 L 222.210938 138.949219 L 219.179688 137.648438 L 216.144531 136.34375 L 213.113281 135.042969 L 210.082031 133.738281 L 207.050781 132.4375 L 204.019531 131.132812 L 197.957031 128.53125 L 194.921875 127.226562 Z M 191.890625 125.925781 "/>
<path style=" stroke:none;fill-rule:nonzero;fill:rgb(66.27451%,74.509804%,91.764706%);fill-opacity:1;" d="M 213.734375 124.65625 L 216.691406 121.328125 L 220.019531 118.367188 L 222.148438 121.070312 L 226.40625 126.46875 L 228.53125 129.167969 L 230.660156 131.867188 L 232.789062 134.570312 L 243.433594 148.066406 L 240.730469 145.9375 L 238.03125 143.8125 L 227.234375 135.296875 L 224.53125 133.167969 L 219.132812 128.910156 L 216.433594 126.785156 Z M 213.734375 124.65625 "/>
<path style=" stroke:none;fill-rule:nonzero;fill:rgb(68.235294%,79.215686%,94.901961%);fill-opacity:1;" d="M 215.523438 110.695312 L 218.542969 108.621094 L 221.714844 106.789062 L 225.019531 105.214844 L 226.335938 108.273438 L 227.652344 111.335938 L 228.964844 114.398438 L 230.28125 117.457031 L 231.597656 120.519531 L 232.910156 123.578125 L 235.542969 129.703125 L 236.855469 132.761719 L 239.488281 138.886719 L 240.800781 141.945312 L 242.117188 145.007812 L 243.433594 148.066406 L 241.4375 145.398438 L 239.445312 142.730469 L 237.453125 140.058594 L 235.457031 137.390625 L 233.464844 134.722656 L 231.472656 132.050781 L 229.480469 129.382812 L 227.484375 126.710938 L 223.5 121.375 L 221.503906 118.703125 L 217.519531 113.367188 Z M 215.523438 110.695312 "/>
<path style=" stroke:none;fill-rule:nonzero;fill:rgb(70.980392%,85.098039%,98.823529%);fill-opacity:1;" d="M 231.753906 118.796875 L 235.277344 117.628906 L 238.910156 116.878906 L 239.414062 120.34375 L 239.914062 123.808594 L 240.417969 127.277344 L 240.917969 130.742188 L 241.925781 137.671875 L 242.425781 141.136719 L 243.433594 148.066406 L 242.132812 144.816406 L 240.835938 141.5625 L 239.539062 138.3125 L 236.945312 131.804688 L 235.648438 128.554688 L 234.347656 125.300781 L 233.050781 122.050781 Z M 231.753906 118.796875 "/>
<path style=" stroke:none;fill-rule:nonzero;fill:rgb(70.588235%,83.921569%,98.039216%);fill-opacity:1;" d="M 238.839844 109.261719 L 243.433594 108.988281 L 248.023438 109.261719 L 247.640625 112.496094 L 247.257812 115.726562 L 246.878906 118.960938 L 244.199219 141.601562 L 243.816406 144.832031 L 243.433594 148.066406 L 243.050781 144.832031 L 242.667969 141.601562 L 239.605469 115.726562 L 239.222656 112.496094 Z M 238.839844 109.261719 "/>
<path style=" stroke:none;fill-rule:nonzero;fill:rgb(69.411765%,81.568627%,96.470588%);fill-opacity:1;" d="M 248.679688 111.890625 L 252.894531 112.757812 L 256.980469 114.113281 L 255.746094 117.199219 L 254.515625 120.285156 L 253.285156 123.375 L 252.050781 126.460938 L 249.589844 132.632812 L 248.359375 135.722656 L 247.125 138.808594 L 243.433594 148.066406 L 245.816406 131.621094 L 246.292969 128.335938 L 248.199219 115.179688 Z M 248.679688 111.890625 "/>
<path style=" stroke:none;fill-rule:nonzero;fill:rgb(68.627451%,79.607843%,94.901961%);fill-opacity:1;" d="M 258.609375 112.742188 L 262.65625 114.769531 L 266.4375 117.261719 L 262.601562 122.394531 L 260.683594 124.964844 L 258.769531 127.53125 L 253.015625 135.230469 L 251.101562 137.800781 L 245.347656 145.5 L 243.433594 148.066406 L 244.695312 145.125 L 245.960938 142.179688 L 247.226562 139.238281 L 249.757812 133.347656 L 251.019531 130.40625 L 253.550781 124.515625 L 254.816406 121.574219 L 256.078125 118.628906 L 257.34375 115.6875 Z M 258.609375 112.742188 "/>
<path style=" stroke:none;fill-rule:nonzero;fill:rgb(64.705882%,68.235294%,86.666667%);fill-opacity:1;" d="M 271.917969 111.933594 L 274.664062 114.28125 L 277.21875 116.835938 L 279.566406 119.582031 L 274.402344 123.652344 L 271.824219 125.6875 L 269.242188 127.722656 L 266.660156 129.753906 L 264.078125 131.789062 L 261.5 133.824219 L 256.335938 137.894531 L 253.757812 139.929688 L 248.59375 144 L 246.011719 146.03125 L 243.433594 148.066406 L 245.46875 145.488281 L 247.5 142.90625 L 251.570312 137.742188 L 253.605469 135.164062 L 257.675781 130 L 259.710938 127.421875 L 261.746094 124.839844 L 263.777344 122.257812 L 265.8125 119.675781 L 267.847656 117.097656 Z M 271.917969 111.933594 "/>
<path style=" stroke:none;fill-rule:nonzero;fill:rgb(65.882353%,73.333333%,90.588235%);fill-opacity:1;" d="M 302.015625 104.320312 L 304.011719 107.128906 L 305.871094 110.027344 L 307.59375 113.011719 L 309.175781 116.074219 L 310.609375 119.207031 L 304.5 121.832031 L 301.449219 123.140625 L 295.339844 125.765625 L 292.289062 127.078125 L 286.179688 129.703125 L 283.128906 131.011719 L 277.019531 133.636719 L 273.96875 134.949219 L 267.859375 137.574219 L 264.804688 138.882812 L 261.753906 140.195312 L 255.644531 142.820312 L 252.59375 144.132812 L 246.484375 146.757812 L 243.433594 148.066406 L 246.09375 146.078125 L 251.421875 142.101562 L 254.082031 140.113281 L 259.410156 136.136719 L 262.070312 134.148438 L 270.0625 128.183594 L 272.722656 126.195312 L 278.050781 122.21875 L 280.710938 120.230469 L 286.039062 116.253906 L 288.699219 114.265625 L 294.027344 110.289062 L 296.6875 108.300781 L 299.351562 106.308594 Z M 302.015625 104.320312 "/>
<path style=" stroke:none;fill-rule:nonzero;fill:rgb(66.666667%,75.686275%,92.54902%);fill-opacity:1;" d="M 292.023438 128.683594 L 293.394531 132.554688 L 294.457031 136.523438 L 295.203125 140.5625 L 288.734375 141.5 L 285.496094 141.96875 L 279.027344 142.90625 L 275.789062 143.375 L 272.554688 143.84375 L 269.320312 144.316406 L 266.082031 144.785156 L 262.847656 145.253906 L 259.609375 145.722656 L 253.140625 146.660156 L 249.902344 147.128906 L 243.433594 148.066406 L 246.46875 146.855469 L 249.507812 145.644531 L 255.578125 143.222656 L 258.617188 142.011719 L 261.652344 140.796875 L 264.691406 139.585938 L 267.726562 138.375 L 270.765625 137.164062 L 276.835938 134.742188 L 279.875 133.527344 L 282.910156 132.316406 L 285.949219 131.105469 L 288.984375 129.894531 Z M 292.023438 128.683594 "/>
<path style=" stroke:none;fill-rule:nonzero;fill:rgb(66.27451%,74.509804%,91.372549%);fill-opacity:1;" d="M 291.628906 142.363281 L 291.925781 146.164062 L 291.925781 149.972656 L 291.628906 153.773438 L 288.414062 153.390625 L 285.203125 153.011719 L 281.988281 152.632812 L 278.777344 152.25 L 275.5625 151.871094 L 272.351562 151.492188 L 269.136719 151.109375 L 265.921875 150.730469 L 262.710938 150.351562 L 259.496094 149.96875 L 256.285156 149.589844 L 253.070312 149.207031 L 249.859375 148.828125 L 246.644531 148.449219 L 243.433594 148.066406 L 246.644531 147.6875 L 249.859375 147.308594 L 253.070312 146.925781 L 256.285156 146.546875 L 259.496094 146.167969 L 262.710938 145.785156 L 265.921875 145.40625 L 269.136719 145.027344 L 272.351562 144.644531 L 275.5625 144.265625 L 278.777344 143.882812 L 281.988281 143.503906 L 285.203125 143.125 L 288.414062 142.742188 Z M 291.628906 142.363281 "/>
<path style=" stroke:none;fill-rule:nonzero;fill:rgb(67.45098%,77.254902%,93.333333%);fill-opacity:1;" d="M 252.164062 149.335938 L 251.628906 151.335938 L 247.53125 149.703125 L 243.433594 148.066406 L 247.796875 148.699219 Z M 252.164062 149.335938 "/>
<path style=" stroke:none;fill-rule:nonzero;fill:rgb(70.588235%,83.921569%,98.039216%);fill-opacity:1;" d="M 246.90625 149.5625 L 246.460938 150.332031 L 243.433594 148.066406 Z M 246.90625 149.5625 "/>
<path style=" stroke:none;fill-rule:nonzero;fill:rgb(64.705882%,67.843137%,86.27451%);fill-opacity:1;" d="M 247.390625 151.191406 L 246.554688 152.027344 L 243.433594 148.066406 Z M 247.390625 151.191406 "/>
<path style=" stroke:none;fill-rule:nonzero;fill:rgb(63.921569%,65.490196%,84.313725%);fill-opacity:1;" d="M 246.449219 152.109375 L 245.421875 152.699219 L 243.433594 148.066406 Z M 246.449219 152.109375 "/>
<path style=" stroke:none;fill-rule:nonzero;fill:rgb(64.705882%,67.843137%,86.27451%);fill-opacity:1;" d="M 244.367188 150.410156 L 243.792969 150.5625 L 243.433594 148.066406 Z M 244.367188 150.410156 "/>
</g>
</svg>
