<?xml version="1.0" encoding="UTF-8"?>
<svg xmlns="http://www.w3.org/2000/svg" xmlns:xlink="http://www.w3.org/1999/xlink" width="484pt" height="299pt" viewBox="0 0 484 299" version="1.1">
<g id="surface23">
<rect x="0" y="0" width="484" height="299" style="fill:rgb(100%,100%,100%);fill-opacity:1;stroke:none;"/>
<path style=" stroke:none;fill-rule:nonzero;fill:rgb(64.313725%,67.058824%,85.490196%);fill-opacity:1;" d="M 243.101562 150.34375 L 242.578125 150.203125 L 243.433594 148.066406 Z M 243.101562 150.34375 "/>
<path style=" stroke:none;fill-rule:nonzero;fill:rgb(61.960784%,52.941176%,72.156863%);fill-opacity:1;" d="M 242.523438 150.179688 L 242.054688 149.910156 L 243.433594 148.066406 Z M 242.523438 150.179688 "/>
<path style=" stroke:none;fill-rule:nonzero;fill:rgb(63.921569%,66.27451%,84.705882%);fill-opacity:1;" d="M 242.800781 148.871094 L 242.628906 148.699219 L 243.433594 148.066406 Z M 242.800781 148.871094 "/>
<path style=" stroke:none;fill-rule:nonzero;fill:rgb(70.980392%,85.098039%,98.823529%);fill-opacity:1;" d="M 242.816406 148.527344 L 242.726562 148.371094 L 243.433594 148.066406 Z M 242.816406 148.527344 "/>
<path style=" stroke:none;fill-rule:nonzero;fill:rgb(65.882353%,74.117647%,91.372549%);fill-opacity:1;" d="M 241.296875 148.921875 L 241.15625 148.398438 L 243.433594 148.066406 Z M 241.296875 148.921875 "/>
<path style=" stroke:none;fill-rule:nonzero;fill:rgb(66.666667%,75.294118%,92.156863%);fill-opacity:1;" d="M 236.074219 148.9375 L 236.074219 147.195312 L 239.753906 147.632812 L 243.433594 148.066406 L 239.753906 148.503906 Z M 236.074219 148.9375 "/>
<path style=" stroke:none;fill-rule:nonzero;fill:rgb(64.705882%,67.843137%,86.27451%);fill-opacity:1;" d="M 209.800781 143.191406 L 210.605469 139.273438 L 211.867188 135.472656 L 215.023438 136.734375 L 218.179688 137.992188 L 221.335938 139.253906 L 227.648438 141.769531 L 230.804688 143.03125 L 233.960938 144.289062 L 237.117188 145.550781 L 240.277344 146.808594 L 243.433594 148.066406 L 240.070312 147.582031 L 219.890625 144.652344 L 216.527344 144.167969 Z M 209.800781 143.191406 "/>
<path style=" stroke:none;fill-rule:nonzero;fill:rgb(63.529412%,63.137255%,82.352941%);fill-opacity:1;" d="M 194.363281 126.988281 L 196.167969 123.203125 L 198.265625 119.570312 L 200.640625 116.113281 L 203.316406 118.113281 L 205.992188 120.109375 L 208.664062 122.105469 L 211.339844 124.101562 L 214.011719 126.101562 L 219.363281 130.09375 L 222.035156 132.089844 L 224.710938 134.089844 L 227.386719 136.085938 L 230.058594 138.082031 L 232.734375 140.078125 L 235.410156 142.078125 L 238.082031 144.074219 L 243.433594 148.066406 L 240.367188 146.75 L 237.296875 145.433594 L 234.230469 144.113281 L 225.03125 140.164062 L 221.964844 138.84375 L 215.832031 136.210938 L 212.765625 134.890625 L 203.566406 130.941406 L 200.496094 129.621094 Z M 194.363281 126.988281 "/>
<path style=" stroke:none;fill-rule:nonzero;fill:rgb(63.529412%,63.529412%,82.745098%);fill-opacity:1;" d="M 194.46875 109.46875 L 196.828125 106.652344 L 199.34375 103.980469 L 202.015625 101.460938 L 204.832031 99.105469 L 206.863281 101.683594 L 208.894531 104.257812 L 210.925781 106.835938 L 212.960938 109.414062 L 214.992188 111.988281 L 221.085938 119.722656 L 223.117188 122.296875 L 227.179688 127.453125 L 229.210938 130.027344 L 235.304688 137.761719 L 237.335938 140.335938 L 239.367188 142.914062 L 241.402344 145.492188 L 243.433594 148.066406 L 235.699219 141.972656 L 233.125 139.941406 L 227.96875 135.878906 L 225.394531 133.847656 L 220.238281 129.785156 L 217.664062 127.753906 L 215.085938 125.722656 L 212.507812 123.6875 L 209.929688 121.65625 L 207.355469 119.625 L 202.199219 115.5625 L 199.625 113.53125 Z M 194.46875 109.46875 "/>
<path style=" stroke:none;fill-rule:nonzero;fill:rgb(63.529412%,63.529412%,82.352941%);fill-opacity:1;" d="M 212.394531 106.503906 L 215.753906 104.199219 L 219.28125 102.164062 L 222.957031 100.410156 L 224.234375 103.386719 L 225.515625 106.367188 L 226.796875 109.34375 L 228.074219 112.324219 L 229.355469 115.300781 L 230.632812 118.28125 L 231.914062 121.257812 L 233.195312 124.238281 L 234.472656 127.21875 L 235.753906 130.195312 L 237.035156 133.175781 L 238.3125 136.152344 L 239.59375 139.132812 L 240.871094 142.109375 L 242.152344 145.089844 L 243.433594 148.066406 L 239.550781 142.871094 L 237.613281 140.273438 L 235.671875 137.675781 L 233.734375 135.078125 L 231.792969 132.480469 L 229.855469 129.882812 L 225.972656 124.6875 L 224.035156 122.089844 L 222.09375 119.492188 L 220.15625 116.894531 L 218.214844 114.296875 L 216.277344 111.699219 Z M 212.394531 106.503906 "/>
<path style=" stroke:none;fill-rule:nonzero;fill:rgb(63.529412%,63.529412%,82.745098%);fill-opacity:1;" d="M 226.957031 106.773438 L 230.246094 105.605469 L 233.621094 104.703125 L 237.050781 104.066406 L 237.542969 107.453125 L 238.035156 110.835938 L 238.523438 114.222656 L 239.015625 117.605469 L 239.507812 120.992188 L 239.996094 124.375 L 240.488281 127.757812 L 240.976562 131.144531 L 241.46875 134.527344 L 241.960938 137.914062 L 242.449219 141.296875 L 242.941406 144.683594 L 243.433594 148.066406 L 242.164062 144.890625 L 240.898438 141.714844 L 239.628906 138.539062 L 238.363281 135.363281 L 237.09375 132.183594 L 234.5625 125.832031 L 233.292969 122.65625 L 232.027344 119.476562 L 230.757812 116.300781 L 229.492188 113.125 L 228.222656 109.949219 Z M 226.957031 106.773438 "/>
<path style=" stroke:none;fill-rule:nonzero;fill:rgb(64.313725%,67.058824%,85.490196%);fill-opacity:1;" d="M 237.785156 100.363281 L 241.546875 100.066406 L 245.316406 100.066406 L 249.078125 100.363281 L 248.703125 103.542969 L 248.324219 106.722656 L 247.574219 113.082031 L 247.195312 116.265625 L 246.445312 122.625 L 246.066406 125.804688 L 245.691406 128.984375 L 245.3125 132.164062 L 244.9375 135.347656 L 244.5625 138.527344 L 244.183594 141.707031 L 243.433594 148.066406 L 243.054688 144.886719 L 242.304688 138.527344 L 241.925781 135.347656 L 241.550781 132.164062 L 241.171875 128.984375 L 240.421875 122.625 L 240.042969 119.445312 L 239.667969 116.265625 L 239.292969 113.082031 L 238.914062 109.902344 L 238.164062 103.542969 Z M 237.785156 100.363281 "/>
<path style=" stroke:none;fill-rule:nonzero;fill:rgb(65.098039%,69.411765%,87.45098%);fill-opacity:1;" d="M 249.847656 103.8125 L 253.300781 104.453125 L 256.691406 105.363281 L 260.003906 106.535156 L 258.726562 109.730469 L 256.179688 116.121094 L 254.902344 119.3125 L 252.355469 125.703125 L 251.078125 128.898438 L 247.257812 138.484375 L 245.980469 141.679688 L 244.707031 144.871094 L 243.433594 148.066406 L 243.925781 144.664062 L 244.417969 141.257812 L 244.914062 137.855469 L 245.40625 134.453125 L 245.898438 131.046875 L 246.394531 127.644531 L 246.886719 124.238281 L 247.378906 120.835938 L 247.875 117.429688 L 248.367188 114.027344 L 248.863281 110.621094 L 249.355469 107.21875 Z M 249.847656 103.8125 "/>
<path style=" stroke:none;fill-rule:nonzero;fill:rgb(63.921569%,66.27451%,84.705882%);fill-opacity:1;" d="M 259.269531 111.207031 L 263.492188 113.324219 L 267.433594 115.921875 L 261.433594 123.960938 L 259.433594 126.636719 L 253.433594 134.675781 L 251.433594 137.351562 L 245.433594 145.390625 L 243.433594 148.066406 L 244.75 144.996094 L 246.070312 141.925781 L 247.390625 138.851562 L 250.03125 132.710938 L 251.351562 129.636719 L 252.667969 126.566406 L 253.988281 123.496094 L 255.308594 120.421875 L 257.949219 114.28125 Z M 259.269531 111.207031 "/>
<path style=" stroke:none;fill-rule:nonzero;fill:rgb(63.529412%,64.705882%,83.529412%);fill-opacity:1;" d="M 269.535156 114.957031 L 272.050781 117.109375 L 274.390625 119.449219 L 276.542969 121.964844 L 243.433594 148.066406 Z M 269.535156 114.957031 "/>
<path style=" stroke:none;fill-rule:nonzero;fill:rgb(62.352941%,55.686275%,74.901961%);fill-opacity:1;" d="M 278.238281 122.078125 L 280.167969 124.886719 L 281.875 127.84375 L 283.34375 130.921875 L 280.273438 132.238281 L 274.132812 134.878906 L 271.0625 136.195312 L 264.921875 138.835938 L 261.851562 140.152344 L 255.710938 142.792969 L 252.640625 144.109375 L 249.574219 145.429688 L 246.503906 146.75 L 243.433594 148.066406 L 246.109375 146.070312 L 248.785156 144.070312 L 251.464844 142.070312 L 254.140625 140.070312 L 256.820312 138.070312 L 259.496094 136.070312 L 262.171875 134.074219 L 264.851562 132.074219 L 267.527344 130.074219 L 270.207031 128.074219 L 272.882812 126.074219 L 275.558594 124.078125 Z M 278.238281 122.078125 "/>
<path style=" stroke:none;fill-rule:nonzero;fill:rgb(61.960784%,51.764706%,71.372549%);fill-opacity:1;" d="M 301.339844 124.964844 L 302.601562 128.414062 L 303.65625 131.929688 L 304.5 135.503906 L 305.136719 139.121094 L 301.886719 139.59375 L 298.640625 140.0625 L 295.390625 140.535156 L 292.144531 141.003906 L 288.898438 141.476562 L 285.648438 141.945312 L 282.402344 142.417969 L 279.15625 142.886719 L 275.90625 143.359375 L 272.660156 143.828125 L 269.414062 144.300781 L 266.164062 144.773438 L 262.917969 145.242188 L 259.667969 145.714844 L 256.421875 146.183594 L 253.175781 146.65625 L 249.925781 147.125 L 246.679688 147.597656 L 243.433594 148.066406 L 252.574219 144.421875 L 255.625 143.203125 L 261.71875 140.773438 L 264.765625 139.554688 L 267.816406 138.339844 L 270.863281 137.125 L 273.910156 135.90625 L 276.957031 134.691406 L 280.007812 133.476562 L 283.054688 132.261719 L 286.101562 131.042969 L 289.148438 129.828125 L 292.199219 128.613281 L 295.246094 127.394531 Z M 301.339844 124.964844 "/>
<path style=" stroke:none;fill-rule:nonzero;fill:rgb(62.352941%,54.117647%,73.72549%);fill-opacity:1;" d="M 337.320312 136.957031 L 337.683594 140.648438 L 337.902344 144.355469 L 337.976562 148.066406 L 337.902344 151.78125 L 337.683594 155.484375 L 337.320312 159.179688 L 330.84375 158.414062 L 327.609375 158.03125 L 317.894531 156.882812 L 314.65625 156.496094 L 311.421875 156.113281 L 298.46875 154.582031 L 295.234375 154.199219 L 282.28125 152.667969 L 279.046875 152.28125 L 262.855469 150.367188 L 259.621094 149.984375 L 249.90625 148.835938 L 246.667969 148.449219 L 243.433594 148.066406 L 246.667969 147.683594 L 259.621094 146.152344 L 262.855469 145.769531 L 272.570312 144.621094 L 275.808594 144.234375 L 279.046875 143.851562 L 282.28125 143.46875 L 295.234375 141.9375 L 298.46875 141.554688 L 304.945312 140.789062 L 308.183594 140.402344 L 311.421875 140.019531 L 314.65625 139.636719 L 327.609375 138.105469 L 330.84375 137.722656 Z M 337.320312 136.957031 "/>
<path style=" stroke:none;fill-rule:nonzero;fill:rgb(62.745098%,58.823529%,78.039216%);fill-opacity:1;" d="M 309.941406 157.710938 L 309.257812 161.609375 L 308.34375 165.460938 L 307.207031 169.253906 L 305.851562 172.96875 L 302.878906 171.785156 L 299.90625 170.597656 L 296.933594 169.414062 L 293.960938 168.226562 L 290.988281 167.042969 L 285.042969 164.667969 L 282.070312 163.484375 L 279.101562 162.296875 L 276.128906 161.113281 L 273.15625 159.925781 L 270.183594 158.742188 L 264.238281 156.367188 L 261.265625 155.183594 L 258.292969 153.996094 L 255.320312 152.8125 L 252.347656 151.625 L 249.375 150.441406 L 246.40625 149.253906 L 243.433594 148.066406 L 246.597656 148.527344 L 249.765625 148.984375 L 256.101562 149.90625 L 259.265625 150.363281 L 262.433594 150.824219 L 265.601562 151.28125 L 268.769531 151.742188 L 271.933594 152.199219 L 275.101562 152.660156 L 278.269531 153.117188 L 281.4375 153.578125 L 284.601562 154.039062 L 287.769531 154.496094 L 290.9375 154.957031 L 294.105469 155.414062 L 297.269531 155.875 L 300.4375 156.332031 L 303.605469 156.792969 L 306.773438 157.25 Z M 309.941406 157.710938 "/>
<path style=" stroke:none;fill-rule:nonzero;fill:rgb(63.137255%,60.392157%,79.607843%);fill-opacity:1;" d="M 273.484375 160.980469 L 271.757812 164.421875 L 269.640625 167.636719 L 248.671875 151.980469 L 246.054688 150.023438 L 243.433594 148.066406 L 246.4375 149.359375 L 249.441406 150.648438 L 252.449219 151.941406 L 255.453125 153.230469 L 258.457031 154.523438 L 261.460938 155.8125 L 264.46875 157.105469 L 267.472656 158.398438 L 270.476562 159.6875 Z M 273.484375 160.980469 "/>
<path style=" stroke:none;fill-rule:nonzero;fill:rgb(61.960784%,52.54902%,71.764706%);fill-opacity:1;" d="M 260.085938 161.199219 L 256.5625 164.722656 L 254.375 161.949219 L 252.183594 159.171875 L 249.996094 156.394531 L 247.808594 153.621094 L 243.433594 148.066406 L 246.207031 150.257812 L 251.761719 154.632812 L 254.535156 156.820312 L 257.3125 159.007812 Z M 260.085938 161.199219 "/>
<path style=" stroke:none;fill-rule:nonzero;fill:rgb(61.568627%,50.588235%,70.196078%);fill-opacity:1;" d="M 251.839844 159.328125 L 248.980469 160.980469 L 247.59375 157.753906 L 246.207031 154.523438 L 244.820312 151.296875 L 243.433594 148.066406 L 247.636719 153.699219 L 249.738281 156.511719 Z M 251.839844 159.328125 "/>
<path style=" stroke:none;fill-rule:nonzero;fill:rgb(61.568627%,50.980392%,70.588235%);fill-opacity:1;" d="M 245.800781 154 L 244.347656 154.390625 L 243.433594 148.066406 Z M 245.800781 154 "/>
</g>
</svg>
