<?xml version="1.0" encoding="UTF-8"?>
<svg xmlns="http://www.w3.org/2000/svg" xmlns:xlink="http://www.w3.org/1999/xlink" width="484pt" height="299pt" viewBox="0 0 484 299" version="1.1">
<g id="surface107">
<rect x="0" y="0" width="484" height="299" style="fill:rgb(100%,100%,100%);fill-opacity:1;stroke:none;"/>
<path style=" stroke:none;fill-rule:nonzero;fill:rgb(65.098039%,70.980392%,88.627451%);fill-opacity:1;" d="M 234.304688 211.027344 L 230.613281 210.382812 L 226.964844 209.519531 L 223.378906 208.441406 L 219.859375 207.15625 L 221.097656 204.046875 L 223.582031 197.828125 L 224.820312 194.71875 L 226.0625 191.605469 L 227.300781 188.496094 L 229.785156 182.277344 L 231.023438 179.167969 L 233.507812 172.949219 L 234.746094 169.835938 L 235.988281 166.726562 L 237.226562 163.617188 L 239.710938 157.398438 L 240.949219 154.289062 L 242.191406 151.179688 L 243.433594 148.066406 L 242.953125 151.382812 L 241.992188 158.007812 L 241.511719 161.324219 L 240.070312 171.261719 L 239.589844 174.578125 L 238.628906 181.203125 L 238.148438 184.519531 L 237.1875 191.144531 L 236.707031 194.460938 L 235.746094 201.085938 L 235.265625 204.402344 Z M 234.304688 211.027344 "/>
<path style=" stroke:none;fill-rule:nonzero;fill:rgb(64.313725%,67.058824%,85.490196%);fill-opacity:1;" d="M 217.96875 207.332031 L 214.527344 205.730469 L 211.179688 203.929688 L 207.949219 201.933594 L 204.839844 199.75 L 206.769531 197.167969 L 210.628906 191.996094 L 212.558594 189.414062 L 214.488281 186.828125 L 216.417969 184.246094 L 218.347656 181.660156 L 220.277344 179.078125 L 222.207031 176.492188 L 224.136719 173.910156 L 226.066406 171.324219 L 227.996094 168.742188 L 229.925781 166.15625 L 231.855469 163.574219 L 233.785156 160.988281 L 235.714844 158.40625 L 239.574219 153.234375 L 241.503906 150.652344 L 243.433594 148.066406 L 240.886719 153.996094 L 239.613281 156.957031 L 238.339844 159.921875 L 237.066406 162.882812 L 235.792969 165.847656 L 234.519531 168.808594 L 231.972656 174.738281 L 230.703125 177.699219 L 229.429688 180.664062 L 228.15625 183.625 L 226.882812 186.589844 L 225.609375 189.550781 L 223.0625 195.480469 L 221.789062 198.441406 L 220.515625 201.40625 L 219.242188 204.367188 Z M 217.96875 207.332031 "/>
<path style=" stroke:none;fill-rule:nonzero;fill:rgb(63.921569%,65.490196%,84.313725%);fill-opacity:1;" d="M 211.15625 189.007812 L 208.046875 186.347656 L 205.152344 183.453125 L 202.492188 180.34375 L 205.050781 178.324219 L 207.609375 176.308594 L 210.167969 174.289062 L 215.285156 170.257812 L 217.84375 168.238281 L 222.960938 164.207031 L 225.519531 162.1875 L 228.078125 160.171875 L 230.636719 158.152344 L 233.195312 156.136719 L 235.757812 154.121094 L 238.316406 152.101562 L 240.875 150.085938 L 243.433594 148.066406 L 241.414062 150.625 L 239.398438 153.183594 L 237.378906 155.742188 L 235.363281 158.304688 L 233.347656 160.863281 L 231.328125 163.421875 L 229.3125 165.980469 L 227.292969 168.539062 L 223.261719 173.65625 L 221.242188 176.214844 L 217.210938 181.332031 L 215.191406 183.890625 L 213.175781 186.449219 Z M 211.15625 189.007812 "/>
<path style=" stroke:none;fill-rule:nonzero;fill:rgb(63.137255%,61.568627%,80.784314%);fill-opacity:1;" d="M 187.5 189.832031 L 185.597656 187.152344 L 183.820312 184.382812 L 182.175781 181.535156 L 180.667969 178.613281 L 179.296875 175.621094 L 182.351562 174.308594 L 185.40625 173 L 188.460938 171.6875 L 191.511719 170.375 L 206.785156 163.8125 L 209.835938 162.5 L 215.945312 159.875 L 219 158.566406 L 225.109375 155.941406 L 228.160156 154.628906 L 243.433594 148.066406 L 240.769531 150.058594 L 232.777344 156.023438 L 230.117188 158.011719 L 222.125 163.976562 L 219.460938 165.96875 L 216.796875 167.957031 L 214.136719 169.945312 L 203.480469 177.898438 L 200.820312 179.890625 Z M 187.5 189.832031 "/>
<path style=" stroke:none;fill-rule:nonzero;fill:rgb(62.352941%,55.686275%,74.901961%);fill-opacity:1;" d="M 155.617188 183.101562 L 154.3125 179.628906 L 153.140625 176.105469 L 152.109375 172.539062 L 151.21875 168.933594 L 150.472656 165.296875 L 149.867188 161.632812 L 153.09375 161.167969 L 162.773438 159.761719 L 166 159.296875 L 175.679688 157.890625 L 178.902344 157.425781 L 188.582031 156.019531 L 191.808594 155.554688 L 204.714844 153.679688 L 207.941406 153.214844 L 217.621094 151.808594 L 220.847656 151.34375 L 230.527344 149.9375 L 233.753906 149.472656 L 243.433594 148.066406 L 240.402344 149.277344 L 231.320312 152.898438 L 228.292969 154.109375 L 225.265625 155.316406 L 222.234375 156.523438 L 219.207031 157.730469 L 216.179688 158.941406 L 210.125 161.355469 L 207.09375 162.566406 L 198.011719 166.1875 L 194.984375 167.398438 L 191.957031 168.605469 L 188.925781 169.8125 L 185.898438 171.019531 L 182.871094 172.230469 L 176.816406 174.644531 L 173.785156 175.851562 L 170.757812 177.0625 L 164.703125 179.476562 L 161.675781 180.6875 L 158.648438 181.894531 Z M 155.617188 183.101562 "/>
<path style=" stroke:none;fill-rule:nonzero;fill:rgb(63.529412%,63.529412%,82.352941%);fill-opacity:1;" d="M 164.460938 157.414062 L 164.109375 153.683594 L 163.929688 149.941406 L 163.929688 146.195312 L 164.109375 142.453125 L 164.460938 138.722656 L 167.75 139.109375 L 171.042969 139.5 L 174.332031 139.890625 L 177.621094 140.277344 L 180.914062 140.667969 L 184.203125 141.058594 L 187.492188 141.445312 L 190.785156 141.835938 L 194.074219 142.226562 L 197.367188 142.617188 L 200.65625 143.003906 L 203.945312 143.394531 L 207.238281 143.785156 L 210.527344 144.171875 L 213.816406 144.5625 L 217.109375 144.953125 L 220.398438 145.339844 L 223.6875 145.730469 L 226.980469 146.121094 L 230.269531 146.511719 L 233.5625 146.898438 L 240.140625 147.679688 L 243.433594 148.066406 L 240.140625 148.457031 L 236.851562 148.847656 L 233.5625 149.234375 L 230.269531 149.625 L 226.980469 150.015625 L 223.6875 150.40625 L 220.398438 150.792969 L 217.109375 151.183594 L 213.816406 151.574219 L 210.527344 151.960938 L 207.238281 152.351562 L 203.945312 152.742188 L 200.65625 153.128906 L 197.367188 153.519531 L 194.074219 153.910156 L 190.785156 154.300781 L 187.492188 154.6875 L 180.914062 155.46875 L 177.621094 155.855469 L 171.042969 156.636719 L 167.75 157.023438 Z M 164.460938 157.414062 "/>
<path style=" stroke:none;fill-rule:nonzero;fill:rgb(62.352941%,55.294118%,74.509804%);fill-opacity:1;" d="M 186.59375 139.828125 L 187.175781 136.496094 L 187.957031 133.203125 L 188.925781 129.964844 L 190.085938 126.785156 L 193.226562 128.039062 L 196.363281 129.289062 L 199.5 130.542969 L 202.640625 131.792969 L 205.777344 133.046875 L 208.914062 134.296875 L 212.054688 135.550781 L 218.328125 138.050781 L 221.464844 139.304688 L 224.605469 140.554688 L 227.742188 141.808594 L 230.878906 143.058594 L 234.019531 144.3125 L 237.15625 145.5625 L 240.292969 146.816406 L 243.433594 148.066406 L 216.683594 144.191406 L 213.339844 143.703125 L 206.652344 142.734375 L 203.3125 142.25 Z M 186.59375 139.828125 "/>
<path style=" stroke:none;fill-rule:nonzero;fill:rgb(61.960784%,52.156863%,71.764706%);fill-opacity:1;" d="M 189.851562 125.046875 L 191.300781 121.933594 L 192.929688 118.910156 L 194.734375 115.988281 L 196.707031 113.175781 L 199.300781 115.113281 L 201.898438 117.050781 L 204.492188 118.992188 L 207.089844 120.929688 L 209.683594 122.867188 L 212.28125 124.804688 L 214.878906 126.746094 L 217.472656 128.683594 L 220.070312 130.621094 L 222.664062 132.558594 L 225.261719 134.5 L 227.855469 136.4375 L 230.453125 138.375 L 233.046875 140.3125 L 235.644531 142.253906 L 238.242188 144.191406 L 240.835938 146.128906 L 243.433594 148.066406 L 237.480469 145.511719 L 234.503906 144.230469 L 231.523438 142.953125 L 228.546875 141.671875 L 222.59375 139.117188 L 219.617188 137.835938 L 216.640625 136.558594 L 213.664062 135.277344 L 207.710938 132.722656 L 204.734375 131.441406 L 201.757812 130.164062 L 198.78125 128.882812 L 192.828125 126.328125 Z M 189.851562 125.046875 "/>
<path style=" stroke:none;fill-rule:nonzero;fill:rgb(61.568627%,50.588235%,70.196078%);fill-opacity:1;" d="M 217.0625 127.28125 L 219.691406 124.324219 L 222.644531 121.699219 L 226.800781 126.972656 L 228.882812 129.609375 L 241.351562 145.429688 L 243.433594 148.066406 L 230.25 137.675781 L 227.609375 135.597656 L 224.972656 133.515625 Z M 217.0625 127.28125 "/>
<path style=" stroke:none;fill-rule:nonzero;fill:rgb(63.137255%,61.176471%,80.392157%);fill-opacity:1;" d="M 226.515625 125.414062 L 229.292969 123.582031 L 232.269531 122.089844 L 233.664062 125.335938 L 235.0625 128.582031 L 236.457031 131.832031 L 239.246094 138.324219 L 240.640625 141.574219 L 242.035156 144.820312 L 243.433594 148.066406 L 241.316406 145.234375 L 237.089844 139.570312 L 234.972656 136.738281 L 232.859375 133.910156 L 230.742188 131.078125 Z M 226.515625 125.414062 "/>
<path style=" stroke:none;fill-rule:nonzero;fill:rgb(63.529412%,63.137255%,82.352941%);fill-opacity:1;" d="M 231.316406 117.703125 L 234.96875 116.488281 L 238.742188 115.714844 L 240.148438 125.417969 L 240.617188 128.65625 L 241.554688 135.125 L 242.023438 138.363281 L 242.492188 141.597656 L 242.964844 144.832031 L 243.433594 148.066406 L 242.21875 145.03125 L 241.007812 141.996094 L 239.796875 138.957031 L 237.375 132.886719 L 236.164062 129.847656 L 233.742188 123.777344 L 232.527344 120.738281 Z M 231.316406 117.703125 "/>
<path style=" stroke:none;fill-rule:nonzero;fill:rgb(63.529412%,64.313725%,83.137255%);fill-opacity:1;" d="M 240.941406 127.007812 L 245.925781 127.007812 L 245.507812 130.519531 L 245.09375 134.027344 L 244.679688 137.539062 L 244.261719 141.046875 L 243.847656 144.558594 L 243.433594 148.066406 L 243.015625 144.558594 L 242.601562 141.046875 L 242.1875 137.539062 L 241.769531 134.027344 L 241.355469 130.519531 Z M 240.941406 127.007812 "/>
<path style=" stroke:none;fill-rule:nonzero;fill:rgb(64.313725%,67.058824%,85.490196%);fill-opacity:1;" d="M 245.460938 134.078125 L 248.671875 134.9375 L 247.359375 138.21875 L 246.050781 141.503906 L 243.433594 148.066406 L 243.9375 144.570312 L 244.445312 141.074219 L 244.953125 137.574219 Z M 245.460938 134.078125 "/>
<path style=" stroke:none;fill-rule:nonzero;fill:rgb(64.313725%,67.058824%,85.490196%);fill-opacity:1;" d="M 246.921875 139.949219 L 248.71875 140.988281 L 246.074219 144.527344 L 243.433594 148.066406 L 245.175781 144.007812 Z M 246.921875 139.949219 "/>
<path style=" stroke:none;fill-rule:nonzero;fill:rgb(69.019608%,80.392157%,95.686275%);fill-opacity:1;" d="M 248.902344 141.128906 L 250.371094 142.597656 L 243.433594 148.066406 Z M 248.902344 141.128906 "/>
<path style=" stroke:none;fill-rule:nonzero;fill:rgb(70.980392%,85.098039%,98.823529%);fill-opacity:1;" d="M 246.972656 145.425781 L 247.492188 146.324219 L 243.433594 148.066406 Z M 246.972656 145.425781 "/>
<path style=" stroke:none;fill-rule:nonzero;fill:rgb(65.098039%,69.803922%,87.843137%);fill-opacity:1;" d="M 248.355469 146.101562 L 248.679688 147.308594 L 243.433594 148.066406 Z M 248.355469 146.101562 "/>
<path style=" stroke:none;fill-rule:nonzero;fill:rgb(66.27451%,74.901961%,91.764706%);fill-opacity:1;" d="M 251.328125 147.132812 L 251.328125 149.003906 L 247.378906 148.535156 L 243.433594 148.066406 L 247.378906 147.601562 Z M 251.328125 147.132812 "/>
<path style=" stroke:none;fill-rule:nonzero;fill:rgb(63.137255%,61.960784%,81.176471%);fill-opacity:1;" d="M 260.046875 150.476562 L 259.023438 154.289062 L 255.90625 153.042969 L 252.789062 151.800781 L 249.667969 150.554688 L 246.550781 149.3125 L 243.433594 148.066406 L 246.753906 148.550781 L 253.402344 149.511719 L 256.722656 149.996094 Z M 260.046875 150.476562 "/>
<path style=" stroke:none;fill-rule:nonzero;fill:rgb(65.098039%,69.803922%,87.843137%);fill-opacity:1;" d="M 250.738281 151.207031 L 249.804688 152.824219 L 246.617188 150.445312 L 243.433594 148.066406 Z M 250.738281 151.207031 "/>
<path style=" stroke:none;fill-rule:nonzero;fill:rgb(69.803922%,81.960784%,96.862745%);fill-opacity:1;" d="M 247.59375 151.351562 L 246.714844 152.230469 L 243.433594 148.066406 Z M 247.59375 151.351562 "/>
<path style=" stroke:none;fill-rule:nonzero;fill:rgb(69.803922%,81.960784%,96.862745%);fill-opacity:1;" d="M 248.191406 154.441406 L 246.570312 155.375 L 245 151.722656 L 243.433594 148.066406 Z M 248.191406 154.441406 "/>
<path style=" stroke:none;fill-rule:nonzero;fill:rgb(67.843137%,78.039216%,94.117647%);fill-opacity:1;" d="M 247.6875 158.738281 L 245.082031 159.4375 L 244.53125 155.644531 L 243.980469 151.855469 L 243.433594 148.066406 L 244.851562 151.625 L 246.269531 155.179688 Z M 247.6875 158.738281 "/>
</g>
</svg>
