<?xml version="1.0" encoding="UTF-8"?>
<svg xmlns="http://www.w3.org/2000/svg" xmlns:xlink="http://www.w3.org/1999/xlink" width="484pt" height="299pt" viewBox="0 0 484 299" version="1.1">
<g id="surface159">
<rect x="0" y="0" width="484" height="299" style="fill:rgb(100%,100%,100%);fill-opacity:1;stroke:none;"/>
<path style=" stroke:none;fill-rule:nonzero;fill:rgb(68.235294%,78.823529%,94.509804%);fill-opacity:1;" d="M 242.632812 153.570312 L 241.371094 153.234375 L 243.433594 148.066406 Z M 242.632812 153.570312 "/>
<path style=" stroke:none;fill-rule:nonzero;fill:rgb(70.588235%,84.313725%,98.039216%);fill-opacity:1;" d="M 242.554688 150.113281 L 242.101562 149.851562 L 243.433594 148.066406 Z M 242.554688 150.113281 "/>
<path style=" stroke:none;fill-rule:nonzero;fill:rgb(70.196078%,83.137255%,97.647059%);fill-opacity:1;" d="M 242.742188 148.941406 L 242.558594 148.757812 L 243.433594 148.066406 Z M 242.742188 148.941406 "/>
<path style=" stroke:none;fill-rule:nonzero;fill:rgb(61.568627%,50.588235%,70.196078%);fill-opacity:1;" d="M 242.539062 148.734375 L 242.410156 148.507812 L 243.433594 148.066406 Z M 242.539062 148.734375 "/>
<path style=" stroke:none;fill-rule:nonzero;fill:rgb(69.803922%,82.352941%,96.862745%);fill-opacity:1;" d="M 239.300781 149.714844 L 239.027344 148.707031 L 243.433594 148.066406 Z M 239.300781 149.714844 "/>
<path style=" stroke:none;fill-rule:nonzero;fill:rgb(70.980392%,85.098039%,98.823529%);fill-opacity:1;" d="M 241.222656 148.328125 L 241.222656 147.804688 L 243.433594 148.066406 Z M 241.222656 148.328125 "/>
<path style=" stroke:none;fill-rule:nonzero;fill:rgb(65.098039%,70.980392%,88.627451%);fill-opacity:1;" d="M 234.625 146.792969 L 235.167969 144.769531 L 243.433594 148.066406 L 239.027344 147.429688 Z M 234.625 146.792969 "/>
<path style=" stroke:none;fill-rule:nonzero;fill:rgb(63.137255%,61.960784%,81.176471%);fill-opacity:1;" d="M 233.210938 143.675781 L 234.519531 141.414062 L 237.492188 143.632812 L 240.460938 145.847656 L 243.433594 148.066406 L 240.027344 146.605469 L 236.617188 145.140625 Z M 233.210938 143.675781 "/>
<path style=" stroke:none;fill-rule:nonzero;fill:rgb(65.098039%,70.588235%,88.235294%);fill-opacity:1;" d="M 220.722656 130.164062 L 222.984375 127.617188 L 225.527344 125.355469 L 227.519531 127.878906 L 233.484375 135.449219 L 235.476562 137.972656 L 241.441406 145.542969 L 243.433594 148.066406 L 235.863281 142.101562 L 233.339844 140.109375 L 225.769531 134.144531 L 223.246094 132.152344 Z M 220.722656 130.164062 "/>
<path style=" stroke:none;fill-rule:nonzero;fill:rgb(64.705882%,69.019608%,87.058824%);fill-opacity:1;" d="M 225.464844 124.003906 L 228.417969 122.058594 L 231.578125 120.476562 L 232.894531 123.539062 L 235.527344 129.671875 L 236.847656 132.738281 L 242.113281 145.003906 L 243.433594 148.066406 L 241.4375 145.394531 L 239.4375 142.71875 L 235.445312 137.375 L 233.449219 134.699219 L 231.453125 132.027344 L 229.457031 129.351562 L 227.460938 126.679688 Z M 225.464844 124.003906 "/>
<path style=" stroke:none;fill-rule:nonzero;fill:rgb(63.137255%,63.137255%,81.960784%);fill-opacity:1;" d="M 233.128906 122.242188 L 236.234375 121.207031 L 239.441406 120.546875 L 240.441406 127.429688 L 240.9375 130.867188 L 241.9375 137.75 L 242.433594 141.1875 L 242.933594 144.628906 L 243.433594 148.066406 L 242.144531 144.839844 L 240.855469 141.609375 L 239.566406 138.382812 L 238.28125 135.152344 L 235.703125 128.699219 L 234.417969 125.46875 Z M 233.128906 122.242188 "/>
<path style=" stroke:none;fill-rule:nonzero;fill:rgb(64.313725%,66.27451%,84.705882%);fill-opacity:1;" d="M 240.164062 120.453125 L 243.433594 120.261719 L 246.699219 120.453125 L 246.292969 123.90625 L 245.882812 127.355469 L 245.476562 130.808594 L 245.066406 134.261719 L 244.65625 137.710938 L 244.25 141.164062 L 243.839844 144.617188 L 243.433594 148.066406 L 243.023438 144.617188 L 242.613281 141.164062 L 242.207031 137.710938 L 241.796875 134.261719 L 241.390625 130.808594 L 240.980469 127.355469 L 240.574219 123.90625 Z M 240.164062 120.453125 "/>
<path style=" stroke:none;fill-rule:nonzero;fill:rgb(62.352941%,54.509804%,73.72549%);fill-opacity:1;" d="M 250.773438 97.433594 L 254.722656 98.164062 L 258.605469 99.203125 L 262.390625 100.546875 L 261.128906 103.714844 L 259.863281 106.882812 L 258.601562 110.050781 L 256.070312 116.386719 L 254.808594 119.554688 L 253.542969 122.722656 L 252.28125 125.890625 L 251.015625 129.058594 L 249.753906 132.226562 L 247.222656 138.5625 L 245.960938 141.730469 L 244.695312 144.898438 L 243.433594 148.066406 L 244.410156 141.316406 L 244.902344 137.941406 L 245.390625 134.566406 L 245.878906 131.1875 L 246.367188 127.8125 L 246.859375 124.4375 L 247.835938 117.6875 L 248.328125 114.3125 L 248.816406 110.933594 L 249.304688 107.558594 L 249.796875 104.183594 Z M 250.773438 97.433594 "/>
<path style=" stroke:none;fill-rule:nonzero;fill:rgb(62.745098%,58.431373%,77.647059%);fill-opacity:1;" d="M 261.433594 106.167969 L 264.664062 107.710938 L 267.765625 109.5 L 270.71875 111.527344 L 266.820312 116.746094 L 264.871094 119.359375 L 255.125 132.40625 L 253.175781 135.019531 L 249.277344 140.238281 L 247.332031 142.847656 L 243.433594 148.066406 L 249.859375 133.105469 L 251.148438 130.109375 L 256.289062 118.140625 L 257.578125 115.144531 Z M 261.433594 106.167969 "/>
<path style=" stroke:none;fill-rule:nonzero;fill:rgb(63.529412%,63.921569%,82.745098%);fill-opacity:1;" d="M 272.355469 111.382812 L 275.144531 113.761719 L 277.738281 116.355469 L 280.117188 119.144531 L 277.5 121.210938 L 264.394531 131.542969 L 261.777344 133.605469 L 246.050781 146.003906 L 243.433594 148.066406 L 245.496094 145.449219 L 257.894531 129.722656 L 259.957031 127.105469 L 270.289062 114 Z M 272.355469 111.382812 "/>
<path style=" stroke:none;fill-rule:nonzero;fill:rgb(61.960784%,52.941176%,72.54902%);fill-opacity:1;" d="M 289.777344 113.460938 L 291.734375 116.25 L 293.523438 119.148438 L 295.136719 122.148438 L 296.574219 125.238281 L 293.621094 126.503906 L 290.667969 127.773438 L 287.71875 129.042969 L 284.765625 130.308594 L 275.90625 134.117188 L 272.957031 135.382812 L 267.050781 137.921875 L 264.097656 139.1875 L 261.144531 140.457031 L 258.195312 141.726562 L 255.242188 142.996094 L 252.289062 144.261719 L 246.382812 146.800781 L 243.433594 148.066406 L 253.730469 140.378906 L 256.304688 138.453125 L 264.027344 132.6875 L 266.605469 130.765625 L 269.179688 128.84375 L 271.753906 126.917969 L 284.625 117.308594 L 287.199219 115.382812 Z M 289.777344 113.460938 "/>
<path style=" stroke:none;fill-rule:nonzero;fill:rgb(62.352941%,55.686275%,74.901961%);fill-opacity:1;" d="M 314.714844 119.628906 L 315.976562 123.019531 L 317.074219 126.464844 L 318.011719 129.957031 L 318.78125 133.488281 L 319.386719 137.054688 L 316.082031 137.535156 L 312.78125 138.011719 L 309.476562 138.492188 L 306.175781 138.96875 L 302.875 139.449219 L 299.570312 139.929688 L 296.269531 140.40625 L 292.96875 140.886719 L 289.664062 141.363281 L 286.363281 141.84375 L 283.058594 142.320312 L 276.457031 143.28125 L 273.152344 143.757812 L 269.851562 144.238281 L 266.546875 144.714844 L 263.246094 145.195312 L 259.945312 145.671875 L 256.640625 146.152344 L 253.339844 146.632812 L 250.035156 147.109375 L 246.734375 147.589844 L 243.433594 148.066406 L 246.53125 146.832031 L 249.628906 145.59375 L 252.730469 144.359375 L 255.828125 143.121094 L 258.929688 141.886719 L 262.027344 140.648438 L 265.128906 139.414062 L 271.324219 136.9375 L 274.425781 135.703125 L 277.523438 134.464844 L 280.625 133.230469 L 283.722656 131.992188 L 286.820312 130.757812 L 289.921875 129.519531 L 293.019531 128.285156 L 296.121094 127.046875 L 299.21875 125.8125 L 302.320312 124.574219 L 305.417969 123.339844 L 308.515625 122.101562 L 311.617188 120.863281 Z M 314.714844 119.628906 "/>
<path style=" stroke:none;fill-rule:nonzero;fill:rgb(63.137255%,60.784314%,80%);fill-opacity:1;" d="M 337.320312 136.957031 L 337.683594 140.648438 L 337.902344 144.355469 L 337.976562 148.066406 L 337.902344 151.78125 L 337.683594 155.484375 L 337.320312 159.179688 L 330.84375 158.414062 L 327.609375 158.03125 L 317.894531 156.882812 L 314.65625 156.496094 L 311.421875 156.113281 L 298.46875 154.582031 L 295.234375 154.199219 L 282.28125 152.667969 L 279.046875 152.28125 L 262.855469 150.367188 L 259.621094 149.984375 L 249.90625 148.835938 L 246.667969 148.449219 L 243.433594 148.066406 L 246.667969 147.683594 L 259.621094 146.152344 L 262.855469 145.769531 L 272.570312 144.621094 L 275.808594 144.234375 L 279.046875 143.851562 L 282.28125 143.46875 L 295.234375 141.9375 L 298.46875 141.554688 L 304.945312 140.789062 L 308.183594 140.402344 L 311.421875 140.019531 L 314.65625 139.636719 L 327.609375 138.105469 L 330.84375 137.722656 Z M 337.320312 136.957031 "/>
<path style=" stroke:none;fill-rule:nonzero;fill:rgb(63.137255%,62.352941%,81.568627%);fill-opacity:1;" d="M 329.292969 160.515625 L 328.738281 163.878906 L 328.050781 167.214844 L 327.234375 170.523438 L 326.289062 173.796875 L 325.214844 177.027344 L 324.015625 180.214844 L 321.027344 179.027344 L 309.089844 174.261719 L 306.105469 173.074219 L 291.183594 167.117188 L 288.199219 165.929688 L 276.261719 161.164062 L 273.277344 159.976562 L 258.355469 154.019531 L 255.371094 152.832031 L 243.433594 148.066406 L 252.972656 149.449219 L 256.152344 149.914062 L 275.230469 152.679688 L 278.414062 153.140625 L 313.390625 158.210938 L 316.574219 158.671875 Z M 329.292969 160.515625 "/>
<path style=" stroke:none;fill-rule:nonzero;fill:rgb(63.921569%,65.098039%,83.529412%);fill-opacity:1;" d="M 306.792969 175.289062 L 305.441406 178.246094 L 303.949219 181.132812 L 302.324219 183.945312 L 300.570312 186.679688 L 298.6875 189.328125 L 296.054688 187.363281 L 293.425781 185.398438 L 290.792969 183.433594 L 288.164062 181.46875 L 285.53125 179.503906 L 282.902344 177.539062 L 277.636719 173.609375 L 275.007812 171.644531 L 272.375 169.679688 L 269.746094 167.714844 L 264.480469 163.785156 L 261.851562 161.820312 L 259.21875 159.855469 L 256.589844 157.890625 L 251.324219 153.960938 L 248.695312 151.996094 L 246.0625 150.03125 L 243.433594 148.066406 L 249.464844 150.660156 L 252.484375 151.957031 L 255.5 153.253906 L 258.519531 154.550781 L 261.535156 155.84375 L 264.550781 157.140625 L 267.570312 158.4375 L 270.585938 159.734375 L 273.605469 161.03125 L 279.636719 163.625 L 282.65625 164.917969 L 285.671875 166.214844 L 288.691406 167.511719 L 294.722656 170.105469 L 297.742188 171.402344 L 300.757812 172.699219 L 303.777344 173.992188 Z M 306.792969 175.289062 "/>
<path style=" stroke:none;fill-rule:nonzero;fill:rgb(63.137255%,63.137255%,81.960784%);fill-opacity:1;" d="M 294.96875 188.695312 L 292.488281 191.660156 L 289.835938 194.472656 L 287.023438 197.121094 L 284.058594 199.605469 L 279.996094 194.449219 L 277.964844 191.875 L 273.902344 186.71875 L 271.871094 184.144531 L 267.808594 178.988281 L 265.777344 176.414062 L 261.714844 171.257812 L 259.683594 168.683594 L 255.621094 163.527344 L 253.589844 160.953125 L 249.527344 155.796875 L 247.496094 153.222656 L 243.433594 148.066406 L 246.007812 150.097656 L 251.164062 154.160156 L 253.738281 156.195312 L 258.894531 160.257812 L 261.46875 162.289062 L 266.625 166.351562 L 269.199219 168.382812 L 274.355469 172.445312 L 276.929688 174.476562 L 282.085938 178.539062 L 284.660156 180.570312 L 289.816406 184.632812 L 292.390625 186.664062 Z M 294.96875 188.695312 "/>
<path style=" stroke:none;fill-rule:nonzero;fill:rgb(63.137255%,61.568627%,80.784314%);fill-opacity:1;" d="M 277.371094 193.519531 L 274.636719 195.4375 L 271.796875 197.195312 L 268.855469 198.777344 L 265.824219 200.1875 L 263.191406 194.054688 L 261.871094 190.988281 L 260.554688 187.925781 L 256.605469 178.726562 L 255.285156 175.660156 L 252.652344 169.527344 L 251.335938 166.464844 L 250.019531 163.398438 L 248.699219 160.332031 L 243.433594 148.066406 L 245.429688 150.742188 L 247.425781 153.414062 L 249.421875 156.089844 L 251.417969 158.761719 L 253.414062 161.4375 L 255.410156 164.109375 L 257.40625 166.785156 L 259.402344 169.457031 L 261.402344 172.128906 L 263.398438 174.804688 L 265.394531 177.476562 L 267.390625 180.152344 L 269.386719 182.824219 L 271.382812 185.5 L 273.378906 188.171875 L 275.375 190.847656 Z M 277.371094 193.519531 "/>
<path style=" stroke:none;fill-rule:nonzero;fill:rgb(63.137255%,60.784314%,80%);fill-opacity:1;" d="M 268.984375 212.121094 L 265.941406 213.253906 L 262.84375 214.242188 L 259.707031 215.082031 L 256.53125 215.773438 L 253.328125 216.316406 L 252.855469 213.066406 L 252.386719 209.816406 L 251.441406 203.316406 L 250.972656 200.066406 L 250.027344 193.566406 L 249.558594 190.316406 L 249.085938 187.066406 L 248.617188 183.816406 L 247.671875 177.316406 L 247.203125 174.066406 L 246.257812 167.566406 L 245.789062 164.316406 L 245.316406 161.066406 L 244.847656 157.816406 L 243.902344 151.316406 L 243.433594 148.066406 L 244.648438 151.117188 L 245.867188 154.167969 L 247.082031 157.21875 L 248.300781 160.269531 L 249.515625 163.320312 L 250.734375 166.367188 L 251.949219 169.417969 L 253.167969 172.46875 L 254.382812 175.519531 L 255.601562 178.570312 L 256.816406 181.617188 L 258.035156 184.667969 L 259.25 187.71875 L 260.46875 190.769531 L 261.683594 193.820312 L 262.902344 196.871094 L 264.117188 199.917969 L 265.335938 202.96875 L 266.550781 206.019531 L 267.769531 209.070312 Z M 268.984375 212.121094 "/>
</g>
</svg>
