<?xml version="1.0" encoding="UTF-8"?>
<svg xmlns="http://www.w3.org/2000/svg" xmlns:xlink="http://www.w3.org/1999/xlink" width="484pt" height="299pt" viewBox="0 0 484 299" version="1.1">
<g id="surface115">
<rect x="0" y="0" width="484" height="299" style="fill:rgb(100%,100%,100%);fill-opacity:1;stroke:none;"/>
<path style=" stroke:none;fill-rule:nonzero;fill:rgb(62.745098%,58.823529%,78.039216%);fill-opacity:1;" d="M 242.84375 152.136719 L 241.910156 151.886719 L 243.433594 148.066406 Z M 242.84375 152.136719 "/>
<path style=" stroke:none;fill-rule:nonzero;fill:rgb(63.529412%,64.705882%,83.529412%);fill-opacity:1;" d="M 240.1875 155.621094 L 238.511719 154.65625 L 240.972656 151.363281 L 243.433594 148.066406 L 241.808594 151.84375 Z M 240.1875 155.621094 "/>
<path style=" stroke:none;fill-rule:nonzero;fill:rgb(61.568627%,50.588235%,70.196078%);fill-opacity:1;" d="M 239.933594 152.507812 L 238.992188 151.566406 L 243.433594 148.066406 Z M 239.933594 152.507812 "/>
<path style=" stroke:none;fill-rule:nonzero;fill:rgb(66.27451%,74.901961%,91.764706%);fill-opacity:1;" d="M 230.667969 157.597656 L 228.796875 154.355469 L 232.457031 152.785156 L 236.113281 151.210938 L 239.773438 149.640625 L 243.433594 148.066406 Z M 230.667969 157.597656 "/>
<path style=" stroke:none;fill-rule:nonzero;fill:rgb(67.45098%,77.254902%,93.333333%);fill-opacity:1;" d="M 219.09375 157.777344 L 217.5 151.828125 L 220.738281 151.359375 L 223.980469 150.886719 L 230.464844 149.949219 L 233.707031 149.476562 L 240.191406 148.539062 L 243.433594 148.066406 L 234.304688 151.710938 L 231.261719 152.921875 L 225.175781 155.351562 L 222.136719 156.566406 Z M 219.09375 157.777344 "/>
<path style=" stroke:none;fill-rule:nonzero;fill:rgb(63.921569%,64.705882%,83.529412%);fill-opacity:1;" d="M 149.542969 159.179688 L 149.179688 155.484375 L 148.960938 151.78125 L 148.886719 148.066406 L 148.960938 144.355469 L 149.179688 140.648438 L 149.542969 136.957031 L 159.257812 138.105469 L 162.492188 138.488281 L 175.445312 140.019531 L 178.679688 140.402344 L 181.917969 140.789062 L 191.632812 141.9375 L 194.867188 142.320312 L 211.058594 144.234375 L 214.292969 144.621094 L 227.246094 146.152344 L 230.480469 146.535156 L 243.433594 148.066406 L 240.195312 148.449219 L 236.957031 148.835938 L 230.480469 149.601562 L 227.246094 149.984375 L 214.292969 151.515625 L 211.058594 151.898438 L 207.820312 152.28125 L 204.582031 152.667969 L 194.867188 153.816406 L 191.632812 154.199219 L 178.679688 155.730469 L 175.445312 156.113281 L 172.207031 156.496094 L 168.96875 156.882812 L 162.492188 157.648438 L 159.257812 158.03125 Z M 149.542969 159.179688 "/>
<path style=" stroke:none;fill-rule:nonzero;fill:rgb(63.137255%,62.352941%,81.568627%);fill-opacity:1;" d="M 181.902344 139.148438 L 182.535156 135.539062 L 183.378906 131.976562 L 184.429688 128.46875 L 185.683594 125.027344 L 188.726562 126.242188 L 191.765625 127.453125 L 194.804688 128.667969 L 197.84375 129.878906 L 200.882812 131.09375 L 206.960938 133.515625 L 210 134.730469 L 213.039062 135.941406 L 216.078125 137.15625 L 222.15625 139.578125 L 225.195312 140.792969 L 228.234375 142.003906 L 231.273438 143.21875 L 234.3125 144.429688 L 237.355469 145.644531 L 243.433594 148.066406 L 230.480469 146.191406 L 227.238281 145.71875 L 214.285156 143.84375 L 211.046875 143.371094 L 198.09375 141.496094 L 194.855469 141.023438 Z M 181.902344 139.148438 "/>
<path style=" stroke:none;fill-rule:nonzero;fill:rgb(63.921569%,65.882353%,84.313725%);fill-opacity:1;" d="M 204.71875 131.4375 L 206.144531 128.449219 L 207.796875 125.585938 L 209.671875 122.859375 L 212.269531 124.796875 L 214.867188 126.738281 L 217.464844 128.675781 L 220.058594 130.613281 L 222.65625 132.554688 L 225.253906 134.492188 L 227.851562 136.433594 L 230.449219 138.371094 L 233.042969 140.3125 L 235.640625 142.25 L 238.238281 144.191406 L 243.433594 148.066406 L 240.453125 146.789062 L 237.476562 145.507812 L 234.5 144.230469 L 231.519531 142.949219 L 228.542969 141.671875 L 225.566406 140.390625 L 222.585938 139.113281 L 219.609375 137.832031 L 216.632812 136.554688 L 213.652344 135.273438 L 210.675781 133.996094 L 207.699219 132.714844 Z M 204.71875 131.4375 "/>
<path style=" stroke:none;fill-rule:nonzero;fill:rgb(65.098039%,70.980392%,88.627451%);fill-opacity:1;" d="M 215.992188 126.4375 L 218.726562 123.363281 L 221.800781 120.628906 L 223.964844 123.371094 L 226.128906 126.117188 L 228.289062 128.859375 L 230.453125 131.605469 L 232.617188 134.347656 L 234.78125 137.09375 L 236.941406 139.835938 L 239.105469 142.578125 L 241.269531 145.324219 L 243.433594 148.066406 L 240.6875 145.90625 L 237.945312 143.742188 L 235.199219 141.578125 L 232.457031 139.414062 L 229.710938 137.253906 L 224.226562 132.925781 L 221.480469 130.761719 L 218.738281 128.601562 Z M 215.992188 126.4375 "/>
<path style=" stroke:none;fill-rule:nonzero;fill:rgb(66.27451%,74.509804%,91.372549%);fill-opacity:1;" d="M 231.441406 132.011719 L 235.523438 129.65625 L 236.839844 132.726562 L 238.160156 135.792969 L 239.476562 138.863281 L 240.796875 141.929688 L 242.113281 145 L 243.433594 148.066406 L 239.433594 142.714844 L 237.4375 140.039062 L 235.4375 137.363281 L 233.441406 134.6875 Z M 231.441406 132.011719 "/>
<path style=" stroke:none;fill-rule:nonzero;fill:rgb(70.980392%,85.098039%,98.823529%);fill-opacity:1;" d="M 235.816406 128.976562 L 240.484375 127.726562 L 240.972656 131.117188 L 242.941406 144.679688 L 243.433594 148.066406 L 242.164062 144.886719 L 240.894531 141.703125 L 239.625 138.523438 L 238.355469 135.339844 L 237.085938 132.160156 Z M 235.816406 128.976562 "/>
<path style=" stroke:none;fill-rule:nonzero;fill:rgb(69.803922%,81.960784%,96.862745%);fill-opacity:1;" d="M 241.199219 129.1875 L 245.667969 129.1875 L 245.21875 132.964844 L 244.773438 136.738281 L 244.324219 140.515625 L 243.878906 144.292969 L 243.433594 148.066406 L 242.984375 144.292969 L 242.539062 140.515625 L 242.089844 136.738281 L 241.644531 132.964844 Z M 241.199219 129.1875 "/>
<path style=" stroke:none;fill-rule:nonzero;fill:rgb(67.843137%,78.039216%,94.117647%);fill-opacity:1;" d="M 247.042969 123.152344 L 252.761719 124.683594 L 250.097656 131.363281 L 248.761719 134.703125 L 247.429688 138.046875 L 243.433594 148.066406 L 244.980469 137.390625 L 245.496094 133.828125 Z M 247.042969 123.152344 "/>
<path style=" stroke:none;fill-rule:nonzero;fill:rgb(65.490196%,71.764706%,89.411765%);fill-opacity:1;" d="M 252.355469 127.296875 L 256.960938 129.953125 L 255.027344 132.539062 L 253.09375 135.128906 L 251.160156 137.714844 L 249.230469 140.304688 L 247.296875 142.890625 L 245.363281 145.480469 L 243.433594 148.066406 L 244.707031 145.101562 L 245.980469 142.132812 L 247.257812 139.164062 L 248.53125 136.199219 L 249.808594 133.230469 L 251.082031 130.261719 Z M 252.355469 127.296875 "/>
<path style=" stroke:none;fill-rule:nonzero;fill:rgb(63.921569%,65.490196%,84.313725%);fill-opacity:1;" d="M 266.972656 118.207031 L 270.320312 121.179688 L 273.292969 124.527344 L 262.433594 133.089844 L 259.71875 135.226562 L 248.859375 143.789062 L 246.148438 145.929688 L 243.433594 148.066406 L 245.570312 145.351562 L 247.710938 142.640625 L 256.273438 131.78125 L 258.410156 129.066406 Z M 266.972656 118.207031 "/>
<path style=" stroke:none;fill-rule:nonzero;fill:rgb(63.137255%,62.745098%,81.960784%);fill-opacity:1;" d="M 290.777344 112.710938 L 292.777344 115.5625 L 294.605469 118.523438 L 296.257812 121.585938 L 297.722656 124.742188 L 291.691406 127.335938 L 288.675781 128.628906 L 285.660156 129.925781 L 282.640625 131.222656 L 279.625 132.519531 L 276.609375 133.8125 L 270.578125 136.40625 L 267.5625 137.699219 L 264.546875 138.996094 L 261.527344 140.292969 L 258.511719 141.589844 L 255.496094 142.882812 L 246.449219 146.773438 L 243.433594 148.066406 L 246.0625 146.105469 L 248.691406 144.140625 L 251.324219 142.175781 L 256.582031 138.246094 L 259.214844 136.28125 L 261.84375 134.320312 L 264.476562 132.355469 L 269.734375 128.425781 L 272.367188 126.460938 L 274.996094 124.496094 L 277.625 122.535156 L 280.257812 120.570312 L 285.515625 116.640625 L 288.148438 114.675781 Z M 290.777344 112.710938 "/>
<path style=" stroke:none;fill-rule:nonzero;fill:rgb(65.098039%,70.588235%,88.235294%);fill-opacity:1;" d="M 304.996094 123.507812 L 306.335938 127.171875 L 307.457031 130.914062 L 308.355469 134.710938 L 309.03125 138.558594 L 305.75 139.03125 L 302.46875 139.507812 L 299.191406 139.984375 L 295.910156 140.457031 L 292.628906 140.933594 L 289.351562 141.410156 L 286.070312 141.886719 L 282.789062 142.359375 L 279.511719 142.835938 L 272.949219 143.789062 L 269.671875 144.261719 L 266.390625 144.738281 L 263.113281 145.214844 L 259.832031 145.691406 L 256.550781 146.164062 L 253.273438 146.640625 L 246.710938 147.59375 L 243.433594 148.066406 L 249.589844 145.613281 L 252.667969 144.382812 L 255.746094 143.15625 L 258.824219 141.925781 L 264.980469 139.472656 L 268.058594 138.242188 L 271.136719 137.015625 L 274.214844 135.785156 L 280.371094 133.332031 L 283.449219 132.101562 L 286.527344 130.875 L 289.605469 129.644531 L 295.761719 127.191406 L 298.839844 125.960938 Z M 304.996094 123.507812 "/>
<path style=" stroke:none;fill-rule:nonzero;fill:rgb(65.490196%,71.372549%,89.019608%);fill-opacity:1;" d="M 294.457031 142.027344 L 294.773438 146.050781 L 294.773438 150.085938 L 294.457031 154.105469 L 291.269531 153.730469 L 288.082031 153.351562 L 284.890625 152.976562 L 281.703125 152.597656 L 278.511719 152.21875 L 275.324219 151.84375 L 272.132812 151.464844 L 268.945312 151.085938 L 265.757812 150.710938 L 262.566406 150.332031 L 259.378906 149.957031 L 256.1875 149.578125 L 253 149.199219 L 249.808594 148.824219 L 243.433594 148.066406 L 246.621094 147.691406 L 249.808594 147.3125 L 253 146.933594 L 256.1875 146.558594 L 259.378906 146.179688 L 262.566406 145.804688 L 265.757812 145.425781 L 268.945312 145.046875 L 272.132812 144.671875 L 275.324219 144.292969 L 278.511719 143.914062 L 281.703125 143.539062 L 284.890625 143.160156 L 288.082031 142.785156 Z M 294.457031 142.027344 "/>
<path style=" stroke:none;fill-rule:nonzero;fill:rgb(67.058824%,76.470588%,92.941176%);fill-opacity:1;" d="M 251.058594 149.171875 L 250.589844 150.925781 L 243.433594 148.066406 L 247.246094 148.621094 Z M 251.058594 149.171875 "/>
<path style=" stroke:none;fill-rule:nonzero;fill:rgb(65.098039%,69.803922%,87.45098%);fill-opacity:1;" d="M 247.679688 149.894531 L 247.136719 150.835938 L 243.433594 148.066406 Z M 247.679688 149.894531 "/>
<path style=" stroke:none;fill-rule:nonzero;fill:rgb(65.098039%,70.196078%,88.235294%);fill-opacity:1;" d="M 248.679688 152.203125 L 247.566406 153.3125 L 245.5 150.691406 L 243.433594 148.066406 L 246.054688 150.136719 Z M 248.679688 152.203125 "/>
<path style=" stroke:none;fill-rule:nonzero;fill:rgb(67.058824%,76.470588%,92.941176%);fill-opacity:1;" d="M 244.96875 150.125 L 244.445312 150.429688 L 243.433594 148.066406 Z M 244.96875 150.125 "/>
<path style=" stroke:none;fill-rule:nonzero;fill:rgb(66.666667%,75.686275%,92.156863%);fill-opacity:1;" d="M 244.382812 150.453125 L 243.800781 150.609375 L 243.433594 148.066406 Z M 244.382812 150.453125 "/>
</g>
</svg>
