<?xml version="1.0" encoding="UTF-8"?>
<svg xmlns="http://www.w3.org/2000/svg" xmlns:xlink="http://www.w3.org/1999/xlink" width="484pt" height="299pt" viewBox="0 0 484 299" version="1.1">
<g id="surface91">
<rect x="0" y="0" width="484" height="299" style="fill:rgb(100%,100%,100%);fill-opacity:1;stroke:none;"/>
<path style=" stroke:none;fill-rule:nonzero;fill:rgb(67.058824%,76.078431%,92.54902%);fill-opacity:1;" d="M 239.417969 175.761719 L 236.1875 175.097656 L 233.0625 174.0625 L 235.65625 167.5625 L 236.949219 164.3125 L 238.246094 161.0625 L 239.542969 157.816406 L 243.433594 148.066406 L 242.929688 151.53125 L 242.429688 154.992188 L 241.925781 158.453125 L 241.425781 161.914062 L 240.921875 165.378906 L 240.421875 168.839844 L 239.917969 172.300781 Z M 239.417969 175.761719 "/>
<path style=" stroke:none;fill-rule:nonzero;fill:rgb(66.666667%,75.686275%,92.156863%);fill-opacity:1;" d="M 238.058594 160.578125 L 235.285156 158.976562 L 237.324219 156.25 L 241.394531 150.796875 L 243.433594 148.066406 L 242.089844 151.195312 L 240.746094 154.320312 Z M 238.058594 160.578125 "/>
<path style=" stroke:none;fill-rule:nonzero;fill:rgb(69.019608%,80.392157%,95.686275%);fill-opacity:1;" d="M 239.21875 153.414062 L 238.085938 152.28125 L 240.757812 150.175781 L 243.433594 148.066406 L 241.324219 150.742188 Z M 239.21875 153.414062 "/>
<path style=" stroke:none;fill-rule:nonzero;fill:rgb(70.588235%,83.921569%,98.039216%);fill-opacity:1;" d="M 236.160156 153.5 L 235.09375 151.652344 L 239.261719 149.859375 L 243.433594 148.066406 L 239.796875 150.78125 Z M 236.160156 153.5 "/>
<path style=" stroke:none;fill-rule:nonzero;fill:rgb(66.666667%,75.686275%,92.156863%);fill-opacity:1;" d="M 239.21875 149.75 L 238.941406 148.71875 L 243.433594 148.066406 Z M 239.21875 149.75 "/>
<path style=" stroke:none;fill-rule:nonzero;fill:rgb(64.705882%,67.843137%,86.27451%);fill-opacity:1;" d="M 236.671875 148.867188 L 236.671875 147.269531 L 240.050781 147.667969 L 243.433594 148.066406 L 240.050781 148.46875 Z M 236.671875 148.867188 "/>
<path style=" stroke:none;fill-rule:nonzero;fill:rgb(70.980392%,85.098039%,98.823529%);fill-opacity:1;" d="M 235.199219 146.875 L 235.703125 144.984375 L 239.566406 146.527344 L 243.433594 148.066406 L 239.316406 147.472656 Z M 235.199219 146.875 "/>
<path style=" stroke:none;fill-rule:nonzero;fill:rgb(65.882353%,73.72549%,90.980392%);fill-opacity:1;" d="M 239.261719 146.277344 L 239.796875 145.351562 L 243.433594 148.066406 Z M 239.261719 146.277344 "/>
<path style=" stroke:none;fill-rule:nonzero;fill:rgb(66.27451%,74.509804%,91.372549%);fill-opacity:1;" d="M 235.117188 141.511719 L 236.875 139.753906 L 239.0625 142.523438 L 241.246094 145.296875 L 243.433594 148.066406 L 237.886719 143.699219 Z M 235.117188 141.511719 "/>
<path style=" stroke:none;fill-rule:nonzero;fill:rgb(64.705882%,67.843137%,86.27451%);fill-opacity:1;" d="M 235.738281 137.765625 L 238.355469 136.253906 L 243.433594 148.066406 L 241.507812 145.492188 L 239.585938 142.917969 L 237.664062 140.339844 Z M 235.738281 137.765625 "/>
<path style=" stroke:none;fill-rule:nonzero;fill:rgb(63.137255%,62.352941%,81.568627%);fill-opacity:1;" d="M 240.628906 141.042969 L 242.347656 140.582031 L 243.433594 148.066406 Z M 240.628906 141.042969 "/>
<path style=" stroke:none;fill-rule:nonzero;fill:rgb(61.960784%,51.764706%,71.372549%);fill-opacity:1;" d="M 241.832031 134.546875 L 245.03125 134.546875 L 244.632812 137.929688 L 244.230469 141.308594 L 243.433594 148.066406 L 243.03125 144.6875 L 242.632812 141.308594 L 242.230469 137.929688 Z M 241.832031 134.546875 "/>
<path style=" stroke:none;fill-rule:nonzero;fill:rgb(64.705882%,68.235294%,86.27451%);fill-opacity:1;" d="M 247.882812 117.378906 L 251.457031 118.113281 L 254.921875 119.265625 L 253.644531 122.464844 L 252.371094 125.664062 L 251.09375 128.867188 L 248.539062 135.265625 L 247.261719 138.46875 L 244.707031 144.867188 L 243.433594 148.066406 L 243.925781 144.65625 L 244.421875 141.246094 L 244.914062 137.839844 L 245.410156 134.429688 L 245.902344 131.019531 L 246.894531 124.199219 L 247.386719 120.789062 Z M 247.882812 117.378906 "/>
<path style=" stroke:none;fill-rule:nonzero;fill:rgb(65.882353%,73.333333%,90.980392%);fill-opacity:1;" d="M 252.390625 127.21875 L 257.007812 129.886719 L 255.070312 132.484375 L 253.128906 135.082031 L 251.191406 137.679688 L 249.25 140.277344 L 247.3125 142.875 L 245.371094 145.46875 L 243.433594 148.066406 L 244.710938 145.089844 L 245.992188 142.113281 L 247.269531 139.132812 L 248.550781 136.15625 L 249.828125 133.175781 L 251.109375 130.199219 Z M 252.390625 127.21875 "/>
<path style=" stroke:none;fill-rule:nonzero;fill:rgb(64.313725%,66.27451%,84.705882%);fill-opacity:1;" d="M 259.351562 127.871094 L 263.628906 132.148438 L 261.101562 134.136719 L 258.578125 136.128906 L 256.054688 138.117188 L 253.53125 140.109375 L 251.003906 142.097656 L 248.480469 144.085938 L 245.957031 146.078125 L 243.433594 148.066406 L 245.421875 145.542969 L 247.414062 143.019531 L 249.402344 140.496094 L 251.390625 137.96875 L 253.382812 135.445312 L 255.371094 132.921875 L 257.363281 130.398438 Z M 259.351562 127.871094 "/>
<path style=" stroke:none;fill-rule:nonzero;fill:rgb(63.137255%,62.352941%,81.568627%);fill-opacity:1;" d="M 270.703125 127.703125 L 272.90625 131.050781 L 274.703125 134.632812 L 271.578125 135.976562 L 268.449219 137.320312 L 265.324219 138.664062 L 259.066406 141.351562 L 255.941406 142.695312 L 252.8125 144.039062 L 249.6875 145.378906 L 246.558594 146.722656 L 243.433594 148.066406 L 248.886719 143.996094 L 251.613281 141.957031 L 257.066406 137.886719 L 259.796875 135.847656 L 265.25 131.777344 L 267.976562 129.738281 Z M 270.703125 127.703125 "/>
<path style=" stroke:none;fill-rule:nonzero;fill:rgb(64.705882%,69.019608%,87.058824%);fill-opacity:1;" d="M 289.09375 129.851562 L 290.382812 133.488281 L 291.382812 137.21875 L 292.085938 141.011719 L 288.84375 141.484375 L 285.597656 141.953125 L 282.355469 142.425781 L 279.113281 142.894531 L 275.867188 143.363281 L 272.625 143.835938 L 269.382812 144.304688 L 266.136719 144.777344 L 262.894531 145.246094 L 259.648438 145.714844 L 256.40625 146.1875 L 253.164062 146.65625 L 249.917969 147.128906 L 243.433594 148.066406 L 246.476562 146.851562 L 249.519531 145.640625 L 252.566406 144.425781 L 258.652344 141.996094 L 261.699219 140.78125 L 270.828125 137.136719 L 273.875 135.921875 L 279.960938 133.492188 L 283.007812 132.277344 L 286.050781 131.066406 Z M 289.09375 129.851562 "/>
<path style=" stroke:none;fill-rule:nonzero;fill:rgb(62.352941%,54.509804%,74.117647%);fill-opacity:1;" d="M 308.777344 140.332031 L 309.121094 144.195312 L 309.234375 148.066406 L 309.121094 151.941406 L 308.777344 155.800781 L 305.511719 155.414062 L 302.242188 155.027344 L 295.710938 154.253906 L 292.441406 153.867188 L 289.175781 153.480469 L 285.90625 153.09375 L 282.640625 152.707031 L 279.371094 152.320312 L 272.839844 151.546875 L 269.570312 151.160156 L 266.304688 150.773438 L 263.035156 150.386719 L 259.769531 150 L 256.5 149.613281 L 253.234375 149.226562 L 249.964844 148.839844 L 243.433594 148.066406 L 249.964844 147.292969 L 253.234375 146.90625 L 256.5 146.519531 L 259.769531 146.132812 L 263.035156 145.746094 L 266.304688 145.359375 L 269.570312 144.972656 L 272.839844 144.585938 L 279.371094 143.8125 L 282.640625 143.425781 L 285.90625 143.039062 L 289.175781 142.652344 L 292.441406 142.265625 L 295.710938 141.878906 L 302.242188 141.105469 L 305.511719 140.71875 Z M 308.777344 140.332031 "/>
<path style=" stroke:none;fill-rule:nonzero;fill:rgb(61.568627%,50.588235%,70.196078%);fill-opacity:1;" d="M 336.996094 161.632812 L 336.394531 165.296875 L 335.644531 168.933594 L 334.753906 172.539062 L 333.722656 176.105469 L 332.554688 179.628906 L 331.246094 183.101562 L 328.21875 181.894531 L 325.1875 180.6875 L 322.160156 179.476562 L 316.105469 177.0625 L 313.078125 175.851562 L 310.050781 174.644531 L 307.019531 173.4375 L 303.992188 172.230469 L 300.964844 171.019531 L 291.882812 167.398438 L 288.851562 166.1875 L 279.769531 162.566406 L 276.742188 161.355469 L 273.710938 160.148438 L 270.683594 158.941406 L 267.65625 157.730469 L 258.574219 154.109375 L 255.542969 152.898438 L 246.460938 149.277344 L 243.433594 148.066406 L 249.886719 149.003906 L 253.109375 149.472656 L 256.335938 149.9375 L 266.015625 151.34375 L 269.242188 151.808594 L 278.921875 153.214844 L 282.148438 153.679688 L 295.054688 155.554688 L 298.28125 156.019531 L 307.960938 157.425781 L 311.1875 157.890625 L 320.867188 159.296875 L 324.09375 159.761719 L 327.320312 160.230469 L 330.542969 160.699219 L 333.769531 161.167969 Z M 336.996094 161.632812 "/>
<path style=" stroke:none;fill-rule:nonzero;fill:rgb(63.921569%,65.490196%,84.313725%);fill-opacity:1;" d="M 301.109375 172.847656 L 299.550781 176.203125 L 297.796875 179.457031 L 295.855469 182.601562 L 293.734375 185.628906 L 285.789062 179.699219 L 283.144531 177.722656 L 277.847656 173.769531 L 275.199219 171.789062 L 272.554688 169.8125 L 264.609375 163.882812 L 261.964844 161.90625 L 256.667969 157.953125 L 254.023438 155.976562 L 248.726562 152.023438 L 246.078125 150.042969 L 243.433594 148.066406 L 258.609375 154.589844 L 261.648438 155.894531 L 264.683594 157.199219 L 267.71875 158.5 L 279.859375 163.71875 L 282.898438 165.023438 L 295.039062 170.242188 L 298.074219 171.542969 Z M 301.109375 172.847656 "/>
<path style=" stroke:none;fill-rule:nonzero;fill:rgb(65.098039%,70.196078%,88.235294%);fill-opacity:1;" d="M 289.761719 184.589844 L 287.53125 187.253906 L 285.148438 189.785156 L 282.621094 192.167969 L 279.957031 194.398438 L 277.925781 191.824219 L 275.898438 189.25 L 273.867188 186.675781 L 271.839844 184.101562 L 269.808594 181.527344 L 265.753906 176.378906 L 263.722656 173.808594 L 261.695312 171.234375 L 259.664062 168.660156 L 257.636719 166.085938 L 255.605469 163.511719 L 253.578125 160.9375 L 251.546875 158.363281 L 247.492188 153.214844 L 245.460938 150.640625 L 243.433594 148.066406 L 246.007812 150.097656 L 248.578125 152.125 L 251.152344 154.15625 L 253.726562 156.183594 L 256.300781 158.214844 L 258.875 160.242188 L 261.449219 162.273438 L 266.597656 166.328125 L 269.171875 168.359375 L 271.746094 170.386719 L 274.320312 172.417969 L 276.894531 174.445312 L 279.464844 176.476562 L 282.039062 178.503906 L 284.613281 180.535156 Z M 289.761719 184.589844 "/>
<path style=" stroke:none;fill-rule:nonzero;fill:rgb(63.921569%,65.490196%,84.313725%);fill-opacity:1;" d="M 274.65625 189.882812 L 271.28125 192.203125 L 267.730469 194.253906 L 264.03125 196.019531 L 262.746094 193.019531 L 261.457031 190.023438 L 260.171875 187.027344 L 257.59375 181.035156 L 256.308594 178.035156 L 255.019531 175.039062 L 253.734375 172.042969 L 251.15625 166.050781 L 249.871094 163.050781 L 247.292969 157.058594 L 246.007812 154.0625 L 244.71875 151.066406 L 243.433594 148.066406 L 245.382812 150.679688 L 247.335938 153.292969 L 249.285156 155.910156 L 253.191406 161.136719 L 255.140625 163.75 L 257.09375 166.363281 L 259.042969 168.976562 L 262.949219 174.203125 L 264.898438 176.816406 L 268.804688 182.042969 L 270.753906 184.65625 L 272.707031 187.269531 Z M 274.65625 189.882812 "/>
<path style=" stroke:none;fill-rule:nonzero;fill:rgb(65.490196%,71.372549%,89.019608%);fill-opacity:1;" d="M 266.695312 206.375 L 263.222656 207.644531 L 259.679688 208.707031 L 256.082031 209.558594 L 252.441406 210.195312 L 251.964844 206.925781 L 251.019531 200.386719 L 250.542969 197.117188 L 250.070312 193.847656 L 249.59375 190.578125 L 249.121094 187.304688 L 248.648438 184.035156 L 248.171875 180.765625 L 247.226562 174.226562 L 246.75 170.957031 L 246.277344 167.6875 L 245.800781 164.417969 L 244.855469 157.878906 L 244.378906 154.609375 L 243.90625 151.335938 L 243.433594 148.066406 L 245.878906 154.207031 L 247.105469 157.273438 L 248.328125 160.34375 L 249.554688 163.410156 L 250.777344 166.480469 L 252.003906 169.550781 L 253.226562 172.617188 L 254.453125 175.6875 L 255.675781 178.757812 L 256.898438 181.824219 L 258.125 184.894531 L 259.347656 187.960938 L 260.574219 191.03125 L 261.796875 194.101562 L 263.023438 197.167969 L 265.46875 203.308594 Z M 266.695312 206.375 "/>
</g>
</svg>
