<?xml version="1.0" encoding="UTF-8"?>
<svg xmlns="http://www.w3.org/2000/svg" xmlns:xlink="http://www.w3.org/1999/xlink" width="484pt" height="299pt" viewBox="0 0 484 299" version="1.1">
<g id="surface47">
<rect x="0" y="0" width="484" height="299" style="fill:rgb(100%,100%,100%);fill-opacity:1;stroke:none;"/>
<path style=" stroke:none;fill-rule:nonzero;fill:rgb(67.058824%,76.078431%,92.54902%);fill-opacity:1;" d="M 232.550781 223.105469 L 229.03125 222.511719 L 225.539062 221.75 L 222.085938 220.824219 L 218.683594 219.738281 L 215.335938 218.492188 L 216.558594 215.429688 L 217.777344 212.367188 L 219 209.304688 L 220.222656 206.246094 L 221.445312 203.183594 L 222.664062 200.121094 L 225.109375 193.996094 L 226.328125 190.933594 L 227.550781 187.875 L 229.996094 181.75 L 231.214844 178.6875 L 234.882812 169.5 L 236.101562 166.441406 L 238.546875 160.316406 L 239.765625 157.253906 L 243.433594 148.066406 L 242.960938 151.332031 L 242.484375 154.59375 L 241.066406 164.378906 L 240.59375 167.644531 L 238.703125 180.691406 L 238.230469 183.957031 L 237.753906 187.21875 L 236.335938 197.003906 L 235.863281 200.269531 L 233.972656 213.316406 L 233.5 216.582031 L 233.023438 219.84375 Z M 232.550781 223.105469 "/>
<path style=" stroke:none;fill-rule:nonzero;fill:rgb(65.490196%,71.372549%,89.019608%);fill-opacity:1;" d="M 217.195312 209.132812 L 213.648438 207.480469 L 210.203125 205.625 L 206.871094 203.570312 L 203.667969 201.320312 L 205.65625 198.65625 L 207.644531 195.996094 L 209.632812 193.332031 L 211.621094 190.671875 L 215.597656 185.34375 L 217.585938 182.683594 L 221.5625 177.355469 L 223.550781 174.695312 L 227.527344 169.367188 L 229.515625 166.707031 L 231.503906 164.042969 L 233.492188 161.382812 L 237.46875 156.054688 L 239.457031 153.394531 L 243.433594 148.066406 L 240.808594 154.175781 L 239.496094 157.226562 L 238.183594 160.28125 L 236.875 163.332031 L 234.25 169.441406 L 232.9375 172.492188 L 231.625 175.546875 L 230.316406 178.601562 L 229.003906 181.652344 L 227.691406 184.707031 L 226.378906 187.757812 L 223.753906 193.867188 L 222.445312 196.917969 L 219.820312 203.027344 L 218.507812 206.078125 Z M 217.195312 209.132812 "/>
<path style=" stroke:none;fill-rule:nonzero;fill:rgb(67.843137%,78.039216%,93.72549%);fill-opacity:1;" d="M 206.921875 194.378906 L 204.257812 192.152344 L 201.730469 189.769531 L 199.347656 187.242188 L 197.121094 184.578125 L 199.691406 182.550781 L 202.265625 180.519531 L 204.839844 178.492188 L 207.410156 176.464844 L 209.984375 174.4375 L 212.558594 172.40625 L 215.128906 170.378906 L 220.277344 166.324219 L 222.847656 164.292969 L 227.996094 160.238281 L 230.566406 158.210938 L 233.140625 156.179688 L 235.714844 154.152344 L 238.285156 152.125 L 240.859375 150.097656 L 243.433594 148.066406 L 241.402344 150.640625 L 239.375 153.214844 L 237.347656 155.785156 L 235.320312 158.359375 L 233.289062 160.933594 L 231.261719 163.503906 L 227.207031 168.652344 L 225.175781 171.222656 L 221.121094 176.371094 L 219.09375 178.941406 L 217.0625 181.515625 L 215.035156 184.089844 L 213.007812 186.660156 L 210.980469 189.234375 L 208.949219 191.808594 Z M 206.921875 194.378906 "/>
<path style=" stroke:none;fill-rule:nonzero;fill:rgb(67.058824%,76.078431%,92.54902%);fill-opacity:1;" d="M 198.429688 181.671875 L 196.53125 178.964844 L 194.792969 176.148438 L 193.222656 173.238281 L 191.828125 170.238281 L 200.933594 166.324219 L 203.96875 165.023438 L 207.007812 163.71875 L 222.183594 157.195312 L 225.21875 155.894531 L 237.359375 150.675781 L 240.398438 149.371094 L 243.433594 148.066406 L 238.136719 152.019531 L 235.492188 154 L 230.195312 157.953125 L 227.550781 159.929688 L 222.253906 163.882812 L 219.609375 165.859375 L 211.664062 171.789062 L 209.019531 173.765625 L 203.722656 177.71875 L 201.078125 179.695312 Z M 198.429688 181.671875 "/>
<path style=" stroke:none;fill-rule:nonzero;fill:rgb(63.529412%,64.705882%,83.529412%);fill-opacity:1;" d="M 155.617188 183.101562 L 154.3125 179.628906 L 153.140625 176.105469 L 152.109375 172.539062 L 151.21875 168.933594 L 150.472656 165.296875 L 149.867188 161.632812 L 153.09375 161.167969 L 162.773438 159.761719 L 166 159.296875 L 175.679688 157.890625 L 178.902344 157.425781 L 188.582031 156.019531 L 191.808594 155.554688 L 204.714844 153.679688 L 207.941406 153.214844 L 217.621094 151.808594 L 220.847656 151.34375 L 230.527344 149.9375 L 233.753906 149.472656 L 243.433594 148.066406 L 240.402344 149.277344 L 231.320312 152.898438 L 228.292969 154.109375 L 225.265625 155.316406 L 222.234375 156.523438 L 219.207031 157.730469 L 216.179688 158.941406 L 210.125 161.355469 L 207.09375 162.566406 L 198.011719 166.1875 L 194.984375 167.398438 L 191.957031 168.605469 L 188.925781 169.8125 L 185.898438 171.019531 L 182.871094 172.230469 L 176.816406 174.644531 L 173.785156 175.851562 L 170.757812 177.0625 L 164.703125 179.476562 L 161.675781 180.6875 L 158.648438 181.894531 Z M 155.617188 183.101562 "/>
<path style=" stroke:none;fill-rule:nonzero;fill:rgb(64.705882%,69.019608%,87.058824%);fill-opacity:1;" d="M 188.585938 154.558594 L 188.300781 151.320312 L 188.203125 148.066406 L 188.300781 144.816406 L 188.585938 141.578125 L 191.8125 141.957031 L 201.492188 143.105469 L 204.71875 143.484375 L 207.945312 143.867188 L 211.167969 144.25 L 214.394531 144.632812 L 217.621094 145.011719 L 227.300781 146.160156 L 230.527344 146.539062 L 240.207031 147.6875 L 243.433594 148.066406 L 233.753906 149.214844 L 230.527344 149.59375 L 220.847656 150.742188 L 217.621094 151.121094 L 211.167969 151.886719 L 207.945312 152.269531 L 204.71875 152.648438 L 195.039062 153.796875 L 191.8125 154.175781 Z M 188.585938 154.558594 "/>
<path style=" stroke:none;fill-rule:nonzero;fill:rgb(63.137255%,61.176471%,80.392157%);fill-opacity:1;" d="M 192.480469 140.679688 L 193.21875 136.707031 L 194.261719 132.800781 L 195.613281 128.988281 L 198.601562 130.183594 L 207.566406 133.757812 L 210.554688 134.953125 L 213.546875 136.144531 L 219.523438 138.527344 L 222.511719 139.722656 L 231.476562 143.296875 L 234.464844 144.492188 L 237.453125 145.683594 L 240.445312 146.875 L 243.433594 148.066406 L 240.246094 147.605469 L 230.695312 146.222656 L 227.511719 145.757812 L 224.324219 145.296875 L 214.773438 143.914062 L 211.585938 143.449219 L 202.035156 142.066406 L 198.847656 141.605469 L 195.664062 141.140625 Z M 192.480469 140.679688 "/>
<path style=" stroke:none;fill-rule:nonzero;fill:rgb(63.921569%,65.098039%,83.921569%);fill-opacity:1;" d="M 201.289062 129.960938 L 202.839844 126.710938 L 204.640625 123.59375 L 206.679688 120.625 L 209.304688 122.585938 L 211.929688 124.542969 L 225.054688 134.347656 L 227.679688 136.304688 L 232.929688 140.226562 L 235.558594 142.1875 L 240.808594 146.109375 L 243.433594 148.066406 L 237.410156 145.480469 L 234.402344 144.1875 L 231.390625 142.894531 L 228.382812 141.601562 L 222.359375 139.015625 L 219.351562 137.722656 L 213.328125 135.136719 L 210.320312 133.839844 L 207.308594 132.546875 L 204.300781 131.253906 Z M 201.289062 129.960938 "/>
<path style=" stroke:none;fill-rule:nonzero;fill:rgb(63.137255%,62.745098%,81.568627%);fill-opacity:1;" d="M 217.703125 127.785156 L 220.265625 124.902344 L 223.148438 122.339844 L 225.175781 124.910156 L 227.207031 127.484375 L 229.234375 130.058594 L 231.261719 132.628906 L 233.289062 135.203125 L 235.320312 137.777344 L 237.347656 140.347656 L 241.402344 145.496094 L 243.433594 148.066406 L 238.285156 144.011719 L 235.714844 141.984375 L 233.140625 139.953125 L 230.566406 137.925781 L 227.996094 135.898438 L 225.421875 133.871094 L 222.847656 131.839844 L 220.277344 129.8125 Z M 217.703125 127.785156 "/>
<path style=" stroke:none;fill-rule:nonzero;fill:rgb(64.705882%,69.411765%,87.45098%);fill-opacity:1;" d="M 222.710938 120.316406 L 226.113281 118.074219 L 229.761719 116.246094 L 231.128906 119.429688 L 232.496094 122.609375 L 233.863281 125.792969 L 235.230469 128.972656 L 237.964844 135.339844 L 239.332031 138.519531 L 242.066406 144.886719 L 243.433594 148.066406 L 241.359375 145.292969 L 239.289062 142.519531 L 237.214844 139.742188 L 235.144531 136.96875 L 233.070312 134.191406 L 231 131.417969 L 228.925781 128.640625 L 226.855469 125.867188 L 224.78125 123.089844 Z M 222.710938 120.316406 "/>
<path style=" stroke:none;fill-rule:nonzero;fill:rgb(66.666667%,75.686275%,92.156863%);fill-opacity:1;" d="M 234.066406 124.59375 L 239.804688 123.054688 L 240.324219 126.628906 L 240.839844 130.203125 L 241.359375 133.773438 L 241.878906 137.347656 L 242.394531 140.921875 L 242.914062 144.496094 L 243.433594 148.066406 L 242.09375 144.714844 L 240.757812 141.359375 L 239.417969 138.007812 L 238.082031 134.652344 L 236.742188 131.300781 L 235.40625 127.945312 Z M 234.066406 124.59375 "/>
<path style=" stroke:none;fill-rule:nonzero;fill:rgb(63.921569%,65.098039%,83.921569%);fill-opacity:1;" d="M 240.902344 126.6875 L 245.960938 126.6875 L 245.539062 130.25 L 245.121094 133.8125 L 244.699219 137.378906 L 243.433594 148.066406 L 242.167969 137.378906 L 241.746094 133.8125 Z M 240.902344 126.6875 "/>
<path style=" stroke:none;fill-rule:nonzero;fill:rgb(67.843137%,78.039216%,94.117647%);fill-opacity:1;" d="M 247.460938 120.277344 L 250.699219 120.941406 L 253.839844 121.984375 L 252.539062 125.246094 L 251.238281 128.503906 L 248.636719 135.027344 L 247.335938 138.285156 L 244.734375 144.808594 L 243.433594 148.066406 L 244.441406 141.121094 L 244.941406 137.644531 L 245.949219 130.699219 L 246.453125 127.222656 Z M 247.460938 120.277344 "/>
<path style=" stroke:none;fill-rule:nonzero;fill:rgb(67.058824%,75.686275%,92.54902%);fill-opacity:1;" d="M 255.996094 118.824219 L 259.34375 120.503906 L 262.476562 122.566406 L 260.359375 125.398438 L 258.242188 128.234375 L 256.128906 131.066406 L 254.011719 133.902344 L 251.894531 136.734375 L 249.78125 139.566406 L 247.664062 142.402344 L 245.546875 145.234375 L 243.433594 148.066406 L 244.828125 144.820312 L 246.222656 141.570312 L 247.621094 138.320312 L 249.015625 135.070312 L 250.410156 131.824219 L 251.808594 128.574219 L 254.597656 122.074219 Z M 255.996094 118.824219 "/>
<path style=" stroke:none;fill-rule:nonzero;fill:rgb(63.921569%,65.882353%,84.313725%);fill-opacity:1;" d="M 268.351562 116.457031 L 271.894531 119.605469 L 275.042969 123.148438 L 272.40625 125.226562 L 269.773438 127.300781 L 267.140625 129.378906 L 264.503906 131.453125 L 259.238281 135.609375 L 256.601562 137.683594 L 251.335938 141.839844 L 248.699219 143.914062 L 246.066406 145.992188 L 243.433594 148.066406 L 245.507812 145.433594 L 247.585938 142.800781 L 249.660156 140.164062 L 253.816406 134.898438 L 255.890625 132.261719 L 260.046875 126.996094 L 262.121094 124.359375 L 264.199219 121.726562 L 266.273438 119.09375 Z M 268.351562 116.457031 "/>
<path style=" stroke:none;fill-rule:nonzero;fill:rgb(61.568627%,50.588235%,70.196078%);fill-opacity:1;" d="M 277.933594 122.304688 L 279.847656 125.089844 L 281.539062 128.019531 L 282.996094 131.070312 L 279.953125 132.378906 L 276.910156 133.683594 L 273.863281 134.992188 L 267.777344 137.609375 L 264.734375 138.914062 L 258.648438 141.53125 L 255.605469 142.835938 L 246.476562 146.761719 L 243.433594 148.066406 L 248.738281 144.105469 L 251.394531 142.121094 L 254.046875 140.140625 L 256.703125 138.160156 L 259.355469 136.175781 L 262.011719 134.195312 L 264.664062 132.214844 L 267.316406 130.230469 L 269.972656 128.25 L 272.625 126.269531 L 275.28125 124.285156 Z M 277.933594 122.304688 "/>
<path style=" stroke:none;fill-rule:nonzero;fill:rgb(66.27451%,74.117647%,91.372549%);fill-opacity:1;" d="M 296.46875 126.910156 L 297.621094 130.066406 L 298.585938 133.289062 L 299.363281 136.5625 L 299.941406 139.875 L 296.617188 140.355469 L 293.292969 140.839844 L 286.644531 141.800781 L 283.320312 142.285156 L 279.996094 142.765625 L 276.671875 143.25 L 270.023438 144.210938 L 266.699219 144.695312 L 260.050781 145.65625 L 256.730469 146.140625 L 253.40625 146.621094 L 250.082031 147.105469 L 243.433594 148.066406 L 246.550781 146.824219 L 252.792969 144.332031 L 255.910156 143.089844 L 259.03125 141.84375 L 262.152344 140.601562 L 265.269531 139.355469 L 268.390625 138.109375 L 271.511719 136.867188 L 274.628906 135.621094 L 277.75 134.375 L 280.871094 133.132812 L 283.988281 131.886719 L 287.109375 130.644531 L 290.226562 129.398438 L 293.347656 128.152344 Z M 296.46875 126.910156 "/>
<path style=" stroke:none;fill-rule:nonzero;fill:rgb(65.098039%,70.196078%,88.235294%);fill-opacity:1;" d="M 294.558594 142.015625 L 294.875 146.046875 L 294.875 150.089844 L 294.558594 154.121094 L 278.582031 152.226562 L 275.386719 151.851562 L 259.410156 149.957031 L 256.214844 149.582031 L 243.433594 148.066406 L 246.628906 147.691406 L 262.605469 145.796875 L 265.800781 145.421875 L 278.582031 143.90625 L 281.777344 143.53125 Z M 294.558594 142.015625 "/>
<path style=" stroke:none;fill-rule:nonzero;fill:rgb(63.921569%,65.882353%,84.705882%);fill-opacity:1;" d="M 305.5 157.066406 L 304.863281 160.707031 L 304.011719 164.300781 L 302.953125 167.839844 L 301.683594 171.308594 L 295.550781 168.863281 L 292.488281 167.640625 L 289.421875 166.414062 L 271.023438 159.078125 L 267.960938 157.851562 L 246.496094 149.292969 L 243.433594 148.066406 L 246.699219 148.542969 L 253.230469 149.488281 L 256.5 149.960938 L 259.765625 150.4375 L 263.03125 150.910156 L 266.300781 151.382812 L 269.566406 151.855469 L 272.832031 152.332031 L 276.101562 152.804688 L 282.632812 153.75 L 285.898438 154.226562 L 289.167969 154.699219 L 295.699219 155.644531 L 298.96875 156.121094 Z M 305.5 157.066406 "/>
<path style=" stroke:none;fill-rule:nonzero;fill:rgb(67.843137%,78.039216%,93.72549%);fill-opacity:1;" d="M 291.59375 168.761719 L 289.824219 172.476562 L 287.765625 176.039062 L 285.433594 179.433594 L 274.933594 171.589844 L 272.308594 169.632812 L 259.183594 159.828125 L 256.558594 157.871094 L 243.433594 148.066406 L 246.441406 149.359375 L 249.453125 150.65625 L 252.460938 151.949219 L 258.484375 154.535156 L 261.492188 155.828125 L 267.515625 158.414062 L 270.523438 159.707031 L 273.535156 161 L 276.542969 162.292969 L 282.566406 164.878906 L 285.574219 166.175781 L 288.585938 167.46875 Z M 291.59375 168.761719 "/>
<path style=" stroke:none;fill-rule:nonzero;fill:rgb(67.843137%,78.039216%,94.117647%);fill-opacity:1;" d="M 292.683594 186.894531 L 290.3125 189.726562 L 287.78125 192.414062 L 285.09375 194.949219 L 282.261719 197.320312 L 280.214844 194.730469 L 276.128906 189.542969 L 274.085938 186.953125 L 270 181.765625 L 267.953125 179.175781 L 265.910156 176.582031 L 263.867188 173.992188 L 259.78125 168.804688 L 257.738281 166.214844 L 255.695312 163.621094 L 253.648438 161.027344 L 251.605469 158.4375 L 249.5625 155.84375 L 247.519531 153.253906 L 243.433594 148.066406 L 246.023438 150.113281 L 248.617188 152.15625 L 251.207031 154.199219 L 256.394531 158.285156 L 258.984375 160.328125 L 261.578125 162.371094 L 264.171875 164.417969 L 266.761719 166.460938 L 269.355469 168.503906 L 271.945312 170.546875 L 277.132812 174.632812 L 279.722656 176.679688 L 284.910156 180.765625 L 287.5 182.808594 L 290.09375 184.851562 Z M 292.683594 186.894531 "/>
<path style=" stroke:none;fill-rule:nonzero;fill:rgb(70.980392%,85.098039%,98.823529%);fill-opacity:1;" d="M 282.078125 199.820312 L 278.964844 202.003906 L 275.726562 204.003906 L 272.378906 205.808594 L 268.929688 207.410156 L 267.652344 204.445312 L 266.378906 201.476562 L 265.105469 198.511719 L 263.828125 195.542969 L 262.554688 192.574219 L 261.28125 189.609375 L 260.003906 186.640625 L 258.730469 183.675781 L 257.457031 180.707031 L 256.179688 177.738281 L 254.90625 174.773438 L 253.628906 171.804688 L 252.355469 168.839844 L 251.082031 165.871094 L 249.804688 162.902344 L 248.53125 159.9375 L 247.257812 156.96875 L 245.980469 154.003906 L 243.433594 148.066406 L 245.363281 150.65625 L 247.296875 153.242188 L 249.230469 155.832031 L 251.160156 158.417969 L 253.09375 161.007812 L 255.027344 163.59375 L 256.957031 166.179688 L 258.890625 168.769531 L 260.824219 171.355469 L 262.753906 173.945312 L 264.6875 176.53125 L 266.621094 179.121094 L 268.550781 181.707031 L 270.484375 184.292969 L 272.417969 186.882812 L 274.347656 189.46875 L 276.28125 192.058594 L 278.214844 194.644531 L 280.144531 197.234375 Z M 282.078125 199.820312 "/>
<path style=" stroke:none;fill-rule:nonzero;fill:rgb(66.27451%,74.509804%,91.372549%);fill-opacity:1;" d="M 270.488281 215.882812 L 267.261719 217.082031 L 263.984375 218.128906 L 260.664062 219.019531 L 257.300781 219.753906 L 253.910156 220.328125 L 251.527344 203.902344 L 251.050781 200.621094 L 250.097656 194.050781 L 249.625 190.765625 L 248.671875 184.195312 L 248.195312 180.914062 L 246.289062 167.773438 L 245.8125 164.492188 L 244.382812 154.636719 L 243.910156 151.351562 L 243.433594 148.066406 L 244.660156 151.152344 L 250.8125 166.5625 L 252.039062 169.644531 L 253.269531 172.726562 L 254.5 175.8125 L 258.191406 185.058594 L 259.417969 188.140625 L 261.878906 194.304688 L 263.109375 197.390625 L 265.570312 203.554688 L 266.796875 206.636719 Z M 270.488281 215.882812 "/>
</g>
</svg>
