<?xml version="1.0" encoding="UTF-8"?>
<svg xmlns="http://www.w3.org/2000/svg" xmlns:xlink="http://www.w3.org/1999/xlink" width="484pt" height="299pt" viewBox="0 0 484 299" version="1.1">
<g id="surface99">
<rect x="0" y="0" width="484" height="299" style="fill:rgb(100%,100%,100%);fill-opacity:1;stroke:none;"/>
<path style=" stroke:none;fill-rule:nonzero;fill:rgb(64.313725%,67.45098%,85.490196%);fill-opacity:1;" d="M 242.214844 156.453125 L 240.292969 155.9375 L 241.863281 152.003906 L 243.433594 148.066406 L 242.824219 152.261719 Z M 242.214844 156.453125 "/>
<path style=" stroke:none;fill-rule:nonzero;fill:rgb(63.137255%,60.784314%,80%);fill-opacity:1;" d="M 236.917969 163.226562 L 233.558594 161.289062 L 235.535156 158.644531 L 237.507812 156 L 239.484375 153.355469 L 241.457031 150.710938 L 243.433594 148.066406 L 242.128906 151.101562 L 240.828125 154.132812 L 239.523438 157.164062 L 238.222656 160.195312 Z M 236.917969 163.226562 "/>
<path style=" stroke:none;fill-rule:nonzero;fill:rgb(62.352941%,55.294118%,74.509804%);fill-opacity:1;" d="M 231.285156 163.476562 L 228.023438 160.214844 L 230.589844 158.191406 L 233.160156 156.167969 L 235.726562 154.140625 L 238.296875 152.117188 L 240.863281 150.09375 L 243.433594 148.066406 L 241.40625 150.636719 L 239.382812 153.203125 L 237.359375 155.773438 L 235.332031 158.339844 L 233.308594 160.910156 Z M 231.285156 163.476562 "/>
<path style=" stroke:none;fill-rule:nonzero;fill:rgb(65.490196%,71.372549%,89.019608%);fill-opacity:1;" d="M 218.417969 166.746094 L 216.398438 163.675781 L 214.75 160.390625 L 217.9375 159.023438 L 224.3125 156.28125 L 227.496094 154.914062 L 230.683594 153.542969 L 233.871094 152.175781 L 237.058594 150.804688 L 240.246094 149.4375 L 243.433594 148.066406 L 240.652344 150.144531 L 237.875 152.21875 L 235.09375 154.292969 L 232.316406 156.371094 L 229.535156 158.445312 L 226.757812 160.519531 L 223.976562 162.59375 L 221.199219 164.671875 Z M 218.417969 166.746094 "/>
<path style=" stroke:none;fill-rule:nonzero;fill:rgb(64.313725%,67.45098%,85.882353%);fill-opacity:1;" d="M 191.65625 168.726562 L 190.527344 165.640625 L 189.585938 162.496094 L 188.832031 159.300781 L 188.265625 156.066406 L 191.507812 155.597656 L 194.753906 155.125 L 198 154.65625 L 201.246094 154.183594 L 204.488281 153.714844 L 207.734375 153.242188 L 210.980469 152.773438 L 214.226562 152.300781 L 217.46875 151.832031 L 220.714844 151.363281 L 223.960938 150.890625 L 227.207031 150.421875 L 230.453125 149.949219 L 233.695312 149.480469 L 236.941406 149.007812 L 240.1875 148.539062 L 243.433594 148.066406 L 240.386719 149.28125 L 237.339844 150.5 L 234.296875 151.714844 L 225.15625 155.359375 L 222.113281 156.574219 L 216.019531 159.003906 L 212.976562 160.21875 L 206.882812 162.648438 L 203.839844 163.863281 L 194.699219 167.507812 Z M 191.65625 168.726562 "/>
<path style=" stroke:none;fill-rule:nonzero;fill:rgb(61.568627%,50.588235%,70.196078%);fill-opacity:1;" d="M 149.542969 159.179688 L 149.179688 155.484375 L 148.960938 151.78125 L 148.886719 148.066406 L 148.960938 144.355469 L 149.179688 140.648438 L 149.542969 136.957031 L 159.257812 138.105469 L 162.492188 138.488281 L 175.445312 140.019531 L 178.679688 140.402344 L 181.917969 140.789062 L 191.632812 141.9375 L 194.867188 142.320312 L 211.058594 144.234375 L 214.292969 144.621094 L 227.246094 146.152344 L 230.480469 146.535156 L 243.433594 148.066406 L 240.195312 148.449219 L 236.957031 148.835938 L 230.480469 149.601562 L 227.246094 149.984375 L 214.292969 151.515625 L 211.058594 151.898438 L 207.820312 152.28125 L 204.582031 152.667969 L 194.867188 153.816406 L 191.632812 154.199219 L 178.679688 155.730469 L 175.445312 156.113281 L 172.207031 156.496094 L 168.96875 156.882812 L 162.492188 157.648438 L 159.257812 158.03125 Z M 149.542969 159.179688 "/>
<path style=" stroke:none;fill-rule:nonzero;fill:rgb(61.568627%,51.372549%,70.980392%);fill-opacity:1;" d="M 168.84375 137.253906 L 169.4375 133.75 L 170.191406 130.28125 L 171.113281 126.851562 L 172.191406 123.46875 L 173.429688 120.140625 L 179.515625 122.570312 L 182.5625 123.78125 L 197.777344 129.855469 L 200.820312 131.066406 L 203.867188 132.28125 L 219.082031 138.355469 L 222.128906 139.566406 L 240.386719 146.855469 L 243.433594 148.066406 L 240.1875 147.597656 L 236.945312 147.128906 L 233.703125 146.65625 L 227.21875 145.71875 L 223.972656 145.246094 L 220.730469 144.777344 L 217.488281 144.304688 L 211.003906 143.367188 L 207.761719 142.894531 L 204.515625 142.425781 L 201.273438 141.957031 L 198.03125 141.484375 L 194.789062 141.015625 L 191.546875 140.542969 L 188.300781 140.074219 L 185.058594 139.605469 L 181.816406 139.132812 L 175.332031 138.195312 L 172.085938 137.722656 Z M 168.84375 137.253906 "/>
<path style=" stroke:none;fill-rule:nonzero;fill:rgb(62.352941%,54.509804%,74.117647%);fill-opacity:1;" d="M 197.539062 128.351562 L 199.230469 124.8125 L 201.191406 121.414062 L 203.410156 118.183594 L 227.421875 136.113281 L 230.09375 138.105469 L 243.433594 148.066406 L 240.371094 146.753906 L 237.3125 145.4375 L 234.253906 144.125 L 231.195312 142.808594 L 228.136719 141.496094 L 225.074219 140.179688 L 222.015625 138.867188 L 218.957031 137.550781 L 215.898438 136.238281 L 212.835938 134.921875 L 209.777344 133.609375 L 206.71875 132.292969 L 203.660156 130.980469 L 200.601562 129.664062 Z M 197.539062 128.351562 "/>
<path style=" stroke:none;fill-rule:nonzero;fill:rgb(67.843137%,78.039216%,93.72549%);fill-opacity:1;" d="M 216.113281 126.53125 L 218.835938 123.472656 L 221.898438 120.75 L 224.050781 123.480469 L 226.203125 126.214844 L 228.359375 128.945312 L 230.511719 131.675781 L 232.664062 134.410156 L 234.816406 137.140625 L 236.972656 139.871094 L 239.125 142.605469 L 241.277344 145.335938 L 243.433594 148.066406 L 240.699219 145.914062 L 237.96875 143.761719 L 235.238281 141.605469 L 232.503906 139.453125 L 227.042969 135.148438 L 224.308594 132.992188 L 218.847656 128.6875 Z M 216.113281 126.53125 "/>
<path style=" stroke:none;fill-rule:nonzero;fill:rgb(68.235294%,78.823529%,94.509804%);fill-opacity:1;" d="M 226.886719 125.914062 L 229.605469 124.121094 L 232.519531 122.664062 L 236.609375 132.191406 L 237.976562 135.367188 L 240.703125 141.71875 L 242.066406 144.890625 L 243.433594 148.066406 L 241.363281 145.296875 L 239.296875 142.527344 L 237.226562 139.761719 L 233.09375 134.222656 L 231.023438 131.453125 L 228.957031 128.683594 Z M 226.886719 125.914062 "/>
<path style=" stroke:none;fill-rule:nonzero;fill:rgb(67.45098%,76.862745%,93.333333%);fill-opacity:1;" d="M 232.523438 120.730469 L 235.8125 119.636719 L 239.207031 118.9375 L 239.679688 122.175781 L 240.148438 125.410156 L 241.085938 131.886719 L 241.554688 135.121094 L 242.023438 138.359375 L 242.492188 141.59375 L 242.960938 144.832031 L 243.433594 148.066406 L 242.21875 145.03125 L 241.007812 141.992188 L 239.796875 138.957031 L 238.585938 135.917969 L 237.371094 132.878906 L 236.160156 129.84375 L 233.738281 123.765625 Z M 232.523438 120.730469 "/>
<path style=" stroke:none;fill-rule:nonzero;fill:rgb(67.058824%,76.470588%,92.941176%);fill-opacity:1;" d="M 238.609375 107.324219 L 241.820312 107.070312 L 245.042969 107.070312 L 248.253906 107.324219 L 247.449219 114.113281 L 247.050781 117.511719 L 245.441406 131.089844 L 245.039062 134.488281 L 244.234375 141.277344 L 243.835938 144.671875 L 243.433594 148.066406 L 241.824219 134.488281 L 241.421875 131.089844 L 240.617188 124.300781 L 240.21875 120.90625 L 239.816406 117.511719 L 239.414062 114.113281 Z M 238.609375 107.324219 "/>
<path style=" stroke:none;fill-rule:nonzero;fill:rgb(66.666667%,75.686275%,92.54902%);fill-opacity:1;" d="M 248.296875 114.527344 L 252.203125 115.328125 L 255.992188 116.585938 L 254.734375 119.734375 L 253.480469 122.882812 L 252.222656 126.03125 L 250.96875 129.179688 L 249.710938 132.328125 L 248.457031 135.476562 L 247.199219 138.625 L 245.945312 141.773438 L 244.6875 144.917969 L 243.433594 148.066406 L 243.917969 144.714844 L 244.40625 141.359375 L 244.890625 138.003906 L 245.378906 134.652344 L 245.863281 131.296875 L 246.351562 127.941406 L 246.835938 124.589844 L 247.324219 121.234375 L 247.808594 117.878906 Z M 248.296875 114.527344 "/>
<path style=" stroke:none;fill-rule:nonzero;fill:rgb(64.313725%,67.058824%,85.490196%);fill-opacity:1;" d="M 257.164062 116.109375 L 260.824219 117.941406 L 264.246094 120.195312 L 262.164062 122.984375 L 260.082031 125.769531 L 258 128.558594 L 255.917969 131.34375 L 253.839844 134.132812 L 251.757812 136.917969 L 249.675781 139.707031 L 247.59375 142.492188 L 245.511719 145.28125 L 243.433594 148.066406 L 244.804688 144.871094 L 246.179688 141.675781 L 247.550781 138.480469 L 248.925781 135.285156 L 250.296875 132.085938 L 251.671875 128.890625 L 253.042969 125.695312 L 254.417969 122.5 L 255.789062 119.304688 Z M 257.164062 116.109375 "/>
<path style=" stroke:none;fill-rule:nonzero;fill:rgb(61.960784%,52.941176%,72.54902%);fill-opacity:1;" d="M 275.457031 107.441406 L 278.546875 110.082031 L 281.417969 112.953125 L 284.058594 116.042969 L 278.980469 120.042969 L 276.441406 122.046875 L 273.902344 124.046875 L 271.363281 126.050781 L 268.824219 128.050781 L 266.285156 130.054688 L 261.207031 134.054688 L 258.667969 136.058594 L 256.128906 138.058594 L 253.589844 140.0625 L 251.050781 142.0625 L 248.511719 144.066406 L 243.433594 148.066406 L 247.433594 142.988281 L 249.4375 140.449219 L 251.4375 137.910156 L 253.441406 135.371094 L 255.441406 132.832031 L 257.445312 130.292969 L 261.445312 125.214844 L 263.449219 122.675781 L 265.449219 120.136719 L 267.453125 117.597656 L 269.453125 115.058594 L 271.457031 112.519531 Z M 275.457031 107.441406 "/>
<path style=" stroke:none;fill-rule:nonzero;fill:rgb(63.921569%,65.490196%,84.313725%);fill-opacity:1;" d="M 294.886719 109.644531 L 297.058594 112.738281 L 299.046875 115.957031 L 300.839844 119.289062 L 302.4375 122.71875 L 299.484375 123.984375 L 296.535156 125.253906 L 293.585938 126.519531 L 290.636719 127.789062 L 287.683594 129.054688 L 284.734375 130.324219 L 281.785156 131.589844 L 278.835938 132.859375 L 275.882812 134.125 L 272.933594 135.394531 L 269.984375 136.660156 L 267.035156 137.929688 L 264.082031 139.195312 L 261.132812 140.464844 L 255.234375 142.996094 L 252.28125 144.265625 L 249.332031 145.53125 L 246.382812 146.800781 L 243.433594 148.066406 L 246.003906 146.148438 L 251.152344 142.304688 L 253.722656 140.382812 L 256.296875 138.460938 L 258.867188 136.539062 L 261.441406 134.621094 L 264.015625 132.699219 L 266.585938 130.777344 L 271.734375 126.933594 L 274.304688 125.015625 L 276.878906 123.09375 L 279.449219 121.171875 L 284.597656 117.328125 L 287.167969 115.40625 L 289.742188 113.488281 L 292.316406 111.566406 Z M 294.886719 109.644531 "/>
<path style=" stroke:none;fill-rule:nonzero;fill:rgb(65.098039%,69.411765%,87.45098%);fill-opacity:1;" d="M 293.964844 127.90625 L 295.066406 130.917969 L 295.984375 133.984375 L 296.722656 137.105469 L 297.277344 140.261719 L 294.109375 140.71875 L 290.941406 141.179688 L 287.773438 141.636719 L 284.605469 142.097656 L 281.441406 142.558594 L 278.273438 143.015625 L 275.105469 143.476562 L 271.9375 143.933594 L 268.769531 144.394531 L 265.601562 144.851562 L 262.4375 145.3125 L 259.269531 145.773438 L 256.101562 146.230469 L 252.933594 146.691406 L 249.765625 147.148438 L 246.597656 147.609375 L 243.433594 148.066406 L 246.40625 146.882812 L 249.378906 145.695312 L 252.351562 144.511719 L 258.296875 142.136719 L 261.269531 140.953125 L 264.242188 139.765625 L 267.210938 138.582031 L 273.15625 136.207031 L 276.128906 135.023438 L 279.101562 133.835938 L 282.074219 132.652344 L 288.019531 130.277344 L 290.992188 129.09375 Z M 293.964844 127.90625 "/>
<path style=" stroke:none;fill-rule:nonzero;fill:rgb(66.27451%,74.509804%,91.372549%);fill-opacity:1;" d="M 271.777344 144.714844 L 271.972656 148.066406 L 271.777344 151.421875 L 268.234375 151.003906 L 264.691406 150.582031 L 257.605469 149.746094 L 254.0625 149.324219 L 246.976562 148.488281 L 243.433594 148.066406 L 250.519531 147.230469 L 254.0625 146.808594 L 261.148438 145.972656 L 264.691406 145.550781 Z M 271.777344 144.714844 "/>
<path style=" stroke:none;fill-rule:nonzero;fill:rgb(67.843137%,78.431373%,94.117647%);fill-opacity:1;" d="M 255.347656 149.796875 L 254.617188 152.53125 L 250.886719 151.042969 L 243.433594 148.066406 L 247.402344 148.644531 L 251.375 149.21875 Z M 255.347656 149.796875 "/>
<path style=" stroke:none;fill-rule:nonzero;fill:rgb(70.980392%,85.098039%,98.823529%);fill-opacity:1;" d="M 249.578125 150.707031 L 248.792969 152.070312 L 246.113281 150.070312 L 243.433594 148.066406 L 246.503906 149.386719 Z M 249.578125 150.707031 "/>
<path style=" stroke:none;fill-rule:nonzero;fill:rgb(69.803922%,82.352941%,96.862745%);fill-opacity:1;" d="M 246.585938 150.550781 L 245.917969 151.21875 L 243.433594 148.066406 Z M 246.585938 150.550781 "/>
<path style=" stroke:none;fill-rule:nonzero;fill:rgb(69.803922%,82.352941%,96.862745%);fill-opacity:1;" d="M 245.566406 150.925781 L 244.839844 151.347656 L 243.433594 148.066406 Z M 245.566406 150.925781 "/>
<path style=" stroke:none;fill-rule:nonzero;fill:rgb(65.490196%,71.764706%,89.411765%);fill-opacity:1;" d="M 244.917969 151.796875 L 244.007812 152.039062 L 243.433594 148.066406 Z M 244.917969 151.796875 "/>
</g>
</svg>
