<?xml version="1.0" encoding="UTF-8"?>
<svg xmlns="http://www.w3.org/2000/svg" xmlns:xlink="http://www.w3.org/1999/xlink" width="484pt" height="299pt" viewBox="0 0 484 299" version="1.1">
<g id="surface39">
<rect x="0" y="0" width="484" height="299" style="fill:rgb(100%,100%,100%);fill-opacity:1;stroke:none;"/>
<path style=" stroke:none;fill-rule:nonzero;fill:rgb(62.745098%,58.823529%,78.039216%);fill-opacity:1;" d="M 238.074219 185.019531 L 233.769531 184.132812 L 229.597656 182.746094 L 240.917969 154.375 L 242.175781 151.21875 L 243.433594 148.066406 L 242.457031 154.785156 L 241.972656 158.144531 L 240.507812 168.222656 L 240.023438 171.582031 L 239.046875 178.300781 L 238.5625 181.660156 Z M 238.074219 185.019531 "/>
<path style=" stroke:none;fill-rule:nonzero;fill:rgb(62.745098%,59.607843%,79.215686%);fill-opacity:1;" d="M 224.90625 191.1875 L 221.582031 189.601562 L 218.390625 187.757812 L 215.351562 185.671875 L 217.359375 182.984375 L 219.363281 180.296875 L 221.371094 177.613281 L 223.375 174.925781 L 225.382812 172.242188 L 227.386719 169.554688 L 229.394531 166.867188 L 231.398438 164.183594 L 233.402344 161.496094 L 235.410156 158.8125 L 237.414062 156.125 L 239.421875 153.441406 L 241.425781 150.753906 L 243.433594 148.066406 L 242.109375 151.148438 L 240.785156 154.226562 L 239.460938 157.308594 L 238.140625 160.386719 L 236.816406 163.46875 L 235.492188 166.546875 L 234.167969 169.628906 L 232.847656 172.707031 L 231.523438 175.785156 L 230.199219 178.867188 L 228.875 181.945312 L 227.554688 185.027344 L 226.230469 188.105469 Z M 224.90625 191.1875 "/>
<path style=" stroke:none;fill-rule:nonzero;fill:rgb(63.921569%,65.098039%,83.529412%);fill-opacity:1;" d="M 206.109375 195.414062 L 203.386719 193.132812 L 200.800781 190.699219 L 198.367188 188.113281 L 196.085938 185.390625 L 198.714844 183.320312 L 201.347656 181.246094 L 203.976562 179.171875 L 206.609375 177.097656 L 211.867188 172.949219 L 214.5 170.878906 L 219.757812 166.730469 L 222.390625 164.65625 L 227.648438 160.507812 L 230.28125 158.4375 L 232.910156 156.363281 L 235.542969 154.289062 L 240.800781 150.140625 L 243.433594 148.066406 L 241.359375 150.699219 L 237.210938 155.957031 L 235.136719 158.589844 L 233.0625 161.21875 L 230.992188 163.851562 L 226.84375 169.109375 L 224.769531 171.742188 L 220.621094 177 L 218.550781 179.632812 L 214.402344 184.890625 L 212.328125 187.523438 L 210.253906 190.152344 L 208.179688 192.785156 Z M 206.109375 195.414062 "/>
<path style=" stroke:none;fill-rule:nonzero;fill:rgb(65.098039%,70.588235%,88.235294%);fill-opacity:1;" d="M 182.5 193.566406 L 180.425781 190.648438 L 178.488281 187.632812 L 176.695312 184.527344 L 175.054688 181.34375 L 173.5625 178.085938 L 176.597656 176.78125 L 185.714844 172.867188 L 188.75 171.5625 L 191.789062 170.253906 L 194.828125 168.949219 L 197.863281 167.644531 L 203.941406 165.035156 L 206.976562 163.730469 L 213.054688 161.121094 L 216.089844 159.8125 L 222.167969 157.203125 L 225.203125 155.898438 L 234.320312 151.984375 L 237.355469 150.679688 L 240.394531 149.371094 L 243.433594 148.066406 L 240.78125 150.046875 L 238.132812 152.023438 L 235.484375 154.003906 L 232.835938 155.980469 L 230.1875 157.960938 L 227.535156 159.9375 L 224.886719 161.914062 L 222.238281 163.894531 L 219.589844 165.871094 L 216.941406 167.851562 L 214.289062 169.828125 L 211.640625 171.808594 L 208.992188 173.785156 L 206.34375 175.765625 L 203.695312 177.742188 L 201.042969 179.71875 L 198.394531 181.699219 L 195.746094 183.675781 L 193.097656 185.65625 L 190.449219 187.632812 L 187.796875 189.613281 Z M 182.5 193.566406 "/>
<path style=" stroke:none;fill-rule:nonzero;fill:rgb(63.137255%,62.352941%,81.568627%);fill-opacity:1;" d="M 156.890625 182.59375 L 155.601562 179.167969 L 154.449219 175.699219 L 153.433594 172.183594 L 152.554688 168.632812 L 151.820312 165.046875 L 151.222656 161.4375 L 224.355469 150.835938 L 227.535156 150.371094 L 243.433594 148.066406 L 231.496094 152.832031 L 228.511719 154.019531 L 219.558594 157.59375 L 216.574219 158.78125 L 204.636719 163.546875 L 201.652344 164.734375 L 198.667969 165.925781 L 195.6875 167.117188 L 192.703125 168.308594 L 189.71875 169.496094 L 177.78125 174.261719 L 174.796875 175.449219 L 162.859375 180.214844 L 159.875 181.402344 Z M 156.890625 182.59375 "/>
<path style=" stroke:none;fill-rule:nonzero;fill:rgb(63.137255%,62.352941%,81.568627%);fill-opacity:1;" d="M 149.542969 159.179688 L 149.179688 155.484375 L 148.960938 151.78125 L 148.886719 148.066406 L 148.960938 144.355469 L 149.179688 140.648438 L 149.542969 136.957031 L 159.257812 138.105469 L 162.492188 138.488281 L 175.445312 140.019531 L 178.679688 140.402344 L 181.917969 140.789062 L 191.632812 141.9375 L 194.867188 142.320312 L 211.058594 144.234375 L 214.292969 144.621094 L 227.246094 146.152344 L 230.480469 146.535156 L 243.433594 148.066406 L 240.195312 148.449219 L 236.957031 148.835938 L 230.480469 149.601562 L 227.246094 149.984375 L 214.292969 151.515625 L 211.058594 151.898438 L 207.820312 152.28125 L 204.582031 152.667969 L 194.867188 153.816406 L 191.632812 154.199219 L 178.679688 155.730469 L 175.445312 156.113281 L 172.207031 156.496094 L 168.96875 156.882812 L 162.492188 157.648438 L 159.257812 158.03125 Z M 149.542969 159.179688 "/>
<path style=" stroke:none;fill-rule:nonzero;fill:rgb(63.137255%,61.960784%,81.176471%);fill-opacity:1;" d="M 180.039062 138.875 L 180.6875 135.160156 L 181.558594 131.488281 L 182.640625 127.875 L 183.933594 124.332031 L 186.910156 125.519531 L 189.886719 126.703125 L 192.859375 127.890625 L 195.835938 129.078125 L 198.808594 130.265625 L 201.785156 131.453125 L 204.757812 132.640625 L 207.734375 133.824219 L 210.707031 135.011719 L 216.660156 137.386719 L 219.632812 138.574219 L 222.609375 139.761719 L 225.582031 140.945312 L 228.558594 142.132812 L 231.53125 143.320312 L 237.484375 145.695312 L 240.457031 146.882812 L 243.433594 148.066406 L 240.261719 147.609375 L 237.09375 147.148438 L 233.921875 146.6875 L 230.753906 146.230469 L 227.582031 145.769531 L 224.414062 145.308594 L 221.246094 144.851562 L 218.074219 144.390625 L 214.90625 143.929688 L 211.734375 143.472656 L 208.566406 143.011719 L 205.394531 142.554688 L 202.226562 142.09375 L 199.054688 141.632812 L 195.886719 141.175781 L 192.71875 140.714844 L 189.546875 140.253906 L 186.378906 139.796875 L 183.207031 139.335938 Z M 180.039062 138.875 "/>
<path style=" stroke:none;fill-rule:nonzero;fill:rgb(61.568627%,50.588235%,70.196078%);fill-opacity:1;" d="M 197.167969 128.191406 L 198.867188 124.621094 L 200.84375 121.199219 L 203.085938 117.9375 L 205.773438 119.949219 L 211.15625 123.964844 L 213.84375 125.972656 L 216.535156 127.980469 L 219.222656 129.992188 L 221.914062 132 L 224.601562 134.007812 L 229.984375 138.023438 L 232.671875 140.035156 L 235.363281 142.042969 L 238.050781 144.050781 L 243.433594 148.066406 L 237.261719 145.417969 L 234.179688 144.09375 L 231.09375 142.765625 L 228.011719 141.441406 L 221.839844 138.792969 L 218.757812 137.464844 L 215.671875 136.140625 L 212.589844 134.816406 L 206.417969 132.167969 L 203.335938 130.839844 L 200.25 129.515625 Z M 197.167969 128.191406 "/>
<path style=" stroke:none;fill-rule:nonzero;fill:rgb(64.313725%,66.27451%,85.098039%);fill-opacity:1;" d="M 213.570312 124.527344 L 216.546875 121.179688 L 219.890625 118.207031 L 230.59375 131.78125 L 232.730469 134.496094 L 239.152344 142.640625 L 241.292969 145.351562 L 243.433594 148.066406 L 240.71875 145.929688 L 227.144531 135.226562 L 224.429688 133.089844 Z M 213.570312 124.527344 "/>
<path style=" stroke:none;fill-rule:nonzero;fill:rgb(63.921569%,64.705882%,83.529412%);fill-opacity:1;" d="M 224.574219 122.816406 L 227.675781 120.773438 L 230.992188 119.113281 L 232.375 122.328125 L 233.757812 125.546875 L 235.136719 128.765625 L 236.519531 131.980469 L 239.285156 138.417969 L 240.667969 141.632812 L 242.050781 144.851562 L 243.433594 148.066406 L 241.335938 145.261719 L 237.148438 139.652344 L 235.050781 136.84375 L 230.863281 131.234375 L 228.765625 128.429688 L 226.671875 125.621094 Z M 224.574219 122.816406 "/>
<path style=" stroke:none;fill-rule:nonzero;fill:rgb(63.137255%,62.352941%,81.568627%);fill-opacity:1;" d="M 228.835938 111.480469 L 233.238281 110.015625 L 237.78125 109.082031 L 238.25 112.332031 L 238.722656 115.578125 L 239.191406 118.828125 L 239.664062 122.078125 L 240.132812 125.328125 L 240.605469 128.574219 L 241.078125 131.824219 L 241.546875 135.074219 L 242.019531 138.320312 L 242.488281 141.570312 L 242.960938 144.820312 L 243.433594 148.066406 L 242.214844 145.019531 L 241 141.96875 L 239.78125 138.921875 L 238.566406 135.871094 L 237.351562 132.824219 L 236.132812 129.773438 L 234.917969 126.722656 L 233.699219 123.675781 L 232.484375 120.625 L 231.265625 117.578125 L 230.050781 114.527344 Z M 228.835938 111.480469 "/>
<path style=" stroke:none;fill-rule:nonzero;fill:rgb(62.745098%,57.647059%,77.254902%);fill-opacity:1;" d="M 237.394531 97.042969 L 241.414062 96.726562 L 245.449219 96.726562 L 249.472656 97.042969 L 248.714844 103.417969 L 248.339844 106.609375 L 247.960938 109.796875 L 247.585938 112.988281 L 247.207031 116.175781 L 246.828125 119.367188 L 246.453125 122.554688 L 246.074219 125.742188 L 245.695312 128.933594 L 245.320312 132.121094 L 244.941406 135.3125 L 244.566406 138.5 L 244.1875 141.691406 L 243.808594 144.878906 L 243.433594 148.066406 L 242.675781 141.691406 L 242.300781 138.5 L 241.921875 135.3125 L 241.542969 132.121094 L 241.167969 128.933594 L 240.789062 125.742188 L 240.414062 122.554688 L 240.035156 119.367188 L 239.65625 116.175781 L 239.28125 112.988281 L 238.902344 109.796875 L 238.523438 106.609375 L 238.148438 103.417969 L 237.769531 100.230469 Z M 237.394531 97.042969 "/>
<path style=" stroke:none;fill-rule:nonzero;fill:rgb(64.705882%,67.843137%,86.27451%);fill-opacity:1;" d="M 249.378906 107.046875 L 252.578125 107.640625 L 255.722656 108.484375 L 258.792969 109.570312 L 256.230469 115.984375 L 254.953125 119.195312 L 252.390625 125.609375 L 251.113281 128.820312 L 248.550781 135.234375 L 247.273438 138.445312 L 244.710938 144.859375 L 243.433594 148.066406 L 243.929688 144.648438 L 244.421875 141.230469 L 247.894531 117.304688 L 248.386719 113.886719 L 248.882812 110.464844 Z M 249.378906 107.046875 "/>
<path style=" stroke:none;fill-rule:nonzero;fill:rgb(65.490196%,71.764706%,89.411765%);fill-opacity:1;" d="M 261.550781 105.894531 L 264.804688 107.445312 L 267.925781 109.246094 L 270.894531 111.289062 L 268.933594 113.914062 L 265.011719 119.171875 L 263.050781 121.796875 L 261.085938 124.425781 L 259.125 127.050781 L 257.164062 129.679688 L 255.203125 132.304688 L 253.242188 134.933594 L 251.277344 137.558594 L 249.316406 140.1875 L 247.355469 142.8125 L 245.394531 145.441406 L 243.433594 148.066406 L 246.019531 142.042969 L 247.316406 139.03125 L 248.609375 136.019531 L 249.902344 133.003906 L 251.199219 129.992188 L 253.785156 123.96875 L 255.082031 120.957031 L 256.375 117.945312 L 257.667969 114.929688 L 258.964844 111.917969 Z M 261.550781 105.894531 "/>
<path style=" stroke:none;fill-rule:nonzero;fill:rgb(64.313725%,67.45098%,85.490196%);fill-opacity:1;" d="M 274.605469 108.523438 L 277.613281 111.089844 L 280.410156 113.886719 L 282.976562 116.894531 L 272.429688 125.207031 L 269.796875 127.285156 L 248.703125 143.910156 L 246.070312 145.988281 L 243.433594 148.066406 L 245.511719 145.429688 L 247.589844 142.796875 L 264.214844 121.703125 L 266.292969 119.070312 Z M 274.605469 108.523438 "/>
<path style=" stroke:none;fill-rule:nonzero;fill:rgb(64.313725%,67.058824%,85.490196%);fill-opacity:1;" d="M 275.269531 124.292969 L 277.84375 128.199219 L 279.941406 132.382812 L 276.898438 133.691406 L 273.855469 134.996094 L 270.8125 136.304688 L 267.769531 137.609375 L 264.730469 138.917969 L 261.6875 140.226562 L 258.644531 141.53125 L 252.558594 144.148438 L 249.515625 145.453125 L 246.472656 146.761719 L 243.433594 148.066406 L 251.390625 142.125 L 254.046875 140.144531 L 256.699219 138.160156 L 264.65625 132.21875 L 267.3125 130.238281 L 269.964844 128.253906 Z M 275.269531 124.292969 "/>
<path style=" stroke:none;fill-rule:nonzero;fill:rgb(63.921569%,65.490196%,83.921569%);fill-opacity:1;" d="M 257.113281 142.609375 L 258.007812 145.953125 L 254.363281 146.484375 L 250.722656 147.011719 L 243.433594 148.066406 L 246.851562 146.703125 L 250.273438 145.339844 L 253.691406 143.972656 Z M 257.113281 142.609375 "/>
<path style=" stroke:none;fill-rule:nonzero;fill:rgb(65.098039%,69.411765%,87.45098%);fill-opacity:1;" d="M 247.515625 147.585938 L 247.515625 148.550781 L 243.433594 148.066406 Z M 247.515625 147.585938 "/>
<path style=" stroke:none;fill-rule:nonzero;fill:rgb(67.058824%,76.078431%,92.54902%);fill-opacity:1;" d="M 248.515625 148.804688 L 248.203125 149.972656 L 243.433594 148.066406 Z M 248.515625 148.804688 "/>
<path style=" stroke:none;fill-rule:nonzero;fill:rgb(65.882353%,72.941176%,90.196078%);fill-opacity:1;" d="M 245.949219 149.148438 L 245.628906 149.707031 L 243.433594 148.066406 Z M 245.949219 149.148438 "/>
<path style=" stroke:none;fill-rule:nonzero;fill:rgb(70.980392%,85.098039%,98.823529%);fill-opacity:1;" d="M 246.121094 150.1875 L 245.554688 150.757812 L 243.433594 148.066406 Z M 246.121094 150.1875 "/>
<path style=" stroke:none;fill-rule:nonzero;fill:rgb(70.588235%,84.313725%,98.431373%);fill-opacity:1;" d="M 245.070312 150.261719 L 244.515625 150.585938 L 243.433594 148.066406 Z M 245.070312 150.261719 "/>
<path style=" stroke:none;fill-rule:nonzero;fill:rgb(65.098039%,69.803922%,87.843137%);fill-opacity:1;" d="M 244.828125 151.566406 L 243.972656 151.796875 L 243.433594 148.066406 Z M 244.828125 151.566406 "/>
</g>
</svg>
