<?xml version="1.0" encoding="UTF-8"?>
<svg xmlns="http://www.w3.org/2000/svg" xmlns:xlink="http://www.w3.org/1999/xlink" width="484pt" height="299pt" viewBox="0 0 484 299" version="1.1">
<g id="surface133">
<rect x="0" y="0" width="484" height="299" style="fill:rgb(100%,100%,100%);fill-opacity:1;stroke:none;"/>
<path style=" stroke:none;fill-rule:nonzero;fill:rgb(67.45098%,77.254902%,93.333333%);fill-opacity:1;" d="M 242.847656 152.085938 L 241.925781 151.839844 L 243.433594 148.066406 Z M 242.847656 152.085938 "/>
<path style=" stroke:none;fill-rule:nonzero;fill:rgb(70.980392%,85.098039%,98.823529%);fill-opacity:1;" d="M 242.058594 151.265625 L 241.351562 150.855469 L 243.433594 148.066406 Z M 242.058594 151.265625 "/>
<path style=" stroke:none;fill-rule:nonzero;fill:rgb(70.980392%,85.098039%,98.823529%);fill-opacity:1;" d="M 241.996094 149.890625 L 241.609375 149.503906 L 243.433594 148.066406 Z M 241.996094 149.890625 "/>
<path style=" stroke:none;fill-rule:nonzero;fill:rgb(67.45098%,77.647059%,93.72549%);fill-opacity:1;" d="M 242.039062 149.109375 L 241.832031 148.753906 L 243.433594 148.066406 Z M 242.039062 149.109375 "/>
<path style=" stroke:none;fill-rule:nonzero;fill:rgb(69.411765%,81.176471%,96.078431%);fill-opacity:1;" d="M 240.738281 149.140625 L 240.5625 148.484375 L 243.433594 148.066406 Z M 240.738281 149.140625 "/>
<path style=" stroke:none;fill-rule:nonzero;fill:rgb(62.745098%,57.647059%,76.862745%);fill-opacity:1;" d="M 240.550781 148.410156 L 240.550781 147.726562 L 243.433594 148.066406 Z M 240.550781 148.410156 "/>
<path style=" stroke:none;fill-rule:nonzero;fill:rgb(63.137255%,60.784314%,80%);fill-opacity:1;" d="M 230.230469 146.152344 L 231.042969 143.125 L 234.140625 144.359375 L 237.238281 145.597656 L 243.433594 148.066406 L 240.132812 147.589844 L 236.832031 147.109375 L 233.53125 146.632812 Z M 230.230469 146.152344 "/>
<path style=" stroke:none;fill-rule:nonzero;fill:rgb(63.137255%,61.176471%,80.392157%);fill-opacity:1;" d="M 223.714844 139.597656 L 226.238281 135.226562 L 229.101562 137.367188 L 234.835938 141.648438 L 237.699219 143.789062 L 240.566406 145.929688 L 243.433594 148.066406 L 240.144531 146.65625 L 236.859375 145.242188 L 233.574219 143.832031 L 230.285156 142.421875 L 227 141.007812 Z M 223.714844 139.597656 "/>
<path style=" stroke:none;fill-rule:nonzero;fill:rgb(63.921569%,64.705882%,83.529412%);fill-opacity:1;" d="M 217.46875 127.601562 L 220.054688 124.691406 L 222.964844 122.105469 L 225.011719 124.699219 L 229.105469 129.894531 L 231.152344 132.488281 L 235.246094 137.683594 L 237.292969 140.277344 L 241.386719 145.472656 L 243.433594 148.066406 L 238.238281 143.972656 L 235.644531 141.925781 L 230.449219 137.832031 L 227.855469 135.785156 L 225.257812 133.738281 L 222.660156 131.695312 L 220.066406 129.648438 Z M 217.46875 127.601562 "/>
<path style=" stroke:none;fill-rule:nonzero;fill:rgb(64.313725%,66.666667%,85.098039%);fill-opacity:1;" d="M 227.121094 126.226562 L 229.800781 124.460938 L 232.671875 123.019531 L 234.015625 126.152344 L 235.359375 129.28125 L 236.707031 132.414062 L 238.050781 135.542969 L 239.398438 138.675781 L 240.742188 141.804688 L 242.085938 144.9375 L 243.433594 148.066406 L 233.238281 134.414062 L 231.199219 131.6875 Z M 227.121094 126.226562 "/>
<path style=" stroke:none;fill-rule:nonzero;fill:rgb(65.490196%,70.980392%,88.627451%);fill-opacity:1;" d="M 235.265625 127.597656 L 240.269531 126.253906 L 241.324219 133.527344 L 241.851562 137.160156 L 242.90625 144.433594 L 243.433594 148.066406 L 242.070312 144.65625 L 240.710938 141.242188 L 239.347656 137.832031 L 237.988281 134.421875 L 236.625 131.007812 Z M 235.265625 127.597656 "/>
<path style=" stroke:none;fill-rule:nonzero;fill:rgb(65.490196%,72.156863%,89.803922%);fill-opacity:1;" d="M 239.476562 114.660156 L 243.433594 114.425781 L 247.386719 114.660156 L 246.992188 118 L 246.59375 121.339844 L 246.199219 124.683594 L 245.015625 134.703125 L 244.617188 138.046875 L 243.433594 148.066406 L 243.035156 144.726562 L 242.246094 138.046875 L 241.851562 134.703125 L 241.453125 131.363281 L 240.664062 124.683594 L 240.269531 121.339844 L 239.875 118 Z M 239.476562 114.660156 "/>
<path style=" stroke:none;fill-rule:nonzero;fill:rgb(63.921569%,65.882353%,84.705882%);fill-opacity:1;" d="M 247.84375 117.644531 L 251.386719 118.375 L 254.824219 119.515625 L 251.027344 129.03125 L 249.761719 132.207031 L 243.433594 148.066406 L 243.921875 144.6875 L 244.414062 141.308594 L 244.902344 137.925781 L 245.394531 134.546875 L 245.882812 131.167969 L 246.371094 127.785156 L 246.863281 124.40625 L 247.351562 121.023438 Z M 247.84375 117.644531 "/>
<path style=" stroke:none;fill-rule:nonzero;fill:rgb(65.882353%,73.333333%,90.588235%);fill-opacity:1;" d="M 258.085938 113.960938 L 261.992188 115.917969 L 265.644531 118.324219 L 261.605469 123.730469 L 259.585938 126.4375 L 251.507812 137.25 L 249.488281 139.957031 L 247.46875 142.660156 L 245.453125 145.363281 L 243.433594 148.066406 L 244.765625 144.96875 L 248.761719 135.664062 L 250.09375 132.566406 L 254.089844 123.261719 L 255.421875 120.164062 Z M 258.085938 113.960938 "/>
<path style=" stroke:none;fill-rule:nonzero;fill:rgb(64.705882%,68.627451%,86.666667%);fill-opacity:1;" d="M 260.667969 126.203125 L 263.117188 128.382812 L 265.296875 130.832031 L 262.5625 132.984375 L 259.832031 135.140625 L 257.097656 137.296875 L 254.363281 139.449219 L 251.632812 141.605469 L 248.898438 143.757812 L 246.164062 145.914062 L 243.433594 148.066406 L 245.585938 145.335938 L 247.742188 142.601562 L 249.894531 139.867188 L 252.050781 137.136719 L 254.203125 134.402344 L 256.359375 131.667969 L 258.515625 128.9375 Z M 260.667969 126.203125 "/>
<path style=" stroke:none;fill-rule:nonzero;fill:rgb(62.352941%,55.294118%,74.901961%);fill-opacity:1;" d="M 278.753906 121.691406 L 280.714844 124.546875 L 282.445312 127.542969 L 283.933594 130.667969 L 280.820312 132.003906 L 274.585938 134.683594 L 271.472656 136.019531 L 268.355469 137.359375 L 265.242188 138.699219 L 262.125 140.035156 L 259.011719 141.375 L 255.894531 142.714844 L 252.777344 144.050781 L 249.664062 145.390625 L 246.546875 146.730469 L 243.433594 148.066406 L 246.148438 146.039062 L 248.867188 144.011719 L 251.582031 141.980469 L 254.300781 139.953125 L 257.015625 137.921875 L 259.734375 135.894531 L 262.449219 133.867188 L 265.167969 131.835938 L 267.886719 129.808594 L 270.601562 127.777344 L 273.320312 125.75 L 276.035156 123.722656 Z M 278.753906 121.691406 "/>
<path style=" stroke:none;fill-rule:nonzero;fill:rgb(63.137255%,61.568627%,80.784314%);fill-opacity:1;" d="M 302.152344 124.640625 L 303.429688 128.136719 L 304.5 131.703125 L 305.359375 135.328125 L 306 138.996094 L 299.414062 139.949219 L 296.121094 140.429688 L 286.242188 141.859375 L 282.949219 142.339844 L 273.070312 143.769531 L 269.777344 144.25 L 256.605469 146.15625 L 253.3125 146.636719 L 243.433594 148.066406 L 246.523438 146.835938 L 252.703125 144.367188 L 255.792969 143.136719 L 258.886719 141.902344 L 261.976562 140.667969 L 265.066406 139.4375 L 271.246094 136.96875 L 274.339844 135.738281 L 280.519531 133.269531 L 283.609375 132.039062 L 286.699219 130.804688 L 289.792969 129.574219 L 295.972656 127.105469 L 299.0625 125.875 Z M 302.152344 124.640625 "/>
<path style=" stroke:none;fill-rule:nonzero;fill:rgb(64.313725%,67.45098%,85.882353%);fill-opacity:1;" d="M 322.921875 138.660156 L 323.277344 142.414062 L 323.453125 146.183594 L 323.453125 149.953125 L 323.277344 153.722656 L 322.921875 157.476562 L 319.742188 157.101562 L 316.5625 156.722656 L 313.382812 156.347656 L 310.203125 155.96875 L 303.84375 155.21875 L 300.664062 154.839844 L 294.304688 154.089844 L 291.125 153.710938 L 284.765625 152.960938 L 281.585938 152.582031 L 275.226562 151.832031 L 272.046875 151.453125 L 265.6875 150.703125 L 262.507812 150.324219 L 256.148438 149.574219 L 252.972656 149.195312 L 246.613281 148.445312 L 243.433594 148.066406 L 249.792969 147.316406 L 252.972656 146.9375 L 256.148438 146.5625 L 259.328125 146.1875 L 262.507812 145.808594 L 268.867188 145.058594 L 272.046875 144.679688 L 278.40625 143.929688 L 281.585938 143.550781 L 287.945312 142.800781 L 291.125 142.421875 L 297.484375 141.671875 L 300.664062 141.292969 L 307.023438 140.542969 L 310.203125 140.164062 L 316.5625 139.414062 L 319.742188 139.035156 Z M 322.921875 138.660156 "/>
<path style=" stroke:none;fill-rule:nonzero;fill:rgb(63.529412%,64.313725%,83.137255%);fill-opacity:1;" d="M 336.996094 161.632812 L 336.394531 165.296875 L 335.644531 168.933594 L 334.753906 172.539062 L 333.722656 176.105469 L 332.554688 179.628906 L 331.246094 183.101562 L 328.21875 181.894531 L 325.1875 180.6875 L 322.160156 179.476562 L 316.105469 177.0625 L 313.078125 175.851562 L 310.050781 174.644531 L 307.019531 173.4375 L 303.992188 172.230469 L 300.964844 171.019531 L 291.882812 167.398438 L 288.851562 166.1875 L 279.769531 162.566406 L 276.742188 161.355469 L 273.710938 160.148438 L 270.683594 158.941406 L 267.65625 157.730469 L 258.574219 154.109375 L 255.542969 152.898438 L 246.460938 149.277344 L 243.433594 148.066406 L 249.886719 149.003906 L 253.109375 149.472656 L 256.335938 149.9375 L 266.015625 151.34375 L 269.242188 151.808594 L 278.921875 153.214844 L 282.148438 153.679688 L 295.054688 155.554688 L 298.28125 156.019531 L 307.960938 157.425781 L 311.1875 157.890625 L 320.867188 159.296875 L 324.09375 159.761719 L 327.320312 160.230469 L 330.542969 160.699219 L 333.769531 161.167969 Z M 336.996094 161.632812 "/>
<path style=" stroke:none;fill-rule:nonzero;fill:rgb(63.529412%,64.313725%,83.137255%);fill-opacity:1;" d="M 303.652344 173.941406 L 302.023438 177.441406 L 300.195312 180.839844 L 298.167969 184.125 L 295.949219 187.285156 L 293.324219 185.324219 L 290.695312 183.363281 L 280.195312 175.519531 L 277.566406 173.558594 L 267.066406 165.714844 L 264.4375 163.753906 L 256.5625 157.871094 L 253.933594 155.910156 L 243.433594 148.066406 L 246.441406 149.363281 L 261.5 155.828125 L 264.507812 157.125 L 276.554688 162.296875 L 279.5625 163.589844 L 282.574219 164.886719 L 294.621094 170.058594 L 297.628906 171.351562 L 300.640625 172.648438 Z M 303.652344 173.941406 "/>
<path style=" stroke:none;fill-rule:nonzero;fill:rgb(63.529412%,63.921569%,82.745098%);fill-opacity:1;" d="M 281.238281 177.871094 L 278.785156 180.746094 L 276.109375 183.417969 L 273.238281 185.875 L 271.25 183.355469 L 269.261719 180.832031 L 267.277344 178.3125 L 263.300781 173.273438 L 261.316406 170.75 L 257.339844 165.710938 L 255.355469 163.191406 L 253.367188 160.671875 L 251.378906 158.148438 L 249.394531 155.628906 L 245.417969 150.589844 L 243.433594 148.066406 L 248.472656 152.042969 L 250.992188 154.027344 L 253.515625 156.015625 L 256.035156 158.003906 L 258.554688 159.988281 L 261.074219 161.976562 L 263.597656 163.964844 L 266.117188 165.949219 L 271.15625 169.925781 L 273.675781 171.910156 L 276.199219 173.898438 L 278.71875 175.886719 Z M 281.238281 177.871094 "/>
<path style=" stroke:none;fill-rule:nonzero;fill:rgb(63.137255%,63.137255%,82.352941%);fill-opacity:1;" d="M 276.75 192.683594 L 274.0625 194.566406 L 271.273438 196.289062 L 268.386719 197.84375 L 265.414062 199.226562 L 262.828125 193.210938 L 261.535156 190.199219 L 260.242188 187.191406 L 258.949219 184.179688 L 256.363281 178.164062 L 255.070312 175.152344 L 253.777344 172.144531 L 252.484375 169.132812 L 251.191406 166.125 L 249.898438 163.113281 L 247.3125 157.097656 L 246.019531 154.085938 L 244.726562 151.078125 L 243.433594 148.066406 L 245.390625 150.691406 L 249.3125 155.941406 L 251.269531 158.566406 L 255.191406 163.816406 L 257.152344 166.4375 L 259.109375 169.0625 L 263.03125 174.3125 L 264.988281 176.9375 L 268.910156 182.1875 L 270.867188 184.808594 Z M 276.75 192.683594 "/>
<path style=" stroke:none;fill-rule:nonzero;fill:rgb(63.137255%,60.392157%,79.607843%);fill-opacity:1;" d="M 262.5625 196.015625 L 258.742188 197.367188 L 254.824219 198.417969 L 250.839844 199.15625 L 250.375 195.960938 L 249.914062 192.769531 L 249.449219 189.578125 L 248.988281 186.382812 L 248.523438 183.191406 L 248.0625 179.996094 L 247.597656 176.804688 L 247.136719 173.613281 L 246.671875 170.417969 L 246.210938 167.226562 L 245.746094 164.03125 L 245.285156 160.839844 L 244.820312 157.648438 L 244.359375 154.453125 L 243.894531 151.261719 L 243.433594 148.066406 L 244.628906 151.066406 L 251.800781 169.042969 L 252.996094 172.042969 L 258.972656 187.023438 L 260.171875 190.023438 Z M 262.5625 196.015625 "/>
</g>
</svg>
